<?xml version="1.0" encoding="UTF-8"?>
<svg id="Layer_1" data-name="Layer 1" xmlns="http://www.w3.org/2000/svg" xmlns:xlink="http://www.w3.org/1999/xlink" viewBox="0 0 500 500">
  <defs>
    <style>
      .cls-1 {
        fill: url(#linear-gradient-2);
      }

      .cls-2 {
        opacity: .7;
      }

      .cls-3 {
        fill: #fff;
      }

      .cls-4 {
        fill: #575757;
      }

      .cls-5 {
        opacity: .5;
      }

      .cls-6 {
        fill: #989898;
      }

      .cls-7 {
        opacity: .2;
      }

      .cls-8 {
        fill: #e0e0e0;
      }

      .cls-9 {
        opacity: .35;
      }

      .cls-10 {
        fill: #a4a4a4;
      }

      .cls-11 {
        fill: #707070;
      }

      .cls-12 {
        fill: #505050;
      }

      .cls-13 {
        fill: #767676;
      }

      .cls-14 {
        opacity: .3;
      }

      .cls-15 {
        fill: #494949;
      }

      .cls-16 {
        fill: #353535;
      }

      .cls-17 {
        fill: #030b2f;
      }

      .cls-18 {
        fill: #ababab;
      }

      .cls-19 {
        fill: #292929;
      }

      .cls-20 {
        fill: url(#linear-gradient-3);
      }

      .cls-21 {
        fill: url(#linear-gradient);
      }

      .cls-22 {
        fill: #919191;
      }

      .cls-23 {
        fill: #d0d0d0;
      }

      .cls-24 {
        fill: url(#linear-gradient-4);
      }
    </style>
    <linearGradient id="linear-gradient" x1="208.39" y1="364.12" x2="110.51" y2="433.42" gradientUnits="userSpaceOnUse">
      <stop offset="0" stop-color="#6a6a6a"/>
      <stop offset="1" stop-color="#919191"/>
    </linearGradient>
    <linearGradient id="linear-gradient-2" x1="125.68" y1="386.15" x2="110.38" y2="406.65" xlink:href="#linear-gradient"/>
    <linearGradient id="linear-gradient-3" x1="115.16" y1="433.56" x2="104.19" y2="442.94" xlink:href="#linear-gradient"/>
    <linearGradient id="linear-gradient-4" x1="82.86" y1="455.29" x2="71.88" y2="465.11" xlink:href="#linear-gradient"/>
  </defs>
  <g>
    <path class="cls-21" d="M119.34,429.99s10.91-23.21,12.74-37.82,4.03-19.94,7.85-24.69c0,0-6.86,1.62-8.49,1.09,0,0,6.16-11.04,9.79-18.12,6.9-13.48,18.77-34.74,58.41-33.38l50.6,70.57s-5.32,30.09-39.38,43.87c-31.21,12.63-75.65-5.14-91.51-1.53Z"/>
    <path class="cls-16" d="M183.56,437.96c-12.76,0-25.72-2.12-37.11-3.98-11.35-1.86-21.14-3.46-26.69-2.2-.69,.16-1.4-.09-1.84-.64-.44-.55-.53-1.3-.23-1.94,.11-.23,10.81-23.11,12.58-37.27,1.45-11.59,3.14-17.46,5.58-21.76-2,.32-3.95,.48-4.97,.15-.52-.17-.94-.57-1.15-1.08-.2-.51-.16-1.09,.11-1.57,.06-.11,6.19-11.09,9.76-18.06,6.41-12.51,18.34-35.8,60.11-34.38,.57,.02,1.1,.3,1.43,.77l50.6,70.57c.29,.4,.4,.9,.32,1.39-.22,1.27-5.9,31.25-40.51,45.25-8.68,3.51-18.28,4.74-27.99,4.74Zm-58.93-10.31c5.99,0,13.77,1.27,22.42,2.69,19.6,3.21,44,7.2,63.13-.54,29.74-12.03,37-37.15,38.1-41.75l-49.6-69.17c-38.71-.99-49.81,20.71-55.8,32.4-2.48,4.84-6.17,11.58-8.25,15.34,1.47-.22,3.29-.57,4.89-.95,.77-.18,1.56,.14,1.98,.81,.42,.67,.37,1.52-.12,2.14-3.52,4.38-5.64,9.25-7.45,23.76-1.46,11.73-8.48,28.49-11.51,35.33,.71-.04,1.46-.07,2.23-.07Z"/>
    <path class="cls-18" d="M197.56,331.64s-12.8-.95-23.96,5.95c-9.53,5.89-12.31,12.49-13.1,18.35-.79,5.87-.93,12.89-6.05,16.84,0,0,4.06,1.1,6.73-.2,0,0-8.46,13.28-3.31,28.86,0,0,5.29,.35,9.7,1.47,4.41,1.12,18.98,2.04,22.92,2.11,0,0-5.25,4.12-5.49,5.9,0,0,6.43-.64,11.68,.81,5.25,1.45,31.8,1.81,36.17-22.86,4.38-24.67-35.28-57.23-35.28-57.23Z"/>
    <path class="cls-1" d="M129.26,378.03s-1.56,3.64-1.84,8.38c-.28,4.75-1.96,12.1-9.29,16.7-7.34,4.59-10.16,3.74-10.16,3.74,0,0,5.95-3.92,7.54-10.38,1.59-6.46,4.17-16,13.75-18.44Z"/>
    <path class="cls-16" d="M108.6,408.74c-.62,0-1-.09-1.17-.14-.68-.21-1.18-.79-1.29-1.5s.21-1.41,.81-1.8c.05-.03,5.37-3.63,6.76-9.29,1.46-5.95,4.18-17.01,15.09-19.78,.68-.17,1.4,.06,1.85,.59,.45,.53,.57,1.28,.29,1.92-.02,.05-1.44,3.44-1.69,7.77-.32,5.58-2.35,13.26-10.16,18.15-5.55,3.47-8.87,4.08-10.5,4.08Zm17.75-27.6c-5.5,3.12-7.57,9.67-9.07,15.76-.6,2.46-1.76,4.57-3.02,6.29,.86-.44,1.81-.98,2.88-1.65,6.47-4.05,8.16-10.53,8.43-15.24,.11-1.95,.43-3.71,.77-5.16Z"/>
    <path class="cls-20" d="M115.62,423.3s-11.26,6.4-14.18,15.11c-2.92,8.71-2.9,10.97-6.23,12.49,0,0,7.87,.24,13.6-4.54,5.73-4.78,10.07-10.3,16.32-10.63,0,0-7.98-1.89-13.97,.29,0,0,.64-6.38,4.45-12.73Z"/>
    <path class="cls-16" d="M95.43,452.74c-.15,0-.24,0-.27,0-.85-.03-1.58-.64-1.75-1.48-.17-.84,.26-1.68,1.04-2.04,1.85-.84,2.2-1.81,3.77-6.81,.41-1.31,.88-2.8,1.48-4.59,3.1-9.27,14.53-15.85,15.01-16.13,.73-.41,1.64-.29,2.23,.31,.58,.6,.69,1.52,.26,2.23-2.07,3.45-3.16,6.95-3.7,9.27,5.75-1.03,11.77,.36,12.06,.43,.89,.21,1.49,1.04,1.41,1.96-.08,.91-.82,1.62-1.74,1.67-4.18,.22-7.56,3.31-11.48,6.88-1.2,1.09-2.44,2.22-3.76,3.33-5.65,4.71-13.03,4.97-14.56,4.97Zm15.6-23.93c-3.05,2.54-6.48,6.12-7.84,10.18-.59,1.75-1.05,3.22-1.45,4.52-.65,2.08-1.16,3.7-1.76,5,2.37-.53,5.25-1.55,7.66-3.56,1.26-1.05,2.47-2.15,3.64-3.22,1.95-1.78,3.86-3.52,5.88-4.9-1.79,.06-3.67,.31-5.35,.93-.6,.22-1.26,.11-1.76-.28-.5-.39-.77-1.01-.7-1.64,.02-.18,.33-3.13,1.69-7.03Z"/>
    <path class="cls-10" d="M226.87,395.57s-2.06-4.6,.05-8.63c2.11-4.04,6.81-1.14,6.81-1.14l5.72,4.25-.86,4.55-11.72,.97Z"/>
    <path class="cls-10" d="M184.63,336.67s3.69,3.42,8.19,2.72c4.5-.7,3.27-6.08,3.27-6.08l-2.19-6.78-4.59-.64-4.68,10.79Z"/>
    <path class="cls-16" d="M226.87,397.41c-.72,0-1.38-.42-1.68-1.09-.1-.22-2.39-5.47,.1-10.24,.79-1.51,1.99-2.52,3.47-2.93,2.81-.77,5.62,.88,5.93,1.07,.05,.03,.09,.06,.13,.09l5.72,4.25c.57,.42,.84,1.13,.71,1.82l-.86,4.55c-.15,.81-.83,1.42-1.66,1.49l-11.72,.97c-.05,0-.1,0-.15,0Zm3.45-10.78c-.21,0-.41,.02-.59,.08-.31,.09-.76,.29-1.18,1.08-1.09,2.08-.76,4.44-.39,5.83l8.88-.73,.39-2.05-4.72-3.51c-.41-.23-1.45-.7-2.39-.7Z"/>
    <path class="cls-4" d="M245.71,250.76l-37.6-26.14s-12.97-6.22-19.64,.3c-6.67,6.53-29.51,40.65-29.51,40.65,0,0,20.05-12.46,35.53-13.93,15.48-1.47,35.24,18.45,35.24,18.45"/>
    <path class="cls-16" d="M229.73,271.93c-.47,0-.95-.18-1.31-.54-.19-.19-19.33-19.29-33.76-17.91-14.87,1.41-34.54,13.54-34.73,13.66-.74,.46-1.69,.34-2.3-.28-.6-.62-.69-1.58-.21-2.3,.94-1.4,23.02-34.36,29.75-40.94,7.51-7.34,21.15-.92,21.72-.65,.09,.04,.17,.09,.25,.15l37.6,26.14c.83,.58,1.04,1.73,.46,2.56-.58,.83-1.73,1.04-2.56,.46l-37.47-26.05c-1.27-.57-12.08-5.22-17.44,.02-4.7,4.6-17.93,23.68-24.88,33.87,7.33-3.86,19.23-9.33,29.44-10.3,16.18-1.54,35.89,18.14,36.73,18.98,.72,.72,.71,1.89-.01,2.6-.36,.36-.83,.53-1.3,.53Z"/>
    <path class="cls-11" d="M237.42,257.55l-40.87-34.15s-5.15-1.18-10.59,3.18c-5.78,4.64-22.06,21.97-25.39,30.25-.92,2.28-1.62,8.74-1.62,8.74,0,0,10.1-8.67,16.66-13.51,6.56-4.84,9.73-6.65,11.18-3.68,1.53,3.12,19.65,49.91,19.82,54.88,.17,4.96,30.8-45.71,30.8-45.71Z"/>
    <path class="cls-12" d="M237.42,257.55s-16.94,28.02-25.68,40.35c-3.02,4.25-5.07,6.64-5.11,5.37-.17-4.96-18.3-51.76-19.83-54.88-1.45-2.98-4.62-1.16-11.18,3.68-6.57,4.84-16.67,13.51-16.67,13.51,0,0,.71-6.47,1.62-8.74,3.34-8.28,19.62-25.61,25.4-30.24,5.43-4.36,10.58-3.18,10.58-3.18l2.2,1.83,38.67,32.31Z"/>
    <g class="cls-2">
      <path class="cls-3" d="M237.42,257.55s-.34,.56-.95,1.56l-36.39-30.41-2.2-1.83s-5.15-1.18-10.58,3.18c-5.78,4.64-22.06,21.97-25.4,30.24-.32,.8-.62,2.14-.87,3.51-1.28,1.09-2.08,1.77-2.08,1.77,0,0,.71-6.47,1.62-8.74,3.34-8.28,19.62-25.61,25.4-30.24,5.43-4.36,10.58-3.18,10.58-3.18l2.2,1.83,38.67,32.31Z"/>
    </g>
    <g class="cls-7">
      <path class="cls-16" d="M237.42,257.55s-16.94,28.02-25.68,40.35c-6.72-15.1-18.02-44.65-12.98-72.66l38.67,32.31Z"/>
    </g>
    <path class="cls-16" d="M206.98,305.49c-.23,0-.44-.05-.65-.11-.68-.18-1.5-.82-1.54-2.05-.15-4.28-17.55-49.87-19.64-54.13-.11-.22-.23-.39-.3-.4-1.27-.31-6.08,3.24-8.14,4.75-6.43,4.74-16.46,13.34-16.56,13.42-.57,.49-1.39,.58-2.06,.23-.67-.35-1.05-1.08-.97-1.83,.07-.69,.76-6.79,1.74-9.23,3.5-8.67,20.01-26.23,25.95-30.99,6.06-4.87,11.9-3.6,12.15-3.54,.28,.06,.55,.2,.77,.38l40.87,34.15c.7,.58,.87,1.59,.39,2.37-.07,.12-7.15,11.82-14.43,23.3-13.45,21.2-16.03,23.69-17.59,23.69Zm-22.26-60.39c.35,0,.68,.04,1,.12,1.19,.29,2.11,1.08,2.73,2.36,1.12,2.28,16.06,40.53,19.37,52.55,4.67-5.93,16.59-24.66,27.21-42.18l-39.26-32.81c-1.16-.13-4.77-.22-8.64,2.88-5.55,4.46-21.61,21.49-24.84,29.5-.3,.74-.59,2.1-.84,3.53,3.57-2.99,9.01-7.47,13.08-10.47,4.97-3.67,7.87-5.48,10.2-5.48Z"/>
    <g>
      <path class="cls-3" d="M253.44,134.84l-1.87,11.03-.95,5.62-16.42,96.9s-6.4-1.52-14.82-4.27c-1.65-.54-3.37-1.12-5.14-1.75-13.19-4.67-28.84-11.82-33.34-20.48-6.72-12.96,4.31-65.11,17.6-83.52,6.09-8.44,26.41-7.62,40.55-5.88,1.58,.19,3.09,.4,4.48,.61,5.89,.87,9.91,1.74,9.91,1.74Z"/>
      <path class="cls-23" d="M251.57,145.87l-.95,5.62-13.04,76.94-3.38,19.96s-.13-.03-.39-.09c-.07-.02-.16-.04-.25-.06-.07-.02-.15-.04-.23-.06-.06-.01-.12-.03-.19-.04-.02,0-.05-.01-.08-.02-.11-.03-.24-.06-.38-.1-.03,0-.06-.01-.09-.02-.11-.03-.22-.06-.35-.09-.17-.04-.34-.09-.52-.14-.13-.04-.27-.07-.41-.11-.14-.04-.29-.08-.43-.12-.19-.05-.38-.1-.58-.15-.4-.11-.83-.23-1.29-.36-.4-.11-.82-.23-1.26-.35-.5-.14-1.03-.29-1.58-.45-2.02-.59-4.33-1.29-6.81-2.1-.48-.16-.97-.32-1.47-.48-.35-.11-.7-.24-1.05-.36-.86-.29-1.73-.59-2.62-.91-13.19-4.67-28.84-11.82-33.33-20.48-5.54-10.67,.96-47.92,10.85-71.01-5.79,20.8-8.46,43.92-4.29,51.97,2.06,3.98,15.93-5.14,17.23-11.94,3.35-17.53,11.02-39.32,29.66-49.03,.48-.25,9.4,3.06,17.21,3.99Z"/>
      <path class="cls-16" d="M236.19,251.38l-2.55-.61c-1.89-.45-46.32-11.18-54.91-27.76-5.05-9.73-.45-34.11,1.07-41.35,3.97-18.81,10.37-35.95,16.71-44.73,10.29-14.25,52.66-5.53,57.46-4.49l2.29,.5-20.07,118.44Zm-13.92-117.59c-9.71,0-18.5,1.46-21.78,6.01-12.6,17.45-23.66,68.9-17.41,80.95,5.88,11.35,35.38,21.04,49.15,24.61l18.4-108.6c-6.96-1.36-18.17-2.97-28.36-2.97Z"/>
      <path class="cls-3" d="M186.15,181.76l18.12,5.58c1.62,.5,2.7,2.05,2.64,3.77-.24,6.32-1.53,20.88-8.32,24.25-5.64,2.8-13.33,.58-17.04-4.4-4.15-5.57-1.65-19.57-.08-26.43,.49-2.13,2.63-3.4,4.68-2.77Z"/>
      <path class="cls-23" d="M206.9,191.11c-.23,6.32-1.53,20.88-8.32,24.24-5.64,2.8-13.33,.58-17.04-4.4-2.55-3.43-2.59-10.04-1.87-16.22,.18,3.21,.95,5.96,2.22,7.93,7.29,11.32,16.57,2.02,16.57,2.02,0,0,.63,2.91,1.56,3.28,3.87,1.53,5.82-11.48,6.67-18.24,.15,.44,.23,.91,.21,1.4Z"/>
      <path class="cls-16" d="M193.13,219.03c-5.13,0-10.41-2.4-13.55-6.61-4.43-5.95-2.72-18.75-.5-28.44,.39-1.69,1.46-3.16,2.95-4.02,1.46-.85,3.23-1.05,4.85-.55l18.12,5.58c2.68,.82,4.48,3.38,4.37,6.21-.31,8.2-1.98,22.53-9.68,26.35-2.02,1-4.27,1.47-6.55,1.47Zm-8.05-34.98c-.27,0-.48,.09-.6,.16-.18,.11-.51,.36-.62,.86-2.73,11.92-2.86,21.05-.34,24.42,3.13,4.2,9.53,5.88,13.98,3.67,3.85-1.91,6.52-10.39,6.96-22.14,.02-.61-.35-1.16-.91-1.33l-18.12-5.58c-.12-.04-.24-.05-.35-.05Z"/>
      <path class="cls-16" d="M188.34,213.84c5.81-1.8,8.77-8.11,10.24-13.65,.54-2.03,1.08-4.19,1.09-6.29-.01-.79,1.17-.9,1.29-.1,.26,2.32-.03,4.55-.36,6.82-.7,4.59-2,9.14-5.04,12.82-1.61,1.96-3.69,3.74-6.14,4.59-2.78,.64-3.83-3.42-1.07-4.2h0Z"/>
      <path class="cls-16" d="M226.25,144.41c-8.67-2.35-17.73-4.79-26.73-4.83-3.24,0-3.39-4.72-.14-4.91,7.33,.49,14.18,2.72,21.07,4.96,2.22,.76,4.42,1.54,6.62,2.39,.65,.25,.98,.98,.73,1.64-.24,.62-.92,.95-1.55,.76h0Z"/>
    </g>
    <path class="cls-23" d="M151.65,100.78c.65-1.64,1.45-2.44,1.45-2.44,0,0-.5,1.06-1.45,2.44Z"/>
    <path class="cls-3" d="M255.52,151.93s-58.15-56.18-98.99-66.34c-10.6-2.64-23.55-6.63-24.08,4.3-5.22,4.05-8.81,14.66-5.82,21,2.35,4.99,9.34,6.92,16.61,11.74s57.82,36.64,81.41,72.18"/>
    <path class="cls-3" d="M255.52,151.93l-25.5,35.4-5.37,7.46c-.19-.28-.37-.55-.57-.83-23.81-35.2-73.63-66.56-80.84-71.34-7.28-4.82-14.26-6.75-16.61-11.74-2.26-4.81-.74-12.07,2.39-17.06,1-1.59,2.17-2.95,3.43-3.93,.53-10.93,13.48-6.94,24.09-4.3,40.84,10.16,98.98,66.34,98.98,66.34Z"/>
    <path class="cls-8" d="M251.39,148.46l-9.58,13.3c-12.47-9.5-20.64-23.81-21.29-39.91,17.81,14,30.88,26.61,30.88,26.61Z"/>
    <path class="cls-8" d="M308.97,165.41c-8.93,5.34-19.52,8.42-30.88,8.42-.91,0-1.82-.02-2.72-.06l.55-30.7s15.88,8.6,33.05,22.33Z"/>
    <path class="cls-23" d="M291.74,172.3c-4.37,1.01-8.95,1.53-13.65,1.53-22.02,0-41.14-11.58-50.84-28.62,10.61-7.8,26.91-15.11,44.93-6.49,24.67,11.81,21.88,27.43,19.56,33.58Z"/>
    <path class="cls-23" d="M240.62,174.95l-15.98,19.85c-.19-.28-.37-.55-.57-.83-23.81-35.2-73.63-66.56-80.84-71.34-7.28-4.82-14.26-6.75-16.61-11.74-2.26-4.81-.74-12.07,2.39-17.06,2.91,5.28,6.29,11.82,9.86,12.89,6.25,1.88,10.66-2.84,12.78-5.94-1.89,4.82-.77,16.25,24.99,36.32,29.94,23.31,47.36,34.37,63.97,37.85Z"/>
    <path class="cls-16" d="M224.65,197.25c-.79,0-1.57-.39-2.05-1.1-10.03-15.11-31.9-39.59-79.09-70.42-.67-.44-1.22-.8-1.63-1.07-2.31-1.53-4.57-2.75-6.76-3.93-4.72-2.54-8.79-4.74-10.71-8.81-3.44-7.3,.23-18.26,5.68-23.26,.35-2.85,1.52-5.02,3.49-6.47,4.98-3.68,13.43-1.54,21.61,.53,.65,.17,1.3,.33,1.94,.49,41.01,10.2,97.71,64.65,100.1,66.96,.97,.94,1,2.5,.06,3.47-.94,.97-2.5,1-3.47,.06-.58-.56-58.15-55.84-97.87-65.72-.65-.16-1.3-.33-1.96-.49-6.41-1.62-14.38-3.64-17.48-1.34-.36,.27-1.46,1.08-1.6,3.87-.03,.72-.38,1.38-.95,1.82-4.34,3.37-7.6,12.71-5.11,18.01,1.23,2.61,4.48,4.36,8.6,6.58,2.18,1.17,4.65,2.5,7.14,4.16,.4,.27,.94,.62,1.6,1.05,47.89,31.28,70.21,56.32,80.49,71.81,.75,1.13,.44,2.65-.69,3.4-.42,.28-.89,.41-1.36,.41Z"/>
    <path class="cls-3" d="M176.65,93.93s-3.91-18.09-12.09-16.85c-5.77,.87-4.39,10.57-4.98,13.29-.36,.87-5.38,2.29-11.1,15.95"/>
    <path class="cls-16" d="M174.25,94.45c-.78-2.8-1.76-5.72-3.02-8.33-1.06-2.21-2.57-4.9-4.56-6.04-4.69-2.29-4.17,6.51-4.48,9.28-.06,.77-.15,2.02-.8,2.69-.25,.3-.5,.49-.72,.67-2.38,1.6-4.23,3.65-5.95,5.98-1.87,2.55-3.49,5.33-5.11,8.09-.35,.59-1.11,.79-1.7,.44-.49-.29-.7-.86-.56-1.39,.44-1.62,1-3.21,1.63-4.79,1.88-4.64,4.66-9.19,8.74-12.23-.27,.23-.44,.68-.53,1.02,.25-3.24-.09-6.29,.9-9.62,1.28-4.97,6.53-7.42,11.13-4.92,1.96,1.07,3.26,2.55,4.32,4.02,2.48,3.57,3.85,7.52,4.97,11.62,.2,.81,.38,1.58,.55,2.46,.26,1.33-.61,2.62-1.94,2.88-1.3,.25-2.55-.57-2.86-1.84h0Z"/>
    <path class="cls-16" d="M179.72,150.54c-.72,0-1.4-.42-1.7-1.12-.4-.94,.04-2.02,.98-2.41,18.29-7.74,25.58-35.68,25.65-35.96,.25-.99,1.25-1.58,2.24-1.33,.99,.25,1.58,1.25,1.33,2.24-.31,1.22-7.79,29.99-27.78,38.45-.23,.1-.48,.15-.72,.15Z"/>
    <path class="cls-3" d="M275.92,143.07s49.73,26.92,68.34,61.65l-29.5,12.42s-17.9-20.3-39.68-26.77"/>
    <path class="cls-3" d="M344.27,204.73l-20.49,8.63-9.01,3.79s-17.9-20.3-39.68-26.77l.29-16.04,.56-31.26s49.74,26.92,68.34,61.65Z"/>
    <path class="cls-8" d="M323.77,213.35l-9.01,3.79s-17.9-20.3-39.68-26.77c0,0,7.56-29.47,15.36-14.29,7.8,15.17,17.67,16.46,33.33,37.27Z"/>
    <path class="cls-8" d="M308.97,165.41c-8.93,5.34-19.52,8.42-30.88,8.42-.91,0-1.82-.02-2.72-.06l.55-30.7s15.88,8.6,33.05,22.33Z"/>
    <path class="cls-16" d="M314.76,218.99c-.52,0-1.02-.22-1.38-.62-.18-.2-17.82-19.98-38.83-26.22-.97-.29-1.53-1.31-1.24-2.29,.29-.97,1.31-1.53,2.29-1.24,19.53,5.8,35.7,22.11,39.64,26.33l26.42-11.12c-18.84-33-66.13-58.87-66.61-59.13-.89-.48-1.23-1.6-.74-2.5,.48-.89,1.6-1.23,2.49-.74,2.05,1.11,50.44,27.58,69.09,62.4,.24,.46,.29,1,.11,1.48s-.54,.88-1.02,1.08l-29.5,12.42c-.23,.1-.47,.14-.71,.14Z"/>
    <path class="cls-16" d="M298.24,204.28c-.25,0-.5-.05-.74-.16-.93-.41-1.35-1.49-.95-2.42,.41-.94,10.25-22.91,28.76-23.47,1.02-.04,1.87,.77,1.9,1.78,.03,1.02-.77,1.86-1.78,1.9-16.17,.49-25.41,21.07-25.5,21.27-.3,.69-.98,1.1-1.69,1.1Z"/>
    <path class="cls-3" d="M214.63,157.04c-5.62,9.02-18.91,35.71-17.65,59.19,.81,15.08,6.83,20.39,17.93,28.3,31.09,22.14,86.84-27.07,86.84-27.07,0,0-8.14-12.1-9.76-21.17-.89-4.98-2.29-9.39-1.46-21.34,0,0,13.06-21.19-18.33-36.22-31.39-15.02-57.55,18.31-57.55,18.31Z"/>
    <path class="cls-3" d="M301.74,217.45s-55.74,49.21-86.84,27.07c-11.11-7.9-17.12-13.21-17.93-28.29-.25-4.73,.09-9.59,.83-14.41,2.96-19.11,12.34-37.58,16.82-44.78,0,0,26.16-33.34,57.55-18.32,31.39,15.03,18.33,36.22,18.33,36.22-.83,11.95,.56,16.36,1.46,21.33,.37,2.09,1.1,4.34,1.98,6.56,2.96,7.44,7.79,14.62,7.79,14.62Z"/>
    <path class="cls-8" d="M301.74,217.45s-55.74,49.21-86.84,27.07c-11.11-7.9-17.12-13.21-17.93-28.29-.25-4.73,.09-9.59,.83-14.41,22.59,10.64,78.47,12.99,96.15,1.02,2.96,7.44,7.79,14.62,7.79,14.62Z"/>
    <path class="cls-8" d="M291.74,172.3c-4.37,1.01-8.95,1.53-13.65,1.53-22.02,0-41.14-11.58-50.84-28.62,10.61-7.8,26.91-15.11,44.93-6.49,24.67,11.81,21.88,27.43,19.56,33.58Z"/>
    <path class="cls-16" d="M215.67,157.68c-9.28,17.22-20.65,48.83-14.61,67.97,2.34,7.46,8.69,12.17,14.93,16.63,3.07,2.21,6.45,3.79,10.12,4.63,24.31,5.32,55.99-16.22,74-31.3,0,0-.41,3.21-.41,3.21-3.34-4.8-6.11-9.84-8.17-15.31-1.44-3.59-1.97-7.59-2.53-11.4-.84-5.7-.51-11.62,.29-17.25,.2-1.46,2.42-1.36,2.45,.16,.04,3.72,.14,7.41,.57,11.01,.43,3.57,1.33,7.24,2.15,10.71,1.92,6.74,5.75,13.31,9.34,19.38,.69,1.03,.48,2.39-.43,3.18-6.3,5.4-12.85,10.21-19.76,14.75-16.54,10.57-38.41,22.06-58.62,17.65-4.24-.96-8.35-2.88-11.85-5.41-6.81-4.75-14.2-10.67-16.73-19.07-2.02-6.29-2.18-12.6-1.78-19,.61-10.39,3.49-20.5,7.47-30.05,3.16-7.59,6.89-14.94,11.5-21.76,.91-1.25,2.81-.07,2.08,1.3h0Z"/>
    <g>
      <rect class="cls-3" x="241.84" y="179.06" width="38.08" height="54.25" rx="5.29" ry="5.29" transform="translate(45.99 459.94) rotate(-88.06)"/>
      <path class="cls-8" d="M233.6,210.21l-.33,9.67c-.08,2.43,1.84,4.48,4.27,4.57l45.39,1.54c2.43,.08,4.48-1.84,4.56-4.27l.99-29.23c.08-2.43-1.84-4.48-4.26-4.57l-5.55-.19-.66,19.56c-.08,2.43-2.13,4.35-4.57,4.27l-39.84-1.35Z"/>
      <path class="cls-16" d="M282.24,228.41c-.09,0-.18,0-.27,0l-43.64-1.48c-2.06-.07-3.98-.94-5.39-2.46-1.42-1.51-2.16-3.48-2.09-5.55l.93-27.48c.07-2.06,.94-3.98,2.46-5.39,1.51-1.42,3.49-2.16,5.55-2.09l43.64,1.48c4.27,.14,7.62,3.74,7.48,8l-.93,27.48c-.14,4.18-3.59,7.48-7.74,7.48Zm-42.71-39.54c-1.52,0-2.78,1.21-2.83,2.74l-.93,27.48c-.03,.75,.25,1.47,.77,2.03,.52,.56,1.22,.88,1.97,.9h0l43.64,1.48c1.55,.06,2.88-1.18,2.93-2.74l.93-27.48c.05-1.56-1.18-2.88-2.74-2.93l-43.64-1.48s-.06,0-.1,0Z"/>
      <rect class="cls-3" x="249.21" y="181.94" width="38.08" height="49.02" rx="3.68" ry="3.68" transform="translate(52.85 467.57) rotate(-88.06)"/>
      <rect class="cls-3" x="249.21" y="181.94" width="38.08" height="49.02" rx="4.03" ry="4.03" transform="translate(52.85 467.57) rotate(-88.06)"/>
      <path class="cls-8" d="M292.5,214.57l-.26,7.71c-.08,2.23-1.94,3.97-4.16,3.89l-40.54-1.37c-2.43-.08-4.35-2.13-4.27-4.57l.42-12.26s.01,.02,.02,.03c4.92,7.59,7.13-2.15,7.13-2.15l12.86,.44s.01,11.31,12.24,12.45c7.16,.67,12.8-1.72,16.57-4.16Z"/>
      <path class="cls-16" d="M288.55,228.64c-.07,0-.14,0-.21,0l-41.63-1.41c-1.64-.06-3.16-.75-4.28-1.94-1.12-1.2-1.71-2.76-1.65-4.4l1.04-30.7c.11-3.38,2.96-6.04,6.34-5.92l41.63,1.41c3.38,.11,6.04,2.96,5.92,6.34l-1.04,30.7c-.06,1.64-.75,3.16-1.94,4.28-1.15,1.07-2.62,1.65-4.18,1.65Zm-40.6-39.47c-.66,0-1.2,.52-1.23,1.19l-1.04,30.7c-.02,.44,.2,.74,.33,.88,.13,.14,.41,.37,.85,.39h0l41.63,1.41c.43,.02,.74-.2,.88-.33,.14-.13,.37-.41,.39-.86l1.04-30.7c.02-.68-.51-1.25-1.18-1.27l-41.63-1.41s-.03,0-.04,0Z"/>
      <g>
        <path class="cls-3" d="M285.94,188l-.37,10.95c-.1,2.91-1.55,5.6-3.91,7.29h0c-2.37,1.69-3.82,4.38-3.91,7.29l-.42,12.28"/>
        <path class="cls-16" d="M277.32,227.65s-.04,0-.06,0c-1.02-.03-1.81-.89-1.78-1.9l.42-12.28c.12-3.46,1.87-6.72,4.69-8.73,1.89-1.35,3.06-3.54,3.14-5.85l.37-10.95c.03-1.02,.86-1.81,1.9-1.78,1.02,.03,1.81,.89,1.78,1.9l-.37,10.95c-.12,3.46-1.87,6.72-4.69,8.73-1.89,1.35-3.06,3.53-3.14,5.85l-.42,12.28c-.03,.99-.85,1.78-1.84,1.78Z"/>
      </g>
      <g>
        <path class="cls-22" d="M250.83,205.86c-.13,3.77,2.25,6.91,5.31,7.01l5.17,.18,.46-13.65-5.17-.18c-3.06-.1-5.64,2.87-5.77,6.64Z"/>
        <g class="cls-2">
          <path class="cls-3" d="M251.25,203.49c1.06-1.31,2.53-2.1,4.14-2.05l5.17,.17-.39,11.39,1.13,.04,.46-13.65-5.17-.18c-2.38-.08-4.47,1.7-5.34,4.27Z"/>
        </g>
        <path class="cls-13" d="M250.83,205.86c-.13,3.77,2.25,6.91,5.31,7.01l5.17,.18,.46-13.65-2.78-.09-.23,6.69-5.17-.17c-.98-.03-1.9-.38-2.68-.96-.05,.33-.08,.66-.09,1Z"/>
        <path class="cls-16" d="M261.31,214.89s-.04,0-.06,0l-5.17-.17c-2.05-.07-3.91-1.08-5.26-2.86-1.26-1.66-1.91-3.81-1.83-6.05,.08-2.24,.87-4.34,2.24-5.91,1.46-1.68,3.39-2.57,5.44-2.5l5.17,.18c1.02,.03,1.81,.89,1.78,1.9l-.46,13.65c-.03,.99-.85,1.78-1.84,1.78Zm-4.86-13.82c-.88,0-1.75,.44-2.44,1.24-.81,.94-1.29,2.22-1.33,3.62h0c-.05,1.4,.34,2.72,1.09,3.71,.66,.87,1.53,1.37,2.45,1.4l3.33,.11,.34-9.97-3.33-.11s-.06,0-.09,0Zm-5.62,4.8h0Z"/>
        <ellipse class="cls-22" cx="261.54" cy="206.22" rx="6.83" ry="5.54" transform="translate(46.59 460.64) rotate(-88.06)"/>
        <g class="cls-2">
          <path class="cls-3" d="M256,206.04c-.01,.41,0,.81,.05,1.21,.57-3.17,2.91-5.52,5.64-5.43,2.72,.09,4.9,2.59,5.25,5.8,.07-.39,.11-.8,.13-1.2,.13-3.77-2.25-6.9-5.3-7.01-3.06-.1-5.64,2.87-5.77,6.63Z"/>
        </g>
        <path class="cls-13" d="M256,206.04c-.13,3.77,2.25,6.91,5.31,7.01,3.05,.1,5.63-2.87,5.76-6.64,0-.23,0-.46,0-.68-.98,2.19-2.9,3.64-5.05,3.57-2.88-.1-5.14-2.87-5.3-6.33-.42,.91-.67,1.95-.71,3.07Z"/>
        <path class="cls-16" d="M261.47,214.89c-.07,0-.15,0-.22,0-2.04-.07-3.91-1.08-5.25-2.86-1.26-1.66-1.91-3.81-1.83-6.05h0c.08-2.24,.87-4.34,2.23-5.92,1.46-1.68,3.39-2.57,5.43-2.5,2.04,.07,3.91,1.08,5.25,2.86,1.26,1.66,1.91,3.81,1.83,6.05-.08,2.24-.87,4.34-2.23,5.92-1.41,1.62-3.25,2.5-5.21,2.5Zm-3.62-8.79h0c-.05,1.4,.34,2.72,1.09,3.71,.66,.87,1.53,1.37,2.44,1.4,.92,.03,1.81-.41,2.53-1.23,.81-.94,1.29-2.22,1.33-3.63,.05-1.4-.34-2.72-1.09-3.71-.66-.87-1.53-1.37-2.44-1.4-.92-.04-1.81,.41-2.53,1.23-.81,.94-1.29,2.22-1.33,3.62Z"/>
      </g>
    </g>
    <path class="cls-24" d="M85.21,454.64s-1.1,5.3-6.75,8.86c-4.07,2.56-8.06,7.07-8.06,7.07,0,0-.52-17.2,14.81-15.93Z"/>
    <path class="cls-16" d="M70.4,472.41c-.21,0-.42-.04-.63-.11-.71-.26-1.19-.92-1.21-1.67-.01-.37-.21-9.1,5.23-14.26,2.91-2.76,6.8-3.95,11.57-3.56,.53,.04,1.01,.31,1.32,.73,.32,.42,.43,.96,.33,1.48-.05,.25-1.34,6.11-7.58,10.04-3.79,2.39-7.62,6.69-7.66,6.74-.36,.4-.86,.62-1.38,.62Zm12.16-15.96c-2.53,.19-4.62,1.05-6.22,2.57-1.91,1.81-2.93,4.3-3.48,6.5,1.37-1.23,2.98-2.54,4.62-3.58,2.75-1.73,4.27-3.9,5.08-5.49Z"/>
    <path class="cls-16" d="M191.6,341.33c-4.59,0-8.06-3.16-8.22-3.31-.57-.53-.75-1.37-.44-2.08l4.68-10.79c.33-.76,1.13-1.2,1.94-1.09l4.59,.64c.7,.1,1.28,.59,1.5,1.26l2.19,6.78c.02,.05,.03,.1,.04,.15,.08,.36,.75,3.55-.89,5.96-.86,1.27-2.21,2.09-3.89,2.35-.52,.08-1.02,.12-1.51,.12Zm-4.7-5.25c1.2,.79,3.33,1.86,5.65,1.5,.88-.14,1.22-.5,1.4-.77,.61-.89,.47-2.45,.36-3.02l-1.81-5.59-2.06-.29-3.54,8.17Zm-2.26,.59h0Z"/>
    <path class="cls-23" d="M201.66,318.05s-6.74-2.32-8.71-1.04c-3.27,2.12-8.44,14.42-8.44,14.42,0,0-.06,5,.11,5.24,0,0,6.86-6.72,7.14-6.58-.44,2.16-.18,9.61-.19,10.53,0,0-4.52,5.48-4.79,6.4-.26,.92,.06,10.59,10.51,25.16l24-17.21-19.63-36.93Z"/>
    <g class="cls-2">
      <path class="cls-3" d="M221.29,354.97l-.68,.49-18.01-33.88s-6.74-2.32-8.71-1.04c-3.27,2.12-8.44,14.43-8.44,14.43,0,0,0,.37,0,.91-.5,.48-.82,.79-.82,.79-.17-.24-.12-5.23-.12-5.23,0,0,5.17-12.31,8.44-14.43,1.97-1.28,8.71,1.04,8.71,1.04l19.63,36.93Z"/>
    </g>
    <path class="cls-10" d="M249.97,385.41s.03,7.12-1.81,8.58c-3.06,2.42-16.37,3.36-16.37,3.36,0,0-4.75-1.55-4.92-1.79,0,0,8.57-4.35,8.52-4.65-2.19-.28-9.16-2.92-10.04-3.2,0,0-6.64,2.53-7.59,2.48-.95-.04-10.01-3.46-20.45-18.02l24-17.21,28.68,30.44Z"/>
    <path class="cls-16" d="M197.3,374.02c-.57,0-1.14-.27-1.5-.77-10.89-15.19-11.18-25.36-10.78-26.74,.1-.34,.35-1.23,4.71-6.54,0-.19,0-.42-.01-.68-.03-1.65-.05-3.37-.04-4.93-1.16,1.1-2.5,2.39-3.76,3.62-.38,.38-.91,.56-1.45,.52-.53-.05-1.02-.32-1.34-.76-.38-.53-.53-.73-.46-6.33,0-.24,.05-.47,.14-.69,.9-2.14,5.57-12.94,9.13-15.26,2.46-1.59,8.02,.06,10.31,.84,.44,.15,.81,.46,1.03,.88l19.63,36.93c.43,.81,.2,1.82-.55,2.36l-24,17.21c-.33,.23-.7,.34-1.07,.34Zm-8.73-26.47c-.12,1.87,1.12,10.29,9.16,22.05l21.18-15.18-18.53-34.85c-2.78-.87-5.73-1.34-6.45-1-1.86,1.21-5.5,8.36-7.58,13.25,0,.21,0,.42,0,.63,.16-.15,.32-.3,.48-.46,3.95-3.75,4.46-4.23,5.8-3.53,.72,.38,1.11,1.2,.95,2-.31,1.5-.21,6.6-.17,8.77,.01,.71,.02,1.23,.02,1.43,0,.42-.16,.82-.42,1.14-1.82,2.2-3.94,4.92-4.42,5.75Z"/>
    <path class="cls-16" d="M190.97,326.81c.03-3.08-.59-10.8,3.05-11.97,.98-.26,1.99,.33,2.24,1.32,.26,.98-.33,1.99-1.32,2.24,.24-.08,.3-.2,.28-.2-.83,.87-1.07,2.25-1.44,3.46-.43,1.69-.74,3.48-.98,5.23-.16,1.11-1.79,1.02-1.84-.09h0Z"/>
    <path class="cls-16" d="M193.81,345.06c.93,3.45,2.27,7.36,4.5,10.07,1.63,2.07-1.55,4.36-2.99,2.15-2.19-3.81-2.84-7.73-3.32-11.93-.09-1.14,1.56-1.39,1.82-.29h0Z"/>
    <path class="cls-16" d="M195.43,338.7l6.56-.58c1.02-.09,1.93,.67,2.02,1.69,.13,1.21-1.02,2.24-2.21,1.99,0,0-6.46-1.26-6.46-1.26-1.05-.21-.96-1.75,.1-1.84h0Z"/>
    <path class="cls-16" d="M231.79,399.2c-.19,0-.39-.03-.57-.09-5.33-1.73-5.47-1.93-5.85-2.47-.31-.44-.42-.99-.29-1.51,.13-.52,.48-.96,.96-1.2,1.56-.79,3.22-1.65,4.63-2.4-1.48-.49-3.11-1.07-4.66-1.62-.24-.09-.45-.16-.63-.23-6.43,2.42-7.36,2.38-7.71,2.36-1.43-.07-10.97-3.6-21.86-18.79-.59-.83-.4-1.98,.42-2.57l24-17.21c.75-.54,1.78-.44,2.41,.23l28.68,30.44c.32,.34,.5,.79,.5,1.25,.01,2.41-.21,8.22-2.51,10.03-3.33,2.63-15.06,3.59-17.38,3.75-.04,0-.09,0-.13,0Zm-.38-3.9c.2,.07,.4,.13,.6,.2,5.3-.4,13.24-1.55,15-2.94,.54-.55,1.04-3.5,1.1-6.41l-27.07-28.73-21.18,15.18c8.56,11.4,16.13,15.27,17.94,15.75,.94-.19,4.2-1.33,6.87-2.34,.39-.15,.81-.16,1.21-.03,.2,.06,.68,.24,1.35,.48,2.05,.74,6.84,2.46,8.36,2.65,.81,.1,1.46,.73,1.59,1.54,.24,1.49-.38,1.82-5.2,4.36-.2,.1-.39,.21-.59,.31Z"/>
    <path class="cls-16" d="M238.76,390.96c2.53,.47,5.21,.92,7.75,.78,.49-.06,.9-.06,1.23-.29,0-.02-.13,0-.28,.2,.56-.85,1.7-1.09,2.55-.53,1.58,1.12,.69,3.07-.8,3.58-1.9,.66-3.85,.12-5.66-.27-1.84-.47-3.58-1.05-5.32-1.71-.48-.18-.72-.71-.54-1.19,.16-.43,.62-.67,1.06-.57h0Z"/>
    <path class="cls-16" d="M221.02,385.81c-3.82-1.81-7.33-3.69-10.24-6.98-.66-.78-.57-1.94,.21-2.6,.85-.74,2.21-.51,2.78,.46,.85,1.42,2.15,2.79,3.55,4.04,1.42,1.25,2.99,2.44,4.57,3.47,.94,.62,.15,2.07-.88,1.62h0Z"/>
    <path class="cls-11" d="M326.33,363.2l12.69,44s1.73,14.28-6.59,18.5c-8.32,4.23-47.97,14.91-47.97,14.91,0,0,18.23-14.99,24.6-29.18,6.36-14.19-6.16-39.3-6.16-39.3"/>
    <path class="cls-12" d="M332.44,425.71c-8.32,4.23-47.96,14.91-47.96,14.91,0,0,18.23-14.99,24.59-29.18,2.53-5.65,2.07-13.01,.61-19.84-2.23-10.35-6.77-19.46-6.77-19.46l23.43-8.93,5.23,18.15,7.46,25.85s1.73,14.28-6.59,18.51Z"/>
    <path class="cls-15" d="M329.08,427.15c-12.48,4.81-44.61,13.47-44.61,13.47,0,0,18.23-14.99,24.59-29.18,.52-1.15,.91-2.37,1.19-3.65l18.82,19.36Z"/>
    <g class="cls-7">
      <path class="cls-16" d="M331.56,381.35l-6.15,8.61s-8.05,.87-15.74,1.63c-2.23-10.35-6.77-19.46-6.77-19.46l23.43-8.93,5.23,18.15Z"/>
    </g>
    <path class="cls-16" d="M226.64,384.19l.88-6.52c.14-1.02,1.07-1.73,2.09-1.59,1.21,.14,1.96,1.49,1.45,2.59,0,0-2.65,6.02-2.65,6.02-.43,.98-1.91,.55-1.77-.5h0Z"/>
    <path class="cls-16" d="M284.47,442.45c-.68,0-1.31-.37-1.64-1-.4-.77-.2-1.71,.47-2.26,.18-.15,17.97-14.89,24.08-28.52,5.94-13.24-6.01-37.48-6.13-37.73-.45-.91-.08-2.01,.83-2.47,.91-.45,2.02-.09,2.47,.83,.53,1.06,12.84,26.06,6.2,40.87-4.19,9.36-13.19,18.87-19.2,24.58,11.88-3.31,34.2-9.72,40.06-12.69,6.68-3.39,5.75-15.12,5.61-16.51l-12.65-43.84c-.28-.98,.28-2,1.26-2.28,.98-.28,2,.28,2.28,1.26l12.69,44c.03,.09,.05,.19,.06,.29,.08,.64,1.78,15.61-7.58,20.37-8.4,4.26-46.69,14.61-48.32,15.04-.16,.04-.32,.06-.48,.06Z"/>
    <path class="cls-11" d="M317.25,368.87l19.23,49.66s-.54,5.26-6.41,9c-6.25,3.98-27.88,13.84-36.79,14.35-2.45,.14-8.8-1.27-8.8-1.27,0,0,11.45-6.79,18.14-11.45,6.69-4.66,9.42-7.08,7.07-9.41-2.47-2.45-40.97-34.63-45.61-36.38s53.18-14.5,53.18-14.5Z"/>
    <path class="cls-12" d="M336.48,418.53s-.54,5.26-6.41,9c-6.25,3.99-27.89,13.84-36.8,14.35-2.45,.13-8.8-1.27-8.8-1.27,0,0,11.45-6.79,18.14-11.45,6.69-4.66,9.42-7.07,7.07-9.41-1.2-1.18-10.87-9.37-21.04-17.68-10.81-8.83-22.18-17.8-24.57-18.7-4.64-1.75,53.18-14.51,53.18-14.51l8.17,21.1,11.06,28.57Z"/>
    <g class="cls-7">
      <path class="cls-16" d="M325.42,389.96c-14,5.63-26.96,9.61-36.78,12.11-10.81-8.83-22.18-17.8-24.57-18.7-4.64-1.75,53.18-14.51,53.18-14.51l8.17,21.1Z"/>
    </g>
    <path class="cls-16" d="M292.92,443.73c-2.81,0-8.21-1.18-8.85-1.32-.74-.16-1.3-.76-1.42-1.51-.12-.75,.23-1.49,.88-1.87,.11-.07,11.47-6.8,18.03-11.37,2.09-1.46,7-4.88,7.11-6.18,0-.07-.11-.24-.29-.41-3.37-3.34-40.96-34.46-44.97-35.97-1.15-.43-1.5-1.41-1.45-2.12,.13-1.74,.21-2.9,28.19-9.71,13.21-3.22,26.56-6.16,26.69-6.19,.89-.19,1.78,.29,2.11,1.13l19.23,49.66c.1,.27,.14,.56,.11,.85-.03,.25-.7,6.19-7.25,10.37-6.42,4.09-28.34,14.1-37.68,14.63-.14,0-.29,.01-.45,.01Zm-3.37-4.03c1.44,.23,2.82,.39,3.62,.34,8.62-.49,29.9-10.23,35.91-14.06,4.17-2.66,5.25-6.1,5.5-7.26l-18.48-47.71c-20,4.44-41.56,9.71-48.68,12.24,10.32,6.99,41.75,33.41,43.55,35.2,1.01,1,1.47,2.13,1.36,3.34-.22,2.59-2.86,4.83-8.67,8.89-4.14,2.89-10.14,6.61-14.11,9.03Z"/>
    <g>
      <path class="cls-3" d="M260.93,389.68c-34.4-3.95-47.39-29.15-47.39-29.15,0,0-19.7-20.38-12.41-54.24,7.29-33.85,56.63-81.8,111.19-98.99,6.26-1.97,12.32-3.3,18.17-4.1,9.65-1.34,18.68-1.24,26.91-.27,30.18,3.55,49.6,18.89,49.6,18.89,0,0,8.3,23.3,1.98,53.03-1.72,8.1-4.54,16.69-8.9,25.42-2.63,5.27-5.84,10.59-9.71,15.88-33.78,46.16-95.03,77.51-129.43,73.55Z"/>
      <path class="cls-16" d="M267.05,392.48c-2.22,0-4.36-.12-6.41-.35h0c-33.6-3.86-47.39-27-49.12-30.15-2.42-2.64-19.92-23.13-12.8-56.2,3.7-17.17,17.77-37.96,38.61-57.04,21.9-20.05,48.27-35.6,74.24-43.78,6.11-1.93,12.36-3.34,18.57-4.2,9.11-1.26,18.37-1.35,27.53-.28,30.52,3.59,50.02,18.75,50.83,19.4,.36,.29,.64,.67,.79,1.1,.35,.98,8.45,24.3,2.06,54.36-1.91,9-4.98,17.75-9.11,26-2.79,5.57-6.12,11.03-9.92,16.23-16.08,21.98-39.26,41.96-65.28,56.27-21.85,12.02-43.28,18.62-60.01,18.62Zm77.94-187.82c-4.74,0-9.48,.33-14.17,.98-5.93,.82-11.91,2.17-17.76,4.01-25.3,7.97-51.02,23.14-72.4,42.72-20.11,18.4-33.64,38.25-37.13,54.45-6.91,32.08,11.59,51.82,11.78,52.02,.16,.17,.31,.37,.41,.58,.12,.24,12.88,24.09,45.48,27.84h0c16.46,1.89,39.6-4.55,63.49-17.69,25.4-13.97,48.02-33.46,63.69-54.87,3.64-4.97,6.83-10.2,9.5-15.52,3.94-7.88,6.87-16.23,8.7-24.83,5.5-25.88-.42-47.02-1.67-51.02-3.38-2.46-21.51-14.86-47.79-17.95-4.02-.47-8.07-.71-12.11-.71Z"/>
    </g>
    <path class="cls-3" d="M260.93,389.68c-34.4-3.95-47.39-29.15-47.39-29.15,0,0-19.7-20.38-12.41-54.24,7.29-33.85,56.63-81.8,111.19-98.99,6.26-1.97,12.32-3.3,18.17-4.1,9.65-1.34,18.68-1.24,26.91-.27,30.18,3.55,49.6,18.89,49.6,18.89,0,0,8.3,23.3,1.98,53.03-1.72,8.1-4.54,16.69-8.9,25.42-2.63,5.27-5.84,10.59-9.71,15.88-33.78,46.16-95.03,77.51-129.43,73.55Z"/>
    <path class="cls-3" d="M408.97,274.84c-1.72,8.11-4.53,16.69-8.9,25.41-2.63,5.27-5.84,10.58-9.71,15.87-33.78,46.17-95.03,77.51-129.43,73.56-18-2.07-30.13-9.95-37.61-17-6.82-6.42-9.77-12.15-9.77-12.15,0,0-19.7-20.38-12.41-54.24,7.3-33.85,56.63-81.8,111.19-98.99,6.26-1.97,12.33-3.29,18.16-4.1,9.66-1.34,18.68-1.24,26.91-.27,30.18,3.55,49.6,18.89,49.6,18.89,0,0,3.03,8.5,4.03,21.8,.66,8.7,.45,19.46-2.06,31.23Z"/>
    <path class="cls-3" d="M408.97,274.84c-1.72,8.11-4.53,16.69-8.9,25.41-2.63,5.27-5.84,10.58-9.71,15.87-33.78,46.17-95.03,77.51-129.43,73.56-18-2.07-30.13-9.95-37.61-17-6.82-6.42-9.77-12.15-9.77-12.15,0,0-19.7-20.38-12.41-54.24,2.24-10.37,8.42-22.06,17.49-33.8,10.93-14.14,26.07-28.32,43.54-40.29,15.33-10.52,32.48-19.32,50.17-24.9,6.26-1.97,12.33-3.29,18.16-4.1,9.66-1.34,18.68-1.24,26.91-.27,30.18,3.55,49.6,18.89,49.6,18.89,0,0,3.03,8.5,4.03,21.8,.66,8.7,.45,19.46-2.06,31.23Z"/>
    <g class="cls-7">
      <path class="cls-16" d="M254.62,289.99s.87,24.54-15.16,26.64c-20.95,2.74-16.89-27.61-16.89-27.61l-3.95-16.51c10.93-14.14,26.07-28.32,43.54-40.29,3.95,5.96,8.76,15.94,8.78,29.19,.04,20.7-16.32,28.59-16.32,28.59Z"/>
    </g>
    <g class="cls-7">
      <path class="cls-16" d="M408.97,274.84c-1.72,8.11-4.53,16.69-8.9,25.41-2.63,5.27-5.84,10.58-9.71,15.87-33.78,46.17-95.03,77.51-129.43,73.56-18-2.07-30.13-9.95-37.61-17,15.76-9.11,32.02-23.88,26.92-45.84-.45-1.95,47.39-37.21,47.39-37.21,0,0,22.33,16.67,44.91,1.31,27.38-18.62,63.77-83.07,68.48-47.33,.66,8.7,.45,19.46-2.06,31.23Z"/>
    </g>
    <path class="cls-15" d="M319.32,375.15c-.47,.25-.94,.48-1.42,.71-.71,.35-1.41,.69-2.12,1.03-.57,.27-1.14,.53-1.71,.8-.02,.01-.05,.02-.08,.04-.55,.26-1.1,.51-1.66,.75-.06,.03-.12,.06-.18,.08-.55,.25-1.09,.49-1.64,.73-1.33,.58-2.66,1.14-3.98,1.68-.56,.23-1.14,.46-1.7,.68-.53,.21-1.06,.42-1.6,.61-.35,.13-.69,.27-1.04,.4-2.43,.91-4.84,1.74-7.21,2.49-.41,.13-.82,.26-1.23,.38-.51,.15-1.01,.31-1.52,.45-.38,.12-.77,.22-1.14,.33-.5,.15-.99,.28-1.48,.41-.42,.11-.83,.22-1.25,.33-.87,.23-1.72,.44-2.58,.63-.79,.19-1.57,.36-2.34,.52-.5,.1-1.01,.2-1.5,.3-.53,.1-1.05,.2-1.57,.29-.46,.09-.93,.16-1.39,.23-.19,.04-.38,.06-.57,.09-.89,.14-1.77,.26-2.64,.37-1.01,.12-2,.23-2.98,.31-.49,.04-.98,.08-1.46,.11-.48,.03-.97,.06-1.44,.08-3.15,.14-6.15,.06-8.97-.27-2.1-.24-4.11-.56-6.05-.95-.07-.02-.14-.03-.21-.04-.96-.19-1.89-.4-2.8-.63-.02,0-.06-.01-.08-.02-.47-.12-.93-.24-1.38-.36-.47-.12-.93-.25-1.38-.39-.46-.13-.91-.27-1.36-.41-.45-.14-.88-.29-1.33-.44-.44-.15-.87-.29-1.29-.45-.43-.15-.85-.31-1.27-.47-.41-.16-.83-.32-1.23-.49-.82-.33-1.61-.67-2.39-1.03-.39-.18-.77-.36-1.15-.54-.37-.17-.72-.35-1.09-.53-.04-.02-.08-.04-.12-.06-.34-.18-.67-.35-1.01-.53-.67-.35-1.34-.72-1.98-1.09-.04-.02-.09-.05-.12-.07-.34-.2-.68-.4-1.01-.6-1-.6-1.95-1.21-2.87-1.85-.31-.21-.61-.42-.9-.63-.3-.21-.59-.42-.88-.63-.44-.33-.86-.64-1.27-.96-.2-.15-.4-.31-.59-.47-.57-.45-1.12-.9-1.64-1.35-.26-.22-.52-.45-.77-.67-.25-.22-.49-.44-.74-.66-.25-.22-.48-.44-.72-.67,7.08-4.09,14.26-9.33,19.56-15.84,31.77,31.01,75.06,18.71,76.45,18.3Z"/>
    <path class="cls-8" d="M411.33,250.75c.09,7.19-.51,15.36-2.36,24.09-.21,1.01-.45,2.04-.7,3.06-.12,.49-.25,.99-.37,1.49-.26,.99-.53,1.99-.82,2.99-.09,.31-.18,.61-.27,.91-.02,.06-.04,.12-.06,.18,0,.02-.01,.04-.02,.07-3.84,12.63-14.51,22.06-27.59,23.9-14.68,2.06-29.15-2.24-41.88-13.46,1.75-.83,3.52-1.84,5.28-3.04,27.37-18.61,63.75-83.02,68.48-47.36,.02,.16,.03,.32,.04,.48,.04,.5,.07,1.01,.1,1.52,.01,.26,.02,.52,.04,.78,.02,.26,.03,.52,.04,.79,.01,.18,.02,.37,.02,.56,.01,.34,.02,.69,.04,1.04,.01,.37,.02,.74,.02,1.11,0,.29,.01,.59,.01,.89Z"/>
    <path class="cls-16" d="M267.05,392.48c-2.22,0-4.36-.12-6.41-.35h0c-33.6-3.86-47.39-27-49.12-30.15-2.42-2.64-19.92-23.13-12.8-56.2,3.7-17.17,17.77-37.96,38.61-57.04,21.9-20.05,48.27-35.6,74.24-43.78,6.11-1.93,12.36-3.34,18.57-4.2,9.11-1.26,18.37-1.35,27.53-.28,30.52,3.59,50.02,18.75,50.83,19.4,.36,.29,.64,.67,.79,1.1,.35,.98,8.45,24.3,2.06,54.36-1.91,9-4.98,17.75-9.11,26-2.79,5.57-6.12,11.03-9.92,16.23-16.08,21.98-39.26,41.96-65.28,56.27-21.85,12.02-43.28,18.62-60.01,18.62Zm77.94-187.82c-4.74,0-9.48,.33-14.17,.98-5.93,.82-11.91,2.17-17.76,4.01-25.3,7.97-51.02,23.14-72.4,42.72-20.11,18.4-33.64,38.25-37.13,54.45-6.91,32.08,11.59,51.82,11.78,52.02,.16,.17,.31,.37,.41,.58,.12,.24,12.88,24.09,45.48,27.84h0c16.46,1.89,39.6-4.55,63.49-17.69,25.4-13.97,48.02-33.46,63.69-54.87,3.64-4.97,6.83-10.2,9.5-15.52,3.94-7.88,6.87-16.23,8.7-24.83,5.5-25.88-.42-47.02-1.67-51.02-3.38-2.46-21.51-14.86-47.79-17.95-4.02-.47-8.07-.71-12.11-.71Z"/>
    <path class="cls-12" d="M319.35,375.14c-21.62,10.86-42.79,16.35-58.42,14.55-34.41-3.95-47.39-29.15-47.39-29.15,0,0-19.7-20.38-12.41-54.24,3.31-15.38,15.3-33.66,32.52-50.66-.57,.81-31.97,45.83,.03,90.45,32.02,44.65,84.79,29.3,85.67,29.05Z"/>
    <g class="cls-2">
      <path class="cls-3" d="M203.51,313.09c-2.77,12.87-1.64,23.8,.82,32.39-3.88-9.3-6.77-22.63-3.2-39.18,3.31-15.38,15.3-33.67,32.52-50.66-.23,.33-5.55,7.95-9.64,19.89-10.72,12.98-18.03,26.08-20.5,37.56Z"/>
    </g>
    <g class="cls-7">
      <path class="cls-16" d="M319.34,375.15c-.48,.24-.95,.48-1.43,.71-.71,.35-1.41,.69-2.12,1.03-.57,.27-1.14,.53-1.71,.8-.02,.01-.05,.02-.08,.04-.55,.26-1.1,.51-1.66,.75-.06,.03-.12,.06-.18,.08-.55,.25-1.09,.49-1.64,.73-1.33,.58-2.66,1.14-3.98,1.68-.56,.23-1.14,.46-1.7,.68-.53,.21-1.06,.42-1.6,.61-.35,.13-.69,.27-1.04,.4-2.43,.91-4.84,1.74-7.21,2.49-.41,.13-.82,.26-1.23,.38-.51,.15-1.01,.31-1.52,.45-.38,.12-.77,.22-1.14,.33-.5,.15-.99,.28-1.48,.41-.42,.11-.83,.22-1.25,.33-.87,.23-1.72,.44-2.58,.63-.79,.19-1.57,.36-2.34,.52-.5,.1-1.01,.2-1.5,.3-.53,.1-1.05,.2-1.57,.29-.46,.09-.93,.16-1.39,.23-.19,.04-.38,.06-.57,.09-.89,.14-1.77,.26-2.64,.37-1.01,.12-2,.23-2.98,.31-.49,.04-.98,.08-1.46,.11-.48,.03-.97,.06-1.44,.08-3.15,.13-6.15,.05-8.97-.28-2.09-.24-4.11-.56-6.05-.94-.07-.02-.14-.03-.21-.04-.95-.2-1.89-.4-2.8-.63-.02,0-.06-.01-.08-.02-.47-.12-.93-.24-1.38-.36-.47-.12-.93-.25-1.38-.39-.46-.13-.91-.27-1.36-.41-.45-.14-.88-.29-1.33-.44-.44-.15-.87-.29-1.29-.45-.43-.15-.85-.31-1.27-.47-.41-.16-.83-.32-1.23-.49-.82-.33-1.61-.67-2.39-1.03-.39-.18-.77-.36-1.15-.54-.37-.18-.72-.36-1.09-.53-.04-.02-.08-.04-.12-.06-.34-.18-.67-.35-1.01-.53-.67-.36-1.33-.72-1.98-1.09-.04-.02-.09-.05-.12-.07-.34-.2-.68-.4-1.01-.6-1-.6-1.95-1.22-2.87-1.85-.31-.21-.61-.42-.9-.63-.3-.21-.59-.42-.88-.63-.44-.33-.86-.64-1.27-.96-.2-.15-.4-.31-.59-.47-.57-.45-1.12-.9-1.64-1.35-.26-.22-.52-.45-.77-.67-.25-.22-.5-.44-.74-.66-.25-.22-.48-.44-.72-.67,7.08-4.09,14.26-9.33,19.56-15.84,31.77,31.01,75.06,18.71,76.45,18.3h.01Z"/>
    </g>
    <path class="cls-16" d="M267.15,392.48c-2.25,0-4.42-.12-6.5-.36-33.6-3.86-47.39-27-49.12-30.15-2.43-2.65-19.92-23.13-12.8-56.2,3.37-15.65,15.16-34.08,33.2-51.89,.9-.89,2.34-.95,3.31-.13,.97,.82,1.15,2.25,.42,3.29-.33,.46-8.01,11.51-11.82,27.94-5.02,21.66-1.04,41.73,11.83,59.67,30.72,42.84,80.86,28.74,82.98,28.12,1.22-.36,2.51,.27,2.97,1.46,.47,1.18-.05,2.52-1.18,3.09-19.68,9.89-38.31,15.15-53.3,15.15Zm-44-121.71c-10.37,12.68-17.31,25.32-19.62,36.04-6.91,32.08,11.59,51.82,11.78,52.02,.16,.17,.31,.37,.41,.58,.12,.24,12.88,24.09,45.48,27.84,10.89,1.26,25.06-1.25,40.36-6.98-19.02,.91-48.76-3.28-69.89-32.74-13.53-18.87-17.9-40.87-12.62-63.64,1.12-4.85,2.57-9.26,4.09-13.11Z"/>
    <path class="cls-12" d="M302.93,344.06l-5.01,3.59-.55-.76c-12.46,4.18-29.09-2.9-39.84-17.89-10.76-15-12.13-33.02-4.17-43.48l-.55-.76,5.01-3.59c12.62-9.05,32.95-2.3,45.4,15.07,12.45,17.36,12.32,38.78-.3,47.83Z"/>
    <path class="cls-16" d="M289.73,349.94c-11.8,0-24.74-7.38-33.7-19.87-10.77-15.01-12.7-33.11-4.91-44.59-.33-.78-.09-1.71,.62-2.22l5.01-3.59c13.42-9.63,34.95-2.68,47.97,15.49,13.02,18.16,12.7,40.77-.73,50.4l-5.01,3.59c-.72,.51-1.67,.44-2.3-.12-2.24,.62-4.58,.92-6.96,.92Zm-34.54-64.63c.05,.46-.07,.93-.37,1.31-7.58,9.96-5.82,27.33,4.2,41.3,10.01,13.96,25.89,21.21,37.76,17.22,.46-.15,.94-.12,1.36,.08l3.7-2.66h0c11.78-8.44,11.72-28.75-.12-45.26-11.84-16.52-31.06-23.08-42.83-14.64l-3.7,2.66Z"/>
    <ellipse class="cls-23" cx="273.51" cy="315.95" rx="28.12" ry="38.7" transform="translate(-132.87 218.57) rotate(-35.64)"/>
    <path class="cls-12" d="M297.74,347.39c-12.62,9.05-32.94,2.31-45.4-15.06-4.8-6.69-7.73-13.98-8.79-20.92-1.46-9.5,.56-18.38,6.05-24.23,.91-.98,1.93-1.88,3.04-2.68,12.62-9.05,32.94-2.31,45.4,15.06,12.46,17.36,12.32,38.79-.3,47.83Z"/>
    <g class="cls-7">
      <path class="cls-16" d="M249.42,308.61c-1.81,3.41-4.8,3.62-7.56,2.79-1.46-9.5,.56-18.38,6.05-24.23,2.29,6.25,4.66,15.5,1.51,21.44Z"/>
    </g>
    <path class="cls-16" d="M284.9,353.47c-11.68,0-24.83-7.2-33.87-19.82-6.25-8.71-9.66-18.7-9.6-28.12,.06-9.64,3.73-17.55,10.32-22.28,6.59-4.73,15.27-5.66,24.41-2.63,8.94,2.97,17.31,9.4,23.55,18.11,13.03,18.17,12.7,40.77-.72,50.4-4.1,2.94-8.96,4.33-14.1,4.33Zm-19-70.91c-4.49,0-8.6,1.24-12,3.68-5.61,4.02-8.73,10.88-8.78,19.31-.05,8.65,3.11,17.86,8.91,25.95,11.84,16.51,31.06,23.08,42.83,14.64,11.77-8.44,11.72-28.75-.12-45.26-5.8-8.09-13.51-14.04-21.72-16.76-3.14-1.04-6.2-1.56-9.1-1.56Z"/>
    <path class="cls-6" d="M292.81,338.42c-.5,.47-1.04,.92-1.6,1.32-2.44,1.75-5.27,2.68-8.28,2.88-2.14,.15-4.38-.08-6.64-.66-5.51-1.41-11.12-4.9-15.71-10.1-.87-.98-1.7-2.02-2.48-3.11-9.08-12.67-8.98-28.28,.22-34.89,.72-.52,1.48-.96,2.26-1.34,4.6-2.22,10.21-2.06,15.71,.1,2.26,.89,4.49,2.11,6.64,3.65,3.11,2.22,6.02,5.11,8.5,8.57,.49,.68,.95,1.38,1.39,2.07,7.16,11.45,7.14,24.71,0,31.49Z"/>
    <g class="cls-14">
      <path class="cls-3" d="M276.29,292.64v49.33c-5.51-1.41-11.12-4.9-15.71-10.1v-39.33c4.6-2.22,10.21-2.06,15.71,.1Z"/>
    </g>
    <g class="cls-14">
      <path class="cls-3" d="M292.81,306.93v31.49c-.5,.47-1.04,.92-1.6,1.32-2.44,1.75-5.27,2.68-8.28,2.88v-46.33c3.11,2.22,6.02,5.11,8.5,8.57,.49,.68,.95,1.38,1.39,2.07Z"/>
    </g>
    <path class="cls-16" d="M281.68,344.52c-2.46,0-5.03-.43-7.66-1.3-6.62-2.2-12.81-6.95-17.42-13.39-4.62-6.44-7.14-13.83-7.09-20.8,.04-7.19,2.79-13.11,7.73-16.65,4.94-3.54,11.42-4.25,18.25-1.98,6.62,2.2,12.81,6.95,17.42,13.39,4.62,6.44,7.14,13.83,7.09,20.8-.04,7.19-2.79,13.11-7.73,16.65h0c-3.04,2.18-6.67,3.29-10.59,3.29Zm-13.83-51.74c-3.17,0-6.07,.87-8.47,2.59-3.96,2.84-6.16,7.7-6.2,13.68-.04,6.2,2.23,12.82,6.4,18.63,4.17,5.81,9.71,10.09,15.59,12.04,5.68,1.88,10.99,1.36,14.95-1.48h0c3.96-2.84,6.16-7.7,6.2-13.68,.04-6.2-2.23-12.82-6.4-18.63-4.17-5.81-9.71-10.09-15.59-12.04-2.24-.74-4.42-1.11-6.48-1.11Z"/>
    <path class="cls-12" d="M291.2,339.74c-9.2,6.6-24.02,1.68-33.1-10.98-9.08-12.67-8.99-28.28,.21-34.88,.65-.46,1.33-.87,2.03-1.22-7.36,7.26-6.84,21.58,1.6,33.35,8.44,11.77,21.84,16.85,31.07,12.21-.56,.56-1.16,1.07-1.81,1.53Z"/>
    <path class="cls-16" d="M281.7,343.67c-8.41,0-17.89-5.21-24.43-14.32-4.52-6.3-6.98-13.51-6.94-20.31,.04-6.92,2.67-12.6,7.39-15.98,.69-.49,1.42-.93,2.17-1.31,.45-.22,.99-.09,1.28,.32,.29,.41,.24,.96-.11,1.31-7.1,7-6.37,20.78,1.71,32.04,8.07,11.26,20.88,16.37,29.79,11.89,.45-.22,.99-.09,1.28,.31,.29,.4,.25,.96-.11,1.31-.59,.59-1.25,1.14-1.93,1.64-2.93,2.1-6.41,3.1-10.09,3.1Zm-25.93-45.88c-2.19,2.94-3.38,6.81-3.41,11.26-.04,6.38,2.29,13.17,6.56,19.12,7.52,10.49,19.11,15.52,27.75,12.73-8.73,.52-18.77-4.83-25.56-14.3-6.79-9.47-8.65-20.7-5.35-28.81Z"/>
    <path class="cls-12" d="M406.75,283.48c-3.83,12.66-14.51,22.13-27.61,23.96-19.57,2.75-38.76-5.8-53.94-26.98-13.02-18.15-15.62-38.37-10.63-54.48,4.54-14.64,18.41-24.22,33.73-23.74,3.13,.1,6.17,.33,9.11,.68,30.18,3.55,49.6,18.89,49.6,18.89,0,0,8.3,23.3,1.98,53.03-.6,2.83-1.34,5.71-2.22,8.64Z"/>
    <g class="cls-5">
      <path class="cls-3" d="M330.63,218.3c.58-4.55,7.13-8.55,17.25-9.17,13.07-.79,40.26,8.13,38.46,12.39-2.83,6.67-56.29,1.33-55.71-3.22Z"/>
    </g>
    <g class="cls-7">
      <path class="cls-16" d="M411.33,250.75c.09,7.19-.51,15.36-2.36,24.09-.21,1.01-.45,2.04-.7,3.06-.12,.49-.25,.99-.37,1.49-.26,.99-.53,1.99-.82,2.99-.09,.31-.18,.61-.27,.91-.02,.06-.04,.12-.06,.18,0,.02-.01,.04-.02,.07-3.84,12.63-14.51,22.06-27.59,23.9-14.68,2.06-29.15-2.24-41.88-13.46,1.75-.83,3.52-1.84,5.28-3.04,27.37-18.61,63.75-83.02,68.48-47.36,.02,.16,.03,.32,.04,.48,.04,.5,.07,1.01,.1,1.52,.01,.26,.02,.52,.04,.78,.02,.26,.03,.52,.04,.79,.01,.18,.02,.37,.02,.56,.01,.34,.02,.69,.04,1.04,.01,.37,.02,.74,.02,1.11,0,.29,.01,.59,.01,.89Z"/>
    </g>
    <path class="cls-16" d="M372.13,310.4c-18.46,0-35.61-9.92-48.93-28.49-12.48-17.4-16.58-38.57-10.98-56.64,4.81-15.51,19.66-25.97,36.15-25.46,3.09,.1,6.23,.33,9.32,.69,30.52,3.59,50.02,18.75,50.83,19.4,.36,.29,.64,.67,.79,1.1,.35,.98,8.45,24.3,2.06,54.36-.63,2.97-1.4,5.94-2.27,8.84h0c-4.13,13.66-15.76,23.74-29.62,25.68-2.47,.35-4.92,.52-7.34,.52Zm-24.93-105.71c-13.87,0-26.24,8.94-30.29,22.03-5.15,16.61-1.3,36.17,10.28,52.33,14.16,19.74,32,28.73,51.61,25.98,11.97-1.68,22.02-10.41,25.6-22.24,.84-2.77,1.57-5.61,2.17-8.44,5.5-25.88-.42-47.02-1.67-51.02-3.38-2.46-21.51-14.86-47.79-17.95-2.95-.35-5.94-.57-8.9-.66-.34-.01-.68-.02-1.01-.02Zm59.55,78.8h0Z"/>
    <path class="cls-16" d="M319.35,376.98c-.56,0-1.12-.26-1.48-.75-.6-.82-.43-1.97,.39-2.57,.38-.28,.86-.41,1.33-.35,1.01,.13,1.72,1.05,1.6,2.06-.09,.72-.58,1.29-1.22,1.51-.2,.07-.41,.1-.61,.1Z"/>
    <path class="cls-12" d="M216.63,377.48c-2.86,1.61-61.74,31.66-65.11,27.53-2.84-4.52,44.52-50.65,46.96-52.84,2.44-2.19,27.33-19.59,27.33-19.59h0c2.04,4.49,4.63,9,7.87,13.52,3.24,4.52,6.69,8.42,10.28,11.78h0s-24.46,17.99-27.33,19.6Z"/>
    <g class="cls-2">
      <path class="cls-3" d="M227.44,335.92c-5.26,3.69-23.84,16.74-25.94,18.62-2.14,1.92-41.64,38.71-49.41,50.77-.26-.06-.45-.17-.56-.31-2.84-4.52,44.52-50.65,46.96-52.84,2.44-2.2,27.32-19.6,27.32-19.6h0c.51,1.12,1.05,2.24,1.63,3.36Z"/>
    </g>
    <path class="cls-15" d="M243.96,357.89s-24.47,17.98-27.33,19.59c-2.85,1.61-61.74,31.66-65.11,27.53-.08-.13-.12-.29-.12-.49,13.33-3.98,58.24-31.4,60.74-32.81,2.58-1.46,22.83-16.29,26.69-19.12,1.68,1.9,3.39,3.66,5.13,5.3h0Z"/>
    <path class="cls-16" d="M152.8,407.23c-1.41,0-2.17-.41-2.7-1.07-.05-.06-.09-.12-.13-.18-1.07-1.7-.44-4.2,5.93-12,3.67-4.49,8.98-10.39,15.8-17.54,11.84-12.42,24.25-24.47,25.56-25.65,2.5-2.24,26.48-19.02,27.5-19.73,.4-.28,.9-.39,1.38-.3,.48,.09,.91,.36,1.19,.77,.06,.09,.12,.19,.16,.29,2.05,4.52,4.64,8.96,7.69,13.21,3.05,4.25,6.43,8.13,10.04,11.51,.12,.11,.22,.23,.3,.37,.51,.82,.31,1.89-.47,2.46-1,.74-24.59,18.07-27.51,19.72h0c-1.53,.86-16.93,8.76-32.49,15.98-8.96,4.16-16.25,7.3-21.68,9.33-5.46,2.05-8.63,2.84-10.57,2.84Zm72.28-71.9c-7.84,5.49-23.58,16.6-25.37,18.21-1.18,1.06-12.73,12.27-24.12,24.16-16.59,17.31-20.88,23.62-21.98,25.82,2.43-.33,9.78-2.38,31.5-12.54,14.91-6.97,29.24-14.32,30.62-15.1,2.09-1.18,17.66-12.52,25.38-18.18-3.19-3.17-6.19-6.7-8.93-10.52-2.74-3.82-5.12-7.79-7.11-11.84Zm-8.44,42.15h0Z"/>
    <path class="cls-3" d="M253.23,230.54s20.78,29.9-9.01,52.47c0,0,4.25,20.7-7.31,24.27-13.01,4.03-24.78-8.41-25.07-24.43-.23-12.71,8.56-26.76,8.56-26.76,0,0-24.48-12.05-23.46-47l4.31,1.64,30.86,15.45,21.13,4.36Z"/>
    <path class="cls-3" d="M251.04,276.81c-1.9,2.1-4.16,4.18-6.82,6.2,0,0,.5,2.45,.69,5.8,.22,4.02,0,9.34-2.07,13.33-1.23,2.37-3.1,4.26-5.93,5.14-13.01,4.03-24.78-8.41-25.07-24.43-.23-12.71,8.56-26.76,8.56-26.76,0,0-24.48-12.05-23.46-47l4.31,1.64,30.86,15.44,21.13,4.36s.9,1.3,2.07,3.56c3.9,7.61,10.72,26.16-4.26,42.72Z"/>
    <path class="cls-8" d="M221.69,235.77c-5.33,7,9.43,14.48,6.9,25.8-.94,4.19-8.78,23.78,22.45,15.24-1.9,2.1-4.16,4.18-6.82,6.2,0,0,.5,2.45,.69,5.8-5.55-1.41-18.05-3.8-20.93,2.13-3.79,7.79,7.84,14.71,18.86,11.2-1.23,2.37-3.1,4.26-5.93,5.14-13.01,4.03-24.78-8.41-25.07-24.43-.23-12.71,8.56-26.76,8.56-26.76,0,0-24.48-12.05-23.46-47l4.31,1.64,30.86,15.44,21.13,4.36s.9,1.3,2.07,3.56h0s-24.92-9.73-33.6,1.68Z"/>
    <path class="cls-16" d="M254.23,229.84c6.56,8.15,9.71,18.88,8.2,29.32-1.52,10.55-8.4,19.55-16.74,25.81,0,0,.92-2.45,.92-2.45,1.55,9.13,1.91,23.02-8.53,26.96-3.32,1.12-6.89,1.35-10.3,.54-11.2-2.7-17.63-14.42-18.33-25.22-.64-10.71,3.61-20.91,8.84-30,0,0,1,3.5,1,3.5-8.55-4.74-15.18-12.56-19.38-21.3-4.15-8.69-5.73-18.43-5.45-27.98,.19-3.21,4.88-3.14,4.91,.14-.13,4.45,.18,8.89,.98,13.23,2.1,11.83,8.6,22.96,18.49,29.89,.63,.43,1.35,.9,2.01,1.28,.23,.14,.47,.27,.63,.35,1.22,.63,1.69,2.13,1.06,3.35-4.7,8.17-8.77,17.62-8.19,27.19,.59,8.77,5.51,18.53,14.55,20.79,3.13,.69,6.84,.45,9.51-1.45,5.1-4.27,4.41-14.04,3.39-20.28-.2-.95,.2-1.9,.92-2.45,3.76-2.85,7.14-6.17,9.68-10.02,2.56-3.83,4.23-8.15,4.92-12.65,1.06-6.82-.14-13.99-2.42-20.55-.77-2.26-1.71-4.55-2.73-6.67-.62-1.28,1.13-2.42,2.05-1.33h0Z"/>
    <g>
      <g>
        <path class="cls-3" d="M349.32,108.91s10.52,10.87,10.72,13.86c.37,5.54-12.22,31.15-22.13,34.71-3.88,1.39-24.45-5.27-24.45-5.27l35.85-43.3Z"/>
        <path class="cls-8" d="M313.47,152.21s20.57,6.66,24.45,5.26c3.87-1.39,8.15-6.14,11.9-11.75-.31,.09-9.94,2.79-17.96-15.67,0-.01-.01-.02-.01-.03l-18.37,22.18Z"/>
        <path class="cls-3" d="M228.26,112.15s-18.25-11.59-19.65-15.46c-1.4-3.86-.47-10.19,1.45-16.66h0c3-10.1,8.41-20.54,11.16-22.52,2.43-1.75,17.51-.59,17.51-.59l-5.1,26.94-5.36,28.3Z"/>
        <path class="cls-8" d="M228.26,112.15s-18.25-11.59-19.65-15.46c-1.4-3.86-.47-10.19,1.45-16.66,.12,.29,4.2,9.43,23.53,3.83,.01,0,.02,0,.03,0l-5.36,28.3Z"/>
        <path class="cls-16" d="M336.47,160.08c-5.94,0-18.2-3.74-23.76-5.54l-3.44-1.11,39.91-48.2,1.91,1.97c4.16,4.3,11.18,12.02,11.41,15.4,.42,6.29-12.66,33.2-23.75,37.18-.57,.2-1.35,.3-2.28,.3Zm-18.78-9.12c8.52,2.58,17.57,4.72,19.41,4.2,8.74-3.14,20.67-27.57,20.49-32.16-.39-1.44-4.22-6.13-8.15-10.39l-31.75,38.35Z"/>
        <path class="cls-16" d="M230,116.17l-3.05-1.94c-5.7-3.62-19.12-12.49-20.65-16.7-4.01-11.07,8.36-38.32,13.48-42.01,2.75-1.98,13.17-1.5,19.13-1.04l2.73,.21-11.65,61.48Zm-7.4-56.63c-3.65,2.79-14.85,27.57-11.68,36.32,.77,1.73,8.19,7.34,15.61,12.25l9.27-48.92c-5.79-.32-11.84-.27-13.2,.35Z"/>
      </g>
      <polygon class="cls-23" points="281.17 109.77 281.06 109.99 280.97 109.82 281.17 109.77"/>
      <polygon class="cls-23" points="280.97 109.82 280.78 109.86 280.89 109.64 280.97 109.82"/>
      <circle class="cls-3" cx="286.41" cy="99.09" r="65.57"/>
      <path class="cls-8" d="M345.76,126.99c-15.41,32.78-54.46,46.86-87.24,31.45-32.78-15.41-46.86-54.47-31.45-87.24,1.63-3.46,3.52-6.71,5.64-9.74-8.32,30.2,6.04,62.9,35.36,76.68,29.31,13.78,63.65,3.97,81.6-21.7-.98,3.56-2.28,7.1-3.9,10.56Z"/>
      <path class="cls-16" d="M286.31,167.12c-9.68,0-19.51-2.07-28.83-6.46-16.44-7.73-28.9-21.4-35.06-38.5-6.16-17.09-5.3-35.56,2.43-52.01,15.96-33.95,56.56-48.58,90.51-32.63,33.95,15.96,48.58,56.56,32.63,90.51h0c-11.57,24.62-36.11,39.08-61.67,39.08Zm.2-131.14c-23.72,0-46.48,13.42-57.22,36.26-14.81,31.5-1.23,69.17,30.27,83.97,31.5,14.8,69.17,1.22,83.97-30.27h0c14.81-31.5,1.23-69.17-30.27-83.97-8.65-4.07-17.77-5.99-26.75-5.99Zm59.25,91.01h0Z"/>
      <path class="cls-16" d="M286.31,167.12c-9.68,0-19.51-2.07-28.83-6.46-16.44-7.73-28.9-21.4-35.06-38.5-6.16-17.09-5.3-35.56,2.43-52.01,15.96-33.95,56.56-48.58,90.51-32.63,33.95,15.96,48.58,56.56,32.63,90.51h0c-11.57,24.62-36.11,39.08-61.67,39.08Zm.2-131.14c-23.72,0-46.48,13.42-57.22,36.26-14.81,31.5-1.23,69.17,30.27,83.97,31.5,14.8,69.17,1.22,83.97-30.27h0c14.81-31.5,1.23-69.17-30.27-83.97-8.65-4.07-17.77-5.99-26.75-5.99Zm59.25,91.01h0Z"/>
      <path class="cls-16" d="M286.31,167.12c-9.68,0-19.51-2.07-28.83-6.46-16.44-7.73-28.9-21.4-35.06-38.5-6.16-17.09-5.3-35.56,2.43-52.01,15.96-33.95,56.56-48.58,90.51-32.63,33.95,15.96,48.58,56.56,32.63,90.51h0c-11.57,24.62-36.11,39.08-61.67,39.08Zm.2-131.14c-23.72,0-46.48,13.42-57.22,36.26-14.81,31.5-1.23,69.17,30.27,83.97,31.5,14.8,69.17,1.22,83.97-30.27h0c14.81-31.5,1.23-69.17-30.27-83.97-8.65-4.07-17.77-5.99-26.75-5.99Zm59.25,91.01h0Z"/>
      <path class="cls-16" d="M286.42,167.13c-9.78,0-19.65-2.11-28.95-6.48-28.04-13.18-43.63-43.6-37.95-74,0-.05,.01-.1,.02-.15,1.05-5.61,2.84-11.11,5.3-16.35,1.09-2.32,2.31-4.58,3.63-6.71,18.11-29.53,55.46-40.68,86.87-25.91,31.42,14.77,46.67,50.64,35.47,83.45-.81,2.38-1.77,4.75-2.85,7.05h0c-2.46,5.23-5.56,10.12-9.2,14.52-.03,.04-.07,.08-.1,.11-13.23,15.89-32.54,24.47-52.26,24.47Zm-62.05-79.71h0c-5.34,28.25,9.13,56.54,35.19,68.79,26.05,12.24,57.05,5.35,75.4-16.77,.04-.05,.08-.1,.12-.14,3.34-4.05,6.19-8.55,8.45-13.36h0c1-2.13,1.89-4.34,2.64-6.55,10.39-30.44-3.76-63.72-32.92-77.43-29.14-13.7-63.8-3.36-80.6,24.04-1.22,1.98-2.36,4.08-3.37,6.23-2.27,4.82-3.91,9.88-4.9,15.04,0,.05-.01,.1-.02,.14Z"/>
      <path class="cls-16" d="M351.01,112.19c-.06,0-.12,0-.18,0-.91-.09-1.59-.87-1.56-1.79,.85-26.1-14.47-50.43-39.03-61.98-24.55-11.54-53.05-7.82-72.6,9.47-.68,.6-1.72,.58-2.37-.06-.65-.64-.7-1.67-.11-2.37,19.6-23.07,52.46-30.18,79.9-17.28,27.46,12.91,42.95,42.75,37.67,72.58-.15,.84-.88,1.44-1.71,1.44Zm-70.26-73.9c10.43,0,21.01,2.29,30.97,6.97,17.73,8.33,30.88,23.02,37.09,40.3-4.14-18.98-16.86-35.61-35.23-44.24-18.36-8.63-39.28-7.82-56.53,1.1,7.56-2.73,15.59-4.12,23.71-4.12Z"/>
      <path class="cls-17" d="M345.75,126.99c-2.41,5.14-5.41,9.82-8.87,14,0,0,0,0,0,0-19.64,15.05-49.55,21.89-74.86,9.99-25.3-11.89-39.12-39.28-40.06-64.01,0,0,0,0,0,0,1-5.33,2.7-10.63,5.11-15.76,1.06-2.25,2.22-4.41,3.5-6.47,18.42-18.39,49.32-23.43,76.92-10.46,27.6,12.97,43.44,40,41.02,65.92-.78,2.29-1.69,4.56-2.75,6.8Z"/>
      <g class="cls-9">
        <path class="cls-19" d="M345.75,126.99c-2.41,5.14-5.41,9.82-8.87,14,0,0,0,0,0,0-19.64,15.05-49.55,21.89-74.85,9.99-25.3-11.89-39.12-39.28-40.06-64.01,0,0,0,0,0,0,.6-3.18,1.44-6.34,2.53-9.46,6.28,21.2,20.51,41.17,42.05,51.3,27.44,12.9,59.63,6.48,81.98-8.95,0,.12-.01,.23-.03,.34-.78,2.29-1.69,4.56-2.75,6.8Z"/>
      </g>
      <g class="cls-5">
        <ellipse class="cls-3" cx="329.01" cy="119.02" rx="11.43" ry="8.28" transform="translate(45.33 323.81) rotate(-55.71)"/>
      </g>
      <g class="cls-5">
        <ellipse class="cls-3" cx="310.52" cy="135.57" rx="5.25" ry="4.5" transform="translate(1.44 274.39) rotate(-47.77)"/>
      </g>
      <g class="cls-5">
        <path class="cls-3" d="M233.71,96.78s2.82-34.19,24.07-39.63c21.26-5.44,44.75,4.18,43.58,5.46,0,0-28.59-4.29-47.15,12.15-14.31,12.67-20.51,22.02-20.51,22.02Z"/>
      </g>
    </g>
    <path class="cls-3" d="M241.05,208.83c-.8,5.39-7.6,7.19-7.6,7.19,0,0-26.73,2.7-35.92-8.79-7.9-10.89,2.93-18.7,2.93-18.7,0,0,1.37,1.53,4.24,3.42,4.99,3.27,14.52,7.61,29.33,6.9,0,0,6.7,2.21,7.09,8.46,.03,.54,0,1.06-.07,1.54Z"/>
    <path class="cls-23" d="M241.05,208.83c-.8,5.39-7.6,7.19-7.6,7.19,0,0-26.73,2.7-35.92-8.79-7.9-10.89,2.93-18.7,2.93-18.7,0,0,1.37,1.53,4.24,3.42-.4,5.8,.93,13.11,8.92,16.56,8.8,3.8,20.78,2.48,27.43,.33Z"/>
    <path class="cls-16" d="M226.68,218.75c-8.99,0-24.18-1.37-31.07-10-.02-.03-.05-.06-.07-.09-2.73-3.77-3.8-7.66-3.18-11.56,1.04-6.45,6.44-10.41,6.67-10.57,1.02-.73,2.42-.58,3.26,.35,.11,.12,9.9,10.57,31.62,9.51,.3-.02,.6,.03,.89,.12,.34,.11,8.28,2.82,8.77,10.63,.42,6.8-6.02,10.34-9.49,11.25-.13,.03-.25,.06-.38,.07-.35,.04-3.09,.3-7.02,.3Zm-27.2-13.02c6.82,8.44,26.27,8.55,33.51,7.86,.99-.3,5.94-2.04,5.68-6.16-.24-3.81-3.85-5.63-5.03-6.13-18.67,.78-29.27-6.18-33.22-9.49-2.26,2.31-5.64,7.37-.94,13.91Z"/>
    <path class="cls-16" d="M242.59,270.61c-.19,0-.39,0-.58,0-9.19-.2-13.95-5.39-17.42-9.17-1.68-1.84-3.14-3.42-4.32-3.51-1.01-.07-1.78-.95-1.7-1.97,.07-1.01,.96-1.78,1.97-1.7,2.64,.19,4.55,2.27,6.77,4.69,3.19,3.48,7.17,7.81,14.79,7.98,13.14,.28,16.19-10.82,16.32-11.29,.26-.98,1.26-1.57,2.24-1.32,.98,.25,1.57,1.25,1.32,2.23-.04,.14-3.76,14.07-19.38,14.07Z"/>
    <path class="cls-16" d="M222.24,279.75c5.37,3.28,12.53,4.01,18.5,2.06,1.98-.67,3.83-1.65,5.53-2.85,.83-.62,2.01-.43,2.61,.42,.61,.86,.36,2.08-.55,2.63-2.09,1.28-4.34,2.27-6.69,2.89-4.65,1.22-9.6,.9-14.13-.52-2.25-.72-4.41-1.67-6.37-3.16-.4-.31-.48-.88-.18-1.29,.31-.4,.88-.48,1.28-.19h0Z"/>
    <path class="cls-16" d="M200.7,358.2c5.1,2.82,9.67,8.22,11.58,13.73-5.11-2.81-9.66-8.23-11.58-13.73h0Z"/>
  </g>
  <g>
    <path class="cls-16" d="M276.47,169.06h0s-12.85,0-12.85,0l5.29,5.29h7.14c1.03,0,1.86,.87,1.86,1.94s-.83,1.94-1.86,1.94h-4.35l5.25,5.27c3.59-.27,6.42-3.39,6.42-7.22s-3.08-7.23-6.89-7.24Z"/>
    <polygon class="cls-16" points="270.2 178.25 265.5 178.25 265.01 178.25 264.11 178.25 263.1 178.25 268.9 184.07 269.78 184.07 275.53 189.97 281.86 189.97 275.45 183.52 270.2 178.25"/>
  </g>
</svg>