<?xml version="1.0" encoding="UTF-8"?>
<svg id="Layer_1" data-name="Layer 1" xmlns="http://www.w3.org/2000/svg" xmlns:xlink="http://www.w3.org/1999/xlink" viewBox="0 0 500 500">
  <defs>
    <style>
      .cls-1 {
        fill: #262626;
      }

      .cls-2 {
        fill: #fff;
      }

      .cls-3 {
        fill: #c5c5c5;
      }

      .cls-4 {
        opacity: .5;
      }

      .cls-5 {
        fill: #a9a9a9;
      }

      .cls-6 {
        opacity: .3;
      }

      .cls-7 {
        clip-path: url(#clippath);
      }

      .cls-8 {
        fill: none;
      }

      .cls-9 {
        fill: #353535;
      }

      .cls-10 {
        fill: #030b2f;
      }

      .cls-11 {
        fill: #191919;
      }

      .cls-12 {
        fill: #919191;
      }

      .cls-13 {
        opacity: .25;
      }
    </style>
    <clipPath id="clippath">
      <path class="cls-8" d="M161.59,131.32c-9.02,4.64-27.87,11.93-27.2,26.77,.66,14.84,18.94,40.71,18.94,40.71l-4.64,7.45s-3.15-.33-4.31,.33c-1.16,.66-6.13,10.27-5.8,11.93,.33,1.66,3.15,3.52,3.15,3.52-21.54,32.14-37.6,75.83-40.25,90.41-2.65,14.58,4.31,37.44,4.31,37.44,0,0-4.64,9.61,2.15,18.06s30.98,4.14,35.95-8.95c4.97-13.09-1.49-38.76-1.49-38.76l4.97-.99c1.33,8.95,3.98,15.57,3.98,15.57,0,0-5.63,4.47-5.47,13.42,.17,8.95,5.52,15.9,19.66,14.8,14.14-1.1,29.38-12.81,31.81-21.42,2.43-8.61-2.43-33.57-2.43-33.57,0,0,17.01,2.87,28.93-5.3,11.93-8.17,22.34-37.49,22.34-37.49,0,0,3.31,1.15,4.22,.83,6.63-2.32,5.14-10.44,5.14-11.18,0-.75-3.15-4.06-3.15-4.06l1.66-2.98c18.39,.33,50.52-3.81,58.6-17.23,8.08-13.42-1.95-45.72-1.95-45.72-.72-2.54-6.64-22.38-24.57-26.79-25.29-6.23-14.91,25.03-13.56,39.12,.55,5.76,2.95,11.53,2.95,11.53-5.53-6.96-11.61-9.13-11.61-9.13,0,0-72.75-13.95-79.16-31.73-6.41-17.78,16.34-21.75,10.82-35.45-5.52-13.69-33.98-1.1-33.98-1.1Z"/>
    </clipPath>
  </defs>
  <g>
    <g>
      <path class="cls-3" d="M54.33,319.41c.67,6.12,1.72,12.23,3.13,18.31,3.24,13.96,8.45,27.72,15.77,40.88,42.18,75.9,137.89,103.23,213.79,61.06,60.44-33.58,90.08-101.12,78.36-165.55-3-16.5-8.7-32.78-17.3-48.24-5.85-10.53-12.73-20.12-20.45-28.73-9.97-11.11-21.34-20.58-33.68-28.26-3.52-2.2-7.12-4.25-10.79-6.16-19.76-10.25-41.52-16.22-63.78-17.47-.2,0-.4-.03-.59-.03-1.36-.07-2.73-.13-4.1-.16-2.72-.07-5.44-.07-8.15,0-18.46,.47-37.04,4.2-54.86,11.46-5.89,2.38-11.71,5.15-17.4,8.32-1.22,.69-2.44,1.38-3.64,2.09-.72,.42-1.44,.86-2.15,1.3-13.34,8.16-25.05,18.02-35.01,29.15-29.81,33.29-43.98,77.9-39.15,122.05Z"/>
      <path class="cls-5" d="M287.02,439.66c-75.9,42.17-171.61,14.84-213.79-61.06-7.31-13.16-12.53-26.91-15.77-40.87-1.42-6.08-2.45-12.2-3.12-18.31-1.19-10.9-1.23-21.83-.15-32.62,.05,.5,.1,1,.15,1.49,.67,6.12,1.71,12.24,3.12,18.31,3.24,13.96,8.45,27.71,15.77,40.87,42.18,75.9,137.89,103.24,213.79,61.06,46.82-26.02,75.16-72.42,80.1-121.97,6.04,60.53-23.55,121.67-80.1,153.1Z"/>
      <path class="cls-5" d="M115.02,319.47c4.29,19.16-1.59,34.66-13.13,34.63-11.54-.03-25.42-15.09-29.71-34.25-4.29-19.16,2.63-35.15,14.17-35.13,11.54,.03,24.38,15.58,28.67,34.74Z"/>
      <path class="cls-9" d="M123.8,306.62c6.75,14.17,5.95,31.7-2.32,44.97-2.76,4.31-6.65,7.89-11.74,9.47-.46,.14-.71,.63-.57,1.08,.12,.37,.46,.61,.83,.61,2.95-.02,5.91-.97,8.53-2.46,17.27-10.7,20.44-40.03,7.03-54.87-.82-.9-2.31,.11-1.76,1.2h0Z"/>
      <ellipse class="cls-5" cx="282.03" cy="208.26" rx="13.33" ry="15.63" transform="translate(56.16 476.4) rotate(-86.33)"/>
      <ellipse class="cls-3" cx="278.57" cy="212.74" rx="9.47" ry="11.74" transform="translate(-17.64 400.13) rotate(-69.69)"/>
      <path class="cls-9" d="M281.52,223.67c5.58,1.14,11.62-.49,15.8-4.48,10.47-10.51,2.57-25.84-10.79-28.3-9.6-2.07-21.4,3.42-22.94,13.8-.63,3.95,.69,7.98,3.11,10.65,.88,.99,2.5-.02,2.04-1.23-2.28-5.21-.25-11.33,4.73-14.01,4.48-2.66,10.55-2.58,15.01-.17,4.3,2.26,7.19,6.88,5.76,11.64-1.57,5.16-7.15,8.35-12.6,9.12-1.68,.2-1.76,2.64-.12,2.97h0Z"/>
      <path class="cls-9" d="M261.22,198.37c-8.52,8.77-5.14,22.77,4.38,29.44,11.84,8.9,31.45,6.55,38.89-6.88,1.73-3.23,2.52-6.95,2.08-10.41-.08-.66-.69-1.13-1.36-1.05-.53,.07-.94,.47-1.04,.97-.69,2.98-2.03,5.57-3.85,7.71-9.1,10.48-28.18,9.28-35.75-2.34-3.05-4.6-3.27-10.7-.91-15.74,.72-1.51-1.28-2.88-2.43-1.7h0Z"/>
      <path class="cls-9" d="M324.33,244.01c-9.57,.9-18.3,7.07-22.92,15.45-9.67,17.08-3.42,39.94,11.38,51.97,7.18,6.03,16.71,9.62,26.08,8.87,1.02-.11,1.03-1.59,0-1.68-8.78-.82-16.84-4.83-23-10.67-15.36-14.19-19.44-41.51-2.41-55.94,3.22-2.72,7.08-4.73,11.27-5.93,1.2-.33,.87-2.17-.39-2.05h0Z"/>
      <ellipse class="cls-5" cx="334.48" cy="281.93" rx="22.47" ry="27.11" transform="translate(-44.07 62.71) rotate(-10.05)"/>
      <path class="cls-3" d="M335.28,305.06c-7.99,.09-16.12-5.34-20.3-14.49-5.55-12.17-2-26.31,7.95-31.58,1.4-.75,2.86-1.27,4.34-1.59,5.87,2.39,11.13,7.41,14.32,14.39,5.64,12.37,2.75,26.57-6.31,33.27Z"/>
      <path class="cls-9" d="M356.33,271.99c-4.01-9.98-14.7-17.66-25.77-16.56-12.17,.98-20.31,12.16-19.97,23.88,.13,5.23,1.66,10.39,4.35,14.85,5.78,9.72,17.94,16.28,29.17,12.78,2.63-.83,5.09-2.16,7.14-3.95,2.07-1.76,3.7-3.96,4.86-6.33,.2-.42,.03-.92-.39-1.13-.38-.19-.83-.06-1.06,.27-3.66,5.4-10.1,8.63-16.59,8.06-12.22-.87-21.88-12.81-21.88-24.64-.24-12.07,9.57-21.26,21.63-18.63,7,1.45,12.82,6.2,16.64,12.32,.66,1.09,2.35,.23,1.86-.94h0Z"/>
      <path class="cls-9" d="M148.36,274.63c-2.2,12.23,1.21,25.49,9.05,35.21,21.33,26.53,62.97,21.55,81.22-5.86,3.42-5.15,5.93-10.89,7.24-16.85,.1-.45-.19-.9-.64-1-.42-.09-.84,.15-.98,.55-3.95,10.99-11.46,20.47-21.17,26.81-22.23,14.5-53.06,10.05-66.74-13.73-4.32-7.51-6.21-16.17-5.9-24.9,.06-1.26-1.84-1.5-2.08-.22h0Z"/>
      <ellipse class="cls-5" cx="197.9" cy="276.94" rx="31.52" ry="34.57" transform="translate(-122.3 392.42) rotate(-74.28)"/>
      <path class="cls-3" d="M226.25,285.64c-2.93,10.77-12.62,19.39-25.29,21.14-16.87,2.32-32.65-8.43-35.25-24.01-.37-2.2-.45-4.38-.27-6.51,5.13-6.87,13.22-11.81,22.89-13.15,17.14-2.35,33.26,7.52,37.92,22.53Z"/>
      <path class="cls-9" d="M194.13,243.39c-14.61,1.33-27.66,13.4-30.27,27.96-3.24,15.55,6.18,31.64,21.28,36.5,22.6,7.64,47.55-10.06,47.04-34.02-.13-3.67-.83-7.32-2.21-10.68-1.36-3.37-3.35-6.44-5.82-8.99-.46-.48-1.22-.49-1.7-.03-.43,.41-.48,1.07-.15,1.54,13.63,20.02-2.55,46.28-25.87,46.09-15.74-.02-27.86-13.62-25.57-29.26,1.61-12.44,11.59-22.89,23.8-26.19,1.74-.49,1.27-3.08-.53-2.92h0Z"/>
      <g>
        <path class="cls-3" d="M286.95,365.22c7.4,3.89,13.17,9.58,16.4,16.83,5.85,13.15,1.7,27.67-8.99,40.46-7.02,8.39-16.99,15.7-29.09,20.6-30.56,12.38-63.19,4.77-72.88-16.99-3.6-8.1-3.53-17.02-.43-25.67,5.22-14.59,23.22-18.98,42.41-26.76"/>
        <path class="cls-9" d="M302.4,382.48c4.9,12.42,.11,26.01-7.94,35.98-16.27,20.17-44.02,30.82-69.64,27.35-12.75-1.84-25.55-8.16-31.67-20.03-.45-.91-1.91-.32-1.54,.68,2.45,6.57,7.25,12.15,13.01,16.11,31.92,20.95,83.12,3.51,99.12-30.23,2.99-6.39,4.61-13.62,3.67-20.68-.45-3.5-1.52-6.91-3.12-10.04-.26-.51-.89-.72-1.4-.46-.48,.24-.69,.81-.5,1.31h0Z"/>
        <ellipse class="cls-5" cx="247.86" cy="403.82" rx="45.35" ry="32.96" transform="translate(-95.04 76.82) rotate(-14.82)"/>
        <ellipse class="cls-3" cx="245.7" cy="413.02" rx="38.45" ry="24.24" transform="translate(-68.98 49.8) rotate(-10.16)"/>
        <path class="cls-9" d="M218.58,432.65c-11.08-6.34-15.96-18.55-11.2-30.52,7.62-18.79,29.05-29.56,48.61-30.14,15.41-.63,33.43,7.44,33.6,24.76-.34,16.72-14.49,29.47-28.83,36.17-.96,.44-.36,1.91,.63,1.56,16.08-5.66,32.07-19.46,32.84-37.68,.53-14.85-11.36-25.8-25.05-28.94-13.01-3.22-26.98-.98-38.96,4.64-7.98,3.81-15.33,9.26-20.73,16.32-8.53,10.75-11.54,26.32-2.34,37.64,2.8,3.48,6.46,6.16,10.45,8.04,1.22,.55,2.1-1.17,.97-1.85h0Z"/>
      </g>
      <g>
        <path class="cls-3" d="M150.75,215.95c-5.52-3.63-9.62-8.54-11.61-14.5-3.59-10.79,.79-21.89,10.18-31.13,6.16-6.06,14.56-11.04,24.46-13.97,24.99-7.39,50.06,1.1,56.01,18.96,2.21,6.65,1.47,13.66-1.63,20.22-5.23,11.07-17.32,20.24-33.01,24.88,0,0-11.7,2.87-23.98,1.49-12.28-1.38-20.43-5.95-20.43-5.95Z"/>
        <path class="cls-9" d="M140.16,201.12c-2.67-10.15,2.13-20.09,9.19-27.23,10.71-10.91,26.02-16.77,41.18-17.44,14.79-.64,32.13,4.52,38.46,19.16,.39,.95,1.88,.48,1.62-.55-1.35-5.39-4.67-10.27-8.93-13.93-21.61-17.7-58.28-10.89-76,9.4-7.44,8.17-12.17,20.56-7.55,31.27,.53,1.2,2.32,.6,2.02-.67h0Z"/>
        <ellipse class="cls-5" cx="184.46" cy="188.61" rx="35.84" ry="26.05" transform="translate(-27.89 32.06) rotate(-9.24)"/>
        <ellipse class="cls-3" cx="186.87" cy="181.54" rx="30.38" ry="19.16" transform="translate(-13.89 15.49) rotate(-4.58)"/>
        <path class="cls-9" d="M209.58,168.38c11.55,8.59,10.49,22.35,.67,31.85-8.92,8.74-22.18,13.02-34.56,12.14-11.82-.64-25.16-8.14-24.05-21.36,1.47-12.95,13.37-21.81,24.98-26.11,1-.37,.54-1.88-.49-1.64-13.27,3.07-27.13,12.79-29.19,27.24-1.67,11.86,7.05,21.75,17.8,25.33,10.11,3.6,21.44,2.9,31.41-.65,9.98-3.64,19.3-10.49,23.75-20.41,3.91-8.48,2.24-18.86-4.88-25.09-1.32-1.19-2.77-2.2-4.26-3.09-.51-.3-1.16-.13-1.46,.38-.28,.48-.15,1.08,.29,1.4h0Z"/>
      </g>
      <ellipse class="cls-3" cx="98.16" cy="318.3" rx="15.91" ry="30.51" transform="translate(-97.07 48.42) rotate(-18.74)"/>
      <path class="cls-9" d="M73.93,294.89c5.02-8.28,13.95-9.16,21.61-3.92,11.8,8.14,18.4,23.62,18.94,37.7,.52,10.44-4.32,24.28-17.11,21.64-11.47-2.91-19.17-13.96-23.8-24.36-.42-.98-1.9-.45-1.62,.57,3.52,12,11.58,24.67,24.31,28.39,11.78,3.18,20.63-5.52,22.95-16.48,2.19-9.68,.54-19.85-3.06-28.89-3.74-9.01-9.66-17.44-18.2-22.5-9.61-5.7-21.05-3.94-25.89,6.85-.54,1.23,1.18,2.11,1.88,1h0Z"/>
      <path class="cls-9" d="M166.7,456.12c-41.1-11.74-75.18-38.78-95.94-76.15-7.29-13.1-12.69-27.1-16.05-41.61-1.43-6.17-2.5-12.44-3.18-18.64-3.26-29.81,1.91-59.9,14.97-87.02,13.34-27.71,34.27-50.84,60.51-66.89,.73-.45,1.47-.91,2.19-1.33,1.24-.74,2.46-1.43,3.72-2.13,5.73-3.18,11.69-6.03,17.71-8.47,17.82-7.25,36.62-11.17,55.86-11.66,2.8-.07,5.59-.07,8.28,0,1.32,.03,2.69,.09,4.14,.16,.12,0,.24,.01,.35,.02l.28,.02c22.47,1.26,44.92,7.41,64.92,17.78,3.74,1.94,7.44,4.05,10.99,6.27,22.87,14.24,41.92,34.3,55.1,58.02,8.55,15.4,14.47,31.92,17.6,49.11,12.27,67.47-19.78,135.2-79.76,168.53-24.11,13.4-50.66,20.22-77.5,20.22-14.76,0-29.61-2.06-44.19-6.23Zm39.92-308.26c-18.56,.47-36.68,4.25-53.88,11.25-5.81,2.35-11.56,5.1-17.08,8.17-1.21,.68-2.4,1.35-3.59,2.06-.7,.41-1.4,.84-2.1,1.28-50.72,31.02-79.3,89.3-72.83,148.49h0c.65,5.98,1.69,12.03,3.07,17.98,3.25,14,8.46,27.5,15.49,40.14,28.19,50.73,80.93,79.38,135.23,79.38,25.35,0,51.04-6.25,74.73-19.41,57.87-32.16,88.79-97.49,76.95-162.58-3.02-16.58-8.73-32.52-16.98-47.37-12.72-22.88-31.1-42.23-53.16-55.97-3.42-2.14-6.98-4.18-10.59-6.05-19.3-10.01-40.96-15.94-62.59-17.16-.12,0-.24-.01-.36-.02l-.27-.02c-1.44-.08-2.75-.13-4.02-.16-1.35-.04-2.73-.05-4.12-.05-1.29,0-2.58,.02-3.88,.05Z"/>
    </g>
    <g class="cls-13">
      <path class="cls-11" d="M316.54,226.55s-10.86,23.48-30.96,27.66c-20.1,4.19-33.21,4.48-33.21,4.48l-17.19,10.2v21.47s-4.84,17.54-15,23.39c-10.16,5.85-24.28,4.94-24.28,4.94l3.89,17.2s-3.79,30-33.35,33.64c-13.69,1.6-20.97-1.75-20.97-1.75,0,0-10.19,6.5-18.64,5.53-8.45-.97-1.73-33.35-1.73-33.35,0,0,16.32-48.51,28.98-56.88,12.66-8.37,51.9-31.42,51.9-31.42,0,0,67.14-36.31,69.58-34.01,2.45,2.3,40.98,8.9,40.98,8.9Z"/>
    </g>
    <g>
      <path class="cls-2" d="M161.59,131.32c-9.02,4.64-27.87,11.93-27.2,26.77,.66,14.84,18.94,40.71,18.94,40.71l-4.64,7.45s-3.15-.33-4.31,.33c-1.16,.66-6.13,10.27-5.8,11.93,.33,1.66,3.15,3.52,3.15,3.52-21.54,32.14-37.6,75.83-40.25,90.41-2.65,14.58,4.31,37.44,4.31,37.44,0,0-4.64,9.61,2.15,18.06s30.98,4.14,35.95-8.95c4.97-13.09-1.49-38.76-1.49-38.76l4.97-.99c1.33,8.95,3.98,15.57,3.98,15.57,0,0-5.63,4.47-5.47,13.42,.17,8.95,5.52,15.9,19.66,14.8,14.14-1.1,29.38-12.81,31.81-21.42,2.43-8.61-2.43-33.57-2.43-33.57,0,0,17.01,2.87,28.93-5.3,11.93-8.17,22.34-37.49,22.34-37.49,0,0,3.31,1.15,4.22,.83,6.63-2.32,5.14-10.44,5.14-11.18,0-.75-3.15-4.06-3.15-4.06l1.66-2.98c18.39,.33,50.52-3.81,58.6-17.23,8.08-13.42-1.95-45.72-1.95-45.72-.72-2.54-6.64-22.38-24.57-26.79-25.29-6.23-14.91,25.03-13.56,39.12,.55,5.76,2.95,11.53,2.95,11.53-5.53-6.96-11.61-9.13-11.61-9.13,0,0-72.75-13.95-79.16-31.73-6.41-17.78,16.34-21.75,10.82-35.45-5.52-13.69-33.98-1.1-33.98-1.1Z"/>
      <circle class="cls-12" cx="173.04" cy="219.75" r="6.63"/>
      <g class="cls-7">
        <g>
          <g class="cls-6">
            <path class="cls-9" d="M298.21,164.45s10,31.7,7.84,53.56c-2.15,21.87-48.37,19.49-48.37,19.49l-2.78,7.94,2.45,1.73s37.2,1.1,50.2-11.17c13-12.27,8.45-30.66,5.09-45.15s-14.43-26.4-14.43-26.4Z"/>
          </g>
          <g class="cls-6">
            <path class="cls-9" d="M253.63,255.61s-.99,2.48-6.63,2.9c-5.63,.41-24.14-7.56-24.14-7.56,0,0-.96,4-1.04,4.5-.08,.5,2.07,1.99,2.07,1.99,0,0,24.77,9.44,26.5,8.61,1.74-.83,3.64-9.19,3.64-9.19l-.41-1.24Z"/>
          </g>
          <g class="cls-6">
            <path class="cls-9" d="M233.33,235.07s-9.61,7.09-16.07,8.6l-1.39,.78s-10.26,4.4-29.45,0c-19.19-4.4-36.25-13.92-36.25-13.92l5-10.77s-6-2.18-9.86-4.28c-3.87-2.1-4.11-3.87-4.11-3.87,0,0-2.02,4.4-2.12,4.7-.11,.3,0,1.71,0,1.71l2.64,2.82,8.49,4.78-.46,2.26-2.27,4.8,.53,6.39s.73,5.25,5.14,10.1c4.42,4.85,27.17,15.52,27.17,15.52l16.23,1.42s5.38,2.89,10.2,8.18c4.82,5.29,4.71,19.26-5.23,21.36-9.94,2.1-17.23,1.66-18.55,8.83-1.33,7.18,6.52,23.3,2.54,35.67-3.98,12.37-26.73,22.31-36.78,13.8,0,0-2,10.27,19.1,8.78,21.1-1.49,28.83-16.95,30.6-25.02s-5.17-29.06-2.81-29.6c2.36-.55,22.87,3.91,34.48-11.63,11.61-15.53,15.26-29.14,15.26-29.14l1.17-1.76s-21.33-8.49-21.66-8.66c-.33-.17-2.89-1.57-2.69-3.19,.21-1.62,4.62-10.73,4.62-10.73l4.36,.28s2.1-4.33,2.54-6.2c.44-1.86-.39-2.03-.39-2.03Z"/>
          </g>
          <g class="cls-6">
            <path class="cls-9" d="M167.74,266.1c-.5-.05-18.47,8.48-21.45,12.37-2.98,3.89-10.64-2.97-10.64-2.97,0,0,2.84,6.06,4.84,9.49l1.99,3.42s-8.76,17.62-8.37,27.83c.39,10.21,4.97,33.63,.83,41.91-4.14,8.28-22.16,13.74-30.3,2.98,0,0,2.22,12.51,18.37,10.4,16.15-2.11,21.58-10.31,22.82-20,1.24-9.69-2.48-24.12-1.7-27.81,.78-3.7,2.26-5.73,2.26-5.73,0,0-2.06-10.11-.48-17.48,1.58-7.36,2.36-16.77,9.84-23.09s11.99-11.32,11.99-11.32Z"/>
          </g>
          <g class="cls-6">
            <path class="cls-9" d="M161.46,188.56s-28.81-21.68-22.42-41.78c0,0-7.2,3.59-3.44,18.09,3.75,14.49,16.44,30.62,16.44,30.62,0,0,4.17-.54,4.33-.75,.17-.21,5.1-6.17,5.1-6.17Z"/>
          </g>
        </g>
        <g class="cls-6">
          <path class="cls-9" d="M179.12,217.12s-2.26,4.84-7.59,4.41c-5.33-.44-5.76-3.28-5.76-3.28,0,0-.36,6.12,6.12,7.36,6.48,1.24,7.92-6.48,7.24-8.48Z"/>
        </g>
      </g>
      <path class="cls-9" d="M106.28,369.25c-6.45-8.02-3.79-16.84-2.75-19.51-1.2-4.15-6.62-24.1-4.15-37.69,2.62-14.41,18.36-57.31,39.38-89.4-.99-.83-2.01-2.08-2.28-3.82-.78-4.97,4.04-12.94,7.08-14.21,1.59-.66,3.02-.76,4.07-.7l3.16-5.08c-3.62-5.3-17.91-27.04-18.52-40.68-.65-14.57,15.43-22.42,25.05-27.11,1.2-.58,2.31-1.13,3.31-1.64,.04-.02,.07-.04,.11-.05,.79-.35,19.53-8.54,30.29-4.17,3.11,1.26,5.3,3.42,6.51,6.42,3.09,7.65-1.42,12.9-5.39,17.53-4.31,5.02-8.37,9.76-5.41,17.99,4.92,13.65,57.66,26.55,77.57,30.37,.11,.02,.22,.05,.33,.09,2.08,.75,4.97,1.16,5.72,.58,.13-.1,.14-.49,.11-.79-.22-2.35-.72-5.29-1.25-8.4-1.88-11.02-4.21-24.73,2.36-30.84,3.3-3.07,8.37-3.79,15.07-2.14,18.53,4.56,24.99,24.35,26.09,28.22,.42,1.36,10.21,33.37,1.74,47.44-8.15,13.54-38.52,18.27-58.31,18.27-.29,0-.58,0-.87,0l-.21,.38c.93,.93,2.05,2.32,2.5,3.95,.64,2.26,.41,7.11-1.67,10.35-1.25,1.95-3.04,3.16-5.17,3.49-.77,.12-2-.08-3.24-.37-2.54,6.69-11.74,29.35-22.45,36.69-9.57,6.56-21.94,6.45-27.53,5.99,1.21,6.91,3.93,24.42,1.87,31.72-2.64,9.36-18.7,21.79-33.68,22.96-7.37,.58-13.04-.89-16.85-4.35-.92-.83-1.71-1.77-2.39-2.82-.18,.61-.38,1.2-.59,1.78-3.26,8.6-13.28,13.05-20.87,14.25-1.74,.27-3.43,.41-5.05,.41-5.98,0-10.99-1.83-13.65-5.14Zm42.29-51.76c.47,.33,.79,.85,.88,1.42,1.27,8.57,3.82,15.03,3.85,15.1,.34,.86,.08,1.85-.64,2.43-.2,.16-4.82,4.02-4.68,11.73,.08,4.12,1.32,7.31,3.7,9.47,2.91,2.65,7.51,3.75,13.68,3.26,13.16-1.03,27.7-11.98,29.93-19.89,1.88-6.67-1.15-25.79-2.47-32.59-.13-.68,.08-1.38,.56-1.88s1.18-.72,1.87-.61c.16,.03,16.33,2.62,27.39-4.96,11.22-7.69,21.44-36.17,21.54-36.46,.38-1.06,1.52-1.65,2.6-1.32,1.34,.4,2.88,.75,3.35,.76,.9-.16,1.62-.68,2.21-1.59,1.4-2.18,1.5-5.71,1.16-6.92-.35-1.23-1.85-2.55-2.35-2.92-.87-.63-1.13-1.81-.61-2.74l1.66-2.98c.37-.67,1.08-1.09,1.85-1.09,.01,0,.03,0,.04,0,17.97,.32,49.28-3.79,56.75-16.2,7.49-12.45-2.06-43.69-2.17-44.05-1-3.52-6.79-21.31-23.04-25.31-5.22-1.29-8.98-.91-11.17,1.13-4.9,4.56-2.69,17.55-1.07,27.03,.54,3.19,1.06,6.19,1.3,8.7,.24,2.46-.81,3.83-1.73,4.54-2.89,2.23-8.18,.6-9.6,.1-1.86-.37-19.3-3.83-37.23-9.22-26.24-7.89-40.43-15.69-43.36-23.84-3.8-10.55,1.73-17,6.18-22.18,4.22-4.91,6.7-8.18,4.67-13.19-.77-1.92-2.14-3.26-4.17-4.08-8.85-3.59-25.86,3.64-26.93,4.1-1,.51-2.12,1.06-3.32,1.65-9.24,4.51-23.2,11.32-22.67,23.11,.63,14.05,18.38,39.33,18.55,39.58,.49,.7,.52,1.62,.07,2.34l-4.64,7.45c-.52,.84-1.53,1.22-2.46,.89-.05-.02-1.27-.38-2.8,.26-1.36,.73-5.04,6.54-4.55,9.66,.15,.96,1.43,1.7,1.86,1.89,.59,.24,1.04,.73,1.22,1.34,.19,.61,.09,1.27-.27,1.8-21.3,31.79-37.32,75.23-39.93,89.61-2.53,13.9,4.18,36.22,4.25,36.44,.15,.51,.11,1.06-.12,1.54-.04,.08-3.99,8.49,1.9,15.81,2.4,2.99,8.19,4.24,14.74,3.2,6.47-1.02,14.96-4.67,17.58-11.58,3.63-9.56,.7-26.78-.73-33.75-.32-1.58-.01-3.2,.88-4.54,.89-1.35,2.26-2.27,3.85-2.58l1.04-.21c.14-.03,.28-.04,.41-.04,.43,0,.86,.13,1.22,.39Zm-2.88,4.63s-.08,.1-.11,.15c-.27,.4-.36,.88-.26,1.35,.69,3.37,1.48,7.79,1.99,12.54,.56-.81,1.11-1.45,1.56-1.94-.74-2.11-2.16-6.51-3.18-12.11Z"/>
      <path class="cls-9" d="M245.46,267.21c-26.33-9.45-26.33-9.74-26.33-11.6,0-1.11,2.06-6.2,2.48-7.21,2.53-6.18,3.5-7.22,5.11-7.22,.39,0,1.42,0,26.3,7.6,1.12,.34,1.75,1.52,1.41,2.64-.34,1.12-1.52,1.75-2.64,1.41-7.96-2.43-20.48-6.2-24.27-7.19-1.03,1.88-2.87,6.46-3.73,8.91,3.63,1.55,13.88,5.36,23.12,8.68,1.1,.39,1.67,1.61,1.28,2.71-.31,.86-1.12,1.4-1.99,1.4-.24,0-.48-.04-.71-.13Zm-22.13-11.27h0Z"/>
      <path class="cls-9" d="M230.08,246.31c-1.03-.56-1.41-1.84-.86-2.87,2.35-4.35,5.13-11.62,4.04-14.36-3.86-4.62-58.31-26.51-64.79-27.34-1.33,.8-4.52,5.38-7.03,10.13-.51,.97-1.69,1.39-2.7,.96l-10.9-4.64c-1.08-.46-1.58-1.7-1.12-2.78,.46-1.08,1.7-1.58,2.78-1.12l9.13,3.88c2.14-3.82,5.88-9.78,8.86-10.6,.78-.22,1.74-.48,12.72,3.48,6.36,2.29,14.57,5.48,22.5,8.74,32.53,13.36,33.91,16.44,34.36,17.45,2.46,5.48-3.02,16.13-4.14,18.2-.38,.71-1.11,1.11-1.86,1.11-.34,0-.68-.08-1-.25Zm-61.84-44.59"/>
      <path class="cls-9" d="M178.93,257.34c-8.03-3.75-16.12-7.71-22.18-10.86-10.66-5.54-10.93-6.34-11.23-7.26-.3-.91-1.11-3.33,12.18-29.3,.53-1.04,1.81-1.45,2.85-.92,1.04,.53,1.45,1.81,.92,2.85-5.39,10.53-10.99,22.53-11.77,25.84,6.63,4.78,59.83,29.92,65.93,29.92,.05,0,.1,0,.14,0,3.89-.63,6.84-8.18,7.56-10.78,.31-1.13,1.48-1.79,2.6-1.47,1.13,.31,1.79,1.48,1.47,2.6-.36,1.29-3.71,12.65-10.96,13.82-.15,.03-.33,.04-.52,.04-4.93,0-22.67-7.79-36.99-14.48Zm-29.34-19.08h0Z"/>
      <path class="cls-9" d="M205.22,268.27c.65,0,1.28-.36,1.59-.99,.64-1.3,15.59-31.91,16.77-35.46,1.25-3.75,.93-10.78,.92-11.08-.05-.97-.86-1.72-1.85-1.68-.97,.05-1.72,.87-1.68,1.85,.09,1.85,.12,7.2-.74,9.79-.92,2.76-12.29,26.22-16.59,35.03-.43,.88-.06,1.93,.81,2.36,.25,.12,.51,.18,.77,.18Z"/>
      <path class="cls-9" d="M171.52,253.25c.67,0,1.31-.38,1.61-1.03l7.7-16.95,18.12-1.33,7.91-20.17c.36-.91-.09-1.93-1-2.29-.91-.36-1.93,.09-2.29,1l-7.1,18.1-17.99,1.32-8.57,18.86c-.4,.89-.01,1.93,.88,2.34,.24,.11,.48,.16,.73,.16Z"/>
      <path class="cls-9" d="M164.65,219.75c0-4.63,3.76-8.39,8.39-8.39s8.39,3.76,8.39,8.39-3.76,8.39-8.39,8.39-8.39-3.76-8.39-8.39Zm3.53,0c0,2.68,2.18,4.86,4.86,4.86s4.86-2.18,4.86-4.86-2.18-4.86-4.86-4.86-4.86,2.18-4.86,4.86Z"/>
      <path class="cls-9" d="M152.03,228.49c.83,0,1.61-.49,1.95-1.29,.45-1.08-.05-2.32-1.13-2.77l-10.31-4.35c-1.08-.45-2.32,.05-2.77,1.13-.45,1.08,.05,2.32,1.13,2.77l10.31,4.35c.27,.11,.55,.17,.82,.17Z"/>
      <path class="cls-9" d="M155.06,200.01c5.28-6.22,9.67-13.13,14.75-19.54,.21-.25-.13-.63-.4-.45-3.59,2.19-6.84,4.91-9.85,7.84-3.02,2.95-5.82,6.04-7.96,9.73-1.23,2.25,1.79,4.35,3.47,2.43h0Z"/>
      <path class="cls-9" d="M256.03,248.55c1.68-3.43,2.69-7.09,3.58-10.79,.88-3.7,1.64-7.45,2.01-11.3,.04-.32-.43-.47-.58-.18-.94,1.68-1.79,3.39-2.63,5.09-2.41,5.12-4.97,10.22-6.36,15.72-.27,1.15,.44,2.3,1.59,2.57,.98,.23,1.96-.26,2.39-1.12h0Z"/>
      <path class="cls-9" d="M283.59,202.46c18.02,0,29.89-6.19,30.48-6.5,1.03-.55,1.42-1.83,.87-2.86-.55-1.03-1.83-1.42-2.86-.87-.21,.11-16.3,8.42-38.9,5.28-1.14-.16-2.23,.65-2.39,1.8-.16,1.16,.65,2.23,1.8,2.39,3.86,.54,7.54,.76,10.99,.76Z"/>
      <path class="cls-9" d="M150.82,336.85c6.92,1.69,17.61,1.26,23.32-3.36,.23-.27,1.67-1.37,.97-1.5-2.22,.17-4.05,.68-5.98,1.05-2.86,.57-5.78,.74-8.69,.65-2.88-.09-5.9-.43-8.7-.97-2.67-.45-3.52,3.4-.92,4.13h0Z"/>
      <path class="cls-9" d="M105.27,351.92c6.92,1.69,17.61,1.26,23.31-3.36,.23-.27,1.67-1.37,.97-1.5-2.22,.17-4.05,.68-5.98,1.05-2.86,.57-5.78,.74-8.69,.65-2.88-.09-5.9-.43-8.7-.97-2.67-.45-3.52,3.4-.92,4.13h0Z"/>
      <path class="cls-9" d="M147.36,321.34c.18,0,.36-.02,.54-.07,1.13-.3,1.8-1.45,1.51-2.58h0c-.05-.19-4.91-19.36,4.02-34.54,4.89-8.32,13.06-14,24.28-16.88,1.13-.29,1.81-1.44,1.52-2.58-.29-1.13-1.45-1.82-2.58-1.52-12.36,3.18-21.41,9.52-26.89,18.86-9.82,16.72-4.67,36.88-4.45,37.73,.25,.95,1.11,1.58,2.04,1.58Z"/>
      <path class="cls-9" d="M148.9,291.57c-5.1-5.87-10.77-11.54-13.67-18.95-1.45-1.54,.14,5.9,.38,6.36,1.98,6.04,5.43,11.73,10.45,15.73,2.09,1.52,4.55-1.24,2.84-3.14h0Z"/>
      <path class="cls-9" d="M177.62,267.29c5.74-.86,11.85-.59,17.4,1.2,5.92,1.79,10.18,5.79,14.65,10.07,.12,.13,.36,0,.3-.18-1.87-6.43-7.67-10.91-13.66-13.39-6.18-2.47-13.03-3.07-19.57-1.84-2.73,.64-1.88,4.66,.88,4.14h0Z"/>
      <path class="cls-9" d="M117.1,330.66c12.27,0,24.54-4.46,26.63-5.26,.04-.01,.08-.03,.12-.04,.89-.37,1.35-1.4,.99-2.29-.36-.9-1.43-1.32-2.33-.97-2.76,1.05-27.31,10.03-40.48,1.33-.81-.54-1.91-.31-2.44,.5-.54,.81-.31,1.91,.5,2.44,4.84,3.2,10.93,4.3,17.02,4.3Z"/>
      <path class="cls-9" d="M169.76,320.31c15.78,0,26.18-6.34,26.8-6.73,.83-.52,1.08-1.6,.56-2.43-.52-.83-1.6-1.08-2.43-.56-.22,.14-20.86,12.61-47.64,1.53-.9-.37-1.93,.05-2.3,.96-.37,.9,.05,1.93,.96,2.3,8.83,3.65,16.98,4.93,24.05,4.93Z"/>
      <path class="cls-9" d="M267.42,201.11c.47,2.53,1.68,4.65,3.12,6.72,1.42,2.03,3.06,3.93,5.05,5.47,.23,.19,.59-.06,.5-.34-.33-1.21-.72-2.33-1.06-3.48-1.1-3.19-1.97-6.94-3.67-9.84-1.22-2-4.34-.8-3.94,1.48h0Z"/>
    </g>
    <g>
      <g>
        <path class="cls-2" d="M163.27,120.02c.18,13.43,3.77,26.9,10.88,39.09,1.45,2.48,3.04,4.91,4.78,7.27,.84,1.15,1.73,2.29,2.65,3.42,2.78,3.39,5.78,6.49,8.96,9.32,2.74,2.44,5.62,4.67,8.61,6.69,3.6,2.44,7.38,4.56,11.26,6.37,1.42,.66,2.85,1.27,4.3,1.85,26.49,10.52,57.68,7.03,81.3-11.83,34.81-27.77,40-78.34,11.61-112.95-5.47-6.66-11.79-12.26-18.68-16.74-.8-.53-1.62-1.04-2.45-1.53-2.21-1.33-4.46-2.55-6.76-3.66-5.32-2.56-10.88-4.52-16.56-5.87-5.68-1.36-11.49-2.11-17.3-2.25-1.85-.04-3.7-.03-5.56,.05-2.78,.12-5.55,.38-8.32,.79-13.79,2-27.21,7.55-38.8,16.81-20.02,15.97-30.24,39.49-29.92,63.17Z"/>
        <path class="cls-9" d="M214.62,194.22c-1.45-.58-2.9-1.2-4.31-1.85-3.94-1.83-7.74-3.98-11.29-6.39-3.04-2.05-5.94-4.31-8.63-6.7-3.21-2.85-6.24-5.99-8.99-9.34-1-1.23-1.87-2.35-2.65-3.43-1.71-2.32-3.32-4.77-4.79-7.29-6.94-11.91-10.72-25.46-10.9-39.19h.22s-.22,0-.22,0c-.34-24.78,10.59-47.86,30-63.34,11.22-8.96,24.67-14.78,38.9-16.85,2.7-.4,5.51-.67,8.34-.79,1.82-.08,3.7-.1,5.57-.05,5.83,.14,11.67,.9,17.35,2.26,5.73,1.37,11.32,3.35,16.6,5.89,2.3,1.11,4.58,2.34,6.78,3.66,.86,.51,1.69,1.03,2.45,1.54,7.03,4.56,13.33,10.21,18.73,16.78,13.82,16.85,20.18,37.96,17.91,59.43-2.25,21.3-12.75,40.42-29.56,53.83-14.6,11.65-32.64,17.71-50.93,17.71-10.3,0-20.69-1.92-30.58-5.85Zm25.7-154.76c-2.82,.13-5.61,.39-8.3,.79-14.15,2.06-27.54,7.85-38.7,16.76-19.3,15.4-30.18,38.36-29.84,63,.19,13.66,3.94,27.14,10.85,38.98,1.47,2.51,3.07,4.95,4.77,7.26,.78,1.07,1.65,2.19,2.64,3.41,2.73,3.33,5.74,6.46,8.94,9.29,2.67,2.38,5.56,4.63,8.58,6.67,3.53,2.39,7.31,4.53,11.23,6.35,1.4,.65,2.84,1.27,4.29,1.85,27.31,10.85,58.38,6.33,81.09-11.8,16.72-13.34,27.16-32.35,29.4-53.54,2.26-21.35-4.07-42.35-17.82-59.11-5.37-6.53-11.63-12.15-18.63-16.69-.76-.5-1.58-1.02-2.44-1.53-2.19-1.32-4.46-2.55-6.75-3.65-5.26-2.53-10.82-4.5-16.52-5.86-5.65-1.35-11.46-2.11-17.26-2.25-.67-.02-1.34-.02-2.01-.02-1.19,0-2.37,.03-3.54,.08Z"/>
      </g>
      <g class="cls-6">
        <path class="cls-9" d="M296,182.19c-23.62,18.86-54.82,22.35-81.3,11.83-1.45-.58-2.88-1.19-4.3-1.85-3.89-1.81-7.66-3.93-11.26-6.37-2.98-2.02-5.87-4.25-8.61-6.68-3.19-2.83-6.18-5.93-8.96-9.32-.91-1.13-1.8-2.27-2.65-3.42-1.74-2.36-3.32-4.79-4.78-7.28-7.11-12.19-10.69-25.65-10.88-39.09-.1-7.38,.82-14.75,2.74-21.87,.47,12.82,4.05,25.61,10.83,37.24,1.45,2.49,3.04,4.91,4.78,7.28,.84,1.15,1.73,2.28,2.65,3.42,2.78,3.39,5.78,6.5,8.96,9.32,2.74,2.44,5.62,4.67,8.61,6.68,3.61,2.43,7.38,4.56,11.26,6.37,1.42,.66,2.86,1.27,4.3,1.85,26.49,10.52,57.67,7.03,81.3-11.83,13.79-11,22.92-25.57,27.17-41.31,.91,24.31-9.32,48.65-29.86,65.04Z"/>
      </g>
      <path class="cls-9" d="M214.09,195.56c-1.48-.59-2.95-1.23-4.38-1.89-4.01-1.87-7.88-4.05-11.49-6.5-3.09-2.09-6.05-4.38-8.78-6.82-3.27-2.9-6.35-6.1-9.15-9.52-1.01-1.25-1.89-2.39-2.7-3.48-1.74-2.36-3.38-4.85-4.88-7.42-7.07-12.12-10.91-25.92-11.1-39.9l1.66-.02-1.66,.02c-.35-25.23,10.79-48.73,30.54-64.5,11.42-9.12,25.11-15.05,39.59-17.15,2.75-.41,5.6-.68,8.49-.81,1.86-.08,3.77-.1,5.67-.05,5.94,.14,11.88,.91,17.65,2.3,5.83,1.39,11.52,3.41,16.9,5.99,2.34,1.13,4.66,2.38,6.89,3.72,.88,.52,1.73,1.05,2.5,1.57,7.16,4.65,13.57,10.39,19.06,17.08,14.07,17.16,20.54,38.64,18.24,60.5-2.29,21.69-12.98,41.15-30.1,54.81-14.86,11.86-33.22,18.03-51.84,18.03-10.48,0-21.05-1.96-31.12-5.96Zm26.3-154.66c-2.77,.12-5.51,.38-8.15,.78-13.9,2.02-27.04,7.71-38,16.46-18.95,15.11-29.62,37.66-29.29,61.85h0c.18,13.41,3.87,26.65,10.65,38.27,1.44,2.46,3.01,4.86,4.69,7.13,.77,1.05,1.62,2.15,2.59,3.35,2.69,3.27,5.64,6.35,8.78,9.13,2.62,2.34,5.46,4.54,8.43,6.55,3.47,2.35,7.18,4.45,11.03,6.24,1.38,.64,2.8,1.25,4.22,1.81,26.83,10.65,57.35,6.22,79.65-11.58,16.42-13.1,26.67-31.76,28.87-52.56,2.22-20.97-4-41.58-17.5-58.04-5.27-6.42-11.43-11.94-18.31-16.4-.74-.49-1.54-.99-2.39-1.49-2.15-1.3-4.38-2.5-6.62-3.58-5.17-2.48-10.62-4.42-16.23-5.75-5.55-1.33-11.25-2.07-16.96-2.21-.66-.02-1.31-.02-1.97-.02-1.17,0-2.33,.03-3.47,.08Z"/>
      <path class="cls-9" d="M213.92,195.99c-1.48-.59-2.97-1.23-4.41-1.9-4.03-1.88-7.92-4.07-11.56-6.53-3.11-2.1-6.08-4.41-8.83-6.86-3.29-2.92-6.38-6.13-9.2-9.57-1.02-1.25-1.9-2.4-2.71-3.5-1.75-2.37-3.4-4.88-4.9-7.46-7.11-12.19-10.97-26.06-11.16-40.13-.35-25.37,10.85-49.01,30.71-64.86,11.48-9.17,25.25-15.13,39.81-17.25,2.76-.41,5.64-.68,8.54-.81,1.87-.08,3.79-.1,5.7-.05,5.97,.14,11.94,.92,17.75,2.31,5.86,1.4,11.58,3.42,16.99,6.02,2.35,1.13,4.69,2.39,6.93,3.74,.89,.53,1.74,1.06,2.52,1.58,7.2,4.67,13.64,10.45,19.16,17.17,14.15,17.25,20.66,38.85,18.34,60.83-2.3,21.81-13.05,41.38-30.27,55.11-14.94,11.93-33.4,18.13-52.12,18.13-10.54,0-21.17-1.97-31.29-5.99Zm26.49-154.63c-2.76,.12-5.48,.38-8.11,.77-13.82,2.01-26.89,7.67-37.78,16.37-18.84,15.03-29.45,37.44-29.12,61.49h0c.18,13.34,3.84,26.49,10.59,38.05,1.43,2.45,3,4.84,4.66,7.09,.77,1.05,1.61,2.14,2.58,3.33,2.67,3.26,5.61,6.31,8.73,9.08,2.61,2.33,5.43,4.52,8.38,6.51,3.45,2.33,7.14,4.42,10.97,6.2,1.37,.63,2.78,1.24,4.19,1.8,26.68,10.6,57.02,6.18,79.2-11.52,16.32-13.02,26.51-31.58,28.7-52.25,2.2-20.84-3.98-41.34-17.4-57.7-5.24-6.38-11.36-11.87-18.21-16.31-.73-.49-1.53-.98-2.37-1.48-2.14-1.29-4.35-2.49-6.59-3.56-5.14-2.47-10.56-4.39-16.14-5.72-5.52-1.32-11.19-2.06-16.86-2.2-.65-.02-1.31-.02-1.96-.02-1.16,0-2.32,.03-3.45,.08Z"/>
      <path class="cls-10" d="M166.22,140.42c26.74,51.2,95.17,60.72,124.88,12.24,20.21-32.98,2.97-78.26-30.49-95.68-24.36-12.67-53.66-14.56-83.59,17.25,0,0-11.03,16.12-12.39,30-1.36,13.88-.3,27.63-.3,27.63l1.9,8.55Z"/>
      <path class="cls-1" d="M291.1,152.66c-29.71,48.48-98.14,38.96-124.88-12.24l-.38-1.73c42.09,32.58,102.93,29.57,133.9-18.89,.27,11.33-2.4,22.68-8.64,32.86Z"/>
      <path class="cls-9" d="M189.58,180.6l-.22-.17c-3.27-2.9-6.35-6.11-9.16-9.53-1.01-1.25-1.9-2.39-2.7-3.48-1.74-2.36-3.38-4.86-4.88-7.43-7.08-12.14-10.92-25.95-11.12-39.95-.35-25.26,10.8-48.8,30.58-64.58,11.43-9.13,25.14-15.07,39.65-17.17l.18-.03h.18c10.68,.66,21.74,3.92,32.88,9.72,20.04,10.43,35.75,30.14,42.01,52.73,5.64,20.33,3.14,40.68-7.05,57.3-11.09,18.09-27.35,30.04-47,34.56-5.56,1.28-11.28,1.91-17.05,1.91-15.88,0-32.1-4.77-46.31-13.87Zm4.7-122.38c-18.92,15.09-29.59,37.61-29.25,61.77h0c.18,13.4,3.86,26.61,10.64,38.22,1.44,2.46,3.01,4.86,4.68,7.12,.77,1.05,1.62,2.15,2.59,3.34,2.65,3.23,5.57,6.27,8.66,9.03,18.55,11.83,40.6,16,60.55,11.42,18.71-4.29,34.2-15.69,44.78-32.96,9.67-15.77,12.03-35.13,6.66-54.51-6.01-21.67-21.05-40.56-40.24-50.55-10.63-5.53-21.16-8.66-31.28-9.3-13.82,2.04-26.88,7.71-37.78,16.41Zm-3.76,120.89h0Z"/>
      <path class="cls-9" d="M232.98,185.43c-27.95-.96-53.91-18.01-67.74-44.5l-.07-.13-1.93-8.7-.02-.16c-.01-.14-1.05-14,.3-27.82,1.37-14.01,12.12-29.86,12.58-30.52l.11-.13c25.84-27.46,54.41-33.34,84.92-17.47,17.72,9.22,31.61,26.65,37.15,46.63,4.98,17.96,2.77,35.94-6.22,50.61-12.62,20.58-33.15,32.23-56.62,32.23-.81,0-1.63-.01-2.45-.04Zm-55.09-110.51c-.78,1.16-10.89,16.44-12.15,29.42-1.28,13.09-.39,26.23-.31,27.36l1.85,8.33c13.48,25.71,38.67,42.25,65.78,43.18,23.68,.82,44.48-10.54,57.1-31.13,8.67-14.14,10.79-31.49,5.97-48.86-5.38-19.39-18.85-36.31-36.03-45.25-10.76-5.6-21.28-8.4-31.52-8.4-17.81,0-34.78,8.46-50.69,25.35Zm-11.67,65.49h0Z"/>
      <path class="cls-2" d="M324.71,166.35c-6.57,14.41-20.71,22.59-31.6,18.27-10.89-4.32-14.39-19.51-7.82-33.91,.04-.09,.09-.19,.13-.28,6.62-14.24,20.66-22.28,31.47-17.99,8.41,3.34,12.41,13.16,10.77,24.1-.48,3.22-1.46,6.54-2.95,9.82Z"/>
      <g class="cls-6">
        <path class="cls-9" d="M324.71,166.35c-6.57,14.41-20.71,22.59-31.6,18.27-10.89-4.32-14.39-19.51-7.82-33.91,.04-.09,.09-.19,.13-.28,.52,1.95,1.72,4.15,4.47,4.66,4.81,.89,16.97-5.22,16.97-5.22,0,0,9.04,2.83,20.8,6.67-.48,3.22-1.46,6.54-2.95,9.82Z"/>
      </g>
      <path class="cls-9" d="M292.33,186.58c-4.8-1.91-8.46-5.68-10.57-10.93-3.03-7.53-2.45-16.95,1.6-25.83,7.02-15.4,22.4-24.08,34.3-19.35,4.8,1.91,8.46,5.68,10.57,10.93,3.03,7.53,2.45,16.95-1.6,25.83-5.72,12.55-17,20.64-27.43,20.64-2.36,0-4.68-.42-6.88-1.29Zm-5.11-35c-3.52,7.72-4.09,16.13-1.53,22.5,1.67,4.14,4.5,7.1,8.2,8.57,9.83,3.91,22.8-3.8,28.89-17.17,3.52-7.72,4.09-16.13,1.53-22.5-1.67-4.14-4.5-7.1-8.2-8.57-1.73-.69-3.56-1.02-5.43-1.02-8.76,0-18.44,7.17-23.46,18.19Z"/>
      <g>
        <ellipse class="cls-2" cx="310.22" cy="163.5" rx="22.79" ry="17.23" transform="translate(13.52 350.42) rotate(-60)"/>
        <path class="cls-9" d="M305.12,185.25c-4.18-.16-7.74-1.96-10.29-5.19-6.13-7.77-4.24-21.52,4.22-30.65,4.72-5.09,10.62-7.9,16.27-7.66,4.18,.16,7.74,1.96,10.29,5.19,6.13,7.77,4.24,21.52-4.22,30.65-4.54,4.9-10.21,7.67-15.64,7.67-.21,0-.42,0-.62-.01Zm-5.75-35.53c-8.31,8.98-10.2,22.46-4.19,30.06,2.47,3.12,5.91,4.86,9.96,5.02,5.49,.21,11.29-2.52,15.92-7.52h0c8.31-8.98,10.2-22.46,4.19-30.06-2.47-3.12-5.91-4.86-9.96-5.02-.2,0-.4-.01-.61-.01-5.31,0-10.86,2.72-15.32,7.53Z"/>
      </g>
      <g class="cls-6">
        <path class="cls-9" d="M291.38,165.59c.76-4.25,2.71-8.3,5.4-11.71-.91,9.84,5.36,16.85,14.69,15.95,6.03-.58,11.95-4.33,16.1-9.62-.05,.62-.14,1.26-.26,1.9-1.95,10.82-11.57,20.36-21.49,21.32-9.92,.96-16.38-7.04-14.44-17.85Z"/>
      </g>
      <path class="cls-9" d="M300.01,186.21c-3.59-1.39-6.32-4.21-7.92-8.15-2.46-6.08-1.86-14.2,1.61-21.73,5.85-12.7,18.14-20.12,27.4-16.53,3.59,1.39,6.32,4.21,7.92,8.15,2.46,6.08,1.86,14.2-1.61,21.73h0c-4.85,10.54-14.13,17.43-22.44,17.43-1.71,0-3.38-.29-4.96-.91Zm23.55-18.3c2.99-6.49,3.56-13.36,1.53-18.37-1.15-2.83-3.06-4.84-5.53-5.8-7.21-2.8-17.09,3.64-22.02,14.35-2.99,6.49-3.56,13.36-1.53,18.37,1.15,2.83,3.06,4.84,5.53,5.8,7.21,2.8,17.09-3.64,22.02-14.35h0Z"/>
      <g class="cls-4">
        <path class="cls-2" d="M271.08,79.7s-32.96-14.6-60.04-5.66c-.03,0-.06,.02-.09,.03-5.7,1.89-10.76,5.27-14.69,9.75-5.19,5.93-7.89,10.77-10.09,15.12-6.7,13.25-7.32,20.71-7.32,20.71-4.12-10.82-4.42-20.92,1.05-32.01,.54-1.09,1.14-2.2,1.79-3.31,.15-.26,.3-.51,.46-.76,0,0,0,0,.01-.01,1.48-2.17,3.54-4.94,6.13-7.87,7.8-8.85,20.38-19.19,36.47-18.87,30.08,.6,48.12,22.07,46.31,22.9Z"/>
      </g>
      <g class="cls-4">
        <ellipse class="cls-2" cx="278.61" cy="122.02" rx="12.5" ry="10.88" transform="translate(105.06 371.81) rotate(-78.86)"/>
      </g>
      <g class="cls-4">
        <ellipse class="cls-2" cx="274.04" cy="144.27" rx="5.16" ry="4.49" transform="translate(102.77 402.3) rotate(-84.19)"/>
      </g>
    </g>
    <g class="cls-6">
      <path class="cls-9" d="M272.15,206.78s-16.31,7.42-46.77,1.46c-30.47-5.96-43.8-38.44-43.8-38.44,0,0,35.69,26.34,59.88,27.42,24.19,1.08,26.62,1.35,26.62,1.35l4.07,8.21Z"/>
    </g>
  </g>
  <g>
    <path class="cls-9" d="M236.04,205.47h0s-12.85,0-12.85,0l5.29,5.29h7.14c1.03,0,1.86,.87,1.86,1.94s-.83,1.94-1.86,1.94h-4.35l5.25,5.27c3.59-.27,6.42-3.39,6.42-7.22s-3.08-7.23-6.89-7.24Z"/>
    <polygon class="cls-9" points="229.76 214.65 225.06 214.65 224.58 214.65 223.67 214.65 222.67 214.65 228.46 220.48 229.34 220.47 235.09 226.38 241.43 226.38 235.01 219.93 229.76 214.65"/>
  </g>
</svg>