<?xml version="1.0" encoding="UTF-8"?>
<svg id="Layer_1" data-name="Layer 1" xmlns="http://www.w3.org/2000/svg" viewBox="0 0 500 500">
  <defs>
    <style>
      .cls-1 {
        fill: #9d9d9d;
      }

      .cls-2 {
        opacity: .7;
      }

      .cls-3 {
        fill: #fff;
      }

      .cls-4 {
        opacity: .5;
      }

      .cls-5 {
        opacity: .2;
      }

      .cls-6 {
        fill: #353535;
      }

      .cls-7 {
        fill: #030b2f;
      }

      .cls-8 {
        fill: #292929;
      }

      .cls-9 {
        fill: #bbb;
      }

      .cls-10 {
        fill: #545454;
      }

      .cls-11 {
        fill: #1e1e1e;
      }

      .cls-12 {
        opacity: .25;
      }
    </style>
  </defs>
  <g class="cls-5">
    <ellipse class="cls-6" cx="276.17" cy="416.1" rx="119.76" ry="14.4"/>
  </g>
  <g>
    <path class="cls-3" d="M349.28,338.23c9.64,6.06,47.78,26.42,55.92,5.22,2.17-5.65,3.17-12.26,3.32-19.28,.52-23.64-8.55-51.91-14.54-63.89-3.82-7.64-9.36-11.27-14-12.98-4.81-1.78-8.65-1.51-8.65-1.51l-20.92,6.67s-1.34,65.32-2.73,80.89c-.19,2.14-.39,3.33-.58,3.31-.23-.03,.59,.58,2.18,1.58Z"/>
    <g class="cls-12">
      <path class="cls-6" d="M347.67,333.34c.52,1.7,1.06,3.33,1.61,4.89,9.64,6.06,47.78,26.42,55.92,5.22,2.17-5.65,3.17-12.26,3.32-19.28-8.17-.41-17.44-2.59-16.92-7.22,.85-7.62-5.59-43.51-10.77-56.67-5.18-13.16,.86-11.16,.86-11.16l-1.7-1.82c-4.81-1.78-8.65-1.51-8.65-1.51l-20.92,6.67s-1.34,65.32-2.73,80.89Z"/>
    </g>
    <path class="cls-6" d="M375.38,353.06c-7.97-2.38-15.57-6.02-20.55-8.67-2.42-1.29-4.8-2.65-6.7-3.83-2.68-1.67-4.02-2.51-3.6-4.45,.06-.29,.17-.55,.32-.79,1.04-5.73,2.37-53.45,2.97-82.92,.03-1.43,1.2-2.54,2.64-2.54,1.43,.03,2.56,1.21,2.54,2.64,0,.21-.43,20.96-1.04,41.61-.81,27.4-1.36,37.52-1.97,41.52,6.06,4.05,30.94,17.61,44.75,14.05,3.96-1.02,6.59-3.37,8.06-7.18,8.93-23.23-3.04-64.93-11.12-81.08-6.86-13.72-19.62-13.1-20.17-13.07-1.43,.1-2.65-.98-2.75-2.4-.1-1.43,.98-2.66,2.4-2.76,.68-.04,16.71-.97,25.15,15.92,8.69,17.38,20.93,60.24,11.32,85.25-2.12,5.52-6.98,11.09-17.95,11.09-3.93,0-8.64-.71-14.28-2.4Zm-27.94-18.98c-.34-.05-.67-.02-.96,.05,.2-.05,.4-.07,.61-.07,.12,0,.23,0,.35,.02Z"/>
    <path class="cls-3" d="M269.71,415.29c5.82,5.93,35.71,4.32,43.8,2.8,8.09-1.51,8.63-11.65,8.63-11.65l-.05-1.52-1.57-54.03c4.21,.56,8.49,.48,12.83-.11,.5,14.7,.93,27.69,1.29,38.51-2.48,1.23-4.39,2.91-5.78,4.85-5.7,8.01-2.31,20.46,7.94,24.28,18.08,3.54,38.52,2.21,46.72-10.74,1.35-2.14,2.06-4.63,2.19-7.16l.45-8.74,.08-1.61c1.01-19.79,.87-39.62-.64-59.37-2.67-34.94-8.6-64.72-24.03-79.47l-55.84-7.64c-14.03-1.51-36.89,7.64-36.89,7.64l-2.59,14.15s9.49,9.49,6.69,48.98c-.17,2.45-.31,4.89-.42,7.28-1.64,36.13,3.77,64.77,3.77,64.77-16.61,8.3-12.41,22.87-6.58,28.8Z"/>
    <path class="cls-6" d="M336.31,420.96c-.14-.03-.27-.07-.41-.12-5.55-2.07-9.73-6.57-11.47-12.08-.69,3.6-2.99,10.48-10.45,11.87-6.12,1.14-38.79,3.93-46.12-3.54-3.37-3.44-6.88-10.07-5.64-17.47,.7-4.2,3.24-10.01,11.2-14.55-1.24-7.55-5.47-36.83-3.06-70.84,2.64-37.2-5.89-46.9-5.94-46.96-.6-.6-.87-1.46-.72-2.3l2.59-14.15c.16-.88,.76-1.61,1.58-1.94,.96-.38,23.63-9.37,38.13-7.81,1.42,.15,2.45,1.43,2.3,2.85-.15,1.42-1.42,2.45-2.85,2.3-11.34-1.22-29.33,5.1-34.33,6.96l-2.11,11.56c2.57,3.61,8.9,16.14,6.51,49.85-2.75,38.66,3.24,71.07,3.31,71.39,.21,1.14-.35,2.28-1.39,2.8-5.91,2.96-9.32,6.89-10.12,11.69-.86,5.12,1.51,10.21,4.23,12.99,4.53,4.62,32.08,3.83,41.47,2.07,5.69-1.06,6.44-8.23,6.51-9.15l-1.61-55.43c-.02-.76,.29-1.49,.85-2,.56-.51,1.32-.75,2.07-.64,3.82,.5,7.9,.47,12.15-.11,.72-.1,1.46,.12,2.02,.59,.56,.47,.89,1.16,.92,1.89l1.29,38.51c.03,1.01-.53,1.95-1.44,2.41-4.7,2.34-7.35,6.85-7.08,12.06,.29,5.49,3.73,10.27,8.8,12.25,8.18,1.58,34.39,5.27,43.82-9.63,1.06-1.68,1.68-3.72,1.8-5.91l.53-10.36c1.03-20.18,.82-40.04-.63-59.04-3.17-41.47-10.34-65.47-23.24-77.8-1.03-.99-1.07-2.63-.08-3.66,.99-1.03,2.63-1.07,3.66-.08,13.89,13.28,21.55,38.3,24.83,81.15,1.47,19.22,1.69,39.3,.64,59.7l-.53,10.36c-.16,3.07-1.05,5.98-2.59,8.41-5.64,8.91-17.25,13.66-32.39,13.66-5.28,0-10.99-.58-17.02-1.76Zm-5.45-67.3c-2.62,.22-5.19,.25-7.67,.09l1.26,43.37c1.29-3.84,3.9-7.1,7.55-9.33l-1.15-34.13Z"/>
    <g>
      <circle class="cls-3" cx="327.73" cy="179.95" r="78.96"/>
      <g class="cls-12">
        <path class="cls-6" d="M249.79,192.66c6.08,37.56,38.66,66.25,77.94,66.25,43.61,0,78.96-35.35,78.96-78.96,0-13.23-3.26-25.7-9.01-36.66,.67,4.14,1.02,8.38,1.02,12.71,0,43.61-35.35,78.96-78.96,78.96-30.37,0-56.74-17.15-69.95-42.3Z"/>
      </g>
      <path class="cls-7" d="M260.75,221.79c25.47,42.37,105.4,32.02,121.26-7.46l8.71-29.5c-6.45-56.25-74.94-98.41-124.36-54.55-19.15,29.42-25.1,59.67-5.6,91.52Z"/>
      <g class="cls-2">
        <path class="cls-8" d="M248.76,183.59c.32,12.5,4.04,25.22,11.99,38.2,25.47,42.37,105.4,32.02,121.26-7.46l8.71-29.5c-.56-4.87-1.58-9.63-3.02-14.24-11.88,28.56-40.06,48.63-72.92,48.63-27.61,0-51.91-14.17-66.02-35.63Z"/>
      </g>
      <path class="cls-6" d="M246.18,179.95c0-44.97,36.58-81.55,81.55-81.55s81.55,36.58,81.55,81.55-36.58,81.55-81.55,81.55-81.55-36.58-81.55-81.55Zm5.18,0c0,42.11,34.26,76.37,76.37,76.37s76.37-34.26,76.37-76.37-34.26-76.37-76.37-76.37-76.37,34.26-76.37,76.37Z"/>
      <ellipse class="cls-3" cx="395.92" cy="206.45" rx="23.41" ry="18.77" transform="translate(108.33 548.02) rotate(-77.44)"/>
      <g class="cls-12">
        <path class="cls-6" d="M390.84,229.3c10.12,2.26,20.59-6.15,23.41-18.76,1.13-5.06,.85-10.03-.54-14.32-3.44,11.45-13.32,18.82-22.87,16.69-6.06-1.35-10.62-6.21-12.69-12.61-.21,.68-.39,1.37-.54,2.08-2.81,12.61,3.11,24.67,13.24,26.92Z"/>
      </g>
      <path class="cls-6" d="M390.41,231.19c-11.15-2.48-17.74-15.6-14.7-29.25h0c3.04-13.64,14.58-22.72,25.73-20.24,11.15,2.48,17.74,15.6,14.7,29.25-2.7,12.13-12.12,20.65-22.01,20.65-1.24,0-2.48-.13-3.72-.41Zm-10.91-28.4c-2.57,11.55,2.7,22.59,11.76,24.61,9.06,2.02,18.52-5.74,21.09-17.29,2.57-11.55-2.7-22.59-11.76-24.61-.97-.22-1.94-.32-2.9-.32-8.09,0-15.89,7.29-18.19,17.61Z"/>
      <path class="cls-6" d="M397.28,224.5c-7.58-1.69-12-10.9-9.86-20.53h0c1.02-4.57,3.35-8.58,6.57-11.3,3.37-2.84,7.3-3.95,11.07-3.1,7.58,1.69,12,10.9,9.86,20.53-1.92,8.6-8.43,14.67-15.2,14.67-.81,0-1.63-.09-2.44-.27Zm-.79-28.85c-2.57,2.17-4.45,5.43-5.28,9.17h0c-1.68,7.54,1.42,14.67,6.91,15.89,5.49,1.23,11.32-3.92,13-11.46,1.68-7.54-1.42-14.67-6.91-15.89-.53-.12-1.08-.18-1.62-.18-2.07,0-4.18,.84-6.1,2.46Z"/>
      <path class="cls-6" d="M397.86,185.51c.1,0,.21,0,.31-.02,1.24-.17,2.11-1.31,1.94-2.55-3.59-26.36-14.94-47.77-32.8-61.92-17.94-14.2-41.32-20.16-67.62-17.25-1.24,.14-2.14,1.26-2,2.5,.14,1.24,1.27,2.14,2.5,2,50.97-5.65,88.43,23.89,95.44,75.27,.15,1.14,1.13,1.96,2.24,1.96Z"/>
      <g class="cls-4">
        <path class="cls-3" d="M315.1,125.8c-30.71-.82-48.6,14.68-55.65,43.54-.66,2.7,2.78,4.43,4.55,2.29,14.42-17.52,30.88-32.37,52-40.8,2.62-1.05,1.93-4.95-.89-5.03Z"/>
      </g>
      <g class="cls-4">
        <ellipse class="cls-3" cx="361.46" cy="172.26" rx="9.87" ry="12.62"/>
      </g>
      <g class="cls-4">
        <circle class="cls-3" cx="361.58" cy="199.16" r="5.38"/>
      </g>
    </g>
    <path class="cls-3" d="M360.65,296.74s-5.82,5.61-10.25,8.2c0,0-.05,3.96,5.61,5.18s29.02,2.36,31.01-5.34c1.73-6.69-2.18-9.12-7.85-8.04-5.66,1.08-18.53,0-18.53,0Z"/>
    <g class="cls-12">
      <path class="cls-6" d="M350.4,304.94s-.06,3.97,5.61,5.18c5.66,1.22,29.03,2.36,31.01-5.34,.36-1.4,.48-2.63,.38-3.66-6.89,3.95-23.46,3-28.11,2-1.81-.39-3.03-1.05-3.86-1.79-1.63,1.33-3.43,2.67-5.04,3.61Z"/>
    </g>
    <path class="cls-6" d="M355.47,312.65c-7.65-1.64-7.66-7.5-7.66-7.74,.01-.91,.5-1.74,1.28-2.2,4.1-2.4,9.7-7.77,9.76-7.83,.54-.52,1.27-.78,2.01-.71,.13,.01,12.58,1.04,17.83,.04,4.01-.76,7.33,0,9.34,2.15,1.37,1.46,2.75,4.23,1.49,9.08-1.71,6.63-12.68,8.14-21.78,8.14-5.81,0-10.87-.62-12.28-.92Zm24.19-13.36c-4.97,.95-14.71,.37-18.07,.13-1.54,1.42-4.89,4.43-8.09,6.62,.47,.56,1.36,1.19,3.05,1.55,7.19,1.54,26.75,1.24,27.96-3.46,.52-2.01,.43-3.51-.26-4.24-.49-.53-1.43-.8-2.65-.8-.59,0-1.25,.07-1.95,.2Z"/>
    <path class="cls-6" d="M362.95,297.93l2.66-10.79-7.26,8.41c-.96,1.11-.84,2.79,.28,3.75,1.44,1.31,3.9,.5,4.32-1.38h0Z"/>
    <path class="cls-10" d="M175.09,159.95s8.98,12.74,12.64,20.19c1.97,4.01,7.58,6.89,12.33,8.69,4.07,1.55,7.52,2.31,7.52,2.31l7.38-12.53,3.11-5.27c-.17-.21-1.12-2.72-2.91-6.15-2.89-5.51-7.97-13.37-15.55-17.69,0,0-13.52,.83-22.59,8.62-.67,.57-1.31,1.18-1.92,1.83Z"/>
    <g class="cls-2">
      <path class="cls-3" d="M175.09,159.95s.48,.68,1.26,1.81c9.04-7.07,21.63-7.84,21.63-7.84,10.72,6.11,16.44,19.28,18.03,22.91l2.06-3.49c-.45-.54-6.17-16.83-18.47-23.84,0,0-15.58,.95-24.51,10.45Z"/>
    </g>
    <path class="cls-6" d="M207.03,193.66c-1.78-.39-17.51-4.07-21.61-12.39-3.54-7.17-12.35-19.71-12.44-19.84-.71-1-.61-2.37,.23-3.26,9.53-10.13,25.56-11.22,26.24-11.26,.51-.03,1,.09,1.44,.34,7.57,4.32,13.99,12.41,19.09,24.06,.13,.31,.23,.54,.3,.68,.66,1.07,.45,2.5-.54,3.33-1.1,.92-2.73,.78-3.65-.32-.3-.36-.43-.65-.85-1.62-4.48-10.24-9.94-17.37-16.23-21.23-2.89,.31-13.42,1.86-20.53,8.13,2.63,3.83,8.67,12.79,11.58,18.71,2.55,5.18,13.92,8.7,18.08,9.62,1.4,.31,2.28,1.69,1.97,3.08-.27,1.21-1.34,2.03-2.53,2.03-.18,0-.37-.02-.56-.06Zm13.03-21.99h0Zm0,0s0,0,0,0c0,0,0,0,0,0Z"/>
    <ellipse class="cls-11" cx="196.35" cy="168.37" rx="6.56" ry="7.77" transform="translate(-44.79 74.82) rotate(-19.41)"/>
    <path class="cls-10" d="M179.59,186.27s-10.63-11.85-25.4-19.08c0,0-10.57,10.8-14.99,19.69,0,0,9.82,7.81,25.03,21.19,15.21,13.38,22.33-4.75,22.33-4.75"/>
    <g class="cls-12">
      <path class="cls-6" d="M175.09,159.95s8.98,12.74,12.64,20.19c1.97,4.01,7.58,6.89,12.33,8.69,3.39-1.81,7.71-4.57,10.43-6.21,.84-.5,2.57-2.05,4.47-4.01l3.11-5.27c-.17-.21-1.12-2.72-2.91-6.15-15.51,6.05-33.32-5.39-38.14-9.07-.67,.57-1.31,1.18-1.92,1.83Z"/>
    </g>
    <g class="cls-2">
      <path class="cls-3" d="M139.19,186.88s.83,.66,2.38,1.93c4.98-8.01,13.05-16.25,13.05-16.25,14.78,7.23,25.4,19.08,25.4,19.08l5.56,13.63c.65-1.15,.96-1.95,.96-1.95l-6.96-17.05s-10.63-11.85-25.4-19.08c0,0-10.57,10.8-15,19.69Z"/>
    </g>
    <path class="cls-6" d="M174.75,215.59c.97,0,1.94-.12,2.89-.35,7.66-1.85,11.17-10.6,11.32-10.97,.52-1.33-.13-2.83-1.46-3.36-1.33-.52-2.83,.13-3.36,1.46-.02,.06-2.7,6.63-7.74,7.84-3.04,.73-6.56-.65-10.47-4.09-11.49-10.1-19.99-17.11-23.44-19.91,3.55-6.19,9.61-12.99,12.25-15.84,13.25,6.96,22.82,17.52,22.92,17.63,.96,1.06,2.59,1.15,3.66,.2,1.06-.95,1.15-2.59,.2-3.65-.45-.5-11.14-12.31-26.19-19.68-1-.49-2.21-.28-2.99,.52-.44,.45-10.91,11.2-15.46,20.35-.54,1.09-.25,2.42,.71,3.18,.1,.08,9.95,7.93,24.93,21.11,4.21,3.71,8.32,5.57,12.24,5.57Z"/>
    <path class="cls-10" d="M206.21,184.31s-4.88-11.08-11.57-17.12l-20.28,7.87s6.8,16.23,9.98,26.62c3.18,10.38,23.68,1.97,23.68,1.97"/>
    <g class="cls-2">
      <path class="cls-3" d="M174.36,175.06s.59,1.4,1.5,3.65l17.37-6.75c6.69,6.04,11.57,17.13,11.57,17.13l1.42,15.23c1.11-.39,1.79-.67,1.79-.67l-1.81-19.34s-4.89-11.08-11.57-17.12l-20.28,7.87Z"/>
    </g>
    <path class="cls-6" d="M193.5,209.45c6.92,0,14.41-2.97,15.5-3.41,1.32-.54,1.95-2.06,1.41-3.38-.54-1.32-2.05-1.95-3.38-1.41-3.39,1.39-13.23,4.49-17.99,2.24-1.15-.55-1.86-1.36-2.23-2.57-2.48-8.08-7.02-19.44-9.05-24.4l16.27-6.32c5.62,5.76,9.76,15.06,9.81,15.15,.58,1.31,2.11,1.9,3.41,1.32,1.31-.58,1.9-2.1,1.32-3.41-.21-.47-5.19-11.66-12.21-18-.73-.66-1.76-.85-2.67-.49l-20.28,7.87c-.65,.25-1.17,.76-1.45,1.4-.27,.64-.27,1.37,0,2.01,.07,.16,6.79,16.23,9.89,26.37,.79,2.59,2.51,4.57,4.97,5.74,1.97,.93,4.28,1.28,6.67,1.28Z"/>
    <path class="cls-10" d="M202.59,196.9s5.21-25.5,17.94-36.94c0,0,10.8-.49,28.21,5.34,0,0-11.06,14.24-16.24,30.1-5.18,15.86-29.91,1.5-29.91,1.5Z"/>
    <g class="cls-2">
      <path class="cls-3" d="M221.55,202.85c4.8,0,9.11-1.81,10.95-7.46,5.18-15.86,16.24-30.1,16.24-30.1-17.41-5.82-28.21-5.34-28.21-5.34-.85,.77-1.68,1.6-2.46,2.48,4.8,.43,12.81,1.67,23.15,5.13,0,0-11.06,14.24-16.24,30.1-.76,2.34-1.95,4.02-3.43,5.19Z"/>
    </g>
    <path class="cls-6" d="M201.29,199.14c-.96-.56-1.46-1.67-1.24-2.76,.22-1.08,5.53-26.48,18.74-38.35,.44-.4,1.02-.63,1.61-.66,.46-.02,11.49-.44,29.15,5.47,.8,.27,1.41,.9,1.66,1.71,.24,.8,.08,1.68-.43,2.34-.11,.14-10.84,14.06-15.82,29.31-1.33,4.07-3.86,6.85-7.53,8.25-1.82,.69-3.81,.98-5.85,.98-9.33,0-19.77-5.98-20.3-6.29Zm20.26-36.59c-9.55,9.22-14.57,27.2-16,33.02,4.8,2.45,14.31,6.24,20.04,4.05,2.16-.83,3.61-2.47,4.45-5.02,3.9-11.95,10.94-22.85,14.49-27.92-12.04-3.64-20.33-4.09-22.98-4.13Z"/>
    <ellipse class="cls-11" cx="225.38" cy="180.89" rx="6.8" ry="5.82" transform="translate(-35.19 305.85) rotate(-64.37)"/>
    <path class="cls-9" d="M164.88,340.25c8.97,4.38,24.56,7.9,34.54,8.1,34.83,.72,69.81-14.48,75.29-35.25,.07-.24,.13-.49,.19-.72,9.64-18.54,9.97-35.57,1.29-51.13-3.57-6.39-8.45-11.96-14.19-16.52-5.81-4.61-16.42-14.08-22.23-25.62-1.44-2.85-2.58-5.82-3.27-8.89h0c.08-.28,2.12-6.72,3.94-13.21,1.86-6.63-4.53-13.03-11.24-8.74-6.72,4.29-7.2,10.19-11.46,7.55-4.27-2.65-8.63-2.91-11.6,.81s-6.15-4.8-10.95-1.62c-4.8,3.18-4.26,3.56-9.16,2.53-4.91-1.02-8.47,6.31-10.58,5.02-1.4-.85-6.79-4.79-11.82-5.27-2.56-.25-5.04,.39-6.83,2.8-4.1,5.48,2.88,16.04,6.33,20.64,1.04,1.39,1.76,2.23,1.76,2.23,0,0,.61,2.74-.69,7.71-1.25,4.76-4.27,11.55-11.28,19.91-15.14,18.04-36.46,66.06,11.99,89.68Z"/>
    <g class="cls-2">
      <path class="cls-3" d="M229.19,188.28c-1.05,.67-1.95,1.38-2.72,2.09,5.29-.8,9.43,4.54,7.89,10.04-1.86,6.63-3.94,13.21-3.94,13.21,3.55,15.46,18.27,28.76,25.51,34.51,5.73,4.56,10.61,10.12,14.19,16.52,8.69,15.56,8.35,32.59-1.29,51.13-1.92,8.33-8.57,15.8-18.1,21.74,12.73-6.38,21.88-15.13,24.17-25.14,9.64-18.54,9.97-35.57,1.29-51.13-3.57-6.39-8.45-11.96-14.19-16.52-7.24-5.75-21.96-19.05-25.5-34.51,0,0,2.08-6.58,3.94-13.21s-4.53-13.03-11.24-8.74Z"/>
    </g>
    <g class="cls-2">
      <path class="cls-3" d="M205.51,197.25c1.95-.03,4.05,.69,6.13,1.98,2.86,1.77,4.03-.3,6.5-3.16-.14-.06-.28-.14-.42-.23-4.27-2.65-8.63-2.91-11.6,.81-.21,.26-.41,.45-.61,.61Z"/>
    </g>
    <g class="cls-2">
      <path class="cls-3" d="M195.17,195.02c-2.1,1.39-3.18,2.25-4.14,2.69,3.76-.32,6.47,5.53,9.02,2.33,1.08-1.36,2.35-2.18,3.73-2.56-2.36-.72-5.04-4.83-8.6-2.46Z"/>
    </g>
    <g class="cls-2">
      <path class="cls-3" d="M178.89,200.85c.34,0,.68,.03,1.04,.1,4.91,1.03,4.37,.65,9.17-2.53,.23-.16,.46-.28,.69-.38-.87,.08-1.95-.11-3.77-.49-2.83-.59-5.21,1.59-7.12,3.3Z"/>
    </g>
    <g class="cls-2">
      <path class="cls-3" d="M156.41,200.64c5.33-.07,11.45,4.41,12.94,5.33,1.33,.82,3.26-1.83,5.73-3.62-2.77-1.8-13.22-9.05-18.32-2.26-.14,.17-.25,.36-.36,.55Z"/>
    </g>
    <g class="cls-2">
      <path class="cls-3" d="M205.5,197.25c-.6,0-1.17,.08-1.73,.23,.59,.19,1.16,.17,1.73-.23Z"/>
    </g>
    <g class="cls-2">
      <path class="cls-3" d="M191.03,197.71c-.4,.03-.82,.14-1.25,.34,.45-.04,.83-.15,1.25-.34Z"/>
    </g>
    <path class="cls-6" d="M199.36,350.94c-10.63-.22-26.61-3.97-35.62-8.36-16.93-8.26-27.14-20.1-30.35-35.2-5.03-23.68,8.64-47.89,17.52-58.47,11.42-13.6,11.63-22.69,11.49-24.87-2.81-3.43-13.62-17.59-7.69-25.5,4.21-5.61,11.39-5.15,21.35,1.35,.36-.29,.83-.71,1.21-1.04,2.08-1.86,5.22-4.67,9.28-3.82,1.41,.29,2.62,.53,3.13,.43,.42-.08,1.11-.56,2.25-1.35,.52-.36,1.11-.77,1.83-1.24,3.96-2.63,7.42-.15,9.27,1.19,.36,.26,.86,.62,1.21,.82,3.57-4.33,9.11-4.8,14.86-1.24,.27,.17,.44,.23,.52,.26,.39-.21,1.2-1.18,1.8-1.9,1.39-1.66,3.31-3.93,6.38-5.89,3.8-2.43,8.05-2.41,11.37,.06,3.47,2.57,4.98,7.22,3.76,11.56-1.5,5.36-3.16,10.73-3.75,12.6,3.7,14.65,18.27,27.5,24.43,32.39,6.18,4.91,11.18,10.73,14.84,17.28,9.09,16.28,8.72,34.22-1.1,53.3-5.14,21.09-38.59,37.68-75.47,37.68-.84,0-1.67,0-2.51-.03Zm31.22-160.49c-2.41,1.54-3.9,3.31-5.21,4.86-1.94,2.3-4.59,5.45-9.01,2.71-3.57-2.21-6.33-2.14-8.21,.22-2.97,3.73-6.61,1.12-8.16,0-2.12-1.52-2.6-1.6-3.39-1.07-.68,.45-1.25,.85-1.75,1.19-3.53,2.44-4.46,2.75-9.38,1.72-1.5-.31-3.24,1.24-4.77,2.61-1.72,1.54-4.08,3.65-6.63,2.08-.19-.12-.44-.28-.76-.49-7.42-4.87-12.16-5.73-14.48-2.64-3.09,4.12,4.05,15.01,7.99,19.64,.27,.32,.46,.7,.56,1.11,.11,.48,2.47,11.98-12.52,29.85-7.7,9.18-21.05,32.29-16.42,54.07,2.86,13.46,12.13,24.1,27.56,31.62,8.45,4.12,23.45,7.64,33.45,7.84,.78,.02,1.56,.02,2.35,.02,34.25,0,66.26-15.29,70.56-33.99,.05-.21,.13-.42,.23-.61,9.25-17.79,9.68-33.71,1.33-48.67-3.33-5.96-7.88-11.26-13.54-15.75-8.3-6.59-22.77-20.03-26.42-35.96-.1-.45-.08-.92,.05-1.36,.02-.07,2.09-6.61,3.91-13.13,.74-2.65-.4-4.92-1.86-6.01-.75-.56-1.59-.84-2.48-.84-.97,0-1.99,.33-3.02,.99Zm-26.58,4.68h0Z"/>
    <path class="cls-1" d="M159.08,225.74c-.02,2.77,2.34,4.96,5.09,4.92h.08c7.8-.25,15.43-.73,22.89-1.44,16.6-1.57,32.37-4.3,47.21-8.28,1.29-.34,2.56-.7,3.84-1.06,.57-.17,1.1-.43,1.57-.77,1.11-.8,1.86-2.05,2.02-3.45,0-.05,0-.1,.01-.15,.27-3.05-2.36-5.48-5.31-5.29-.26,.01-.52,.05-.78,.11-1.29,.28-2.58,.57-3.87,.84-15.18,3.24-30.55,5.71-46.11,7.48-7.28,.82-14.61,1.49-21.97,1.99-.22,.01-.44,.05-.65,.09-1.97,.39-3.59,1.92-3.93,3.94-.06,.36-.09,.72-.1,1.08Z"/>
    <g class="cls-2">
      <path class="cls-3" d="M234.36,220.94c1.29-.34,2.56-.7,3.84-1.06,1.94-.56,3.37-2.22,3.59-4.22,0-.05,0-.1,.01-.15,.3-3.31-2.84-5.9-6.09-5.18-1.29,.28-2.58,.57-3.87,.84h0s4.63,4.21,2.53,9.77Z"/>
    </g>
    <path class="cls-6" d="M158.74,231.07c-1.47-1.43-2.26-3.33-2.25-5.35,0-.49,.05-1,.13-1.5,.58-3.39,3.44-5.93,6.95-6.18,24.49-1.69,48.57-5.14,71.57-10.25h0c2.38-.53,4.89,.12,6.73,1.73,1.8,1.58,2.72,3.85,2.5,6.24l-.02,.18c-.34,3.05-2.47,5.57-5.44,6.42-22.14,6.33-47.22,9.99-74.57,10.88-.08,0-.16,0-.25,0-1.99,0-3.93-.79-5.36-2.18Zm77.53-18.22h0c-23.25,5.17-47.59,8.65-72.34,10.36-1.1,.08-2.03,.87-2.2,1.88-.04,.22-.06,.45-.06,.67,0,.6,.24,1.17,.69,1.6,.48,.47,1.15,.73,1.82,.71,26.92-.88,51.59-4.47,73.32-10.69,.92-.26,1.62-1.07,1.72-2.01v-.1c.1-.96-.43-1.57-.75-1.86-.46-.41-1.05-.62-1.65-.62-.18,0-.36,.02-.53,.06Z"/>
    <g class="cls-12">
      <path class="cls-6" d="M164.88,340.25c8.97,4.38,24.56,7.9,34.54,8.1,34.83,.72,69.81-14.48,75.29-35.25l-40.26-22.33-2.61,20.21c-64.2,23.31-81.85-35.18-61.14-53.95,16.69-15.13,16.98-24.68,16.46-27.82-.12-.76-.29-1.14-.29-1.14-7.62-4.37-1.13-9.44-1.13-9.44l-5.33-1.24c-30.94-8.6-16.79-20.11-16.79-20.11-2.56-.25-5.04,.39-6.83,2.8-4.1,5.48,2.88,16.04,6.33,20.64-1.97,.39-3.59,1.92-3.93,3.94-.06,.36-.09,.72-.1,1.08-.02,2.77,2.34,4.96,5.09,4.92-1.25,4.76-4.27,11.55-11.28,19.91-15.14,18.04-36.46,66.06,11.99,89.68Z"/>
    </g>
    <ellipse class="cls-11" cx="191.7" cy="186.27" rx="3.96" ry="4.87"/>
    <circle class="cls-11" cx="162.5" cy="187" r="6.09"/>
    <g class="cls-12">
      <path class="cls-6" d="M218.07,163.63c-.35,.65-13.51,32.25,9.47,24.7l-4.96,6.58s-6.94-1.51-7.55-1.07c-.61,.44-12.11,1.63-12.11,1.63l9.43-24.88"/>
    </g>
    <g class="cls-12">
      <path class="cls-6" d="M175.09,182.61s4.98,16.5-8.82,13.48c0,0,7.85,6.51,8.51,6.49,.66-.02,7.13-5.72,7.13-5.72l-3.02-8.21"/>
    </g>
    <g>
      <path class="cls-3" d="M236.71,284.87c-7,23.27,28.8,41.42,67.96,34.79,8.74-20.71-1.73-43.2-1.73-43.2-8.01,1.51-15.83,1.66-23.41,0,0,0-5.64-11.93-16.91-13.26-2.34-.28-4.59,1.29-4.88,3.63-.22,1.73,.38,4.07,3.02,7.05-12.98-1.36-20.99,2.31-24.05,11Z"/>
      <g class="cls-12">
        <path class="cls-6" d="M304.66,319.66c2.14-5.05,3.12-10.21,3.39-15.12-35.4,7.59-68.24-5.82-64.93-27.93-3,1.88-5.15,4.63-6.42,8.27-7,23.27,28.8,41.42,67.96,34.79Z"/>
      </g>
      <path class="cls-6" d="M239.61,306.39c-5.9-6.68-7.76-14.38-5.39-22.26,.01-.04,.02-.07,.04-.11,3.04-8.65,10.25-13.01,21.47-13.01h.11c-.63-1.54-.85-3.04-.67-4.5,.46-3.69,3.94-6.33,7.76-5.87,10.45,1.23,16.46,10.25,18.32,13.54,6.6,1.27,13.56,1.19,21.21-.25,1.16-.22,2.33,.38,2.83,1.45,.45,.96,10.84,23.78,1.76,45.3-.34,.82-1.08,1.4-1.95,1.55-5.57,.94-11.16,1.4-16.64,1.4-20.46,0-39.24-6.35-48.85-17.22Zm61.72-27.02c-7.92,1.26-15.43,1.14-22.36-.38-.78-.17-1.45-.7-1.79-1.42-.05-.11-5.14-10.65-14.87-11.8-.98-.12-1.9,.52-2.01,1.38-.16,1.3,.68,3.08,2.39,5.01,.71,.8,.85,1.95,.36,2.9s-1.5,1.5-2.57,1.39c-11.7-1.23-18.67,1.79-21.31,9.23-1.8,6.06-.31,12.04,4.33,17.29,10.84,12.28,35.07,18.11,59.31,14.38,5.97-15.73,.61-32.53-1.47-37.97Z"/>
    </g>
    <g>
      <path class="cls-10" d="M104.35,273.52l16.67-.88c.16-.74,.33-1.46,.5-2.15,4.3-17.09,13.39-22.66,13.39-22.66l-7.59-16.45c-1.99,1.31-3.88,2.7-5.64,4.17,0,0,0,0-.01,.01-10.91,9.12-17.2,21.42-17.33,37.95Z"/>
      <g class="cls-2">
        <path class="cls-3" d="M118.94,272.75l2.08-.11c4.05-18.77,13.9-24.81,13.9-24.81l-7.59-16.45c-1.79,1.18-3.49,2.41-5.09,3.72l7.27,11.55s-8.9,7.18-10.56,26.1Z"/>
      </g>
      <path class="cls-6" d="M102.78,275.16c-.45-.43-.7-1.03-.7-1.65,.14-18.83,8.22-33.64,24-44.02,.55-.36,1.23-.47,1.87-.29,.63,.18,1.16,.63,1.43,1.23l7.59,16.45c.48,1.03,.1,2.27-.86,2.87-.09,.06-9.12,5.92-12.88,23.36-.22,1-1.07,1.73-2.1,1.78l-16.67,.88s-.08,0-.12,0c-.58,0-1.14-.22-1.56-.63Zm29.31-28.03l-5.7-12.36c-12.53,9.02-19,20.95-19.72,36.36l12.51-.66c3.38-13.92,9.87-20.78,12.91-23.34Z"/>
      <ellipse class="cls-11" cx="119.29" cy="254.5" rx="4.61" ry="3.83" transform="translate(-161.72 248.95) rotate(-63.76)"/>
      <g class="cls-12">
        <path class="cls-6" d="M104.35,273.52l16.67-.88c.16-.74,.33-1.46,.5-2.15-16.02-13.63-.28-34.35,.16-34.92-10.91,9.12-17.2,21.42-17.33,37.95Z"/>
      </g>
    </g>
    <g>
      <path class="cls-10" d="M119.48,360.03c-.05-.54-.08-1.05-.09-1.55-.19-8.45,5.55-11.45,8.03-12.35,.69-.25,1.12-.34,1.12-.34,1.81,.1,3.46,.1,4.96,.03,12.16-.57,14.85-6.04,14.85-6.04l-16.5-8.52c-.38,.78-.78,1.51-1.22,2.22-1.91,3.09-4.45,5.47-7.61,7.15-2.21,1.18-4.74,2.01-7.57,2.5-1.02,.06-2.04,.19-3.04,.4-4.72,.94-9.2,3.38-13.49,7.11l20.56,9.38Z"/>
      <path class="cls-6" d="M118.81,361.5l-20.55-9.38c-.5-.23-.85-.69-.93-1.24-.08-.54,.12-1.09,.54-1.45,5.53-4.83,11.31-7.46,17.3-7.89,0,0,0,0,0,0,7.3-1.26,12.29-4.85,15.23-10.98,.19-.39,.53-.69,.94-.83,.41-.14,.87-.1,1.26,.1l16.5,8.52c.78,.4,1.1,1.36,.71,2.15-.16,.32-4.03,7.79-21.12,6.93-1.29,.34-8.58,2.69-7.6,12.45,.06,.58-.2,1.14-.67,1.48-.28,.2-.61,.3-.94,.3-.23,0-.46-.05-.67-.15Zm-3.12-16.77c-.09,.01-.19,.02-.28,.02-4.6,.32-9.06,2.15-13.44,5.5l15.81,7.22c.2-6.36,3.59-9.79,6.46-11.55-2.91-.95-5.75-1.34-8.54-1.19Zm16.86-11.3c-2.21,3.92-5.3,6.88-9.23,8.86,1.76,.44,3.53,1.07,5.32,1.87,0,0,.01,0,.02,0,10.52,.56,15.27-2.2,17.16-3.89l-13.28-6.86Z"/>
      <g class="cls-12">
        <path class="cls-6" d="M123.02,340.63c.82,1.08,2.15,2.72,3.51,4.4,.1,.13,.21,.26,.31,.39,.19,.24,.39,.47,.58,.71,.69-.25,1.12-.34,1.12-.34,1.81,.1,3.46,.1,4.96,.03-4.31-4.74-.68-12.65-.68-12.65l-2.19,.31c-1.91,3.09-4.45,5.47-7.61,7.15Z"/>
      </g>
      <g class="cls-12">
        <path class="cls-6" d="M98.93,350.64l20.56,9.38c-.05-.54-.08-1.05-.09-1.55-3.81-4.8-6.23-14.31-6.23-14.31l-.75-.64c-4.72,.94-9.2,3.38-13.49,7.11Z"/>
      </g>
    </g>
    <path class="cls-6" d="M277.02,388.97c5.73-.82,11.69-1.73,17.41-.43,6.04,1.27,10.95,5.21,14.12,10.56-1.75-6.55-6.56-11.9-12.89-14.37-6.34-2.5-13.61-2.98-20.09-.74-3.01,1.18-1.7,5.58,1.45,4.97h0Z"/>
    <path class="cls-6" d="M335.85,391.59c6.02-2.13,12.51-4.07,18.94-3.17,6.84,.86,12.44,5.18,16.55,10.68-2.64-6.81-8.42-12.73-15.65-14.71-6.41-1.87-13.47-1.33-19.6,1.27-.94,.4-1.71,.78-2.63,1.33-2.76,1.74-.61,5.84,2.39,4.59h0Z"/>
    <path class="cls-6" d="M356.71,372.07c16.62,0,30.35-5.51,31.17-5.84,1.32-.54,1.96-2.05,1.42-3.38-.54-1.32-2.05-1.96-3.37-1.42h0c-.27,.11-27.43,10.96-50.29,1.62-1.32-.54-2.84,.09-3.38,1.42-.54,1.32,.09,2.84,1.42,3.38,7.66,3.13,15.64,4.22,23.04,4.22Z"/>
    <path class="cls-6" d="M297.99,373.19c12.98,0,23.37-4.76,24.06-5.08,1.29-.61,1.85-2.15,1.25-3.44-.61-1.29-2.15-1.85-3.44-1.25-.24,.11-24.52,11.17-43.71-1.73-1.19-.8-2.8-.48-3.59,.7-.8,1.19-.48,2.79,.7,3.59,8.14,5.48,16.91,7.21,24.73,7.21Z"/>
    <path class="cls-6" d="M335.93,351.05l-1.28-12.62-3.87,12.08c-.45,1.39,.32,2.88,1.71,3.33,1.77,.61,3.66-.94,3.44-2.79h0Z"/>
    <path class="cls-6" d="M320.67,348.3c-2.7,.21-5.43-.25-8.05-1.01-2.78-.82-5.4-2.14-7.79-3.84,2.82,3.65,6.58,6.57,10.82,8.45,1.52,.66,3.08,1.26,4.73,1.58,0,0,.29-5.17,.29-5.17h0Z"/>
    <path class="cls-6" d="M304.66,322.25c.08,0,.17,0,.25-.01,31.25-3,46.46-14.77,47.09-15.27,1.12-.89,1.31-2.51,.43-3.64-.88-1.12-2.51-1.31-3.63-.43-.17,.13-14.81,11.34-44.38,14.18-1.42,.14-2.47,1.4-2.33,2.82,.13,1.34,1.26,2.34,2.57,2.34Z"/>
    <path class="cls-6" d="M348.35,260.28c-8.58,5.33-18.23,8.48-28.05,10.55-3.88,.83-7.82,1.42-11.72,2.09-1.96,.3-3.93,.56-5.89,.97-1.47,.22-2.47,1.63-2.16,3.09,.26,1.26,1.4,2.12,2.65,2.06,4.17-.16,8.33-.69,12.39-1.66,11.69-2.88,24.28-8.39,32.78-17.09h0Z"/>
    <path class="cls-6" d="M283.84,275.75c.62-4.71,2.11-9.38,4.43-13.55-1.9,1.63-3.63,3.49-5.17,5.48-1.62,2.12-3.07,4.28-4.28,6.69-1.56,3.86,4.38,5.5,5.02,1.38h0Z"/>
    <path class="cls-6" d="M304.58,325.5s.06,0,.09,0l42.77-.69c5.76-.09,10.45-4.86,10.45-10.62v-3.19c0-1.43-1.16-2.59-2.59-2.59s-2.59,1.16-2.59,2.59v3.19c0,2.96-2.4,5.4-5.36,5.45l-42.77,.69h0c-.25,0-.47-.18-.53-.42l-.07-.3c-.31-1.4-1.69-2.28-3.09-1.97-1.4,.31-2.28,1.69-1.97,3.08l.07,.3c.58,2.61,2.92,4.49,5.58,4.49Z"/>
    <path class="cls-6" d="M340.38,324.6c.05,0,.1,0,.16,0,4.95-.34,8.82-4.24,8.82-8.89v-8.58c0-1.25-1.01-2.27-2.27-2.27s-2.27,1.01-2.27,2.27v8.58c0,2.54-2.34,4.21-4.6,4.37-1.25,.09-2.19,1.17-2.11,2.41,.08,1.2,1.08,2.11,2.26,2.11Z"/>
    <path class="cls-6" d="M312.7,334.39h16.93c6.28,0,11.38-5.11,11.38-11.38v-.65c0-1.43-1.16-2.59-2.59-2.59s-2.59,1.16-2.59,2.59v.65c0,3.42-2.78,6.2-6.2,6.2h-16.93c-3,0-5.45-2.44-5.45-5.45v-1.4c0-1.43-1.16-2.59-2.59-2.59s-2.59,1.16-2.59,2.59v1.4c0,5.86,4.77,10.63,10.63,10.63Z"/>
    <path class="cls-6" d="M322.62,334.07c6.1,0,11.06-4.96,11.06-11.06v-.65c0-1.25-1.01-2.27-2.27-2.27s-2.27,1.01-2.27,2.27v.65c0,3.6-2.93,6.53-6.53,6.53-1.25,0-2.27,1.01-2.27,2.27s1.01,2.27,2.27,2.27Z"/>
    <g class="cls-12">
      <path class="cls-6" d="M308.55,303.74s36.89-.53,54.58-20.38c0,0,3.09,7.17-6.47,15.46-9.56,8.3-36.14,19.09-43.26,20.15s-8.74-.77-8.74-.77l2.27-6.47"/>
    </g>
    <g class="cls-12">
      <path class="cls-6" d="M269.71,415.29c5.82,5.93,35.71,4.32,43.8,2.8,8.09-1.51,8.63-11.65,8.63-11.65l-.05-1.52-.55-5.81c-15.02,20.03-59.6,2.91-28.32-13.82-4.53-30.54-2.59-53.48-2.59-53.48,0,0,17.47-.22,22.65-2.38,5.18-2.16,5.5-6.51,5.5-6.51,16.5-1.12,27.02-15.05,27.02-15.05-18.93,14.16-44.11,17.48-73.28,13.85-1.64,36.13,3.77,64.77,3.77,64.77-16.61,8.3-12.41,22.87-6.58,28.8Z"/>
    </g>
    <g class="cls-12">
      <path class="cls-6" d="M308.06,346.13c5.51,7.55,8.98,17.47,11.17,28.87l1.38-23.54-6.96-2.59"/>
    </g>
    <g class="cls-12">
      <path class="cls-6" d="M334.01,340.86s.97-6.46,11.22-9.06c0,0-1.44,24.27,1.87,52.53l-12.44,2.16-1.29-32.85"/>
    </g>
    <g class="cls-12">
      <path class="cls-6" d="M336.81,418.41c18.08,3.54,38.52,2.21,46.72-10.74,1.35-2.14,2.06-4.63,2.19-7.16l.45-8.74c-.45-1.15-.76-1.88-.76-1.88-22.61,36.85-59.67,9.22-31.07-4.09l-11.49,1.5-5.42,.81-8.56,6.03c-5.7,8.01-2.31,20.46,7.94,24.28Z"/>
    </g>
    <g class="cls-12">
      <path class="cls-6" d="M343.74,257.29s-27.21,11.4-55.47,3.8c0,0-6.74-3.56-11.27-.81l-5.06-8.58,12.88-5.46c8.78,9.97,26.45,14.78,58.92,11.04Z"/>
    </g>
    <path class="cls-3" d="M409.28,308.16l-14.92,2.4c-1.59,.26-2.75,1.62-2.76,3.22-.05,5.66,.88,18.16,9.83,20.81,10.84,3.21,16.54-16.44,11.11-25.02-.69-1.09-1.99-1.63-3.26-1.42Z"/>
    <g class="cls-12">
      <path class="cls-6" d="M401.42,334.6c6.95,2.06,11.79-5.27,12.93-13.07-2.19,2.34-5.03,3.51-8.36,2.52-6.1-1.81-8.48-8.18-9.35-13.86l-2.29,.37c-1.59,.25-2.74,1.62-2.76,3.22-.05,5.66,.88,18.16,9.82,20.81Z"/>
    </g>
    <path class="cls-6" d="M400.69,337.08c-10.7-3.17-11.73-17.36-11.68-23.32,.03-2.88,2.1-5.3,4.94-5.76l14.92-2.4c2.33-.37,4.62,.64,5.86,2.59,3.99,6.3,3.06,17.71-2,24.4-2.44,3.23-5.61,4.94-8.99,4.94-1,0-2.02-.15-3.04-.45Zm9-26.37h0l-14.92,2.4c-.34,.05-.58,.34-.59,.69-.04,4.78,.65,16.14,7.97,18.31,2.4,.71,4.57-.18,6.43-2.64,3.7-4.9,4.58-14.07,1.76-18.51-.1-.16-.31-.26-.54-.26-.04,0-.08,0-.12,0Z"/>
  </g>
  <g>
    <path class="cls-6" d="M209.42,255.55h0s-22.39,0-22.39,0l9.21,9.22h12.44c1.79,0,3.23,1.52,3.23,3.39s-1.45,3.39-3.23,3.39h-7.58l9.14,9.19c6.25-.46,11.18-5.91,11.18-12.58s-5.37-12.59-12.01-12.61Z"/>
    <polygon class="cls-6" points="198.49 271.55 190.3 271.55 189.45 271.55 187.88 271.55 186.13 271.55 196.22 281.69 197.76 281.69 207.78 291.97 218.81 291.97 207.63 280.74 198.49 271.55"/>
  </g>
</svg>