<?xml version="1.0" encoding="UTF-8"?>
<svg id="Layer_1" data-name="Layer 1" xmlns="http://www.w3.org/2000/svg" viewBox="0 0 500 500">
  <defs>
    <style>
      .cls-1 {
        fill: #262626;
      }

      .cls-2 {
        opacity: .7;
      }

      .cls-3 {
        fill: #fff;
      }

      .cls-4 {
        fill: #c5c5c5;
      }

      .cls-5 {
        opacity: .5;
      }

      .cls-6 {
        opacity: .2;
      }

      .cls-7 {
        fill: #c3c3c3;
      }

      .cls-8 {
        fill: #767676;
      }

      .cls-9 {
        fill: #e4e4e4;
      }

      .cls-10 {
        fill: #353535;
      }

      .cls-11 {
        fill: #030b2f;
      }

      .cls-12 {
        fill: #9b9b9b;
      }

      .cls-13 {
        fill: #919191;
      }

      .cls-14 {
        fill: #d0d0d0;
      }
    </style>
  </defs>
  <g class="cls-6">
    <ellipse class="cls-10" cx="162.04" cy="443.36" rx="74.23" ry="14.51"/>
  </g>
  <path class="cls-3" d="M184.45,218.29c15.24,1.33,28.3,2.85,40.12,21.97,9.3,15.06,13.77,40.94,15.64,60.72,1.46,15.48,2.03,28.92-.18,37.6-4.08,16-15.95,22.51-31.95,17.4-16-5.11-24.69-101.18-24.69-101.18"/>
  <path class="cls-3" d="M240.03,338.59c-4.08,16-15.96,22.51-31.95,17.4-16-5.11-24.69-101.18-24.69-101.18l.36-12.38,.7-24.13c11.65,1.02,22.03,2.15,31.54,11.16,2.94,2.78,5.79,6.31,8.58,10.82,9.31,15.06,13.78,40.94,15.64,60.72,1.45,15.48,2.03,28.92-.18,37.6Z"/>
  <path class="cls-9" d="M216,229.45c-6.63,6.15-18.22,10.88-32.24,12.97l.7-24.13c11.65,1.02,22.03,2.15,31.54,11.16Z"/>
  <path class="cls-14" d="M137.81,225.01l-5.64,12.43c-10.17-4.12-17.15-9.98-18.92-16.62-.11-.41,1.91-2.18,5.05-4.1-.13,.11-.26,.22-.4,.33,4.23,2.79,12.44,5.98,19.91,7.96Z"/>
  <path class="cls-14" d="M211.08,233.19c-9.96,6.33-25.81,10.42-43.65,10.42-21.76,0-40.54-6.08-49.32-14.88,1.11-4.45,2.3-9.07,3.57-13.87,1.84-.92,3.88-1.78,5.98-2.43l77.91,11.03,5.51,9.75Z"/>
  <path class="cls-10" d="M218.18,359.83c-3.38,0-6.99-.6-10.75-1.8-2.78-.89-11.24-3.59-19.81-54.19-4.14-24.46-6.35-48.6-6.37-48.84-.11-1.18,.76-2.22,1.94-2.33,1.18-.11,2.22,.76,2.33,1.94,.02,.24,2.22,24.24,6.33,48.53,7.33,43.33,14.25,49.96,16.88,50.8,7.32,2.34,13.84,2.1,18.86-.68,4.94-2.74,8.52-7.99,10.35-15.21,2.31-9.08,1.36-23.73,.13-36.87-1.45-15.41-5.37-43.68-15.33-59.79-11.49-18.6-24-19.7-38.48-20.96-1.18-.1-2.05-1.14-1.95-2.32,.1-1.18,1.15-2.05,2.32-1.95,14.32,1.25,29.13,2.55,41.76,22.98,10.41,16.86,14.46,45.86,15.95,61.65,1.27,13.5,2.24,28.61-.24,38.33-2.14,8.39-6.44,14.58-12.43,17.9-3.38,1.87-7.26,2.81-11.49,2.81Z"/>
  <path class="cls-3" d="M241.49,323.53c-.61,10.53-2.38,17.1-8.4,17.1-9.02,0-7.12-15.56-7.12-15.56"/>
  <path class="cls-10" d="M233.09,342.77c-2.46,0-4.59-.94-6.16-2.71-4.23-4.78-3.22-14.2-3.09-15.26,.14-1.18,1.22-2.01,2.39-1.87,1.18,.14,2.01,1.21,1.87,2.39-.28,2.35-.47,9.07,2.05,11.9,.76,.86,1.7,1.26,2.94,1.26,3.23,0,5.53-2.56,6.26-15.08,.07-1.18,1.07-2.09,2.27-2.02,1.18,.07,2.09,1.08,2.02,2.27-.39,6.68-1.1,19.12-10.54,19.12Z"/>
  <path class="cls-3" d="M165.87,317.12c.43,16.4-10.58,112.83-5.66,121.98,2.28,4.25,9.77,5.28,30.7,5.33,16.11,.04,20.9-1.16,23.53-7.16,3.15-7.19-1.12-13-8.21-16.93,1.63-5.89,15.83-51.52,15.83-85.21"/>
  <path class="cls-3" d="M220.66,355.65c-3.63,29.33-13.12,59.93-14.43,64.69,5.03,2.79,8.65,6.53,9.19,11.04,.23,1.84-.06,3.81-.98,5.89-2.63,6-7.42,7.2-23.53,7.16-20.93-.05-28.42-1.09-30.7-5.33-4.92-9.15,6.09-105.58,5.66-121.98l56.19,18.01c0,6.52-.53,13.48-1.4,20.52Z"/>
  <path class="cls-9" d="M222.06,335.13c0,6.52-.53,13.48-1.4,20.52-5.98,6.31-15.42,13.21-30.33,18.92-19.24,7.36-22.49,35.77-22.17,50,.27,11.79,20.87,11.11,32.25,10.84,7.72-.18,15-4.02,15-4.02,.23,1.84-.06,3.81-.98,5.89-2.63,6-7.42,7.2-23.53,7.16-20.93-.05-28.42-1.09-30.7-5.33-4.92-9.15,6.09-105.58,5.66-121.98l56.19,18.01Z"/>
  <path class="cls-10" d="M168.01,317.06c.04,2.23-.05,4.33-.15,6.45-.1,2.12-.23,4.22-.37,6.33-.28,4.21-.6,8.4-.92,12.59l-2.02,25.12c-1.32,16.73-2.68,33.48-3.3,50.18-.14,4.17-.23,8.34-.11,12.46,.06,2.05,.17,4.11,.47,5.99,.08,.46,.17,.92,.27,1.3,.05,.19,.11,.36,.16,.48,.03,.07,.03,.08,.08,.16l.12,.21c.35,.53,.86,.98,1.57,1.37,1.42,.78,3.36,1.23,5.31,1.55,1.97,.32,4.01,.5,6.06,.64,4.11,.26,8.29,.34,12.47,.38,4.19,.03,8.36,.06,12.44-.18,2.03-.13,4.05-.33,5.91-.74,1.86-.41,3.5-1.07,4.61-2.14,.57-.53,1.04-1.19,1.45-1.96,.41-.78,.75-1.63,.98-2.46,.44-1.67,.39-3.34-.18-4.91-.57-1.57-1.65-3.04-3-4.32-1.35-1.28-2.96-2.39-4.67-3.34h-.03c-.88-.5-1.27-1.52-1-2.45,2.04-7.01,4-13.9,5.79-20.9,1.79-6.99,3.43-14.01,4.85-21.07,.7-3.53,1.31-7.08,1.92-10.62l.93-5.31c.31-1.77,.63-3.54,.9-5.32,1.12-7.1,1.99-14.23,2.44-21.41h0c.04-.6,.55-1.05,1.14-1.01,.55,.03,.98,.48,1.01,1.01,.21,3.65,.22,7.32,.09,10.97-.06,1.83-.15,3.65-.27,5.48-.15,1.82-.29,3.64-.48,5.46-.17,1.82-.39,3.63-.59,5.45-.25,1.81-.49,3.62-.79,5.42-.61,3.6-1.32,7.17-2.07,10.74-1.47,7.14-3.1,14.23-4.91,21.28-1.79,7.03-3.79,14.09-5.81,20.98l-1.03-2.45c1.95,1.09,3.84,2.37,5.54,3.98,1.69,1.6,3.21,3.58,4.08,5.96,.43,1.19,.69,2.46,.73,3.74,.04,1.28-.12,2.54-.43,3.74-.32,1.2-.77,2.31-1.34,3.38-.58,1.08-1.33,2.16-2.29,3.06-.95,.92-2.09,1.61-3.22,2.12-1.14,.5-2.28,.84-3.4,1.09-2.24,.49-4.43,.7-6.58,.83-4.31,.25-8.53,.22-12.74,.19-4.22-.04-8.44-.12-12.71-.39-2.14-.15-4.28-.33-6.46-.68-2.18-.38-4.42-.8-6.71-2.04-1.13-.61-2.28-1.55-3.08-2.78l-.28-.47c-.09-.15-.2-.38-.27-.55-.16-.36-.26-.69-.35-1-.18-.63-.29-1.21-.38-1.78-.35-2.27-.45-4.41-.52-6.56-.12-4.28-.03-8.51,.11-12.73,.63-16.87,1.99-33.62,3.31-50.38l2.02-25.11c.33-4.18,.64-8.36,.92-12.54,.14-2.09,.26-4.17,.36-6.25,.1-2.07,.18-4.17,.14-6.14v-.03c-.02-1.18,.92-2.16,2.1-2.19,1.18-.02,2.16,.92,2.19,2.1h0Z"/>
  <path class="cls-10" d="M186.73,395.99c-20.66,0-32.27-5.69-32.93-6.02-.79-.4-1.11-1.37-.71-2.16,.4-.79,1.37-1.11,2.16-.71h0c.21,.11,21.78,10.61,58.28,2.66,.87-.19,1.73,.36,1.91,1.23,.19,.87-.36,1.73-1.23,1.91-10.4,2.27-19.6,3.09-27.48,3.09Z"/>
  <path class="cls-10" d="M175.97,417.96c2.58-.82,5.09-1.24,7.69-1.54,2.58-.29,5.17-.39,7.77-.34,1.29,.06,2.6,.08,3.89,.22l1.94,.18,1.93,.26c1.29,.15,2.56,.44,3.85,.66,1.28,.26,2.54,.58,3.81,.88,1.16,.27,1.88,1.42,1.61,2.57-.26,1.16-1.42,1.88-2.57,1.61-.05-.01-.09-.02-.14-.04l-.13-.04c-1.17-.35-2.33-.75-3.51-1.08-1.19-.29-2.37-.65-3.57-.88l-1.8-.38-1.82-.3c-1.21-.22-2.44-.32-3.66-.47-2.45-.22-4.92-.3-7.38-.2-2.44,.1-4.96,.36-7.25,.91l-.08,.02c-.58,.14-1.15-.22-1.29-.79-.13-.55,.19-1.1,.72-1.27Z"/>
  <g>
    <path class="cls-3" d="M141.74,221.9l.22,14.19,.12,7.23,1.96,124.62s-8.51-.35-19.87-1.73c-2.22-.27-4.56-.58-6.96-.93-17.89-2.63-39.5-7.75-47.26-17.46-11.61-14.52-9.87-82.11,2.7-108.25,5.76-11.98,31.81-15.87,50.23-17.12,2.06-.14,4.02-.25,5.85-.33,7.71-.34,13.02-.23,13.02-.23Z"/>
    <path class="cls-14" d="M141.96,236.08l.12,7.23,1.56,98.95,.4,25.67s-.18,0-.52-.02c-.1,0-.21-.01-.33-.02-.1,0-.2-.01-.31-.02-.08,0-.17,0-.25,0-.03,0-.07,0-.1,0-.15,0-.32-.02-.5-.03-.04,0-.08,0-.12,0-.15,0-.3-.02-.46-.03-.22-.01-.45-.03-.69-.04-.17-.01-.36-.02-.54-.04-.19-.01-.38-.03-.58-.04-.25-.02-.51-.04-.78-.05-.54-.04-1.11-.08-1.72-.13-.53-.04-1.1-.08-1.68-.13-.68-.06-1.38-.12-2.12-.18-2.71-.25-5.81-.56-9.17-.97-.65-.08-1.32-.16-1.99-.25-.47-.06-.95-.12-1.43-.19-1.16-.15-2.35-.32-3.54-.5-17.89-2.63-39.5-7.75-47.26-17.46-9.56-11.95-10.08-59.9-2.94-91.05-2.47,27.3-.4,56.74,6.81,65.75,3.56,4.45,19.06-10.25,19.11-19.03,.12-22.64,4.75-51.62,26.18-68.21,.56-.43,12.68,1.54,22.84,.82Z"/>
    <path class="cls-10" d="M146.22,370.17l-2.27-.09c-2.49-.1-61.11-2.71-75.68-20.93-12.14-15.18-10.64-83.35,2.43-110.52,9.61-19.98,68.57-18.94,71.08-18.88l2.07,.04,2.37,150.37Zm-7.75-146.16c-18.21,0-57.34,2.83-63.91,16.48-5.7,11.84-9.61,33.92-10.2,57.6-.58,23.15,2.26,42.14,7.25,48.38,11.85,14.82,59.27,18.53,70.24,19.2l-2.24-141.66c-.37,0-.76,0-1.15,0Z"/>
    <path class="cls-3" d="M67.15,296.58l24.37,2.57c2.18,.23,3.92,1.89,4.25,4.06,1.19,7.92,2.98,26.37-4.87,32.2-6.51,4.84-16.83,3.94-22.73-1.36-6.6-5.94-6.72-23.97-6.34-32.89,.12-2.77,2.55-4.87,5.31-4.57Z"/>
    <path class="cls-14" d="M95.77,303.21c1.19,7.92,2.98,26.36-4.87,32.2-6.52,4.85-16.83,3.94-22.73-1.36-4.05-3.65-5.66-11.88-6.21-19.75,.98,3.95,2.61,7.19,4.7,9.34,11.95,12.33,21.57-1.49,21.57-1.49,0,0,1.49,3.47,2.76,3.71,5.29,.97,4.69-15.7,4.18-24.32,.3,.51,.5,1.07,.59,1.69Z"/>
    <path class="cls-10" d="M80.64,340.74c-5.04,0-10.15-1.73-13.89-5.1-6.78-6.1-7.57-22.17-7.05-34.58,.08-1.91,.96-3.72,2.4-4.97,1.45-1.25,3.37-1.85,5.27-1.65l24.37,2.57c3.15,.33,5.68,2.75,6.15,5.87,1.51,10.08,2.78,27.93-5.71,34.24-3.25,2.42-7.38,3.6-11.55,3.6Zm-14-42.04c-.64,0-1.24,.22-1.73,.65-.56,.48-.89,1.16-.92,1.9-.67,15.77,1.43,27.43,5.63,31.2,5.32,4.78,14.48,5.35,20.01,1.24,4.81-3.58,6.32-14.86,4.03-30.16-.18-1.19-1.15-2.12-2.35-2.24l-24.37-2.57c-.1-.01-.19-.02-.29-.02Z"/>
    <path class="cls-10" d="M77.89,336.76c.13-.05,.44-.22,.68-.36,.25-.15,.51-.31,.76-.5,.5-.35,.99-.75,1.44-1.18,.91-.87,1.78-1.82,2.49-2.91,1.48-2.13,2.56-4.58,3.26-7.18,.32-1.3,.63-2.62,.79-3.97,.23-1.33,.32-2.73,.43-4.1,.1-1.38,.15-2.75,.13-4.12-.03-1.35-.1-2.78-.38-4.01l-.02-.07c-.07-.3,.12-.61,.43-.68,.29-.07,.58,.1,.66,.38,.46,1.48,.61,2.85,.77,4.29,.13,1.42,.2,2.84,.21,4.26,0,1.42,.02,2.82-.11,4.26-.06,1.44-.28,2.87-.51,4.31-.53,2.86-1.5,5.69-3.02,8.29-.73,1.31-1.65,2.53-2.68,3.67-.52,.57-1.07,1.11-1.68,1.61-.3,.26-.61,.5-.94,.73-.35,.24-.63,.44-1.13,.7-.93,.49-2.07,.14-2.56-.79-.49-.93-.14-2.07,.79-2.56,.06-.03,.13-.06,.19-.09Z"/>
    <path class="cls-10" d="M109.48,239.89c-2.96-.31-5.95-.54-8.93-.72-2.98-.18-5.97-.32-8.94-.37-2.98-.05-5.95-.05-8.89,.11-2.94,.16-5.87,.41-8.64,.97h-.02c-1.16,.24-2.29-.51-2.53-1.67-.23-1.16,.52-2.29,1.68-2.53,.04,0,.08-.02,.12-.02,3.16-.45,6.24-.52,9.31-.51,3.06,.01,6.1,.19,9.12,.42,3.02,.23,6.03,.54,9.04,.9,3,.36,5.99,.77,8.98,1.25,.6,.1,1.01,.67,.91,1.27-.09,.58-.62,.98-1.2,.92h-.02Z"/>
  </g>
  <path class="cls-3" d="M215.29,356.72c17.84-20.53,17.27-67.76,2.6-111.48l-12.32-21.79-83.05-11.75c-27.56,102.4-17.18,126.55-13.63,134.49,9.88,22.04,55.97,23.38,71.64,16.06"/>
  <path class="cls-3" d="M228.78,309.78c-.27,19.79-4.59,36.68-13.49,46.93l-34.75,5.52c-15.67,7.32-61.76,5.98-71.64-16.06-1.76-3.94-5.21-11.89-4.86-31.42,.35-19.81,4.61-51.52,18.49-103.07l83.04,11.75,12.32,21.79c7.35,21.9,11.16,44.69,10.89,64.55Z"/>
  <path class="cls-9" d="M228.78,309.78c-.27,19.79-4.59,36.68-13.49,46.93l-34.75,5.52c-15.67,7.32-61.76,5.98-71.64-16.06-1.76-3.94-5.21-11.89-4.86-31.42,28.23,.91,97.08,2.24,124.74-4.98Z"/>
  <path class="cls-9" d="M211.08,233.19c-9.96,6.33-25.81,10.42-43.65,10.42-21.76,0-40.54-6.08-49.32-14.88,1.11-4.45,2.3-9.07,3.57-13.87,1.84-.92,3.88-1.78,5.98-2.43l77.91,11.03,5.51,9.75Z"/>
  <path class="cls-10" d="M156.47,368.36c-9.81,0-20.44-1.46-29.44-4.8-10.11-3.76-16.87-9.32-20.09-16.5-3.57-7.95-14.41-32.16,13.51-135.92,.28-1.05,1.3-1.72,2.37-1.57l83.05,11.75c1.17,.17,1.99,1.25,1.82,2.42-.17,1.17-1.25,1.99-2.42,1.82l-81.17-11.49c-26.92,100.73-16.64,123.66-13.25,131.22,2.69,6.01,8.81,10.93,17.67,14.23,16.79,6.25,40.83,5.56,51.1,.76,1.07-.5,2.35-.04,2.85,1.04,.5,1.07,.04,2.35-1.04,2.85-5.62,2.62-14.85,4.18-24.98,4.18Z"/>
  <path class="cls-10" d="M214.48,356.01c2.84-3.71,5.14-7.83,6.74-12.24,1.67-4.38,2.84-8.95,3.69-13.59,1.63-9.3,2-18.82,1.63-28.31-.21-4.75-.56-9.49-1.12-14.22-.54-4.73-1.24-9.45-2.07-14.14-.82-4.7-1.8-9.38-2.89-14.03-.26-1.17-.54-2.33-.83-3.49-.28-1.16-.56-2.33-.88-3.48-.6-2.32-1.25-4.62-1.88-6.94v-.02c-.16-.57,.18-1.16,.75-1.32,.54-.14,1.09,.15,1.28,.65,3.46,9.04,6.28,18.36,8.25,27.88,1.99,9.51,3.29,19.19,3.65,28.94,.34,9.74-.16,19.58-2.2,29.2-1.03,4.8-2.48,9.54-4.48,14.07-2,4.51-4.64,8.8-8.03,12.44-.4,.43-1.08,.46-1.52,.05-.41-.38-.45-1-.12-1.43l.02-.03Z"/>
  <path class="cls-9" d="M104.73,327.11c-.06-.8-.12-1.6-.18-2.41,.07,.83,.13,1.64,.18,2.41Z"/>
  <path class="cls-3" d="M104.17,316.74c.43,16.4-.88,103.83,1.69,117.88,1.4,7.69,14.75,10.88,36.48,10.88,15.86,0,20.31-3.38,21.38-7.7,2.54-10.2-3.52-15.64-3.52-15.64l7.75-55.93s19.78,1.15,34.48-4.64"/>
  <path class="cls-3" d="M202.44,361.59c-14.7,5.79-34.49,4.64-34.49,4.64l-1.39,10.06-6.36,45.88s6.06,5.44,3.52,15.64c-1.08,4.32-5.53,7.7-21.38,7.7-21.74,0-35.09-3.19-36.49-10.88-1.43-7.81-1.66-38.34-1.65-66.71,0-22.63,.15-43.88-.04-51.16l98.28,44.84Z"/>
  <path class="cls-9" d="M106.72,422.16c1.32,13.51,17.67,16.7,39.41,16.7,9.57,0,14.98-1.23,18.02-3.16-.1,.68-.23,1.38-.41,2.1-1.08,4.32-5.53,7.7-21.38,7.7-21.74,0-35.09-3.19-36.49-10.88l.86-12.46Z"/>
  <path class="cls-9" d="M202.44,361.59c-14.7,5.79-34.49,4.64-34.49,4.64l-1.39,10.06c-.05-.03-.11-.06-.16-.1-23.13-14.16-59.26-8.75-62.2-8.28,0-22.63,.15-43.88-.04-51.16l98.28,44.84Z"/>
  <path class="cls-10" d="M106.31,316.69c.15,8.38,.08,16.65,.08,24.97l-.04,24.9c.01,16.59,.02,33.2,.46,49.75,.12,4.13,.28,8.27,.56,12.35,.09,1.01,.15,2.04,.26,3.03,.06,.49,.09,1.01,.17,1.48l.11,.71,.05,.36,.06,.27c.32,1.4,1.31,2.64,2.75,3.64,1.43,1.01,3.19,1.76,5.03,2.36,1.85,.6,3.79,1.04,5.76,1.4,3.95,.71,8.02,1.06,12.1,1.26,4.07,.19,8.23,.26,12.26,.13,2.02-.07,4.02-.23,5.98-.51,1.94-.29,3.86-.7,5.53-1.37,1.68-.67,3.03-1.62,3.69-2.85,.17-.31,.31-.65,.42-1.01l.08-.28,.08-.34c.05-.23,.11-.46,.15-.69,.18-.92,.29-1.84,.32-2.76,.06-1.83-.19-3.65-.79-5.34-.29-.85-.68-1.66-1.13-2.42-.23-.38-.48-.75-.74-1.09-.13-.17-.27-.34-.4-.5l-.2-.22-.15-.15-.1-.1c-.48-.49-.67-1.16-.59-1.79l7.75-55.93c.15-1.11,1.13-1.9,2.23-1.85h.02s0,0,0,0c2.78,.01,5.69-.02,8.54-.09,1.43-.03,2.86-.08,4.29-.16,1.43-.07,2.86-.14,4.29-.26,2.85-.23,5.69-.59,8.51-1.05,2.81-.49,5.6-1.11,8.34-1.94h.01c.57-.18,1.17,.15,1.34,.71,.16,.52-.09,1.06-.56,1.28-2.7,1.29-5.53,2.3-8.41,3.1-2.88,.82-5.81,1.4-8.75,1.86-1.47,.22-2.95,.43-4.43,.59-1.48,.14-2.96,.25-4.45,.34-2.98,.15-5.92,.16-8.96-.1h0l2.25-1.85-7.75,55.93-.69-1.89c.2,.18,.27,.27,.4,.4l.32,.35c.2,.23,.4,.47,.58,.71,.37,.48,.7,.98,1.01,1.48,.61,1.02,1.12,2.09,1.51,3.21,.79,2.23,1.11,4.59,1.03,6.91-.04,1.16-.17,2.3-.39,3.42-.05,.28-.12,.56-.18,.84l-.09,.42-.13,.47c-.19,.63-.45,1.26-.78,1.86-.66,1.2-1.61,2.22-2.63,2.99-1.03,.77-2.12,1.33-3.21,1.77-2.18,.87-4.37,1.31-6.52,1.64-2.16,.3-4.3,.47-6.43,.55-2.13,.08-4.24,.08-6.33,.05-2.1-.02-4.2-.08-6.3-.19-4.21-.21-8.43-.57-12.65-1.32-2.11-.38-4.23-.86-6.33-1.54-2.1-.69-4.21-1.55-6.18-2.94-.98-.69-1.93-1.53-2.73-2.56-.8-1.03-1.42-2.28-1.73-3.59l-.11-.49-.06-.41-.12-.83c-.09-.56-.13-1.08-.19-1.62-.13-1.08-.18-2.12-.28-3.18-.29-4.2-.44-8.36-.56-12.53-.45-16.65-.46-33.26-.47-49.88l.04-24.91c0-8.29,.07-16.63-.08-24.85v-.03c-.02-1.18,.92-2.16,2.11-2.18,1.18-.02,2.16,.92,2.18,2.11Z"/>
  <path class="cls-10" d="M134.4,396.82c-20.3,0-30.35-5.49-30.93-5.81-.77-.44-1.05-1.42-.61-2.19,.44-.77,1.42-1.05,2.19-.61,.21,.12,19.55,10.54,58.83,1.98,.87-.19,1.73,.36,1.91,1.23,.19,.87-.36,1.73-1.23,1.91-11.81,2.57-21.84,3.49-30.16,3.49Z"/>
  <g>
    <path class="cls-3" d="M229.74,301.9c6.71-.27,11.05,12.03-1.38,16.41"/>
    <path class="cls-10" d="M219.68,321.76c-4.41,0-5.56-2.06-5.8-2.64l-.2-.49,2.58-9.87c.23-.86,1.11-1.37,1.96-1.15,.86,.22,1.37,1.1,1.15,1.96l-2.22,8.47c.88,.49,3.59,1.24,10.67-1.25,7.31-2.58,6.99-7.4,6.72-8.81-.5-2.63-2.55-4.54-4.74-4.47-5.15,.2-8.55,2.13-8.59,2.15-.77,.44-1.75,.18-2.2-.59-.44-.77-.19-1.75,.58-2.19,.16-.1,4.08-2.34,10.08-2.58,3.78-.14,7.23,2.89,8.03,7.08,.81,4.23-1.08,9.73-8.81,12.45-4.06,1.43-7.04,1.93-9.22,1.93Z"/>
    <g>
      <path class="cls-3" d="M217.61,339.38l-53.38,1.24c-6.32,.15-11.61-4.9-11.76-11.23l-.66-28.41c-.13-5.54,3.73-10.28,8.94-11.48,.74-.17,1.5-.27,2.29-.29l53.38-1.24c6.33-.15,11.62,4.9,11.76,11.23l.53,22.5,.14,5.91c.15,6.33-4.91,11.61-11.23,11.76Z"/>
      <path class="cls-3" d="M217.61,339.38l-53.38,1.24c-6.32,.15-11.61-4.9-11.76-11.23l-.66-28.41c-.13-5.54,3.73-10.28,8.94-11.48,.74-.17,1.5-.27,2.29-.29l53.38-1.24c6.33-.15,11.62,4.9,11.76,11.23l.53,22.5,.14,5.91c.15,6.33-4.91,11.61-11.23,11.76Z"/>
      <path class="cls-3" d="M217.61,339.38l-53.38,1.24c-6.32,.15-11.61-4.9-11.76-11.23l-.66-28.41c-.13-5.54,3.73-10.28,8.94-11.48,.74-.17,1.5-.27,2.29-.29l53.38-1.24c6.33-.15,11.62,4.9,11.76,11.23l.53,22.5,.14,5.91c.15,6.33-4.91,11.61-11.23,11.76Z"/>
      <path class="cls-9" d="M217.69,339.38l-53.38,1.24c-6.32,.15-11.61-4.9-11.76-11.23l-.66-28.41c-.13-5.54,3.73-10.28,8.94-11.48,3.08,1.94,5.03,3.19,5.03,3.19,3.13,22.74,9.89,33.96,38.21,33.77,12.23-.09,19.9-2.13,24.71-4.75l.14,5.91c.15,6.33-4.91,11.61-11.23,11.76Z"/>
      <path class="cls-10" d="M162.97,342.79c-3.25,0-6.33-1.24-8.71-3.5-2.45-2.34-3.84-5.47-3.91-8.83l-.71-30.44c-.16-6.96,5.37-12.76,12.33-12.92l55.41-1.29c3.37-.08,6.56,1.16,9.01,3.5,2.45,2.34,3.84,5.47,3.91,8.83l.71,30.44c.08,3.36-1.16,6.56-3.5,9.01-2.34,2.45-5.47,3.84-8.83,3.91l-55.41,1.29h0c-.1,0-.2,0-.3,0Zm54.71-52.7c-.07,0-.13,0-.2,0l-55.41,1.29c-4.6,.11-8.25,3.93-8.14,8.53l.71,30.44c.05,2.22,.97,4.29,2.59,5.83,1.62,1.54,3.73,2.36,5.94,2.31h0l55.41-1.29c2.22-.05,4.29-.97,5.83-2.59,1.54-1.62,2.37-3.73,2.31-5.94l-.71-30.44c-.05-2.21-.97-4.29-2.59-5.83-1.57-1.5-3.6-2.32-5.75-2.32Z"/>
      <path class="cls-3" d="M198.73,339.62l-.1,.2-34.4,.8c-4.63,.1-8.71-2.58-10.61-6.52-.7-1.43-1.1-3.02-1.14-4.71l-.3-12.62-.1-4.17-.17-7.31-.1-4.31c-.15-6.33,4.91-11.61,11.23-11.76l11.53-.26c-5.29,1.13-9.23,5.91-9.11,11.5l.19,8.43,.16,6.91,.3,13.08c.15,6.31,5.45,11.37,11.76,11.23l20.84-.48Z"/>
      <path class="cls-14" d="M204.18,339.49l-.1,.2-39.85,.93c-4.63,.1-8.71-2.58-10.61-6.52-.7-1.43-1.1-3.02-1.14-4.71l-.3-12.62-.1-4.17-.17-7.31c2.31-.37,5.38-.13,7.13,3.25,2.42,4.68,4.84,3.05,6.62,.34l.16,6.91,.3,13.08c.15,6.31,5.45,11.37,11.76,11.23l26.29-.61Z"/>
      <path class="cls-10" d="M163.95,342.77c-3.51,0-6.83-1.34-9.4-3.78-2.64-2.52-4.14-5.91-4.23-9.54l-.66-28.41c-.18-7.52,5.8-13.78,13.32-13.96l11.53-.27,.5,4.24c-4.4,.94-7.51,4.87-7.41,9.36l.66,28.41c.06,2.49,1.09,4.81,2.9,6.54,1.81,1.73,4.17,2.66,6.66,2.59,.01,0,33.82-.59,34.68-.6l2.15-.05,.05,2.16c.03,1.52-.94,1.98-2.11,2.13v.05s-48.33,1.12-48.33,1.12c-.11,0-.22,0-.33,0Zm2.69-51.49l-3.55,.08c-5.16,.12-9.25,4.42-9.13,9.57l.66,28.41c.06,2.48,1.09,4.81,2.9,6.54,1.81,1.73,4.16,2.66,6.66,2.59l3.95-.09c-2.59-2.52-4.06-5.87-4.14-9.46l-.66-28.41c-.08-3.48,1.17-6.74,3.32-9.23Z"/>
      <path class="cls-13" d="M186.85,314.41c.02,1.05-1.31,9.56-1.31,9.56,0,0-2.69,.05-5.99,.1-4.12,.07-7.54-4.14-7.63-9.4-.09-5.26,3.17-9.59,7.3-9.66,2.78-.05,5.99-.1,5.99-.1,0,0,1.61,7.79,1.64,9.51Z"/>
      <path class="cls-8" d="M186.85,314.41c.02,1.05-1.31,9.56-1.31,9.56,0,0-2.69,.05-5.99,.1-4.12,.07-7.54-4.14-7.63-9.4-.09-5.26,3.17-9.59,7.3-9.66,2.78-.05,5.99-.1,5.99-.1,0,0,1.61,7.79,1.64,9.51Z"/>
      <path class="cls-10" d="M179.45,325.68c-2.45,0-4.74-1.17-6.47-3.3-1.67-2.05-2.61-4.78-2.66-7.69-.05-2.9,.8-5.67,2.39-7.78,1.68-2.23,3.99-3.48,6.48-3.52l4.18-.07s.04,0,.07,0c1.8,0,3.35,1.27,3.7,3.04,.86,4.31,1.3,7.01,1.32,8.01h0c0,.27,.02,.98-1.05,8.02-.28,1.83-1.82,3.17-3.67,3.21l-4.16,.07s-.09,0-.14,0Zm3.99-19.14s0,0-.01,0l-4.18,.07c-1.49,.03-2.9,.82-3.97,2.24-1.16,1.54-1.78,3.59-1.74,5.78,.04,2.19,.73,4.22,1.94,5.72,1.12,1.38,2.57,2.15,4.05,2.1l4.16-.07c.27,0,.5-.2,.54-.47,.96-6.31,1.01-7.34,1.01-7.48-.01-.77-.48-3.55-1.25-7.44-.05-.26-.28-.45-.55-.45Z"/>
      <ellipse class="cls-13" cx="185.37" cy="314.43" rx="7.46" ry="9.53" transform="translate(-5.47 3.29) rotate(-1)"/>
      <g class="cls-2">
        <path class="cls-3" d="M177.91,314.57c0,.4,.03,.78,.08,1.16,.72-4.19,3.61-7.35,7.12-7.41,3.82-.07,7.02,3.53,7.55,8.24,.13-.72,.19-1.48,.17-2.25-.09-5.27-3.51-9.47-7.63-9.4-4.12,.07-7.39,4.4-7.3,9.67Z"/>
      </g>
      <path class="cls-8" d="M177.91,314.57c.09,5.26,3.51,9.47,7.63,9.4,4.12-.08,7.39-4.4,7.29-9.67-.01-.83-.11-1.64-.28-2.4-1.03,3.57-3.69,6.13-6.85,6.18-3.47,.06-6.44-2.91-7.35-7-.31,1.08-.47,2.25-.45,3.48Z"/>
      <path class="cls-10" d="M185.43,325.58c-2.45,0-4.74-1.17-6.47-3.3-1.67-2.05-2.61-4.78-2.66-7.69-.05-2.9,.8-5.67,2.39-7.78,1.68-2.23,3.99-3.48,6.48-3.52,.04,0,.09,0,.13,0,4.94,0,9.03,4.89,9.14,10.98h0c.11,6.14-3.87,11.21-8.88,11.3-.04,0-.09,0-.14,0Zm-.12-19.07s-.05,0-.08,0c-1.49,.03-2.9,.82-3.97,2.24-1.16,1.54-1.78,3.59-1.74,5.78,.04,2.19,.73,4.22,1.94,5.72,1.12,1.38,2.57,2.15,4.05,2.1,3.23-.06,5.79-3.66,5.72-8.03h0c-.08-4.33-2.72-7.82-5.92-7.82Z"/>
      <path class="cls-10" d="M201.01,341.17h0c-.89,0-1.61-.72-1.61-1.61v-14.38c0-3.88,1.94-7.48,5.18-9.62,2.39-1.58,3.79-4.24,3.73-7.11l-.4-20.26c-.02-.89,.69-1.62,1.58-1.64,.9-.03,1.62,.69,1.64,1.58l.4,20.26c.08,3.98-1.85,7.66-5.17,9.85-2.34,1.54-3.73,4.14-3.73,6.94v14.38c0,.89-.73,1.61-1.61,1.61Z"/>
    </g>
    <path class="cls-3" d="M151.9,305.03s9.69,.09,10.13,8.72c.43,8.63-9.68,10.33-9.68,10.33,0,0-29.17,3.88-48.3-3.64-8.72-9.01,.65-18.3,.65-18.3,0,0,27.15,4.41,47.21,2.9Z"/>
    <path class="cls-14" d="M152.35,324.08s-29.17,3.87-48.3-3.65c-3.56-3.68-4.11-7.41-3.51-10.53,.58,1.16,1.41,2.35,2.55,3.52,19.13,7.52,48.3,3.65,48.3,3.65,0,0,7.85-1.32,9.42-7.54,.67,1.1,1.13,2.49,1.21,4.2,.43,8.63-9.68,10.33-9.68,10.33Z"/>
    <path class="cls-10" d="M134.9,326.7c-9.74,0-21.76-.97-31.44-4.77l-.32-.13-.24-.25c-7.77-8.03-2.96-16.96,.67-20.56l.58-.58,.81,.13c.27,.04,27.2,4.36,46.83,2.88h.07s.07,0,.07,0c3.88,.03,11.32,2.22,11.72,10.24,.4,7.96-7.03,11.33-11.02,12-.63,.08-8.05,1.04-17.72,1.04Zm-29.93-7.64c18.52,7.11,46.88,3.46,47.17,3.42,.3-.05,8.64-1.58,8.29-8.66-.34-6.75-7.67-7.16-8.48-7.19-17.99,1.35-41.83-2.06-46.64-2.79-1.69,1.98-6.41,8.65-.34,15.21Z"/>
  </g>
  <path class="cls-10" d="M120.46,421.21c1.6-.84,3.21-1.44,4.85-2,1.64-.56,3.31-1,4.99-1.4,3.36-.78,6.81-1.25,10.28-1.39,3.47-.13,6.99,.03,10.46,.66,3.47,.64,6.87,1.7,10.13,3.16,1.08,.49,1.56,1.76,1.08,2.84-.49,1.08-1.76,1.56-2.84,1.08-.03-.01-.06-.03-.09-.04l-.06-.03c-2.83-1.45-5.84-2.57-8.97-3.33-3.14-.74-6.39-1.07-9.65-1.12-3.27-.04-6.55,.23-9.8,.8-1.62,.29-3.24,.63-4.81,1.08-1.58,.43-3.17,.94-4.59,1.6h-.03c-.54,.26-1.18,.03-1.42-.51-.24-.52-.03-1.13,.47-1.4Z"/>
  <g>
    <g>
      <path class="cls-3" d="M260.35,164.85c-3.93,14.49-11.54,28.09-22.62,39.31-2.26,2.29-4.65,4.48-7.19,6.55-1.23,1.01-2.51,2-3.82,2.97-3.95,2.9-8.06,5.43-12.29,7.61-3.64,1.88-7.38,3.5-11.17,4.85-4.58,1.64-9.25,2.89-13.96,3.77-1.72,.32-3.44,.59-5.17,.81-31.6,4.05-64.41-8.39-84.76-35.36-29.99-39.72-21.59-95.93,18.75-125.54,7.77-5.7,16.17-10.01,24.87-12.94,1.01-.35,2.04-.68,3.07-.98,2.76-.83,5.54-1.52,8.34-2.08,6.47-1.29,13.04-1.87,19.56-1.76,6.52,.1,13.02,.9,19.36,2.36,2.02,.46,4.02,.99,6,1.6,2.98,.91,5.91,1.95,8.79,3.16,14.37,5.99,27.37,15.73,37.35,28.96,17.25,22.85,21.8,51.15,14.88,76.71Z"/>
      <path class="cls-10" d="M172.39,231.69c-28.61,0-55.89-13.27-73.19-36.19-14.48-19.18-20.55-42.79-17.08-66.47,3.5-23.87,16.24-44.96,35.87-59.37,7.66-5.62,16.05-9.98,24.93-12.97,.97-.34,1.98-.66,3.08-.98,2.75-.83,5.56-1.53,8.36-2.09,6.42-1.28,13.02-1.88,19.61-1.77,6.52,.1,13.05,.9,19.41,2.37,2.04,.47,4.07,1.01,6.02,1.6,3.04,.92,6,1.99,8.81,3.17,14.83,6.19,27.78,16.22,37.44,29.03,16.71,22.14,22.15,50.16,14.91,76.89-4.01,14.82-11.85,28.44-22.67,39.41-2.29,2.32-4.72,4.53-7.21,6.57-1.14,.94-2.39,1.91-3.82,2.97-3.9,2.86-8.05,5.43-12.32,7.63-3.57,1.85-7.34,3.49-11.2,4.86-4.51,1.62-9.22,2.89-14,3.78-1.71,.32-3.46,.59-5.18,.81-3.93,.5-7.86,.75-11.77,.75Zm.04-179.42c-6.05,0-12.09,.6-17.99,1.77-2.78,.56-5.58,1.25-8.32,2.08-1.1,.32-2.1,.64-3.07,.98-8.84,2.98-17.18,7.32-24.81,12.91-19.54,14.34-32.22,35.33-35.7,59.08-3.45,23.57,2.58,47.06,16.99,66.15,19.57,25.93,51.97,39.44,84.56,35.27,1.72-.22,3.45-.5,5.16-.81,4.75-.89,9.44-2.16,13.93-3.76,3.84-1.37,7.59-3,11.15-4.84,4.25-2.19,8.38-4.74,12.26-7.59,1.43-1.06,2.67-2.03,3.81-2.96,2.48-2.03,4.9-4.23,7.18-6.54,10.77-10.91,18.57-24.47,22.56-39.22l.21,.06-.21-.06c7.2-26.6,1.79-54.49-14.84-76.52-9.62-12.75-22.5-22.74-37.27-28.89-2.8-1.17-5.75-2.24-8.77-3.16-1.94-.59-3.96-1.13-5.99-1.59-6.33-1.46-12.83-2.25-19.32-2.35-.51,0-1.02-.01-1.53-.01Z"/>
    </g>
    <path class="cls-9" d="M99.37,195.36c20.35,26.97,53.16,39.41,84.76,35.36,1.73-.22,3.45-.49,5.17-.81,4.71-.88,9.38-2.14,13.96-3.77,3.79-1.36,7.53-2.97,11.17-4.85,4.23-2.18,8.34-4.71,12.29-7.61,1.3-.97,2.58-1.95,3.81-2.97,2.54-2.08,4.93-4.27,7.19-6.56,11.08-11.23,18.7-24.82,22.62-39.31,2.16-7.96,3.2-16.2,3.1-24.44-4.07,13.75-11.48,26.61-22.05,37.32-2.26,2.29-4.65,4.48-7.19,6.56-1.23,1.01-2.51,1.99-3.81,2.97-3.95,2.9-8.06,5.43-12.29,7.61-3.65,1.88-7.38,3.49-11.17,4.85-4.58,1.64-9.26,2.89-13.96,3.77-1.72,.32-3.44,.59-5.17,.81-31.6,4.05-64.4-8.38-84.76-35.36-11.88-15.73-17.73-34.05-17.96-52.27-7.73,26.08-3.4,55.27,14.3,78.71Z"/>
    <path class="cls-10" d="M172.4,233.14c-29.06,0-56.78-13.48-74.35-36.77-14.72-19.49-20.88-43.48-17.35-67.55,3.55-24.26,16.5-45.68,36.45-60.33,7.78-5.71,16.3-10.14,25.32-13.18,.98-.34,2.01-.67,3.14-1,2.79-.84,5.64-1.55,8.48-2.12,6.53-1.3,13.23-1.9,19.92-1.8,6.62,.1,13.25,.91,19.71,2.4,2.07,.48,4.13,1.02,6.11,1.63,3.09,.94,6.1,2.02,8.95,3.22,15.06,6.28,28.22,16.48,38.04,29.49,16.99,22.5,22.51,50.98,15.15,78.14h0c-4.08,15.06-12.05,28.91-23.04,40.05-2.33,2.36-4.79,4.6-7.32,6.67-1.15,.95-2.42,1.94-3.88,3.01-3.97,2.91-8.18,5.52-12.52,7.75-3.63,1.88-7.46,3.54-11.37,4.94-4.58,1.64-9.37,2.93-14.22,3.84-1.74,.32-3.51,.6-5.26,.83-3.99,.51-7.99,.76-11.95,.76Zm.04-179.42c-5.95,0-11.9,.59-17.7,1.75-2.73,.55-5.49,1.23-8.19,2.04-1.09,.32-2.07,.63-3.01,.96-8.71,2.93-16.92,7.21-24.43,12.71-19.23,14.11-31.7,34.76-35.12,58.13-3.4,23.18,2.54,46.29,16.72,65.07,19.26,25.52,51.14,38.82,83.22,34.71,1.69-.22,3.4-.49,5.08-.8,4.67-.88,9.29-2.12,13.7-3.7,3.78-1.35,7.47-2.95,10.97-4.76,4.19-2.15,8.25-4.67,12.07-7.47,1.4-1.04,2.63-1.99,3.74-2.91,2.45-2,4.82-4.16,7.07-6.44,10.59-10.73,18.27-24.07,22.2-38.58,7.09-26.16,1.76-53.6-14.6-75.27-9.46-12.54-22.14-22.37-36.67-28.43-2.75-1.16-5.66-2.2-8.63-3.11-1.91-.58-3.89-1.11-5.89-1.57-6.23-1.44-12.63-2.22-19.02-2.32-.5,0-1-.01-1.51-.01Zm87.92,111.14h0Z"/>
    <path class="cls-10" d="M172.4,233.62c-29.21,0-57.07-13.55-74.74-36.96-14.79-19.6-20.99-43.71-17.45-67.91,3.57-24.39,16.58-45.93,36.64-60.65,7.82-5.74,16.39-10.19,25.45-13.25,.98-.34,2.02-.67,3.16-1,2.8-.84,5.67-1.56,8.52-2.13,6.56-1.31,13.3-1.92,20.02-1.81,6.66,.1,13.32,.92,19.81,2.41,2.08,.48,4.15,1.03,6.14,1.64,3.1,.94,6.13,2.03,9,3.24,15.14,6.32,28.37,16.57,38.24,29.65,17.08,22.62,22.63,51.25,15.23,78.56h0c-4.1,15.14-12.11,29.06-23.16,40.26-2.34,2.37-4.82,4.62-7.36,6.7-1.16,.95-2.44,1.95-3.89,3.03-3.99,2.93-8.22,5.55-12.59,7.79-3.65,1.89-7.5,3.56-11.43,4.96-4.61,1.65-9.42,2.95-14.29,3.86-1.75,.32-3.53,.6-5.29,.83-4.01,.51-8.03,.77-12.01,.77Zm.04-179.42c-5.92,0-11.84,.58-17.61,1.74-2.72,.54-5.46,1.23-8.14,2.03-1.08,.32-2.06,.63-2.99,.95-8.66,2.92-16.84,7.17-24.3,12.65-19.12,14.03-31.53,34.57-34.93,57.81-3.38,23.05,2.53,46.03,16.62,64.71,19.15,25.38,50.87,38.61,82.78,34.52,1.68-.22,3.38-.49,5.05-.79,4.65-.87,9.23-2.11,13.63-3.68,3.76-1.34,7.43-2.94,10.91-4.74,4.17-2.14,8.2-4.64,12-7.43,1.39-1.03,2.61-1.98,3.72-2.89,2.43-1.99,4.8-4.14,7.03-6.4,10.53-10.67,18.17-23.94,22.07-38.37h0c7.05-26.02,1.75-53.3-14.52-74.85-9.41-12.47-22.02-22.25-36.47-28.27-2.74-1.15-5.63-2.19-8.59-3.09-1.9-.58-3.87-1.1-5.86-1.56-6.2-1.43-12.56-2.21-18.91-2.31-.5,0-1-.01-1.5-.01Zm87.92,110.66h0Z"/>
    <path class="cls-11" d="M251.5,186.13c-43.16,48.03-119.9,39.35-138.63-21.38-12.74-41.32,18.49-85.57,59.56-95.15,29.89-6.97,62.15-.89,85.74,41.86,0,0,7.48,20.52,5.09,35.93-2.38,15.41-7.34,30-7.34,30l-4.43,8.74Z"/>
    <path class="cls-1" d="M112.87,164.75c18.73,60.73,95.46,69.41,138.62,21.38l.9-1.77c-54.61,23.6-119.66,3.47-139.76-57.59-3.44,12.2-3.69,25.23,.24,37.98Z"/>
    <path class="cls-10" d="M184.03,228.36c-14.44,0-28.55-3.25-40.98-9.67-20.07-10.36-34.39-27.84-41.4-50.56-6.43-20.86-3.5-43.64,8.27-64.14,13.07-22.77,35.59-39.79,60.23-45.53,13.69-3.19,26.6-3.66,38.37-1.39l.22,.04,.2,.08c15.15,6.32,28.37,16.57,38.24,29.65,17.08,22.62,22.63,51.25,15.23,78.56h0c-4.1,15.14-12.11,29.06-23.16,40.26-2.34,2.37-4.82,4.62-7.36,6.7-1.16,.95-2.44,1.95-3.89,3.03-3.99,2.93-8.22,5.55-12.59,7.79l-.31,.13c-10.21,3.37-20.73,5.04-31.08,5.04Zm9.29-168.41c-7.08,0-14.49,.9-22.19,2.69-23.5,5.48-44.99,21.74-57.48,43.49-11.17,19.45-13.98,41.02-7.9,60.74,6.66,21.59,20.24,38.19,39.26,48.01,20.28,10.46,45.27,12.07,68.59,4.42,4.11-2.12,8.09-4.6,11.85-7.35,1.39-1.03,2.61-1.98,3.72-2.89,2.43-1.99,4.8-4.14,7.03-6.4,10.53-10.67,18.17-23.94,22.07-38.37,7.05-26.02,1.75-53.3-14.52-74.85-9.37-12.41-21.9-22.16-36.26-28.19-4.55-.86-9.28-1.29-14.18-1.29Zm67.03,104.89h0Z"/>
    <path class="cls-10" d="M184.4,219.17c-5.98,0-11.97-.63-17.87-1.93-27.08-5.95-47.38-24.86-55.71-51.86-5.74-18.63-3.12-38.96,7.38-57.25,11.66-20.31,31.75-35.49,53.74-40.62,37.87-8.83,67.52,5.61,88.1,42.91l.14,.3c.31,.86,7.64,21.22,5.2,36.99-2.38,15.42-7.37,30.22-7.42,30.37l-.12,.28-4.56,8.99-.19,.21c-18.23,20.29-43.41,31.61-68.7,31.61Zm8-149.85c-6.21,0-12.71,.79-19.48,2.37-20.85,4.86-39.91,19.28-50.99,38.58-9.91,17.25-12.39,36.37-7,53.85,7.86,25.48,27,43.32,52.53,48.93,29.25,6.43,60.75-4.35,82.26-28.14l4.23-8.34c.51-1.53,5-15.26,7.2-29.5,2.17-14.02-4.28-32.84-4.94-34.72-15.84-28.62-37.25-43.02-63.81-43.02Zm59.1,116.81h0Z"/>
    <path class="cls-3" d="M72.69,170.25c3.11,17.42,16.16,30.2,29.15,28.54,12.99-1.66,20.99-17.13,17.88-34.56-.02-.11-.04-.22-.06-.33-3.22-17.25-16.19-29.86-29.09-28.21-10.03,1.28-17.09,10.81-18.35,23.11-.37,3.62-.24,7.49,.47,11.45Z"/>
    <path class="cls-9" d="M72.69,170.25c3.11,17.42,16.16,30.2,29.15,28.54,12.99-1.66,20.99-17.13,17.88-34.56-.02-.11-.04-.22-.06-.33-1.11,1.97-3.02,4.02-6.13,3.81-5.46-.37-16.92-10.36-16.92-10.36,0,0-10.58,.56-24.38,1.45-.37,3.62-.24,7.49,.47,11.45Z"/>
    <path class="cls-10" d="M99.59,201.08c-13.21,0-25.91-13.05-29.01-30.45-1.91-10.68,.06-20.98,5.39-28.25,3.7-5.04,8.65-8.09,14.32-8.81,14.08-1.8,28.23,11.79,31.54,30.29,1.91,10.69-.06,20.98-5.39,28.25-3.7,5.04-8.65,8.09-14.32,8.81-.84,.11-1.68,.16-2.52,.16Zm-6.73-63.39c-.68,0-1.35,.04-2.03,.13-4.48,.57-8.42,3.03-11.41,7.1-4.58,6.23-6.3,15.56-4.63,24.95h0c2.91,16.29,14.91,28.31,26.77,26.79,4.48-.57,8.42-3.03,11.41-7.1,4.58-6.23,6.31-15.56,4.63-24.95-2.74-15.36-13.58-26.92-24.74-26.92Z"/>
    <ellipse class="cls-3" cx="88.94" cy="170.55" rx="17.84" ry="26.17" transform="translate(-37.19 25.33) rotate(-13.43)"/>
    <path class="cls-9" d="M93.65,196.25c-9.82,1.18-19.88-9.37-22.48-23.57-.29-1.54-.46-3.06-.55-4.55,4.34,9.32,12.11,15.37,19.75,14.44,8.62-1.04,14.24-10.64,13.84-22.48,1.12,2.57,1.98,5.36,2.52,8.32,2.6,14.2-3.26,26.66-13.08,27.84Z"/>
    <path class="cls-10" d="M92.18,198.49c-10.33,0-20.47-10.95-23.12-25.42h0c-1.66-9.06-.07-17.96,4.25-23.81,2.79-3.78,6.48-6.04,10.69-6.55,10.9-1.31,22.05,10.05,24.84,25.32,1.66,9.06,.07,17.95-4.25,23.81-2.79,3.78-6.48,6.04-10.69,6.55-.57,.07-1.15,.1-1.72,.1Zm-18.9-26.19c2.39,13.08,11.41,22.87,20.11,21.83,3-.36,5.68-2.03,7.74-4.83,3.62-4.92,4.92-12.57,3.48-20.49-2.39-13.08-11.41-22.88-20.11-21.83-3,.36-5.68,2.03-7.74,4.83-3.62,4.92-4.93,12.58-3.48,20.49h0Z"/>
    <g class="cls-5">
      <path class="cls-3" d="M154.83,90.99s39.96-6.7,66.95,10.58c.03,.02,.06,.04,.09,.05,5.68,3.64,10.25,8.74,13.27,14.71,4,7.9,5.58,13.92,6.77,19.28,3.6,16.29,2.19,24.59,2.19,24.59,7.5-10.64,10.64-21.55,7.78-35.15-.29-1.34-.63-2.71-1.03-4.11-.09-.32-.19-.64-.29-.96,0,0,0-.01,0-.02-1.01-2.77-2.48-6.36-4.47-10.28-6.02-11.81-17.6-23.52-35.21-27.65-32.92-7.73-57.78,7.55-56.04,8.95Z"/>
    </g>
    <g class="cls-5">
      <ellipse class="cls-3" cx="134.03" cy="137.28" rx="13.97" ry="12.17" transform="translate(-10.57 263.37) rotate(-86.77)"/>
    </g>
    <g class="cls-5">
      <ellipse class="cls-3" cx="132.82" cy="162.64" rx="5.77" ry="5.02" transform="translate(-47.77 269.78) rotate(-81.44)"/>
    </g>
  </g>
  <path class="cls-3" d="M115.91,273.24s-52.98-10.49-56.4-49.46c-2-22.8,15.91-43.38,29.47-54.56,14.59-12.7,27.33-18.41,33.87-13.35,0,0,10.52-4.64,17.65-.25,7.56,4.65,11.49,16.49,6.25,27.65-3.47,7.37-13.52,21.5-28.84,33.78,4.23,2.79,12.44,5.98,19.91,7.96l-21.9,48.24Z"/>
  <path class="cls-9" d="M137.81,225.01l-5.64,12.43c-10.17-4.12-17.15-9.98-18.92-16.62-.11-.41,1.91-2.18,5.05-4.1-.13,.11-.26,.22-.4,.33,4.23,2.79,12.44,5.98,19.91,7.96Z"/>
  <path class="cls-10" d="M115.7,274.29c-3.89-.53-7.64-1.44-11.36-2.54-3.71-1.13-7.36-2.48-10.92-4.07-3.55-1.6-7.01-3.43-10.33-5.53-3.32-2.09-6.5-4.43-9.45-7.07-2.95-2.63-5.68-5.56-8.03-8.79-2.37-3.22-4.29-6.8-5.69-10.58-1.41-3.77-2.28-7.73-2.67-11.73-.32-4.02-.13-8.08,.64-12.01,1.48-7.9,4.89-15.21,9.15-21.78,4.28-6.58,9.45-12.49,15.11-17.83,1.42-1.33,2.88-2.63,4.36-3.88,.74-.61,1.47-1.23,2.19-1.85,.73-.62,1.48-1.25,2.23-1.86,3.01-2.45,6.15-4.77,9.49-6.86,3.35-2.07,6.88-3.95,10.84-5.13,1.98-.57,4.09-.97,6.34-.89,2.22,.08,4.64,.77,6.55,2.26h0s-2.18-.26-2.18-.26c1.07-.45,2.01-.76,3.02-1.07,1-.29,2.02-.55,3.05-.74,2.06-.4,4.2-.6,6.39-.45,2.18,.15,4.44,.67,6.48,1.78,2.02,1.1,3.69,2.56,5.12,4.23,2.78,3.38,4.48,7.52,5.01,11.75,.6,4.24-.01,8.58-1.44,12.57-1.54,4-3.7,7.36-5.94,10.7-2.26,3.31-4.72,6.45-7.3,9.47-5.18,6.05-10.94,11.57-17.13,16.58l-.16-3.47c1.36,.88,2.89,1.68,4.45,2.41,1.57,.73,3.18,1.4,4.82,2.03,3.27,1.25,6.63,2.34,10.01,3.24h0c1.14,.31,1.83,1.48,1.52,2.63-.3,1.14-1.48,1.83-2.63,1.52h0c-3.55-.95-7.02-2.07-10.45-3.38-1.71-.66-3.41-1.36-5.09-2.15-1.68-.79-3.35-1.64-5-2.71-.99-.64-1.27-1.96-.63-2.95,.12-.19,.27-.36,.44-.49l.03-.02c5.97-4.83,11.55-10.18,16.55-16.02,2.5-2.92,4.87-5.95,7.02-9.1,2.13-3.14,4.19-6.44,5.46-9.76,1.2-3.37,1.71-7,1.21-10.51-.43-3.52-1.86-6.9-4.04-9.56-1.11-1.3-2.44-2.44-3.86-3.21-1.39-.76-3.03-1.16-4.74-1.27-1.72-.12-3.51,.04-5.28,.38-.89,.16-1.77,.39-2.65,.64-.85,.26-1.77,.57-2.51,.88-.71,.3-1.49,.2-2.08-.2l-.1-.07h0c-1.12-.87-2.53-1.3-4.11-1.37-1.58-.07-3.28,.23-4.95,.72-3.36,1-6.65,2.71-9.78,4.65-3.14,1.96-6.15,4.18-9.05,6.54-.73,.59-1.44,1.19-2.17,1.8-.72,.63-1.45,1.24-2.18,1.85-1.43,1.22-2.82,2.47-4.18,3.75-5.42,5.15-10.35,10.84-14.36,17.08-4.01,6.22-7.12,13.05-8.42,20.2-.68,3.57-.83,7.2-.55,10.79,.36,3.6,1.15,7.14,2.41,10.52,.35,.83,.63,1.69,1.03,2.5l1.2,2.43,1.37,2.34c.48,.76,1.01,1.5,1.52,2.26,2.11,2.96,4.59,5.67,7.31,8.14,5.44,4.96,11.86,8.87,18.56,12.16,3.35,1.65,6.8,3.15,10.3,4.52,3.49,1.39,7.08,2.63,10.64,3.73h.04c.57,.19,.88,.79,.71,1.36-.16,.51-.66,.82-1.17,.75Z"/>
  <path class="cls-10" d="M108.93,161.7c4.24-2.74,8.5-5.39,13.05-7.8,1.05-.56,2.35-.15,2.91,.9,.56,1.05,.15,2.35-.9,2.91-.09,.05-.18,.09-.27,.12h-.02c-4.6,1.65-9.2,3.66-13.72,5.74h-.02c-.54,.26-1.18,.02-1.43-.52-.23-.49-.05-1.07,.39-1.35Z"/>
  <g>
    <path class="cls-3" d="M98.14,232.96s11.85-9.48,19.76-15.92"/>
    <path class="cls-10" d="M97.47,232.13l19.07-16.74h.02c.89-.8,2.25-.71,3.03,.18,.78,.89,.69,2.25-.2,3.03-.04,.04-.09,.08-.14,.11l-20.44,15.09c-.48,.35-1.15,.25-1.5-.23-.33-.45-.26-1.08,.15-1.44h0Z"/>
  </g>
  <path class="cls-10" d="M63.81,206.34c-.25,3.7,.45,7.62,1.89,11.15,1.44,3.55,3.74,6.72,6.72,9.14,2.98,2.41,6.6,4.07,10.45,4.93,1.92,.45,3.9,.74,5.89,.85,1.99,.16,4.01,.11,6.02,.03h.04c.59-.02,1.09,.44,1.11,1.03,.02,.58-.42,1.06-.98,1.11-2.09,.17-4.19,.32-6.3,.24-2.11-.03-4.23-.24-6.33-.64-4.2-.75-8.34-2.4-11.87-5.01-3.53-2.61-6.36-6.18-8.19-10.18-1.82-4.01-2.83-8.35-2.73-12.86,.02-1.19,1-2.13,2.19-2.1,1.18,.02,2.13,1,2.1,2.19,0,.03,0,.06,0,.09v.03Z"/>
  <rect class="cls-12" x="321.09" y="50.14" width="10.23" height="394.29"/>
  <path class="cls-10" d="M333.47,446.58h-14.52V47.99h14.52V446.58Zm-10.23-4.29h5.94V52.29h-5.94V442.29Z"/>
  <circle class="cls-3" cx="326.21" cy="41.15" r="10.85" transform="translate(211.21 349.18) rotate(-76.72)"/>
  <path class="cls-7" d="M333.06,41.22c0,3.79-3.07,6.85-6.85,6.85s-6.85-3.07-6.85-6.85c0-.95,.19-1.85,.54-2.67,.93,2,2.96,3.39,5.31,3.39,3.13,0,5.69-2.47,5.84-5.56,1.25,1.24,2.01,2.96,2.01,4.85Z"/>
  <path class="cls-10" d="M326.21,54.15c-7.17,0-13-5.83-13-13s5.83-13,13-13,13,5.83,13,13-5.83,13-13,13Zm0-21.71c-4.8,0-8.71,3.91-8.71,8.71s3.91,8.71,8.71,8.71,8.71-3.91,8.71-8.71-3.91-8.71-8.71-8.71Z"/>
  <path class="cls-3" d="M321.09,50.14s9.38-2.34,20.23,2.17c13.21,5.49,20.39,13.08,40.08,11.78,17.52-1.15,32.1-3.75,56.43,2.02,12.97,3.07,32.41,13.78,32.41,13.78l-3.65,91.86s-12.06,1.9-28.41-5.3c-11.36-5-23.72-12.18-48.21-6.39-19.98,4.73-39.23-2.56-49-4.89-9.77-2.33-19.88-.93-19.88-.93,0,0-2.13-6.01,0-9.22,0,0,9.99-2.13,17.03-1.31,0,0,.71-20.54,.49-36.52-.22-15.52-.31-43.26-.31-43.26,0,0-3.75-4.37-17.21-2.81,0,0-2.02-7.03,0-10.98Z"/>
  <path class="cls-10" d="M462.56,174.13c-5.09,0-14.21-.86-25.24-5.71-.98-.43-1.98-.88-2.98-1.34-10.41-4.71-22.2-10.06-43.87-4.93-17.31,4.09-33.76-.46-44.65-3.47-2.04-.56-3.8-1.05-5.34-1.42-9.24-2.2-19-.91-19.09-.89-1,.14-1.97-.45-2.31-1.41-.25-.72-2.41-7.13,.23-11.13,.31-.47,.79-.8,1.34-.91,.38-.08,8.47-1.78,15.4-1.52,.17-5.75,.59-21.5,.42-34.18-.19-13.69-.29-37.14-.31-42.27-1.34-.85-5.5-2.78-14.82-1.7-1.04,.12-2.02-.53-2.31-1.54-.23-.8-2.18-7.97,.15-12.55,.28-.55,.79-.96,1.39-1.11,.41-.1,10.2-2.46,21.58,2.27,3.43,1.43,6.43,2.97,9.34,4.47,8.41,4.33,15.67,8.08,29.77,7.15,2.7-.18,5.38-.39,7.96-.6,14.51-1.17,28.22-2.28,49.11,2.67,13.11,3.11,32.15,13.54,32.95,13.99,.71,.39,1.14,1.15,1.11,1.96l-3.65,91.86c-.04,1.02-.8,1.87-1.81,2.03-.18,.03-1.73,.26-4.37,.26Zm-55.61-18.34c12.86,0,21.67,3.99,29.16,7.39,.99,.45,1.97,.89,2.94,1.32,12.01,5.28,21.68,5.47,25.48,5.29l3.52-88.64c-4.35-2.32-19.96-10.4-30.71-12.94-20.23-4.79-33.61-3.71-47.77-2.57-2.6,.21-5.29,.43-8.02,.61-15.29,1.01-23.42-3.18-32.02-7.62-2.83-1.46-5.75-2.97-9.02-4.32-8-3.33-15.22-2.67-17.85-2.26-.57,2.01-.27,4.81,.1,6.77,12.68-1.03,16.74,3.22,17.17,3.73,.33,.39,.51,.88,.52,1.39,0,.28,.1,27.91,.31,43.24,.22,15.85-.48,36.42-.49,36.62-.02,.6-.29,1.16-.74,1.55-.45,.39-1.05,.57-1.65,.5-5.34-.62-12.68,.59-15.33,1.08-.45,1.39-.23,3.42,.12,5,3.46-.3,11.18-.65,18.81,1.17,1.61,.38,3.41,.88,5.49,1.46,10.47,2.9,26.28,7.27,42.52,3.43,6.58-1.56,12.35-2.19,17.47-2.19Z"/>
  <path class="cls-4" d="M290.59,447.03s9.01-7.64,20.19-9.58c8.62-1.49,14.5,2.17,14.5,2.17,0,0,6.37-5.61,18.56-3.39,9.65,1.76,19.51,11.52,19.51,11.52,0,0-11.28,5.28-36.38,5.28s-36.38-6-36.38-6Z"/>
  <path class="cls-10" d="M289.89,446.21c1.15-1.21,2.36-2.23,3.64-3.23,1.27-.99,2.61-1.9,4-2.74,2.78-1.67,5.75-3.08,8.92-4.05,1.59-.49,3.18-.89,4.88-1.14,1.69-.26,3.41-.34,5.12-.23,1.71,.11,3.42,.39,5.07,.87,.83,.24,1.64,.53,2.44,.86,.4,.17,.8,.34,1.2,.54l.59,.32c.21,.12,.37,.21,.65,.39h0s-2.55,.21-2.55,.21c.29-.26,.46-.39,.68-.56,.21-.17,.42-.3,.63-.45,.42-.28,.85-.55,1.28-.78,.87-.49,1.77-.88,2.68-1.24,1.82-.72,3.73-1.16,5.64-1.4,.96-.15,1.92-.17,2.87-.22,.95,.02,1.92-.01,2.86,.09l1.42,.12,1.4,.22c.92,.11,1.89,.38,2.84,.61,1.86,.57,3.64,1.26,5.29,2.15,1.66,.87,3.27,1.8,4.75,2.88,1.51,1.05,2.92,2.21,4.24,3.47,1.32,1.27,2.55,2.57,3.65,4.1,.35,.49,.24,1.17-.25,1.52-.37,.27-.86,.27-1.22,.03l-.04-.03c-2.92-1.87-5.77-3.84-8.68-5.57-2.88-1.78-5.92-3.23-8.97-4.08-.77-.16-1.5-.36-2.34-.44l-1.22-.17-1.22-.1c-.81-.09-1.62-.05-2.43-.07-.8,.06-1.61,.05-2.4,.17-1.59,.18-3.15,.51-4.64,1.01-.74,.27-1.47,.55-2.16,.9-.35,.17-.68,.36-1.01,.54-.16,.1-.33,.19-.47,.29l-.37,.24-.38,.25c-.68,.45-1.55,.41-2.18-.04h0s-.38-.18-.38-.18l-.46-.2c-.32-.13-.63-.26-.96-.37-.65-.23-1.32-.44-2.01-.6-1.36-.33-2.76-.55-4.16-.63-2.81-.2-5.63,.26-8.5,.99-2.85,.74-5.64,1.84-8.38,3.09-2.74,1.25-5.44,2.74-8.01,4.3l-.05,.03c-.51,.31-1.17,.15-1.48-.36-.26-.43-.19-.96,.14-1.3Z"/>
  <path class="cls-10" d="M316.53,447.08c1.07-1.61,2.22-3.18,3.45-4.7,.61-.76,1.24-1.5,1.89-2.24,.66-.74,1.3-1.44,2.06-2.19,.85-.83,2.21-.82,3.05,.03,.83,.85,.82,2.21-.03,3.05-.1,.1-.21,.19-.32,.26-.7,.46-1.47,1.03-2.19,1.59-.73,.56-1.45,1.14-2.15,1.75-1.41,1.2-2.78,2.47-4.08,3.8h0c-.42,.43-1.1,.44-1.52,.02-.38-.37-.42-.94-.14-1.37Z"/>
  <g>
    <path class="cls-10" d="M198.74,250h0s-12.85,0-12.85,0l5.29,5.29h7.14c1.03,0,1.86,.87,1.86,1.94s-.83,1.94-1.86,1.94h-4.35l5.25,5.27c3.59-.27,6.42-3.39,6.42-7.22s-3.08-7.23-6.89-7.24Z"/>
    <polygon class="cls-10" points="192.47 259.18 187.77 259.18 187.28 259.18 186.38 259.18 185.37 259.18 191.17 265.01 192.05 265 197.8 270.91 204.13 270.91 197.72 264.46 192.47 259.18"/>
  </g>
  <g>
    <path class="cls-10" d="M415.27,75.51h0s-44.08,0-44.08,0l18.13,18.16h24.5c3.52,0,6.37,2.99,6.37,6.67s-2.85,6.67-6.37,6.67h-14.91l18,18.09c12.3-.91,22-11.64,22-24.76s-10.58-24.8-23.64-24.83Z"/>
    <polygon class="cls-10" points="393.76 107.01 377.63 107.01 375.96 107.01 372.85 107.01 369.41 107.01 389.28 126.98 392.31 126.97 412.04 147.22 433.76 147.22 411.75 125.1 393.76 107.01"/>
  </g>
</svg>