<?xml version="1.0" encoding="UTF-8"?>
<svg id="Layer_1" data-name="Layer 1" xmlns="http://www.w3.org/2000/svg" viewBox="0 0 500 500">
  <defs>
    <style>
      .cls-1 {
        opacity: .7;
      }

      .cls-2 {
        fill: #fff;
      }

      .cls-3 {
        opacity: .5;
      }

      .cls-4 {
        fill: #8c8c8c;
      }

      .cls-5 {
        fill: #868686;
      }

      .cls-6 {
        opacity: .35;
      }

      .cls-7 {
        opacity: .3;
      }

      .cls-8 {
        fill: #353535;
      }

      .cls-9 {
        fill: #030b2f;
      }

      .cls-10 {
        fill: #292929;
      }

      .cls-11 {
        fill: #919191;
      }

      .cls-12 {
        fill: #a2a2a2;
      }
    </style>
  </defs>
  <g>
    <rect class="cls-2" x="216.73" y="244.79" width="125.5" height="116.49" rx="24.1" ry="24.1" transform="translate(558.96 606.08) rotate(-180)"/>
    <path class="cls-8" d="M240.83,244.79h77.29c13.26,0,24.1,10.85,24.1,24.1v68.29c0,13.26-10.85,24.1-24.1,24.1h-77.29c-13.26,0-24.1-10.85-24.1-24.1v-68.29c0-13.26,10.85-24.1,24.1-24.1m0-3.81c-3.75,0-7.4,.74-10.85,2.21-3.32,1.41-6.3,3.43-8.87,5.99-2.56,2.56-4.58,5.55-5.99,8.87-1.46,3.44-2.21,7.09-2.21,10.85v68.29c0,3.75,.74,7.4,2.21,10.85,1.41,3.32,3.43,6.3,5.99,8.87,2.56,2.56,5.55,4.58,8.87,5.99,3.44,1.46,7.09,2.21,10.85,2.21h77.29c3.75,0,7.4-.74,10.85-2.21,3.32-1.41,6.3-3.43,8.87-5.99,2.56-2.56,4.58-5.55,5.99-8.87,1.46-3.44,2.21-7.09,2.21-10.85v-68.29c0-3.75-.74-7.4-2.21-10.85-1.41-3.32-3.43-6.3-5.99-8.87-2.56-2.56-5.55-4.58-8.87-5.99-3.44-1.46-7.09-2.21-10.85-2.21h-77.29Z"/>
    <path class="cls-2" d="M218.46,319.06c12.03,1.41,24.03,1.76,24.03,1.76,0,0,6.11-30.46,7.8-54.34,1.25-17.7,.07-31.78-7.8-27.19-3.62,2.11-7.8,6.09-12.15,11.14-16.32,18.94-35.07,52.96-36.1,60.02-.66,4.54,11.8,7.14,24.22,8.61Z"/>
    <path class="cls-8" d="M242.43,322.8c-.1,0-10.61-.32-21.71-1.49-6.55-.7-12.04-1.56-16.32-2.56-5.83-1.36-9.32-2.93-11.01-4.94-1.16-1.39-1.25-2.75-1.12-3.65,.45-3.09,3.44-9.37,5.87-14.1,3.44-6.71,7.91-14.46,12.58-21.84,6.99-11.06,20.29-30.54,30.77-36.65,3.18-1.85,5.41-1.13,6.72-.19,2.99,2.13,4.41,7.69,4.48,17.5,.05,7.18-.65,16.61-2.07,28.04-2.42,19.38-6.15,38.1-6.19,38.28l-.33,1.64-1.67-.05Zm1.05-81.8c-7.12,4.15-17.84,17.04-29.42,35.34-9.99,15.81-17.31,30.55-17.87,34.4,0,.06-.03,.21,.24,.53,.96,1.15,5.29,4.04,24.69,6.1,8.35,.89,16.37,1.28,19.75,1.42,.96-4.97,3.84-20.45,5.82-36.36,4.38-35.14,.51-40.88-.78-41.81-.11-.08-.31-.22-.69-.22s-.92,.14-1.73,.61Z"/>
    <path class="cls-2" d="M303.72,238.16l2.44,18.43,1.39,10.47,2.96,22.37s5.4,3.67,14.39,6.58c3.36,1.09,7.22,2.06,11.49,2.7,6.98,1.05,15.04,1.18,23.78-.6,22.48-4.6,35.97-21.3,41.81-29.7,11.29-16.2,13.02-20.58,9.89-27.41-2.4-5.23-6.5-6.18-6.5-6.18,0,0,.2-4.18-3.1-5.66-9.91-4.45-22.68,7.44-22.68,7.44,0,0-.48-12.78-7.32-9.83-4.71,2.03-5.78,15.95-5.78,15.95,0,0-6.33,8.13-16.38,9.21-5.25,.56-12.52-.96-19.74-3.17-.08-.02-.17-.05-.25-.08-3.85-1.19-7.67-2.56-11.17-3.93-1.57-.61-3.07-1.22-4.48-1.8-6.31-2.61-10.73-4.78-10.73-4.78Z"/>
    <g class="cls-6">
      <path class="cls-8" d="M401.96,268.42c-5.85,8.39-19.33,25.09-41.81,29.7-14.08,2.88-26.42,.76-35.27-2.1-8.98-2.91-14.38-6.58-14.38-6.58l-.4-17.65s6.12-5.9,11.82-3.49c6.85,2.89,4.66,12.71,14.44,15.45,27.2,7.6,49.29-6.28,56.41-12.37,9.86-8.45,12.44-13.77,13.82-15.97,2.87-4.54,5.09-8.12,6.34-11.31,1.27,5.41-1.45,10.66-10.97,24.34Z"/>
    </g>
    <path class="cls-8" d="M340.25,301.18c-5.44-.49-10.89-1.62-16.18-3.35-9.03-2.95-14.46-6.61-14.69-6.77-.47-.32-.77-.82-.85-1.38l-6.77-51.26c-.1-.72,.21-1.44,.81-1.87,.59-.43,1.37-.49,2.03-.17,.31,.15,31.04,15.1,45.28,13.57,7.8-.84,13.27-6.45,14.67-8.04,.12-1.21,.44-3.94,1.11-6.85,1.3-5.68,3.2-8.99,5.8-10.11,2.56-1.11,4.44-.49,5.57,.22,1.83,1.16,3.15,3.48,3.91,6.9,.05,.24,.1,.48,.15,.72,4.6-3.45,13.9-9.05,21.96-5.43,2.84,1.27,3.92,3.99,4.2,6.08,1.71,.8,4.53,2.67,6.4,6.74,1.9,4.13,2.05,7.52,.52,11.69-1.59,4.36-5.09,9.78-10.58,17.67-4.5,6.47-9.56,12.07-15.02,16.66-8.49,7.12-17.91,11.78-28.02,13.85-4.59,.94-9.27,1.41-13.96,1.41-2.11,0-4.23-.1-6.34-.29Zm63.12-66.44c0-.19,.04-2.88-1.94-3.76-8.59-3.86-20.4,6.97-20.51,7.07-.57,.53-1.39,.68-2.1,.38-.72-.29-1.19-.98-1.22-1.75-.11-2.76-1.01-7.11-2.67-8.15-.19-.12-.7-.44-1.89,.07-.47,.2-2.12,1.34-3.5,7.32-.82,3.55-1.09,6.93-1.09,6.96-.03,.39-.17,.76-.41,1.06-.28,.36-6.97,8.8-17.73,9.96-6.52,.7-16.52-1.45-29.71-6.39-5.93-2.22-11.2-4.54-14.43-6.01l6.18,46.76c1.7,1.04,6.3,3.64,12.96,5.81,7.86,2.57,20.22,5.02,34.45,2.11,15.62-3.2,29.65-13.19,40.58-28.89,11.63-16.7,12.25-19.92,9.71-25.45-1.88-4.11-4.91-5.01-5.16-5.08-.96-.2-1.58-1.04-1.52-2.01Z"/>
    <path class="cls-8" d="M377.94,236.6c-.05,.56,.04,1.06,.15,1.5,.06,.23,.12,.42,.19,.62,.07,.19,.15,.38,.22,.55,.31,.7,.65,1.29,.97,1.85,.32,.56,.63,1.1,.92,1.63l.21,.4c.07,.13,.14,.27,.2,.4l.19,.41,.18,.41,.16,.42,.15,.43c.05,.14,.09,.29,.13,.43,.05,.14,.08,.29,.12,.44,.15,.59,.28,1.2,.36,1.83,.08,.63,.13,1.27,.15,1.92,.02,.33,0,.66,.01,.99,0,.17,0,.33,0,.5,0,.17,0,.34,0,.51h0c0,.14,.11,.25,.24,.25,.09,0,.17-.05,.21-.13,.32-.62,.61-1.26,.83-1.92,.23-.67,.4-1.36,.52-2.07,.24-1.42,.24-2.93-.03-4.4l-.11-.55c-.04-.18-.09-.36-.13-.54-.05-.18-.1-.36-.15-.54-.05-.18-.11-.35-.17-.53-.24-.7-.53-1.36-.84-1.98-.3-.62-.63-1.2-.89-1.71-.28-.51-.43-.93-.52-1.16l-.19-.47c-.33-.82-1.27-1.21-2.08-.88-.58,.23-.94,.77-.99,1.35Z"/>
    <path class="cls-8" d="M362.33,299.47c.5,0,.98-.28,1.22-.75,.33-.67,.06-1.49-.61-1.82-5.49-2.73-9.24-11.25-10.84-24.65-1.24-10.38-.73-20.03-.72-20.13,.04-.75-.53-1.39-1.28-1.43-.75-.04-1.39,.53-1.43,1.28,0,.1-.54,9.96,.73,20.57,.75,6.28,1.97,11.61,3.64,15.84,2.16,5.47,5.08,9.16,8.7,10.96,.19,.1,.4,.14,.6,.14Z"/>
    <g class="cls-6">
      <path class="cls-8" d="M186.73,387.05v-.28c2.18,.09,0,.28,0,.28Z"/>
    </g>
    <path class="cls-2" d="M214.19,353.63h130.71s-.8-22.56-8.53-54.91c-3.1-12.97-7.32-27.52-13.04-42.83-1.38-3.67-2.84-7.39-4.4-11.14-4.35-10.47-9.42-21.19-15.33-31.91h-48.12c-4.89,8.87-9.2,17.73-13,26.45-2.46,5.64-4.71,11.23-6.76,16.71-8.95,23.91-14.2,45.98-17.27,63.06-3.79,21.07-4.27,34.56-4.27,34.56Z"/>
    <g>
      <path class="cls-8" d="M232.13,272.82c-2.53,2.82-3.68,6.1-4.75,9.4-.54,1.65-1.06,3.3-1.57,4.96-.25,.83-.51,1.66-.74,2.49-.23,.84-.46,1.67-.68,2.51l-.66,2.52c-.22,.84-.44,1.68-.64,2.52l-1.2,5.06c-.2,.84-.41,1.68-.6,2.53l-.57,2.54-.59,2.53c-.2,.84-.4,1.69-.59,2.53l-1.13,5.08c-.19,.84-.36,1.7-.54,2.54l-.53,2.55-.27,1.27-.13,.64-.12,.64-.5,2.55c-.17,.85-.34,1.7-.52,2.55-.17,.85-.34,1.7-.53,2.55-.76,3.39-1.31,6.82-1.54,10.3-.03,.43-.06,.87-.08,1.3l-.06,1.31c-.03,.87-.05,1.75-.04,2.62,0,.88,.03,1.75,.08,2.63,.05,.88,.12,1.76,.26,2.65,.03,.17,.18,.29,.36,.26,.12-.02,.21-.1,.25-.2h0c.62-1.66,1.13-3.33,1.62-5,.24-.83,.47-1.67,.69-2.5l.32-1.25c.1-.42,.2-.84,.31-1.26,.41-1.68,.76-3.35,1.08-5.04,.15-.84,.29-1.69,.42-2.54,.14-.85,.27-1.7,.4-2.55,.13-.85,.26-1.7,.4-2.55,.15-.85,.31-1.69,.47-2.53l.49-2.53,.12-.63,.13-.63,.26-1.26,.53-2.52c.18-.84,.34-1.68,.54-2.52l1.12-5.03c.18-.84,.39-1.67,.59-2.51l.62-2.5,.63-2.5c.1-.42,.22-.83,.33-1.25l.34-1.24,1.36-4.97c.47-1.65,.95-3.3,1.41-4.96,.23-.83,.46-1.66,.68-2.49l.17-.62,.18-.62,.35-1.24c.46-1.66,.9-3.32,1.33-4.98l.32-1.25c.11-.42,.22-.83,.33-1.25,.22-.83,.41-1.67,.55-2.53,.14-.86,.23-1.73,.27-2.62,.02-.45,.02-.9,0-1.35-.02-.46-.05-.92-.13-1.4v-.02c-.03-.18-.2-.3-.39-.27-.08,.01-.14,.05-.19,.11Z"/>
      <path class="cls-8" d="M345.21,353.62c.2-.45,.34-.89,.47-1.34,.13-.45,.23-.89,.31-1.34,.17-.89,.27-1.78,.32-2.66,.02-.44,.04-.89,.04-1.33,0-.44-.02-.88-.04-1.32l-.07-1.32c-.02-.44-.05-.88-.09-1.31-.14-1.75-.27-3.5-.47-5.24-.09-.87-.2-1.74-.3-2.62-.05-.44-.12-.87-.18-1.3l-.18-1.3-.38-2.6c-.13-.87-.29-1.73-.44-2.59-.3-1.73-.58-3.46-.93-5.18-.33-1.72-.64-3.45-.98-5.16-.35-1.72-.68-3.44-1.02-5.16-.08-.43-.16-.86-.25-1.29l-.27-1.28-.55-2.57-.55-2.57c-.05-.21-.09-.43-.14-.64l-.15-.64-.3-1.28-1.2-5.11c-.1-.43-.21-.85-.31-1.28-.1-.43-.21-.85-.31-1.28-.2-.85-.4-1.7-.6-2.56-.2-.85-.39-1.71-.59-2.56-.2-.85-.44-1.7-.69-2.54-.25-.84-.52-1.67-.8-2.51-.28-.83-.58-1.66-.88-2.48l-.47-1.23c-.08-.21-.17-.41-.25-.61-.09-.2-.17-.41-.26-.61-.35-.81-.71-1.61-1.09-2.41-.37-.8-.77-1.59-1.18-2.38-.41-.79-.84-1.57-1.31-2.33-.09-.15-.28-.19-.43-.1-.1,.06-.15,.17-.15,.28h0c.2,3.6,.87,7.01,1.53,10.43,.17,.85,.35,1.7,.54,2.55,.19,.85,.4,1.69,.62,2.52,.46,1.67,.92,3.34,1.4,5,.24,.83,.47,1.67,.71,2.5,.12,.42,.23,.84,.34,1.25,.11,.42,.22,.84,.32,1.26l1.19,5.06,.3,1.27,.15,.63c.05,.21,.09,.42,.14,.64l.54,2.54,.54,2.54,.27,1.27c.09,.42,.17,.85,.25,1.27,1.39,6.79,2.33,13.66,3.24,20.52l.35,2.57c.11,.86,.22,1.72,.34,2.57l.7,5.14c.13,.86,.23,1.71,.34,2.57,.06,.43,.12,.86,.2,1.28,.08,.43,.16,.85,.25,1.28,.19,.85,.43,1.7,.71,2.55,.14,.42,.31,.85,.48,1.27,.17,.42,.37,.85,.6,1.27h0c.09,.17,.3,.23,.46,.14,.07-.04,.11-.09,.14-.16Z"/>
    </g>
    <g>
      <path class="cls-2" d="M307.26,325.16c7.46,3.02,18.99,2.39,26.86,1.43,4.72-.57,8.03-4.92,7.33-9.63h0c-.63-4.29-4.41-7.41-8.74-7.21-7.36,.34-18.39,.51-25.38-1.04"/>
      <g class="cls-6">
        <path class="cls-8" d="M307.25,325.16c7.46,3.02,18.99,2.39,26.86,1.44,4.72-.57,8.03-4.93,7.33-9.63-.14-.96-.44-1.86-.87-2.68-1.24,2.37-3.59,4.12-6.47,4.47-7.85,.95-19.37,1.58-26.83-1.42l-.03,7.82Z"/>
      </g>
      <path class="cls-8" d="M306.51,327h0c-5.3-2.15-5.47-10.54-3.92-15.53,1.53-4.92,4.12-4.91,5.16-4.68,5.19,1.15,14.02,1.51,24.86,1,2.59-.12,5.11,.72,7.11,2.37,2,1.65,3.3,3.96,3.68,6.53,.42,2.81-.3,5.6-2.03,7.86-1.72,2.25-4.22,3.68-7.03,4.02-3.67,.44-7.96,.8-12.27,.8-5.58,0-11.19-.6-15.56-2.37Zm26.29-15.25c-7.77,.36-18.45,.48-25.54-1.01-.73,.86-1.9,4.4-1.46,8.23,.12,1.1,.59,3.71,2.2,4.37h0c5.44,2.2,14.63,2.67,25.88,1.3,1.74-.21,3.29-1.1,4.36-2.49,1.07-1.4,1.52-3.13,1.26-4.88-.47-3.2-3.19-5.53-6.38-5.53-.1,0-.21,0-.31,0Z"/>
      <path class="cls-2" d="M250.23,325.16c-7.46,3.02-18.99,2.39-26.86,1.43-4.72-.57-8.03-4.92-7.33-9.63h0c.63-4.29,4.41-7.41,8.74-7.21,7.36,.34,18.39,.51,25.38-1.04"/>
      <g class="cls-6">
        <path class="cls-8" d="M223.38,326.6c7.86,.95,19.4,1.58,26.86-1.44l-.03-7.89c-7.46,3-18.98,2.37-26.83,1.42-2.86-.34-5.2-2.08-6.45-4.44-.44,.83-.75,1.74-.89,2.72-.69,4.7,2.62,9.05,7.34,9.63Z"/>
      </g>
      <path class="cls-8" d="M223.14,328.56c-2.81-.34-5.31-1.77-7.03-4.02-1.72-2.26-2.44-5.05-2.03-7.86,.38-2.56,1.69-4.88,3.68-6.53,2-1.65,4.52-2.49,7.11-2.37,10.84,.51,19.67,.15,24.86-1,1.04-.23,3.63-.24,5.16,4.68,1.55,5,1.38,13.39-3.92,15.53-4.37,1.77-9.99,2.37-15.56,2.37-4.31,0-8.6-.36-12.27-.8Zm1.55-16.82c-3.33-.15-6.2,2.22-6.69,5.52-.26,1.74,.19,3.48,1.26,4.88,1.07,1.4,2.61,2.28,4.36,2.49,11.25,1.36,20.44,.9,25.88-1.3h0c1.62-.65,2.08-3.27,2.2-4.37,.44-3.83-.73-7.37-1.46-8.23-7.09,1.49-17.77,1.38-25.54,1.01Z"/>
      <path class="cls-2" d="M247.35,303.29v26.35c0,4.89,4,8.89,8.89,8.89h48.52c4.88,0,8.88-4,8.88-8.89v-26.35c0-4.89-4-8.88-8.88-8.88h-48.52c-2.88,0-5.45,1.39-7.08,3.52-1.14,1.49-1.81,3.35-1.81,5.36Z"/>
      <g class="cls-6">
        <path class="cls-8" d="M247.35,303.29v26.35c0,4.89,4,8.89,8.89,8.89h48.52c4.89,0,8.89-4,8.89-8.89v-9.85c-7.29,7.43-21.62,12.09-34.76,12.16-4.22,.02-7.63-3.32-7.93-7.53,0-.04,0-.08-.01-.13-.32-3.7-3.37-6.69-7.07-6.96-4.22-.3-7.77,2.81-8.19,6.86-6.36-7.85-4.5-21.51-6.52-26.26-1.14,1.49-1.81,3.35-1.81,5.36Z"/>
      </g>
      <path class="cls-8" d="M245.37,329.64v-26.35c0-5.99,4.87-10.87,10.87-10.87h48.52c5.99,0,10.87,4.87,10.87,10.87v26.35c0,5.99-4.87,10.87-10.87,10.87h-48.52c-5.99,0-10.87-4.87-10.87-10.87Zm10.87-33.26c-3.81,0-6.9,3.1-6.9,6.9v26.35c0,3.81,3.1,6.9,6.9,6.9h48.52c3.81,0,6.9-3.1,6.9-6.9v-26.35c0-3.81-3.1-6.9-6.9-6.9h-48.52Z"/>
      <circle class="cls-11" cx="263.31" cy="316.47" r="7.66"/>
      <g class="cls-1">
        <path class="cls-2" d="M255.65,316.47c0,.53,.05,1.03,.15,1.53,.71-3.5,3.8-6.14,7.51-6.14s6.81,2.64,7.52,6.14c.1-.5,.15-1.01,.15-1.53,0-4.23-3.43-7.66-7.67-7.66s-7.66,3.43-7.66,7.66Z"/>
      </g>
      <g class="cls-6">
        <path class="cls-8" d="M255.65,316.46c0,4.23,3.43,7.66,7.66,7.66s7.66-3.43,7.66-7.66c0-.98-.18-1.91-.53-2.77-1.1,2.86-3.88,4.88-7.14,4.88s-6.03-2.02-7.14-4.88c-.34,.86-.53,1.79-.53,2.77Z"/>
      </g>
      <path class="cls-8" d="M254.16,316.47c0-5.04,4.1-9.15,9.15-9.15s9.15,4.1,9.15,9.15-4.1,9.15-9.15,9.15-9.15-4.1-9.15-9.15Zm2.97,0c0,3.41,2.77,6.18,6.18,6.18s6.18-2.77,6.18-6.18-2.77-6.18-6.18-6.18-6.18,2.77-6.18,6.18Z"/>
      <path class="cls-8" d="M285.02,340.01c.82,0,1.49-.66,1.49-1.49v-18.05s9.7-7.31,9.7-7.31v-18.77c0-.82-.66-1.49-1.49-1.49s-1.49,.66-1.49,1.49v17.29s-9.7,7.31-9.7,7.31v19.53c0,.82,.66,1.49,1.49,1.49Z"/>
    </g>
    <g>
      <path class="cls-2" d="M279.55,352.71c-8.58,0-16.84-3.19-23.28-8.85-8.93-7.85-23.96-17.21-40.56-11.21-6.66,2.41-11.2,6.83-14.29,11.71-7.97-18.47-24.7-19.58-31.93-9.11,0,0,12.17,58.05,16.13,59.34,5.68,1.85,19.33-.1,19.33-.1,0,0,47.49-6.43,74.6-6.43,27.12,0,74.6,6.43,74.6,6.43,0,0,13.65,1.95,19.33,.1,3.97-1.29,16.13-59.34,16.13-59.34-7.24-10.47-23.96-9.36-31.93,9.11-3.09-4.89-7.63-9.31-14.29-11.71-16.59-6.01-31.63,3.36-40.56,11.21-6.45,5.67-14.7,8.85-23.28,8.85h0Z"/>
      <g class="cls-6">
        <path class="cls-8" d="M169.48,335.26s12.17,58.05,16.13,59.34c5.68,1.85,19.33-.09,19.33-.09,0,0,47.48-6.43,74.6-6.43,27.11,0,74.6,6.43,74.6,6.43,0,0,13.65,1.95,19.33,.09,3.97-1.29,16.13-59.34,16.13-59.34-1.19-1.72-2.64-3.13-4.26-4.2-3.9,17.02-9.44,39.24-11.87,40.03-5.68,1.85-19.33-.1-19.33-.1,0,0-47.49-12.86-74.6-12.86-27.12,0-74.6,12.86-74.6,12.86,0,0-13.65,1.95-19.33,.1-2.44-.79-7.97-23.01-11.87-40.03-1.62,1.07-3.07,2.48-4.26,4.2Z"/>
      </g>
      <path class="cls-8" d="M353.88,396.46c-.74-.1-47.73-6.41-74.33-6.41s-73.59,6.31-74.33,6.41c-.69,.1-14.19,1.98-20.21,.02-1.38-.45-2.53-1.95-4.68-8.58-1.26-3.89-2.77-9.31-4.49-16.12-3.03-12-5.98-25.37-7.47-32.27-.79-3.65,.61-7.42,3.56-9.6,4.17-3.08,9.53-4.04,14.69-2.64,6.12,1.65,11.4,6.29,15.12,13.21,3.54-4.52,8-7.77,13.3-9.69,6.05-2.19,12.39-2.61,18.83-1.24,5.19,1.1,10.46,3.36,15.66,6.72,.92,.59,1.18,1.82,.59,2.74-.59,.92-1.82,1.18-2.74,.59-10.75-6.93-21.18-8.64-31-5.08-5.49,1.99-9.97,5.66-13.29,10.91-.39,.62-1.1,.97-1.83,.91-.73-.06-1.37-.52-1.66-1.19-3.24-7.5-8.21-12.49-14.02-14.06-4.05-1.1-8.07-.38-11.31,2.01-1.7,1.25-2.5,3.44-2.04,5.57,1.4,6.51,4.19,19.18,7.1,30.82,1.63,6.53,3.08,11.84,4.3,15.77,1.69,5.46,2.58,7.08,2.9,7.54,4.47,1.25,14.53,.24,18.12-.27,0,0,0,0,.01,0,.48-.06,47.93-6.45,74.87-6.45,26.94,0,74.39,6.38,74.87,6.45,0,0,0,0,.01,0,3.58,.51,13.65,1.52,18.12,.27,.33-.47,1.24-2.14,2.99-7.83,1.25-4.07,2.73-9.54,4.41-16.27,3.04-12.24,5.96-25.64,7.08-30.83,.32-1.49-.15-3.02-1.23-3.99-3.15-2.82-7.38-3.9-11.6-2.97-6.01,1.32-11.36,6.51-14.69,14.22-.29,.67-.93,1.13-1.66,1.19-.73,.06-1.44-.29-1.83-.91-3.33-5.25-7.8-8.92-13.29-10.91-9.74-3.53-20.08-1.87-30.74,4.91-.92,.59-2.15,.32-2.73-.61-.59-.92-.32-2.15,.61-2.73,5.18-3.3,10.41-5.51,15.56-6.57,6.38-1.32,12.65-.89,18.65,1.28,5.29,1.91,9.75,5.17,13.3,9.69,1.75-3.25,3.84-6,6.25-8.2,2.91-2.66,6.27-4.46,9.73-5.22,5.49-1.21,10.99,.21,15.1,3.88,2.14,1.91,3.08,4.89,2.46,7.77-1.18,5.5-4.27,19.66-7.44,32.28-1.76,7.01-3.31,12.6-4.6,16.62-2.2,6.86-3.38,8.41-4.77,8.86-2.05,.67-4.96,.89-7.93,.89-5.79,0-11.83-.84-12.28-.91Zm18.56-3.51h0Z"/>
      <path class="cls-12" d="M189.14,394.6h-3.53c-4.14,0-7.89-2.43-9.58-6.21-5.28-11.82-14.9-37.8-5.89-53.65,.26-.46,.54-.91,.84-1.33,0,0,8.66-7.87,14.87,3.26,5.81,10.4,18,54.89,3.28,57.93Z"/>
      <g class="cls-1">
        <path class="cls-2" d="M189.05,344.08c-.16-.25-.31-.48-.46-.7-7.65-11.14-18.29-3.26-18.29-3.26-.36,.43-.71,.87-1.03,1.33-1.07,1.53-1.92,3.14-2.59,4.84,.43-4.16,1.51-8.1,3.47-11.55,.26-.46,.54-.91,.84-1.33,0,0,8.66-7.87,14.87,3.26,.94,1.69,2.05,4.26,3.18,7.41Z"/>
      </g>
      <path class="cls-8" d="M166.72,347.48c.09,0,.18,0,.27-.02l21.63-3.61c.89-.15,1.49-.99,1.34-1.88-.15-.89-.99-1.49-1.88-1.34l-21.63,3.61c-.89,.15-1.49,.99-1.34,1.88,.13,.8,.82,1.36,1.61,1.36Z"/>
      <path class="cls-8" d="M166.86,359.16c.07,0,.15,0,.22-.01l25.31-3.4c.89-.12,1.52-.94,1.4-1.84-.12-.89-.94-1.52-1.84-1.4l-25.31,3.4c-.89,.12-1.52,.94-1.4,1.84,.11,.82,.81,1.42,1.62,1.42Z"/>
      <path class="cls-8" d="M169.09,370.61c.07,0,.13,0,.2-.01l25.69-3.14c.9-.11,1.53-.92,1.42-1.82-.11-.9-.92-1.53-1.82-1.42l-25.69,3.14c-.9,.11-1.53,.92-1.42,1.82,.1,.83,.81,1.43,1.62,1.43Z"/>
      <path class="cls-8" d="M173.17,383.1s.1,0,.15,0l22.97-2.07c.9-.08,1.56-.87,1.48-1.77-.08-.9-.88-1.56-1.77-1.48l-22.97,2.07c-.9,.08-1.56,.87-1.48,1.77,.08,.85,.79,1.49,1.62,1.49Z"/>
      <g class="cls-6">
        <path class="cls-8" d="M189.14,394.6h-3.53c-4.14,0-7.89-2.43-9.58-6.21-1.37-3.06-3.02-7.07-4.58-11.61,2.12,3.51,6.42,5.74,11.14,5.74h4.2c5.98-1.04,8.23-6.9,8.32-14.59,2.02,12.98,1.47,25.13-5.98,26.67Z"/>
      </g>
      <path class="cls-8" d="M174.55,389.05c-2.76-6.19-6.47-15.67-8.42-25.67-2.4-12.3-1.52-22.21,2.6-29.45,.29-.5,.6-1,.92-1.46,.07-.1,.15-.19,.24-.27,.17-.16,4.27-3.82,9.23-3.01,3.24,.53,5.98,2.78,8.17,6.69,2.37,4.25,6.01,14.48,8.36,25.8,1.93,9.27,3.53,21.82,.23,29.03-1.4,3.06-3.55,4.91-6.4,5.49-.11,.02-.22,.03-.33,.03h-3.53c-4.78,0-9.13-2.82-11.07-7.18Zm18.36,.29c2.29-5,2.12-14.59-.46-27.01-2.26-10.88-5.82-20.94-8.01-24.87-1.67-2.99-3.63-4.68-5.82-5.05-3.01-.5-5.79,1.59-6.4,2.09-.23,.33-.44,.68-.64,1.04-3.72,6.55-4.48,15.71-2.23,27.22,1.89,9.7,5.5,18.93,8.19,24.96,1.42,3.18,4.6,5.24,8.09,5.24h3.35c1.72-.41,3.01-1.59,3.94-3.62Z"/>
      <path class="cls-12" d="M369.95,394.6h3.53c4.14,0,7.89-2.43,9.58-6.21,5.28-11.82,14.9-37.8,5.89-53.65-.26-.46-.54-.91-.84-1.33,0,0-8.66-7.87-14.87,3.26-5.81,10.4-18,54.89-3.28,57.93Z"/>
      <g class="cls-1">
        <path class="cls-2" d="M370.05,344.08c.16-.25,.31-.48,.46-.7,7.65-11.14,18.29-3.26,18.29-3.26,.36,.43,.71,.87,1.03,1.33,1.07,1.53,1.92,3.14,2.59,4.84-.43-4.16-1.51-8.1-3.47-11.55-.26-.46-.54-.91-.84-1.33,0,0-8.66-7.87-14.87,3.26-.94,1.69-2.05,4.26-3.18,7.41Z"/>
      </g>
      <path class="cls-8" d="M392.38,347.48c.78,0,1.48-.57,1.61-1.36,.15-.89-.45-1.73-1.34-1.88l-21.63-3.61c-.89-.15-1.73,.45-1.88,1.34-.15,.89,.45,1.73,1.34,1.88l21.63,3.61c.09,.02,.18,.02,.27,.02Z"/>
      <path class="cls-8" d="M392.24,359.16c.81,0,1.51-.6,1.62-1.42,.12-.89-.51-1.72-1.4-1.84l-25.31-3.4c-.89-.12-1.72,.51-1.84,1.4-.12,.89,.51,1.72,1.4,1.84l25.31,3.4c.07,0,.15,.01,.22,.01Z"/>
      <path class="cls-8" d="M390.01,370.61c.81,0,1.52-.61,1.62-1.43,.11-.9-.53-1.71-1.42-1.82l-25.69-3.14c-.89-.11-1.71,.53-1.82,1.42-.11,.9,.53,1.71,1.42,1.82l25.69,3.14c.07,0,.13,.01,.2,.01Z"/>
      <path class="cls-8" d="M385.93,383.1c.84,0,1.55-.64,1.62-1.49,.08-.9-.58-1.69-1.48-1.77l-22.97-2.07c-.9-.08-1.69,.58-1.77,1.48-.08,.9,.58,1.69,1.48,1.77l22.97,2.07s.1,0,.15,0Z"/>
      <g class="cls-6">
        <path class="cls-8" d="M369.95,394.6h3.53c4.14,0,7.89-2.43,9.58-6.21,1.37-3.06,3.02-7.07,4.58-11.61-2.12,3.51-6.42,5.74-11.14,5.74h-4.2c-5.98-1.04-8.23-6.9-8.32-14.59-2.02,12.98-1.47,25.13,5.98,26.67Z"/>
      </g>
      <path class="cls-8" d="M369.62,396.19c-2.85-.59-5-2.44-6.4-5.49-3.3-7.21-1.69-19.77,.23-29.03,2.35-11.32,5.99-21.55,8.36-25.8,2.18-3.91,4.93-6.16,8.17-6.69,4.97-.81,9.06,2.85,9.23,3.01,.09,.08,.17,.17,.24,.27,.32,.47,.64,.96,.92,1.46,4.12,7.25,5,17.16,2.6,29.46-1.95,10-5.65,19.48-8.42,25.67-1.94,4.36-6.29,7.18-11.07,7.18h-3.53c-.11,0-.22-.01-.33-.03Zm10.86-63.78c-2.2,.37-4.16,2.07-5.82,5.05-2.2,3.93-5.75,13.99-8.01,24.87-2.58,12.42-2.74,22.01-.46,27.01,.93,2.03,2.22,3.21,3.94,3.62h3.35c3.49,0,6.67-2.06,8.09-5.24,2.7-6.03,6.3-15.26,8.19-24.96,2.24-11.51,1.49-20.67-2.23-27.22-.2-.36-.42-.7-.64-1.04-.62-.51-3.4-2.6-6.4-2.09Z"/>
      <path class="cls-8" d="M330.14,393.11c.23,0,.47-.05,.69-.17,.73-.38,1.01-1.28,.63-2-6.2-11.85-6.29-25.17-.27-39.6,4.54-10.88,11.04-18.33,11.11-18.41,.54-.62,.48-1.55-.13-2.1-.62-.54-1.55-.48-2.1,.13-.28,.31-6.85,7.83-11.59,19.14-2.79,6.68-4.35,13.28-4.63,19.63-.35,7.99,1.32,15.58,4.98,22.57,.27,.51,.78,.8,1.32,.8Z"/>
      <path class="cls-8" d="M228.35,393.11c.54,0,1.05-.29,1.32-.8,3.66-6.99,5.33-14.58,4.98-22.57-.28-6.35-1.84-12.96-4.63-19.63-4.74-11.31-11.31-18.83-11.59-19.14-.54-.62-1.48-.67-2.1-.13-.61,.54-.67,1.48-.13,2.1h0c.07,.07,6.57,7.52,11.11,18.41,6.02,14.43,5.93,27.75-.27,39.6-.38,.73-.1,1.62,.63,2,.22,.12,.46,.17,.69,.17Z"/>
    </g>
    <g class="cls-6">
      <path class="cls-8" d="M230.34,250.43c1.71,1.96,3.51,3.82,5.39,5.57,4.46,4.15,9.34,7.68,14.56,10.47,8.82,4.73,18.61,7.39,28.91,7.44,10.07,.04,19.65-2.4,28.34-6.85,5.69-2.92,10.99-6.68,15.79-11.17,2.39-2.24,4.65-4.65,6.77-7.22-3.85-1.19-7.67-2.56-11.17-3.93-4.35-10.47-9.42-21.19-15.33-31.91h-48.12c-4.89,8.87-9.2,17.73-13,26.45-3.62,2.11-7.8,6.09-12.15,11.14Z"/>
    </g>
    <g>
      <g>
        <path class="cls-2" d="M206.06,202.63h0c.84,.09,1.59-.52,1.68-1.35l4.7-43.71c.09-.84-.52-1.59-1.35-1.68h0c-8.79-.94-16.68,5.42-17.63,14.21l-1.6,14.9c-.94,8.79,5.42,16.68,14.21,17.63Z"/>
        <path class="cls-8" d="M206.02,203l.04-.37-.04,.37c-4.35-.47-8.26-2.6-11.01-6.01-2.75-3.41-4-7.68-3.53-12.03l1.6-14.9c.97-8.98,9.06-15.51,18.04-14.54,.51,.05,.96,.3,1.28,.7,.32,.4,.46,.89,.41,1.4l-4.7,43.71c-.05,.51-.3,.96-.7,1.28-.34,.28-.76,.42-1.19,.42-.07,0-.14,0-.21-.01Zm-12.19-32.87l-1.6,14.9c-.45,4.15,.75,8.23,3.37,11.48,2.62,3.25,6.35,5.29,10.5,5.73h0c.31,.03,.61-.06,.84-.25,.24-.19,.39-.47,.42-.77l4.7-43.71c.03-.31-.06-.61-.25-.84-.19-.24-.47-.39-.77-.42-.57-.06-1.13-.09-1.68-.09-7.88,0-14.67,5.96-15.53,13.96Z"/>
      </g>
      <g class="cls-6">
        <path class="cls-8" d="M192.61,178.01l-.75,6.99c-.94,8.79,5.42,16.68,14.21,17.63,.84,.09,1.59-.52,1.68-1.36l1.25-11.62c-.29,.5-.86,.81-1.48,.75l-1.04-.11c-6.95-.75-12.38-5.83-13.88-12.28Z"/>
      </g>
      <path class="cls-8" d="M205.84,204.71h0c-4.81-.52-9.13-2.87-12.16-6.64-3.03-3.77-4.42-8.49-3.9-13.3l1.6-14.9c1.07-9.93,10.01-17.13,19.94-16.07,.96,.1,1.83,.57,2.43,1.33,.61,.75,.88,1.7,.78,2.66l-4.7,43.71c-.1,.96-.57,1.83-1.33,2.43-.65,.52-1.44,.8-2.26,.8-.13,0-.26,0-.39-.02Zm.45-4.16h0s0,0,0,0c0,0,0,0,0,0Zm-10.75-30.23l-1.6,14.9c-.4,3.7,.67,7.33,3,10.22,2.21,2.75,5.32,4.52,8.78,5.03l4.57-42.55c-7.4-.5-13.96,4.96-14.76,12.4Z"/>
      <g>
        <path class="cls-2" d="M355.35,171.39h0c-.84-.09-1.59,.52-1.68,1.35l-4.7,43.71c-.09,.84,.52,1.59,1.35,1.68h0c8.79,.94,16.68-5.42,17.63-14.21l1.6-14.9c.94-8.79-5.42-16.68-14.21-17.63Z"/>
        <path class="cls-8" d="M350.29,218.5c-1.04-.11-1.8-1.05-1.69-2.09l4.7-43.71c.11-1.04,1.05-1.8,2.09-1.69l-.04,.37,.04-.37c8.98,.97,15.51,9.06,14.54,18.04l-1.6,14.9c-.9,8.39-8.02,14.64-16.28,14.64-.58,0-1.17-.03-1.76-.09Zm3.76-45.72l-4.7,43.71c-.07,.63,.39,1.2,1.02,1.27,8.57,.92,16.29-5.3,17.21-13.87l1.6-14.9c.92-8.57-5.3-16.29-13.87-17.21-.04,0-.08,0-.12,0-.58,0-1.08,.44-1.14,1.03Z"/>
      </g>
      <g class="cls-6">
        <path class="cls-8" d="M350.27,204.32l-1.3,12.13c-.09,.84,.52,1.59,1.36,1.68,4.61,.49,8.99-1.02,12.23-3.85,2.93-2.55,4.95-6.18,5.39-10.36l.68-6.28c-3.09,5.24-9.06,8.48-15.51,7.79l-1.59-.17c-.58-.06-1.04-.44-1.26-.94Z"/>
      </g>
      <path class="cls-8" d="M350.1,220.21c-1.98-.21-3.43-2-3.21-3.99l4.7-43.71c.21-1.98,2-3.43,3.99-3.21h0c9.93,1.07,17.13,10.01,16.07,19.94l-1.6,14.9c-1,9.27-8.86,16.17-17.99,16.17-.64,0-1.29-.03-1.95-.1Zm1.01-4.12c7.4,.5,13.96-4.96,14.76-12.4l1.6-14.9c.8-7.44-4.45-14.16-11.79-15.25l-4.57,42.55Z"/>
      <g>
        <circle class="cls-2" cx="280.7" cy="187" r="74.91"/>
        <path class="cls-8" d="M277.98,262.24c-10.16-.37-19.94-2.71-29.07-6.97-8.82-4.11-16.67-9.83-23.33-16.99-6.66-7.16-11.79-15.4-15.26-24.5-3.59-9.42-5.22-19.34-4.86-29.5,.37-10.16,2.71-19.94,6.97-29.07,4.11-8.82,9.83-16.67,16.99-23.33,7.16-6.66,15.4-11.79,24.5-15.26,9.42-3.59,19.34-5.22,29.5-4.86,10.16,.37,19.94,2.71,29.07,6.97,8.82,4.11,16.67,9.83,23.33,16.99,6.66,7.16,11.79,15.4,15.26,24.5,3.59,9.42,5.22,19.34,4.86,29.5-.37,10.16-2.71,19.94-6.97,29.07-4.11,8.82-9.83,16.67-16.99,23.33-7.16,6.66-15.4,11.79-24.5,15.26-8.55,3.26-17.53,4.91-26.71,4.91-.93,0-1.86-.02-2.79-.05Zm-71.77-77.92c-.72,19.9,6.36,38.88,19.92,53.46,13.56,14.58,31.99,23,51.88,23.72,.92,.03,1.84,.05,2.75,.05,18.89,0,36.8-7.03,50.7-19.97,14.58-13.56,23-31.99,23.72-51.88,1.48-41.07-30.73-75.69-71.8-77.17-.91-.03-1.82-.05-2.72-.05-39.86,0-73,31.69-74.45,71.85Z"/>
      </g>
      <g class="cls-6">
        <path class="cls-8" d="M206.93,173.97c-.6,3.37-.96,6.82-1.09,10.34-1.49,41.34,30.82,76.07,72.16,77.56,41.34,1.49,76.07-30.82,77.56-72.16,.04-1.19,.06-2.38,.04-3.55-6.36,36.26-38.64,63.19-76.47,61.82-40.15-1.45-71.78-34.25-72.21-74.01Z"/>
      </g>
      <path class="cls-8" d="M277.92,263.96c-10.39-.37-20.39-2.77-29.74-7.13-9.02-4.21-17.05-10.05-23.86-17.37-6.81-7.32-12.06-15.75-15.61-25.05-3.67-9.63-5.34-19.78-4.97-30.17,.37-10.39,2.77-20.39,7.13-29.74,4.21-9.02,10.05-17.05,17.37-23.86,7.32-6.81,15.75-12.06,25.05-15.61,9.63-3.67,19.78-5.34,30.17-4.97,10.39,.37,20.39,2.77,29.74,7.13,9.02,4.21,17.05,10.05,23.86,17.37,6.81,7.32,12.06,15.75,15.61,25.05,3.67,9.63,5.34,19.78,4.97,30.17-.37,10.39-2.77,20.39-7.13,29.74-4.21,9.02-10.05,17.05-17.37,23.86-7.32,6.81-15.75,12.06-25.05,15.61-8.75,3.33-17.93,5.02-27.32,5.02-.95,0-1.9-.02-2.85-.05Zm-69.99-79.58c-.7,19.44,6.21,37.98,19.46,52.22,13.25,14.24,31.25,22.47,50.69,23.17,.9,.03,1.8,.05,2.69,.05,18.45,0,35.95-6.87,49.53-19.51,14.24-13.25,22.47-31.25,23.17-50.69,1.45-40.12-30.02-73.94-70.14-75.39-.89-.03-1.77-.05-2.66-.05-38.95,0-71.32,30.96-72.73,70.19Z"/>
      <path class="cls-9" d="M206.01,186.24c-.75,14.64,3.31,28.47,10.86,40.14,5.66,8.74,29.95,24.78,60.87,26.64,28.66,1.73,55.54-12.23,62.06-20.35,8.7-10.83,14.15-24.18,14.9-38.82,1.98-38.74-30.48-56.5-71.54-58.61-41.06-2.1-75.17,12.25-77.15,50.99Z"/>
      <path class="cls-8" d="M277.65,254.45c-17.6-1.06-31.72-6.51-40.46-10.89-9.96-4.99-18.21-11.28-21.53-16.41-7.99-12.35-11.83-26.52-11.09-40.99h0c.49-9.6,2.96-18.11,7.33-25.28,4.11-6.75,9.93-12.37,17.3-16.7,13.47-7.91,32.15-11.5,54.03-10.38,21.88,1.12,40.1,6.6,52.69,15.84,6.89,5.06,12.11,11.24,15.51,18.38,3.61,7.58,5.2,16.3,4.7,25.9-.74,14.47-6,28.18-15.22,39.64-3.75,4.67-12.91,10.29-23.33,14.31-8.23,3.17-20.63,6.73-34.88,6.73-1.66,0-3.35-.05-5.06-.15Zm-46.99-107.78c-14.49,8.51-22.3,21.85-23.21,39.64h0c-.71,13.86,2.97,27.45,10.63,39.28,2.29,3.53,9,9.68,20.4,15.4,8.51,4.26,22.24,9.56,39.35,10.59,15.85,.95,29.81-2.95,38.73-6.39,12.13-4.68,19.5-10.15,22.13-13.42,8.83-10.99,13.88-24.13,14.59-37.99,.91-17.79-5.5-31.86-19.04-41.81-12.13-8.91-29.81-14.2-51.13-15.29-2.58-.13-5.1-.2-7.58-.2-18.04,0-33.44,3.48-44.85,10.18Z"/>
      <g class="cls-3">
        <ellipse class="cls-2" cx="230.44" cy="182.21" rx="9.61" ry="13.26" transform="translate(-21.39 30.93) rotate(-7.34)"/>
      </g>
      <g class="cls-3">
        <ellipse class="cls-2" cx="240.85" cy="209.04" rx="5.22" ry="6.08" transform="translate(-46.58 70.87) rotate(-15.28)"/>
      </g>
      <g class="cls-6">
        <path class="cls-10" d="M222.32,150.84c-9.53,8.21-15.51,19.84-16.31,35.4-.75,14.64,3.31,28.48,10.85,40.14,5.66,8.74,29.96,24.78,60.87,26.64,10.92,.66,21.57-.96,30.94-3.66-37.95-3.1-67.54-22.77-74.56-33.62-9.58-14.8-14.73-32.36-13.78-50.94,.25-4.96,.93-9.61,1.98-13.96Z"/>
      </g>
      <path class="cls-8" d="M350.79,162.54c.42,0,.85-.13,1.21-.4,.86-.64,1.05-1.84,.47-2.72-3.11-5.11-7.08-9.77-11.8-13.87-4.6-3.99-9.94-7.47-15.88-10.35-5.82-2.82-12.25-5.08-19.12-6.71-6.8-1.62-14.07-2.64-21.59-3.02-7.4-.38-14.65-.12-21.55,.76-6.96,.89-13.58,2.42-19.68,4.55-6.23,2.18-11.94,4.99-16.95,8.36-5.16,3.46-9.62,7.54-13.26,12.11-.64,.7-.7,1.78-.11,2.57,.67,.89,1.94,1.06,2.82,.38l.21-.16,.16-.2c13.49-17,38.32-25.87,68.14-24.34,29.98,1.54,53.74,13.23,65.19,32.07l.05,.09,.07,.09c.4,.53,1,.8,1.61,.8Z"/>
      <g class="cls-3">
        <path class="cls-2" d="M336.82,216.04s13.96-37.6-5.86-53.89c-19.82-16.28-49.45-17.74-48.86-15.8,0,0,32.4,9.62,43.91,36.21,8.87,20.51,10.81,33.48,10.81,33.48Z"/>
      </g>
    </g>
    <path class="cls-8" d="M199.85,344.82c.04,.33,.11,.68,.17,1.02,.06,.34,.14,.69,.21,1.03,.15,.68,.32,1.36,.49,2.04,.35,1.36,.75,2.71,1.13,4.06,.38,1.36,.75,2.71,1.11,4.08l.26,1.03c.09,.34,.17,.69,.25,1.03l.12,.52,.06,.26,.06,.26c.07,.35,.15,.7,.24,1.05h0c.03,.14,.16,.22,.29,.19,.09-.02,.16-.1,.18-.19,.14-.72,.27-1.45,.33-2.18l.06-.55c.02-.18,.02-.37,.03-.55,.02-.37,.04-.73,.05-1.1,.03-1.47-.02-2.93-.14-4.38-.12-1.45-.29-2.9-.58-4.33-.14-.71-.3-1.42-.5-2.12-.1-.35-.2-.7-.32-1.05-.12-.35-.24-.69-.39-1.04-.35-.84-1.31-1.23-2.15-.89-.7,.29-1.1,1.02-1,1.74v.05Z"/>
    <path class="cls-8" d="M355.97,343.92c-.15,.36-.27,.69-.39,1.04-.11,.35-.22,.7-.32,1.05-.2,.7-.36,1.41-.5,2.12-.28,1.42-.45,2.87-.58,4.33-.12,1.46-.17,2.92-.14,4.38,0,.37,.03,.73,.05,1.1,.01,.18,.02,.37,.03,.55l.06,.55c.06,.73,.19,1.46,.33,2.18,.03,.13,.15,.21,.28,.19,.09-.02,.16-.09,.19-.18h0c.09-.37,.17-.72,.24-1.07l.06-.26,.06-.26,.12-.52c.08-.35,.16-.69,.25-1.03l.26-1.03c.36-1.37,.73-2.73,1.11-4.08,.38-1.36,.79-2.7,1.13-4.06,.18-.68,.34-1.36,.49-2.04,.07-.34,.15-.68,.21-1.03,.07-.34,.13-.69,.17-1.02v-.04c.13-.9-.5-1.73-1.4-1.85-.75-.1-1.46,.33-1.74,1Z"/>
    <g>
      <path class="cls-5" d="M212.81,386.63h132.85c4.3,0,7.79,3.49,7.79,7.79h0c0,2.48-2.01,4.49-4.49,4.49H209.51c-2.48,0-4.49-2.01-4.49-4.49h0c0-4.3,3.49-7.79,7.79-7.79Z" transform="translate(558.47 785.54) rotate(180)"/>
      <g class="cls-7">
        <path class="cls-2" d="M205.02,391.12c0,.85,.14,1.67,.39,2.44,.7-1.57,2.27-2.66,4.09-2.66h139.46c1.24,0,2.36,.5,3.17,1.32,.39,.39,.7,.84,.93,1.34,.25-.77,.39-1.58,.39-2.44,0-1.24-.5-2.36-1.32-3.17-.81-.82-1.94-1.32-3.17-1.32H209.51c-2.48,0-4.48,2.01-4.48,4.49Z"/>
      </g>
      <g class="cls-6">
        <path class="cls-8" d="M205.02,391.12c0,2.15,.87,4.1,2.28,5.5,1.41,1.41,3.36,2.28,5.5,2.28h132.85c4.3,0,7.79-3.49,7.79-7.79,0-.83-.22-1.6-.62-2.27-1.18,2.79-3.95,4.75-7.17,4.75H212.81c-2.15,0-4.1-.87-5.5-2.28-.7-.7-1.27-1.54-1.66-2.47-.4,.67-.62,1.45-.62,2.27Z"/>
      </g>
      <path class="cls-8" d="M203.04,391.12c0-3.57,2.9-6.47,6.47-6.47h139.46c3.57,0,6.47,2.9,6.47,6.47,0,5.39-4.38,9.77-9.77,9.77H212.81c-5.39,0-9.77-4.38-9.77-9.77Zm6.47-2.51c-1.38,0-2.51,1.12-2.51,2.51,0,3.2,2.61,5.81,5.81,5.81h132.85c3.2,0,5.81-2.61,5.81-5.81,0-1.38-1.12-2.51-2.51-2.51H209.51Z"/>
      <path class="cls-4" d="M197.27,298.94l12.99,87.69h137.95s.47-3.17,.47-3.17l12.53-84.52c.41-2.78-1.74-5.27-4.54-5.27H201.81c-2.81,0-4.96,2.49-4.54,5.27Z"/>
      <path class="cls-5" d="M197.27,298.94l12.99,87.69h137.95s.47-3.17,.47-3.17l12.53-84.52c.41-2.78-1.74-5.27-4.54-5.27H201.81c-2.81,0-4.96,2.49-4.54,5.27Z"/>
      <g class="cls-3">
        <path class="cls-2" d="M356.31,304.38c.41-2.78-1.74-5.27-4.54-5.27H197.29s-.03-.18-.03-.18c-.41-2.78,1.74-5.27,4.54-5.27h154.86c2.8,0,4.96,2.49,4.54,5.27l-12.53,84.52-.47,3.17h-4.09s12.19-82.25,12.19-82.25Z"/>
      </g>
      <g class="cls-6">
        <path class="cls-8" d="M206.16,293.67h10.87c-4.12,15.11-1.85,49.22,24.75,67.04,33.39,22.38,93.57,22.24,106.35,22.74l-.47,3.17H214.61s-12.99-87.69-12.99-87.69c-.41-2.78,1.74-5.27,4.54-5.27Z"/>
      </g>
      <path class="cls-8" d="M195.31,299.23c-.28-1.89,.28-3.81,1.53-5.26,1.25-1.45,3.06-2.28,4.98-2.28h154.86c1.91,0,3.73,.83,4.98,2.28,1.25,1.45,1.81,3.36,1.53,5.26l-13.25,89.38H208.55s-13.25-89.38-13.25-89.38Zm163.94-.58c.11-.76-.1-1.51-.61-2.09-.5-.58-1.21-.91-1.98-.91H201.81c-.77,0-1.47,.32-1.98,.91-.5,.58-.72,1.33-.61,2.09l12.75,86h134.53s12.75-86,12.75-86Z"/>
      <g class="cls-7">
        <path class="cls-2" d="M337.23,366.14c5.23-11.54,9.04-31.23,8.19-42.82-.86-11.59-7.58-8.04-9.66,6.8-5.54,39.51-.86,41.16,1.48,36.01Z"/>
      </g>
    </g>
    <path class="cls-2" d="M197.95,303.56s10.69-5.07,20.73-.52c9.61,4.36,16.42,35.39,3.96,43.25-7.69,4.85-12.92,.57-17.27,1.82-6.45,1.87-19.69-30.08-7.42-44.55Z"/>
    <g class="cls-6">
      <path class="cls-8" d="M193.13,323.76c1.27,13,8.13,25.54,12.24,24.36,4.35-1.26,9.58,3.03,17.27-1.82,5.95-3.76,7.5-12.8,6.46-21.7-.71,5.19-2.71,9.64-6.46,12-7.69,4.85-12.81,2.59-17.27,1.82-5.52-.96-10.02-6.98-12.24-14.66Z"/>
    </g>
    <path class="cls-8" d="M210.2,350.18c-1.68-.27-3.13-.5-4.28-.17-1.77,.51-4.59,.03-7.95-5.16-3.36-5.19-5.95-12.96-6.75-20.29-.72-6.51-.39-15.65,5.22-22.27l.28-.33,.39-.18c.47-.22,11.64-5.41,22.4-.54,3.86,1.75,6.51,6.34,8.06,9.88,2.03,4.63,3.35,10.14,3.72,15.52,.31,4.54-.09,8.77-1.15,12.24-1.27,4.14-3.43,7.2-6.43,9.09-3.34,2.11-6.35,2.68-8.94,2.68-1.7,0-3.23-.24-4.56-.46Zm-5.19-46.66c-2.83,.49-4.99,1.31-5.83,1.66-7.41,9.28-3.98,27.01,1.44,36.4,2.32,4.03,3.97,4.66,4.2,4.62,2-.58,3.95-.27,6.01,.06,3.19,.51,6.48,1.04,10.76-1.66,4.24-2.68,6.33-9.13,5.74-17.71-.33-4.86-1.57-10.03-3.4-14.2-1.77-4.05-3.98-6.91-6.07-7.86-2.53-1.15-5.32-1.72-8.33-1.72-1.46,0-2.97,.14-4.52,.41Z"/>
  </g>
  <g>
    <path class="cls-8" d="M287.4,324.46h0s-22.39,0-22.39,0l9.21,9.22h12.44c1.79,0,3.23,1.52,3.23,3.39s-1.45,3.39-3.23,3.39h-7.58l9.14,9.19c6.25-.46,11.18-5.91,11.18-12.58s-5.37-12.59-12.01-12.61Z"/>
    <polygon class="cls-8" points="276.48 340.46 268.29 340.46 267.44 340.46 265.86 340.46 264.12 340.46 274.21 350.6 275.74 350.59 285.77 360.88 296.8 360.88 285.62 349.64 276.48 340.46"/>
  </g>
</svg>