<?xml version="1.0" encoding="UTF-8"?>
<svg id="Layer_1" data-name="Layer 1" xmlns="http://www.w3.org/2000/svg" viewBox="0 0 500 500">
  <defs>
    <style>
      .cls-1 {
        opacity: .7;
      }

      .cls-2 {
        fill: #fff;
      }

      .cls-3 {
        opacity: .5;
      }

      .cls-4 {
        fill: #3e3e3e;
      }

      .cls-5 {
        opacity: .2;
      }

      .cls-6 {
        opacity: .35;
      }

      .cls-7 {
        fill: #353535;
      }

      .cls-8 {
        fill: #030b2f;
      }

      .cls-9 {
        fill: #292929;
      }

      .cls-10 {
        fill: #919191;
      }

      .cls-11 {
        opacity: .25;
      }
    </style>
  </defs>
  <g>
    <path class="cls-4" d="M196.4,266.84c38.35-5.32,73.02,47.66,80.88,60.61,1.09,1.8,2.93,3.01,5.02,3.29,13.86,1.81,23.67,1.56,30.99,.03,0,0,0,0,.01,0,17.14-3.57,20.7-14.11,30.93-21.52,6.94-5.02,15.23-5.39,23.61-5.25t.01,0c9.69,.17,19.53,1.01,27.55-3.86,1.18-.72,2.21-1.48,3.13-2.29,7.54-6.64,7.37-16.19,17.27-23.52,5.09-3.77,11.64-4.91,18.2-4.67,9.98,.35,19.97,3.88,24.81,6.14,1.02,.47,2.16-.42,1.94-1.53l-4.95-25.42-66.29-30.78-173.73-14.66-19.4,63.42Z"/>
    <g class="cls-5">
      <path class="cls-7" d="M196.4,266.84c38.35-5.32,73.02,47.66,80.88,60.61,1.09,1.8,2.93,3.01,5.02,3.29,13.86,1.81,23.67,1.56,30.99,.03,0,0,0,0,.01,0,17.14-3.57,20.7-14.11,30.93-21.52,6.94-5.02,15.23-5.39,23.61-5.25t.01,0c9.69,.17,19.53,1.01,27.55-3.86,1.18-.72,2.21-1.48,3.13-2.29,7.54-6.64,7.37-16.19,17.27-23.52,5.09-3.77,11.64-4.91,18.2-4.67,9.98,.35,19.97,3.88,24.81,6.14,1.02,.47,2.16-.42,1.94-1.53l-4.95-25.42-66.29-30.78-173.73-14.66-19.4,63.42Z"/>
    </g>
    <g class="cls-6">
      <path class="cls-7" d="M323.34,316.6c-.1,7.18-5.12,10.96-10.03,12.93,17.14-3.57,20.7-14.11,30.93-21.52,6.94-5.02,15.23-5.39,23.61-5.25-13.91-2.81-32.45-8.51-46.53-19.95-25.13-20.43-55.3-20.45-55.42-20.45,41.14,10.45,57.65,40.11,57.44,54.24Z"/>
    </g>
    <g class="cls-6">
      <path class="cls-7" d="M294.08,231.31c-.75,6.93,48.17-7.41,103.73,52,3.52,3.77,2.92,9.19,.74,14.55,7.54-6.64,7.37-16.19,17.27-23.52,5.09-3.77,11.64-4.91,18.2-4.67-10.02-5.11-20.99-10.79-31.11-16.22-48.6-26.12-108.35-26.55-108.83-22.13Z"/>
    </g>
    <path class="cls-7" d="M299.7,334.47c-5.09,0-10.94-.4-17.72-1.28-2.84-.37-5.33-2-6.82-4.46-3.86-6.36-14.37-22.66-28.62-36.67-17.55-17.25-34.31-24.91-49.8-22.76l-3.85,.53,21.13-69.05,176.16,14.87,67.83,31.49,5.2,26.66c.28,1.44-.26,2.89-1.42,3.79-1.15,.9-2.69,1.07-4.01,.46-4.29-2-11.53-4.5-18.98-5.5-6.35-.85-15.23-.88-21.5,3.77-4.97,3.69-7.13,7.91-9.42,12.38-2.47,4.84-5.03,9.84-11.17,13.56-7.79,4.73-16.94,4.5-25.79,4.28-9.31-.23-18.1-.44-25.23,4.71-3.13,2.26-5.58,4.82-8.18,7.53-7.41,7.73-15.04,15.68-37.82,15.68Zm-97.88-70.48c7.59,0,15.44,2.02,23.41,6.04,8.14,4.1,16.48,10.32,24.79,18.49,14.65,14.4,25.43,31.12,29.38,37.64,.71,1.17,1.88,1.94,3.22,2.11,34.6,4.52,42.72-3.95,51.31-12.91,2.64-2.75,5.36-5.59,8.85-8.12,8.48-6.14,18.53-5.89,28.25-5.65,8.51,.21,16.55,.41,23.1-3.57,4.94-2.99,6.97-6.97,9.33-11.58,2.33-4.56,4.97-9.73,10.88-14.1,6.11-4.53,14.56-6.11,25.11-4.7,6.97,.93,13.79,3.09,18.48,5.06l-4.31-22.13-64.74-30.06-171.29-14.45-17.74,57.98c.65-.03,1.31-.05,1.97-.05Z"/>
    <path class="cls-4" d="M192.86,193.73c37.32,20.24,163.36-17.69,256.69,40.63,8.62,5.39,17.13,21.06,17.46,39.93,.05,2.97-3.43,4.63-5.71,2.72-12.96-10.87-47.87-37.53-89.9-48.35-53.41-13.75-168.46-13.11-174.53-25.38-2.5-5.05-4.01-9.56-4.01-9.56Z"/>
    <g class="cls-3">
      <path class="cls-2" d="M192.86,193s1.51,4.52,4.01,9.56c.15,.29,.35,.58,.63,.86,44.32,13.34,161.47-17.28,249.5,37.73,7.99,5,15.89,18.85,17.26,35.87,1.51-.33,2.79-1.65,2.75-3.46-.33-18.87-8.84-34.55-17.46-39.93-93.32-58.32-219.36-20.4-256.68-40.63Z"/>
    </g>
    <path class="cls-7" d="M463.52,280.32c-1.36,0-2.7-.48-3.8-1.4-12.92-10.83-47.44-37.17-88.92-47.85-24.88-6.4-63.69-9.7-97.94-12.61-19.47-1.65-37.85-3.21-51.68-5.17-7.46-1.06-13.1-2.16-17.22-3.36-5.29-1.54-8.16-3.25-9.29-5.54-2.54-5.14-4.08-9.68-4.14-9.87l-2.01-5.97,5.54,3c6.03,3.27,14.97,5.16,28.14,5.95,12.17,.73,26.98,.44,42.66,.14,27.59-.53,58.86-1.13,91.07,3,37.54,4.81,68.6,15.16,94.95,31.62,4.84,3.02,9.38,8.69,12.77,15.96,3.67,7.86,5.7,16.86,5.86,26.03,.04,2.36-1.26,4.46-3.39,5.47-.83,.4-1.71,.59-2.59,.59ZM197.34,198.37c.51,1.18,1.1,2.49,1.76,3.82,.07,.14,.83,1.41,6.24,2.98,3.9,1.14,9.3,2.19,16.53,3.21,13.69,1.94,32.01,3.49,51.4,5.14,34.44,2.92,73.47,6.24,98.75,12.74,42.47,10.93,77.7,37.8,90.87,48.85,.42,.36,.85,.24,1.07,.13,.22-.1,.58-.36,.57-.91-.15-8.48-2.01-16.78-5.39-24.01-2.95-6.32-6.93-11.37-10.91-13.86-58.06-36.28-130.44-34.88-183.3-33.87-28.94,.56-52.53,1.01-67.6-4.23Z"/>
    <path class="cls-2" d="M162.91,200.31l-2.9,12.63-5.32,23.09-.29,1.27-7.01,30.41-11.74,50.99s-8.31,5.02-18.39,7.28c-12.73,2.86-28.28,1.34-33.44-20.22-5.94-24.8,17.85-61.31,34.56-83.1,1.42-1.85,2.79-3.59,4.09-5.21,4.12-5.17,7.5-9.1,9.4-11.25,1.07-1.22,1.67-1.87,1.67-1.87l29.37-4.02Z"/>
    <g class="cls-11">
      <path class="cls-7" d="M83.83,305.76c9.25,38.63,51.83,12.94,51.83,12.94l-2.32-16.36s-38.72,23.37-50.34-7.97c-.27,3.99-.03,7.82,.83,11.4Z"/>
    </g>
    <path class="cls-7" d="M108.17,329.55c-4.04,0-7.73-.69-10.99-2.05-7.88-3.3-13.18-10.42-15.76-21.16-2.16-9.02-.79-20.15,4.08-33.08,3.82-10.13,9.79-21.44,17.76-33.6,13.5-20.61,28.32-36.84,28.46-37.01l.6-.66,33.82-4.63-28.3,122.92-.9,.54c-.23,.14-5.76,3.45-13.34,5.97-4.5,1.49-8.79,2.39-12.76,2.67-.9,.06-1.79,.1-2.66,.1Zm26.61-122.89c-2.87,3.21-15.65,17.8-27.41,35.77-7.76,11.85-13.56,22.82-17.24,32.6-4.5,11.97-5.81,22.11-3.89,30.15,2.18,9.11,6.5,15.08,12.84,17.74,2.85,1.19,5.94,1.67,9.07,1.67,10.84,0,22.13-5.75,25.34-7.51l26.2-113.83-24.92,3.41Z"/>
    <path class="cls-2" d="M198.12,311.53c-4.89,28.33-7.79,50.76-9.73,68.57-5.04,46.23-3.64,61.29-14.01,67.55-6.59,3.98-17.75,7.44-33.54,7.42-22.08,0-40.1-1.03-39.91-16.91,.15-12.61,21.89-18.29,21.89-18.29-3.38-22.58-3.79-54.86-3.58-77.15,.15-14.96,.57-25.43,.57-25.43l78.31-5.76Z"/>
    <g class="cls-11">
      <path class="cls-7" d="M198.12,311.53c-2.29,13.28-4.15,25.26-5.67,36.08-.1,.72-.2,1.44-.3,2.15-.1,.72-.2,1.42-.29,2.12-.06,.47-.13,.93-.19,1.39-.06,.44-.13,.88-.18,1.32-.14,1.01-.27,2.02-.4,3.02-.31,2.42-.61,4.77-.9,7.06-.13,1.04-.26,2.06-.38,3.07-.01,.1-.03,.22-.04,.32-.27,2.22-.52,4.36-.76,6.46-.08,.74-.17,1.47-.25,2.2-.1,.84-.19,1.67-.28,2.49-.03,.3-.06,.6-.1,.9-5.04,46.23-3.64,61.29-14.01,67.55-6.59,3.98-17.75,7.44-33.54,7.42-20.35,0-37.26-.87-39.63-13.45,7.3,3.45,18.8,3.79,31.69,3.79,15.79,.01,26.96-3.44,33.54-7.42,6.13-3.7,8.14-10.48,9.81-24.96,1.96-17.04-7.79-33.4-23.85-39.43-17-6.39-28.02-17.11-33.17-30.89,.15-14.96,.57-25.43,.57-25.43l68.63-5.05,9.68-.72Z"/>
    </g>
    <path class="cls-7" d="M140.9,457.56h-.06c-16.67,0-31.04-.59-38.05-7.69-2.94-2.97-4.4-6.92-4.34-11.74,.14-11.92,15.78-18.12,21.61-20.02-2.68-19.42-3.31-45.17-3.35-63.67-.04-20.74,.61-37.08,.62-37.25,.06-1.37,1.21-2.43,2.58-2.38,1.37,.06,2.43,1.21,2.38,2.58-.03,.65-2.57,65.05,2.98,102.1l.33,2.2-2.16,.56c-.05,.01-5.28,1.4-10.4,4.23-4.36,2.41-9.58,6.39-9.64,11.69-.04,3.49,.91,6.17,2.91,8.2,5.65,5.72,19.56,6.21,34.53,6.21h.06c17.84,0,27.83-4.43,32.2-7.07,3.36-2.03,5.3-5.24,6.7-11.1,1.5-6.25,2.35-15.47,3.52-28.22,1.85-20.07,4.63-50.41,12.35-95.11,.23-1.35,1.52-2.25,2.86-2.02,1.35,.23,2.25,1.52,2.02,2.86-7.68,44.5-10.46,74.72-12.3,94.72-1.19,12.96-2.05,22.32-3.64,28.92-1.73,7.19-4.41,11.43-8.96,14.18-4.81,2.91-15.73,7.78-34.77,7.78Z"/>
    <g class="cls-6">
      <path class="cls-7" d="M188.12,369.95c.12-2.3,.26-4.68,.44-7.14-.17,2.46-.33,4.84-.44,7.14Z"/>
    </g>
    <g class="cls-6">
      <path class="cls-7" d="M188.72,360.81c.1-1.34,.22-2.71,.34-4.1-.12,1.39-.24,2.76-.34,4.1Z"/>
    </g>
    <g class="cls-6">
      <path class="cls-7" d="M189.69,350.28c.13-1.28,.28-2.59,.43-3.91-.15,1.32-.29,2.63-.43,3.91Z"/>
    </g>
    <g class="cls-6">
      <path class="cls-7" d="M190.19,345.76c.17-1.5,.36-3.02,.56-4.57-.19,1.55-.38,3.07-.56,4.57Z"/>
    </g>
    <g class="cls-11">
      <path class="cls-7" d="M189.02,374.51c.24-2.09,.49-4.24,.76-6.46-.26,2.22-.52,4.36-.76,6.46Z"/>
    </g>
    <path class="cls-2" d="M268.31,312.25s0,.05,0,.08c-.04,.69-.09,1.37-.15,2.04-1.31,14.77-6.39,25.41-14.41,34.08-4.57,4.97-10.12,9.3-16.46,13.37-14,9-31.4,9.01-49.15,8.14-41.63-1.57-65.05-18.48-70.86-43.96-1.01-4.47-1.49-9.21-1.43-14.17,.04-3.66,.38-7.44,1.01-11.32,.43-2.67,.85-5.32,1.27-7.94,2.24-14.19,4.29-27.87,6.47-42.06,1.27-8.33,2.59-16.82,4.03-25.71,.1-.63,.2-1.24,.3-1.87,.72-4.45,1.45-8.9,2.26-13.2,.22-1.19,.45-2.36,.69-3.52,1.13-5.59,2.4-10.82,3.98-15.34l.18-.24,8.12-11.13c26.46-15.39,100.62-6.21,101.43,5.56,.52,7.66,1.89,15.19,3.61,22.65,.32,1.36,.65,2.72,.99,4.08,.08,.37,.18,.74,.27,1.1,.74,2.73,1.54,5.62,2.38,8.64,0,.03,.02,.07,.03,.1,3.03,10.95,6.54,23.52,9.5,36.16,2.76,11.77,5.05,23.59,6.05,34.2,.02,.17,.03,.33,.05,.49,.67,7.31,.71,14.04-.13,19.76Z"/>
    <g class="cls-11">
      <path class="cls-7" d="M116.79,323.62c4.87,26.8,28.42,44.71,71.34,46.32,17.74,.87,35.15,.86,49.15-8.14,6.34-4.07,11.89-8.4,16.46-13.37,8.39-9.08,13.57-20.32,14.57-36.19,.74-5.05,.8-10.86,.34-17.17-.09,1.02-.22,2.02-.36,2.98-1.04,15.87,.64,27.5-8.03,36.57-4.72,4.97-17.46,8.92-24.02,12.99-14.45,9-32.42,9.01-50.73,8.14-35.93-1.31-58.71-13.34-68.72-32.13Z"/>
    </g>
    <path class="cls-7" d="M135.17,190.37c1.15-2.07,2.37-4.08,3.6-6.09,.62-1,1.24-2,1.87-2.99,.63-.99,1.26-1.98,1.9-2.97l.17-.26,.43-.28c2.19-1.43,4.53-2.56,6.91-3.51,2.38-.95,4.82-1.7,7.28-2.33,4.91-1.25,9.89-2.03,14.88-2.53,4.99-.49,9.98-.69,14.96-.67,4.98,.02,9.96,.24,14.92,.62,4.96,.39,9.91,.93,14.84,1.67,4.93,.75,9.85,1.69,14.72,3.02,2.44,.67,4.87,1.44,7.28,2.43,1.21,.5,2.41,1.05,3.6,1.72,.6,.34,1.19,.71,1.78,1.13,.59,.43,1.18,.9,1.75,1.49,.14,.14,.28,.31,.42,.47,.14,.17,.27,.33,.4,.53,.26,.37,.51,.79,.71,1.27,.2,.47,.35,1.01,.41,1.58l.02,.21v.11s.03,.22,.03,.22l.03,.45,.07,.9,.08,.9,.08,.9,.1,.9c.26,2.39,.6,4.78,1,7.16,.8,4.76,1.84,9.51,3,14.24,.15,.58,.29,1.17,.44,1.75l.48,1.76,.97,3.54,1.97,7.1c2.62,9.48,5.22,18.99,7.55,28.59,1.16,4.8,2.26,9.62,3.26,14.47,1,4.85,1.89,9.73,2.62,14.65,.73,4.92,1.29,9.88,1.55,14.9,.14,2.5,.17,5.03,.11,7.56l-.08,1.9-.02,.48-.04,.48-.08,.95c-.08,1.27-.26,2.55-.42,3.83l.02-.2c-.2,3.17-.58,6.35-1.18,9.5-.6,3.15-1.43,6.27-2.51,9.31-1.09,3.04-2.46,5.99-4.06,8.81-.82,1.4-1.67,2.78-2.61,4.09-.46,.67-.95,1.31-1.43,1.96l-.18,.24-.19,.24-.38,.47c-.26,.31-.5,.63-.76,.94-.53,.61-1.04,1.23-1.59,1.82-.27,.3-.54,.6-.82,.89l-.84,.87c-.14,.14-.28,.29-.42,.43l-.43,.42-.86,.84-.88,.81-.44,.41c-.15,.13-.3,.26-.45,.4-2.39,2.12-4.89,4.09-7.48,5.91-.65,.45-1.29,.91-1.95,1.35l-.98,.66-.99,.65-.49,.32-.25,.16-.26,.16-1.04,.64c-.35,.21-.71,.41-1.06,.61-.18,.1-.35,.2-.53,.3l-.54,.28-.54,.28-.27,.14-.27,.13-1.1,.53c-.74,.33-1.48,.68-2.23,.97-.75,.32-1.51,.59-2.27,.87-.77,.26-1.53,.53-2.3,.76-.77,.25-1.55,.45-2.33,.67-.78,.19-1.56,.4-2.34,.56-.78,.18-1.57,.33-2.36,.48-.79,.14-1.57,.28-2.36,.4-.79,.13-1.58,.22-2.37,.33-.79,.09-1.58,.19-2.37,.25-1.58,.15-3.16,.26-4.74,.34-6.31,.31-12.58,.11-18.76-.18-1.55-.07-3.11-.13-4.68-.24-.78-.04-1.57-.11-2.35-.17l-1.17-.09-1.17-.11c-3.13-.3-6.26-.7-9.37-1.23-6.22-1.06-12.39-2.6-18.36-4.85-.37-.14-.75-.28-1.12-.43l-1.11-.45-.55-.23-.55-.24-1.1-.48c-1.45-.66-2.9-1.35-4.31-2.11-1.42-.74-2.8-1.56-4.17-2.41-.68-.44-1.36-.86-2.02-1.33-.33-.23-.67-.45-.99-.69l-.98-.71c-1.29-.97-2.55-1.98-3.76-3.06l-.45-.4-.44-.42c-.29-.28-.59-.55-.88-.84l-.86-.86c-.14-.14-.29-.29-.42-.44l-.42-.44c-.56-.58-1.09-1.2-1.62-1.81-.51-.63-1.04-1.25-1.53-1.9-.5-.64-.97-1.3-1.45-1.96-.45-.68-.92-1.34-1.34-2.04-.44-.68-.84-1.39-1.25-2.1-.38-.72-.78-1.43-1.13-2.16-.37-.72-.7-1.47-1.04-2.21-.31-.75-.64-1.49-.92-2.25-.3-.75-.56-1.52-.82-2.29-.13-.38-.24-.77-.36-1.16-.06-.19-.12-.39-.18-.58l-.16-.58c-.45-1.56-.8-3.14-1.1-4.72l-.22-1.19-.18-1.19c-.07-.4-.11-.8-.16-1.2-.05-.4-.11-.8-.14-1.2l-.12-1.2c-.04-.4-.06-.8-.09-1.2-.06-.8-.09-1.6-.12-2.4-.04-1.6-.05-3.21,.02-4.8,.02-.8,.08-1.6,.12-2.39,.03-.4,.06-.8,.09-1.19,.03-.4,.06-.8,.11-1.19l.13-1.19c.04-.4,.1-.79,.15-1.19,.05-.39,.1-.79,.16-1.18l.18-1.18c.06-.4,.12-.78,.19-1.16l.19-1.15,.39-2.3c.26-1.53,.54-3.06,.81-4.59l.86-4.58,.9-4.57,.92-4.56,1.84-9.1c.62-3.03,1.25-6.05,1.92-9.06l.5-2.26,.52-2.25c.34-1.5,.69-3,1.05-4.5,.35-1.5,.71-2.99,1.09-4.49,.37-1.5,.76-2.99,1.16-4.48,.4-1.49,.81-2.98,1.25-4.47,.43-1.49,.88-2.98,1.4-4.45h0c.15-.45,.63-.67,1.07-.52,.34,.12,.56,.44,.56,.78,.01,1.57-.04,3.13-.12,4.69-.09,1.56-.22,3.11-.36,4.66-.15,1.55-.34,3.09-.54,4.63-.21,1.54-.44,3.08-.69,4.61-.26,1.53-.53,3.06-.81,4.58-.29,1.52-.58,3.05-.9,4.56-.63,3.03-1.31,6.05-2,9.06-.69,3.01-1.39,6.01-2.05,9.02-.17,.75-.33,1.5-.49,2.26l-.47,2.26-.9,4.52-.85,4.53c-.27,1.51-.55,3.02-.8,4.54l-.38,2.27-.19,1.14c-.06,.38-.13,.76-.18,1.13l-.17,1.11c-.06,.37-.1,.74-.15,1.11-.05,.37-.1,.74-.14,1.11l-.12,1.12c-.04,.37-.07,.74-.1,1.12-.03,.37-.06,.74-.09,1.12-.04,.75-.1,1.49-.11,2.24-.07,1.49-.05,2.98-.02,4.47,.03,.74,.05,1.48,.12,2.22,.03,.37,.04,.74,.08,1.11l.11,1.11c.03,.37,.09,.73,.13,1.1,.05,.37,.09,.73,.15,1.1l.17,1.1,.2,1.09c.28,1.45,.6,2.89,1.01,4.3l.15,.53c.05,.18,.11,.35,.16,.53,.11,.35,.22,.7,.33,1.05,.24,.69,.47,1.39,.74,2.07,.25,.69,.55,1.36,.83,2.04,.31,.67,.6,1.34,.93,1.99,.32,.66,.68,1.3,1.02,1.95,.37,.63,.73,1.27,1.12,1.89,.38,.63,.8,1.23,1.2,1.84,.43,.59,.85,1.19,1.3,1.77,.44,.59,.92,1.14,1.38,1.71,.49,.55,.96,1.11,1.47,1.64l.38,.4c.12,.14,.25,.27,.38,.4l.78,.78c.26,.26,.53,.5,.8,.76l.4,.38,.41,.37c1.09,.99,2.25,1.9,3.42,2.79l.89,.65c.3,.22,.61,.42,.91,.63,.6,.43,1.23,.82,1.85,1.22,1.26,.78,2.54,1.54,3.86,2.23,1.31,.71,2.66,1.34,4.01,1.96l1.03,.45,.51,.22,.52,.21,1.04,.42c.35,.14,.7,.27,1.05,.4,5.6,2.12,11.48,3.59,17.44,4.6,2.98,.51,5.99,.9,9.01,1.19l1.13,.11,1.14,.09c.76,.06,1.51,.12,2.27,.16,1.52,.1,3.04,.16,4.58,.23l2.31,.1,2.3,.09c1.53,.05,3.06,.09,4.58,.12,3.05,.04,6.09,.02,9.11-.13,6.03-.3,12.01-1.09,17.65-2.82,.71-.21,1.4-.46,2.1-.69,.69-.26,1.38-.5,2.06-.79,.68-.27,1.35-.58,2.02-.88l.99-.48,.25-.12,.24-.13,.48-.26,.48-.26c.16-.09,.32-.18,.48-.27,.32-.18,.64-.36,.95-.55l.93-.58,.23-.14,.24-.16,.48-.31,.95-.62,.94-.64c.63-.42,1.24-.86,1.86-1.29,4.91-3.49,9.48-7.41,13.28-11.94,.24-.28,.47-.57,.7-.86l.35-.43,.17-.22,.17-.22c.44-.59,.89-1.17,1.31-1.78,.86-1.2,1.63-2.45,2.38-3.72,1.46-2.55,2.7-5.23,3.69-8.01,1.98-5.56,3.03-11.47,3.41-17.46v-.04s.02-.16,.02-.16c.14-1.16,.31-2.32,.38-3.5l.07-.88,.03-.44,.02-.44,.07-1.78c.05-2.38,.03-4.77-.11-7.18-.25-4.8-.78-9.62-1.5-14.42-.71-4.8-1.59-9.6-2.57-14.37-.98-4.78-2.07-9.54-3.22-14.3-2.31-9.51-4.89-18.97-7.51-28.43l-1.97-7.11-.98-3.57-.49-1.8c-.16-.6-.3-1.22-.46-1.82-1.18-4.81-2.25-9.68-3.08-14.61-.41-2.46-.76-4.95-1.04-7.44l-.1-.94-.09-.94-.09-.94-.07-.94-.04-.47-.02-.24v-.12s-.01-.01-.01-.02c0-.04-.01-.1-.06-.19-.04-.09-.09-.2-.19-.34-.04-.06-.11-.13-.15-.2-.07-.07-.12-.14-.2-.22-.28-.3-.65-.6-1.05-.89-.41-.29-.86-.57-1.33-.84-.95-.53-1.98-1.02-3.05-1.45-2.14-.88-4.4-1.6-6.7-2.23-4.61-1.26-9.36-2.17-14.15-2.9-4.79-.72-9.62-1.22-14.46-1.53-2.42-.16-4.85-.26-7.27-.33-2.42-.06-4.85-.08-7.27-.06-4.84,.05-9.68,.27-14.48,.7-4.8,.43-9.57,1.07-14.23,2.07-2.33,.51-4.62,1.1-6.87,1.81-1.12,.36-2.23,.75-3.31,1.17-1.08,.43-2.14,.9-3.18,1.42l.6-.54c-.74,.91-1.49,1.82-2.25,2.72-.75,.9-1.51,1.8-2.28,2.69-1.54,1.78-3.09,3.56-4.7,5.28-.31,.34-.84,.35-1.18,.04-.28-.27-.34-.69-.16-1.01Z"/>
    <path class="cls-7" d="M157.65,397.9c-4.5,0-8.94-.33-13.28-.99-8.93-1.36-17.44-4.13-25.29-8.23-.9-.47-1.24-1.57-.78-2.47,.47-.9,1.57-1.24,2.47-.78,16.95,8.84,33.9,9.46,45.14,8.42,12.25-1.13,20.57-4.42,20.65-4.45,.94-.38,2,.08,2.38,1.02,.38,.94-.08,2-1.02,2.38-.35,.14-8.81,3.49-21.55,4.69-2.93,.27-5.84,.41-8.74,.41Z"/>
    <path class="cls-2" d="M200.13,343.89c-.15-2.11,2.37,52.08,7.29,86.31,3.53,24.57,26.03,27.12,62.01,24.57,13.24-.94,23.39-4.89,22.37-15.36-1.37-14.06-21.96-19.39-21.96-19.39,0,0-.61-42.66-4.65-102.71"/>
    <g class="cls-11">
      <path class="cls-7" d="M200.12,343.85c0,.93,2.52,53.07,7.3,86.35,3.53,24.57,26.03,27.12,62.01,24.57,13.25-.93,23.39-4.88,22.37-15.35-.03-.24-.05-.48-.09-.72-4.08,2.67-10.18,3.99-17.14,4.48-35.98,2.55-58.49,0-62.02-24.57-3.66-25.44-9.6-59.69-12.36-74.74l-.07,.03s0-.03,0-.05Z"/>
    </g>
    <path class="cls-7" d="M199.3,343.95s-.01-.06,0,0c3.33-.19,.93-.08,1.68-.09l.03,.1c.02,.07,.03,.14,.05,.21l.1,.43c.07,.29,.13,.57,.19,.86,.12,.57,.24,1.15,.35,1.72,.22,1.15,.42,2.3,.6,3.45,.37,2.3,.67,4.61,.92,6.92,.13,1.15,.24,2.31,.34,3.47l.16,1.73,.15,1.73c.2,2.31,.38,4.62,.55,6.94,.33,4.63,.59,9.26,.89,13.89,.16,2.31,.32,4.63,.5,6.94,.19,2.31,.39,4.62,.6,6.93,.85,9.23,1.8,18.45,3.03,27.61l.24,1.72,.12,.86,.06,.43,.06,.41c.16,1.08,.38,2.14,.64,3.19,.52,2.09,1.26,4.09,2.24,5.94,.98,1.84,2.22,3.52,3.7,4.97,1.48,1.45,3.19,2.68,5.05,3.69,1.87,1.02,3.88,1.82,5.97,2.46,2.09,.64,4.26,1.12,6.47,1.49,2.21,.36,4.45,.62,6.71,.79,2.26,.18,4.53,.27,6.82,.32,4.57,.08,9.16-.04,13.77-.27,2.3-.11,4.61-.25,6.91-.41,1.17-.08,2.27-.16,3.39-.27,1.11-.12,2.22-.26,3.32-.43,1.09-.18,2.17-.39,3.24-.64,1.06-.25,2.09-.55,3.09-.91,1.99-.7,3.86-1.63,5.27-2.87,1.42-1.23,2.35-2.74,2.7-4.5,.18-.88,.22-1.82,.15-2.79-.06-.97-.25-1.92-.54-2.84-.59-1.85-1.63-3.58-2.97-5.13-1.34-1.55-2.98-2.92-4.76-4.13-1.78-1.21-3.72-2.26-5.72-3.17-1-.45-2.03-.87-3.06-1.26-.52-.19-1.04-.37-1.56-.55-.26-.09-.52-.17-.78-.25l-.38-.11-.35-.1-1.83-.51-.03-1.85c-.07-4.26-.18-8.54-.3-12.82l-.19-6.41-.21-6.41c-.3-8.55-.65-17.11-1.04-25.66l-.31-6.41c-.1-2.14-.21-4.27-.32-6.41-.23-4.27-.41-8.55-.75-12.82l-.25-3.2c-.08-1.07-.17-2.13-.24-3.2-.15-2.13-.24-4.27-.28-6.41-.04-2.14-.04-4.29,.09-6.44,.07-1.08,.15-2.15,.28-3.24,.13-1.08,.28-2.16,.53-3.25h0c.1-.47,.57-.76,1.03-.65,.29,.07,.52,.28,.62,.54,.38,1.05,.68,2.1,.94,3.16,.27,1.06,.49,2.12,.7,3.18,.4,2.12,.7,4.25,.91,6.39,.22,2.13,.39,4.27,.5,6.41,.12,2.14,.17,4.29,.25,6.43,.04,1.07,.08,2.14,.13,3.21,.05,1.07,.11,2.14,.17,3.21l.34,6.42c.11,2.14,.22,4.28,.32,6.42l.31,6.43c.39,8.57,.74,17.14,1.04,25.71l.21,6.43,.19,6.43c.12,4.29,.23,8.57,.3,12.88l-1.86-2.36,.26,.07,.23,.07,.45,.13c.3,.09,.59,.18,.88,.28,.58,.19,1.16,.39,1.73,.61,1.14,.42,2.27,.89,3.39,1.39,2.22,1.01,4.39,2.18,6.46,3.58,2.06,1.4,4.03,3.03,5.73,4.99,.85,.98,1.63,2.04,2.3,3.2,.68,1.15,1.23,2.38,1.65,3.67,.41,1.29,.68,2.63,.76,3.99,.1,1.34,.05,2.75-.24,4.15-.28,1.4-.81,2.78-1.56,4.02-.75,1.24-1.7,2.33-2.74,3.23-1.05,.91-2.18,1.65-3.34,2.27-1.16,.62-2.34,1.12-3.54,1.54-1.19,.42-2.39,.76-3.59,1.05-1.2,.28-2.4,.52-3.6,.71-1.2,.19-2.4,.34-3.6,.47-1.19,.12-2.41,.21-3.56,.29-2.33,.16-4.67,.3-7.01,.42-4.68,.23-9.38,.36-14.11,.27-2.36-.05-4.73-.14-7.11-.33-2.37-.18-4.76-.45-7.13-.85-2.38-.4-4.76-.92-7.11-1.64-2.35-.72-4.67-1.64-6.89-2.85-2.22-1.2-4.32-2.71-6.16-4.52-1.84-1.81-3.39-3.91-4.59-6.17-1.2-2.26-2.08-4.65-2.67-7.07-.3-1.21-.55-2.43-.73-3.64l-.07-.45-.06-.43-.12-.87-.24-1.74c-1.25-9.27-2.21-18.54-3.06-27.82l-1.25-13.92c-.42-4.64-.85-9.28-1.15-13.92-.16-2.32-.28-4.65-.38-6.97l-.07-1.74-.06-1.75c-.04-1.16-.07-2.33-.08-3.49-.02-2.33,.02-4.66,.13-7,.06-1.17,.13-2.34,.24-3.51,.05-.59,.11-1.17,.18-1.76,.04-.29,.07-.59,.11-.88l.06-.44c.01-.07,.02-.15,.03-.22l.02-.12c.75-.04-1.66,0,1.68-.18,0,.1,0,.08,0,.11,0,.23-.19,.41-.42,.41-.03,0-.06,0-.09-.01l-1.13-.28Z"/>
    <path class="cls-7" d="M228.84,394.43c-1.1,0-2.18-.02-3.26-.06-8.58-.34-16.45-2.05-23.39-5.08-.93-.41-1.35-1.48-.94-2.41,.41-.93,1.48-1.35,2.41-.94,14.8,6.47,31.5,5.25,42.9,3.09,12.42-2.36,21.37-6.29,21.46-6.33,.92-.41,2.01,0,2.42,.93,.41,.92,0,2.01-.93,2.42-.38,.17-9.43,4.15-22.26,6.58-6.36,1.21-12.54,1.82-18.41,1.82Z"/>
    <path class="cls-7" d="M122.05,417.51c.08-.02,.13-.03,.19-.05l.16-.04,.31-.07c.21-.05,.41-.08,.61-.12,.4-.08,.8-.14,1.2-.21,.8-.12,1.59-.22,2.38-.31,1.58-.16,3.16-.25,4.73-.27,3.15-.04,6.28,.18,9.35,.65,.77,.11,1.53,.26,2.3,.4,.38,.07,.76,.16,1.14,.24l.57,.12,.56,.14c1.51,.35,2.99,.79,4.45,1.25,2.92,.97,5.75,2.16,8.45,3.56-2.87-1.02-5.8-1.81-8.76-2.36-1.48-.26-2.97-.49-4.46-.62l-.56-.06-.56-.04c-.37-.03-.74-.06-1.12-.08-.75-.03-1.49-.07-2.23-.08-2.97-.05-5.94,.15-8.84,.59-1.45,.22-2.89,.5-4.3,.84-.7,.17-1.4,.36-2.09,.57-.34,.1-.68,.21-1.01,.32-.16,.06-.33,.11-.49,.17-.08,.03-.16,.06-.23,.09l-.11,.04s-.08,.03-.08,.04c-1.13,.86-2.74,.64-3.59-.49-.86-1.13-.64-2.74,.49-3.59,.26-.2,.54-.34,.84-.42l.71-.2Z"/>
    <path class="cls-7" d="M269.09,422.39s-.06-.02-.09-.04l-.12-.04-.25-.09c-.17-.06-.35-.12-.52-.17-.35-.11-.71-.22-1.07-.33-.73-.21-1.46-.4-2.21-.57-1.49-.34-3-.63-4.53-.85-3.06-.44-6.17-.65-9.3-.61-3.13,.03-6.26,.33-9.37,.86-3.11,.55-6.19,1.33-9.21,2.36,2.86-1.41,5.84-2.6,8.92-3.57,3.08-.94,6.25-1.67,9.47-2.12,3.22-.47,6.49-.67,9.78-.63,1.64,.02,3.29,.11,4.94,.27,.83,.09,1.65,.18,2.48,.31,.42,.06,.83,.13,1.25,.21,.21,.04,.42,.08,.64,.12l.32,.07,.17,.04c.06,.01,.11,.03,.19,.05l.47,.13c1.35,.37,2.14,1.75,1.78,3.1-.37,1.35-1.75,2.14-3.1,1.78-.23-.06-.45-.16-.64-.27Z"/>
    <g class="cls-1">
      <ellipse class="cls-2" cx="140.41" cy="162.43" rx="6.94" ry="8.08" transform="translate(-49.45 62.18) rotate(-21.32)"/>
    </g>
    <circle class="cls-2" cx="127.82" cy="296.85" r="10.41"/>
    <g class="cls-6">
      <path class="cls-7" d="M117.42,296.85c0,5.75,4.66,10.41,10.4,10.41s10.41-4.66,10.41-10.41c0-1.59-.36-3.1-1-4.45-1.67,3.51-5.26,5.95-9.41,5.95s-7.74-2.44-9.4-5.95c-.65,1.35-1,2.86-1,4.45Z"/>
    </g>
    <path class="cls-7" d="M127.82,309.73c-7.11,0-12.89-5.78-12.89-12.89s5.78-12.89,12.89-12.89,12.89,5.78,12.89,12.89-5.78,12.89-12.89,12.89Zm0-20.81c-4.37,0-7.93,3.56-7.93,7.93s3.56,7.93,7.93,7.93,7.93-3.56,7.93-7.93-3.56-7.93-7.93-7.93Z"/>
    <g class="cls-11">
      <path class="cls-7" d="M268.31,312.25s0,.05,0,.08c-8.45,3.13-25.13,6.41-56.17,3.78l-.33,5.45c-.38,6.5-6.03,11.51-12.52,11.12l-54.92-3.27c-6.5-.39-11.52-6.02-11.13-12.53l.36-6.07,1.38-23.15c.38-6.51,6.02-11.52,12.53-11.13l54.91,3.27c.81,.05,1.59,.17,2.35,.38,5.32,1.42,9.11,6.45,8.77,12.15l-.35,5.95h0s36.25,1.86,55.2-6.28c.02,.17,.03,.33,.05,.49,.67,7.31,.71,14.04-.13,19.76Z"/>
    </g>
    <path class="cls-2" d="M138.67,322.66l54.92,3.27c6.5,.39,12.14-4.61,12.53-11.12l1.74-29.23c.34-5.7-3.46-10.73-8.77-12.15-.75-.21-1.54-.33-2.35-.38l-54.91-3.27c-6.51-.39-12.15,4.61-12.53,11.12l-1.38,23.15-.36,6.08c-.39,6.51,4.62,12.14,11.12,12.53Z"/>
    <g class="cls-11">
      <path class="cls-7" d="M138.67,322.66l54.92,3.27c6.5,.39,12.14-4.61,12.53-11.12l1.74-29.23c.34-5.7-3.46-10.73-8.77-12.15-3.24,1.89-5.3,3.09-5.3,3.09-4.07,23.3-11.45,34.6-40.61,33.34-12.59-.55-20.41-2.94-25.26-5.81l-.36,6.08c-.39,6.51,4.62,12.14,11.12,12.53Z"/>
    </g>
    <path class="cls-7" d="M194.3,328.43c-.29,0-.57,0-.86-.03h0l-54.92-3.27c-7.89-.47-13.92-7.27-13.45-15.15l1.74-29.23c.23-3.81,1.93-7.31,4.8-9.85,2.87-2.55,6.55-3.82,10.35-3.6l54.92,3.27c3.81,.23,7.31,1.93,9.85,4.8,2.55,2.87,3.82,6.55,3.6,10.35l-1.74,29.23c-.45,7.6-6.78,13.48-14.29,13.48Zm-.57-4.98c2.48,.15,4.89-.69,6.77-2.36,1.88-1.67,2.99-3.95,3.14-6.44l1.74-29.23c.15-2.48-.69-4.89-2.36-6.77-1.67-1.88-3.95-2.99-6.44-3.14l-54.92-3.27c-2.48-.15-4.89,.69-6.77,2.36-1.88,1.67-2.99,3.95-3.14,6.44l-1.74,29.23c-.31,5.16,3.64,9.6,8.79,9.91l54.92,3.27h0Z"/>
    <path class="cls-2" d="M136.48,322.32c.7,.19,1.43,.31,2.19,.35l54.92,3.27c4.76,.28,9.06-2.32,11.17-6.31,.77-1.45,1.25-3.08,1.35-4.81l.78-12.98,.26-4.28,.71-11.96c.39-6.51-4.62-12.14-11.12-12.53l-11.87-.7c5.41,1.36,9.29,6.43,8.95,12.18l-.93,15.79-.8,13.45c-.39,6.5-6.03,11.51-12.53,11.12l-43.07-2.57Z"/>
    <g class="cls-11">
      <path class="cls-7" d="M136.48,322.32c.7,.19,1.43,.31,2.19,.35l54.92,3.27c6.5,.39,12.14-4.61,12.52-11.12l1.03-17.27c-1.56,2.97-4.27,6.57-8.26,6.72-2.19,.09-4.24-1.6-6-3.94l-.8,13.45c-.39,6.5-6.03,11.51-12.53,11.12l-43.07-2.57Z"/>
    </g>
    <path class="cls-7" d="M194.31,328.43c-.29,0-.58,0-.87-.03l-54.92-3.27c-.89-.05-1.8-.19-2.68-.42l.78-4.87,43.07,2.57c2.48,.15,4.88-.69,6.76-2.35,1.88-1.67,2.99-3.95,3.14-6.44l1.74-29.23c.27-4.49-2.71-8.54-7.07-9.64l.75-4.88,11.86,.7c7.89,.47,13.92,7.27,13.45,15.16l-1.74,29.23c-.22,3.81-1.93,7.31-4.8,9.86-2.65,2.35-5.99,3.62-9.48,3.62Zm-4.01-5.18l3.44,.2c2.48,.15,4.88-.69,6.76-2.35,1.88-1.67,2.99-3.95,3.14-6.44h0s1.74-29.23,1.74-29.23c.31-5.15-3.64-9.6-8.8-9.91l-3.06-.18c1.93,2.62,2.97,5.9,2.77,9.34l-1.74,29.23c-.21,3.56-1.71,6.85-4.25,9.34Z"/>
    <path class="cls-10" d="M171.28,298.1c-.06,1.08,.99,9.89,.99,9.89,0,0,2.76,.15,6.16,.33,4.24,.23,7.92-3.98,8.21-9.4,.29-5.42-2.91-9.99-7.15-10.22-2.86-.15-6.16-.33-6.16-.33,0,0-1.95,7.97-2.05,9.73Z"/>
    <g class="cls-6">
      <path class="cls-7" d="M171.28,298.1c-.06,1.08,.99,9.89,.99,9.89,0,0,2.76,.15,6.16,.33,4.24,.23,7.92-3.98,8.21-9.4,.29-5.42-2.91-9.99-7.15-10.22-2.86-.15-6.16-.33-6.16-.33,0,0-1.95,7.97-2.05,9.73Z"/>
    </g>
    <path class="cls-7" d="M178.76,309.79c-.14,0-.28,0-.41-.01l-7.39-.4-.15-1.22c-.25-2.1-1.06-9.02-1-10.14,.1-1.85,1.88-9.17,2.09-10l.29-1.18,7.37,.4c2.51,.13,4.78,1.48,6.4,3.79,1.54,2.2,2.3,5.03,2.14,7.98s-1.22,5.68-2.98,7.7c-1.75,2-3.99,3.09-6.35,3.09Zm-5.19-3.2l4.93,.26c1.59,.08,3.16-.65,4.4-2.08,1.34-1.53,2.14-3.64,2.26-5.93,.12-2.29-.45-4.47-1.61-6.14-1.09-1.55-2.56-2.46-4.15-2.54l-4.94-.27c-.73,3.05-1.67,7.23-1.72,8.28-.02,.59,.39,4.54,.84,8.42Zm-2.3-8.49h0Z"/>
    <ellipse class="cls-10" cx="172.8" cy="298.18" rx="9.82" ry="7.69" transform="translate(-134.23 454.73) rotate(-86.92)"/>
    <g class="cls-6">
      <path class="cls-7" d="M172.27,307.99c4.24,.23,7.91-3.98,8.2-9.39,.06-1.24-.05-2.45-.32-3.56-1.02,4.3-4.25,7.36-7.88,7.17-3.27-.18-5.92-2.93-6.83-6.67-.17,.71-.28,1.46-.32,2.22-.29,5.42,2.91,9.99,7.15,10.22Z"/>
    </g>
    <g class="cls-1">
      <path class="cls-2" d="M165.24,300.32c.72-4.83,4.15-8.41,8.08-8.2,3.55,.19,6.38,3.43,7.03,7.67,.06-.39,.1-.79,.12-1.2,.29-5.42-2.91-9.99-7.15-10.22-4.24-.23-7.92,3.98-8.2,9.39-.05,.88,0,1.74,.12,2.56Z"/>
    </g>
    <path class="cls-7" d="M172.6,309.46c-.14,0-.28,0-.41-.01-5.04-.27-8.87-5.55-8.54-11.76,.16-2.95,1.22-5.68,2.98-7.7,1.85-2.12,4.26-3.21,6.77-3.08,2.51,.13,4.78,1.48,6.4,3.79,1.54,2.2,2.3,5.03,2.14,7.98-.16,2.95-1.22,5.68-2.98,7.7-1.75,2-3.99,3.09-6.35,3.09Zm.39-19.64c-1.51,0-2.97,.73-4.15,2.09-1.34,1.53-2.14,3.64-2.26,5.93h0c-.25,4.6,2.34,8.5,5.77,8.68,1.59,.08,3.16-.65,4.4-2.08,1.34-1.53,2.14-3.64,2.26-5.93,.12-2.29-.45-4.47-1.61-6.14-1.09-1.55-2.56-2.46-4.15-2.54-.08,0-.17,0-.25,0Zm-7.88,7.94h0Z"/>
    <path class="cls-7" d="M155.76,325.33s-.05,0-.07,0c-1.03-.04-1.83-.9-1.79-1.92l.51-14.19c.12-3.46-1.08-6.78-3.39-9.36l-.72-.8c-3.03-3.39-4.61-7.93-4.31-12.47l1.07-16.48c.07-1.02,.95-1.8,1.98-1.74,1.02,.07,1.8,.95,1.74,1.98l-1.07,16.48c-.23,3.55,1,7.1,3.37,9.75l.72,.8c2.95,3.3,4.49,7.55,4.34,11.98l-.51,14.19c-.04,1-.86,1.79-1.86,1.79Z"/>
    <path class="cls-2" d="M275.34,293.74c-.52,5.07-4.98,7.62-4.98,7.62,0,0-11.46,12.43-63.91,8,0,0-8.65-9.53,1.06-17.84,0,0,43.05,2.22,59.84-8.71,3.87-2.52,8.59,5.08,7.99,10.94Z"/>
    <g class="cls-11">
      <path class="cls-7" d="M275.34,293.75c-.52,5.07-4.99,7.62-4.99,7.62,0,0-11.46,12.44-63.91,8,0,0-7.01-7.73-1.31-15.34,0,.05,0,.09,.01,.14,.39,4.55,4.15,8.08,8.71,8.39,48.02,3.22,58.71-8.39,58.71-8.39,0,0,1.44-.82,2.78-2.47,.07,.69,.07,1.39,0,2.06Z"/>
    </g>
    <path class="cls-7" d="M227.69,312.81c-6.6,0-13.76-.32-21.46-.98l-.97-.08-.66-.72c-.19-.21-4.56-5.11-4.16-11.38,.24-3.75,2.07-7.11,5.45-10.01l.75-.64,.99,.05c.42,.02,42.44,2.05,58.36-8.32,1.85-1.2,4.06-1.19,6.07,.03,3.62,2.21,6.25,8.27,5.75,13.24-.56,5.48-4.72,8.56-5.91,9.33-1.01,.94-4.61,3.77-13.18,6.09-8.32,2.26-18.71,3.39-31.03,3.39Zm-19.96-5.83c26.08,2.11,41.4-.1,49.7-2.34,8.36-2.27,11.09-4.92,11.11-4.95l.27-.3,.31-.17c.18-.11,3.39-2.12,3.75-5.72l2.47,.25-2.47-.25c.34-3.35-1.58-7.39-3.4-8.5-.49-.3-.63-.2-.78-.11-7.32,4.77-19.91,7.75-37.41,8.86-10.71,.68-19.85,.42-22.87,.3-1.87,1.81-2.88,3.78-3.02,5.88-.21,3.06,1.43,5.8,2.33,7.06Z"/>
    <path class="cls-2" d="M107.25,270.84c3.85-4.17,10.72-12.27,22.52,1.38,9.4,10.88,6.93,37.66-2.33,44.22-4.96,3.52-10.2-2.51-11.03,4.86,0,0-10.86-7.31-13.38-17.7-4.21-17.37,1.59-29.92,4.21-32.76Z"/>
    <g class="cls-11">
      <path class="cls-7" d="M127.44,316.44c-4.96,3.52-10.2-2.52-11.03,4.86,0,0-10.85-7.3-13.38-17.69-1.79-7.37-1.77-13.88-.95-19.15,.23,1.59,.74,3.2,.95,4.91,.15,1.24,.35,2.41,.57,3.52,1.63,8.01,9.53,13.13,17.55,11.56,2.22-.43,4.47-.95,6.29-2.24,3.95-2.81,6.67-9.3,7.75-16.67,1.85,11.97-1.31,26.33-7.75,30.9Z"/>
    </g>
    <path class="cls-7" d="M116.41,323.78c-.49,0-.97-.14-1.38-.42-.48-.32-11.69-7.97-14.4-19.17-2.39-9.88-1.58-17.93-.47-22.95,1.37-6.18,3.69-10.37,5.26-12.08,0,0,0,0,0,0l.27-.29c2.34-2.55,6.26-6.81,11.95-6.72,4.57,.07,9.15,2.83,14.01,8.45,6.21,7.18,7.26,19.32,6.17,28.29-.51,4.21-1.53,8.17-2.93,11.44-1.59,3.7-3.61,6.44-6,8.13-2.86,2.03-5.83,1.72-7.79,1.52-.59-.06-1.48-.15-1.79-.07-.07,.11-.29,.53-.42,1.67-.1,.86-.64,1.61-1.42,1.97-.33,.15-.69,.23-1.04,.23Zm-7.34-51.26c-1.01,1.09-2.92,4.6-4.07,9.78-1,4.51-1.73,11.76,.44,20.71,1.52,6.28,6.56,11.44,9.72,14.15,.43-.65,1.01-1.24,1.8-1.65,1.52-.79,3.17-.62,4.63-.47,1.65,.17,3.07,.32,4.41-.63,3.32-2.35,5.96-8.53,6.88-16.13,1.21-9.94-.76-19.54-5-24.45-3.82-4.42-7.3-6.69-10.33-6.73-3.47-.06-6.1,2.81-8.22,5.12l-.27,.3h0Z"/>
    <g class="cls-11">
      <path class="cls-7" d="M230.45,221.2l7.6,10.3c-12.29,6.8-26.23,11.08-41.17,12.12-14.96,1.04-29.36-1.28-42.49-6.32-9.21-3.53-17.78-8.39-25.48-14.38-2.22-1.73-4.38-3.56-6.45-5.47,4.12-5.17,7.5-9.1,9.4-11.25,1.13-5.59,2.4-10.82,3.98-15.34l.18-.24,8.12-11.13c26.46-15.39,100.62-6.21,101.43,5.56,.52,7.66,1.89,15.19,3.61,22.65,.32,1.36,.65,2.72,.99,4.08-10.45,6.77-19.71,9.42-19.71,9.42Z"/>
    </g>
    <g>
      <path class="cls-2" d="M93.55,158.83h0c1.12,0,2.03-.9,2.03-2.02l.09-58.41c0-1.12-.9-2.03-2.02-2.03h0c-11.75-.02-21.29,9.49-21.31,21.24l-.03,19.92c-.02,11.75,9.49,21.29,21.24,21.31Z"/>
      <path class="cls-7" d="M93.55,159.27h0v-.45s0,.45,0,.45c-5.8,0-11.25-2.28-15.35-6.39-4.1-4.11-6.35-9.57-6.34-15.37l.03-19.92c0-5.8,2.28-11.25,6.39-15.35,4.11-4.1,9.57-6.35,15.37-6.34,.66,0,1.28,.26,1.75,.73,.47,.47,.72,1.09,.72,1.75l-.09,58.41c0,.66-.26,1.28-.73,1.75-.47,.47-1.09,.72-1.75,.72Zm.06-62.46c-5.55,0-10.77,2.16-14.7,6.08-3.94,3.93-6.12,9.15-6.12,14.72l-.03,19.92c0,5.56,2.15,10.8,6.08,14.74,3.93,3.94,9.15,6.12,14.72,6.12h0c.42,0,.82-.16,1.12-.46,.3-.3,.46-.7,.47-1.12l.09-58.41c0-.42-.16-.82-.46-1.12-.3-.3-.7-.46-1.12-.47-.01,0-.02,0-.03,0Z"/>
    </g>
    <g class="cls-6">
      <path class="cls-7" d="M72.33,128.18l-.02,9.34c-.02,11.74,9.49,21.29,21.24,21.31,1.12,0,2.03-.91,2.03-2.03l.03-15.53c-.32,.71-1.02,1.2-1.85,1.2h-1.39c-9.28-.02-17.18-5.98-20.05-14.3Z"/>
    </g>
    <path class="cls-7" d="M93.55,161.3h0c-6.34-.01-12.31-2.49-16.78-6.98-4.48-4.49-6.94-10.46-6.93-16.81l.03-19.92c.01-6.34,2.49-12.31,6.98-16.78,4.48-4.47,10.44-6.93,16.77-6.93,.01,0,.03,0,.04,0,1.2,0,2.33,.47,3.18,1.33,.85,.85,1.32,1.99,1.31,3.19l-.09,58.41c0,1.2-.47,2.33-1.33,3.18-.85,.85-1.98,1.31-3.18,1.31Zm0-4.96h0Zm-.36-57.5c-10.16,.22-18.36,8.55-18.37,18.76l-.03,19.92c0,5.02,1.94,9.74,5.48,13.3,3.44,3.45,7.98,5.4,12.83,5.52l.09-57.49Z"/>
    <g>
      <path class="cls-2" d="M286.44,96.67h0c-1.12,0-2.03,.9-2.03,2.02l-.09,58.41c0,1.12,.9,2.03,2.02,2.03h0c11.75,.02,21.29-9.49,21.31-21.24l.03-19.92c.02-11.75-9.49-21.29-21.24-21.31Z"/>
      <path class="cls-7" d="M286.38,159.58h-.04c-.66,0-1.28-.26-1.75-.73-.47-.47-.72-1.09-.72-1.75l.09-58.41c0-1.36,1.11-2.47,2.47-2.47h0c5.8,0,11.25,2.28,15.35,6.39,4.1,4.11,6.35,9.57,6.34,15.37l-.03,19.92c-.02,11.96-9.76,21.68-21.72,21.68Zm.06-62.46c-.87,0-1.58,.71-1.58,1.58l-.09,58.41c0,.42,.16,.82,.46,1.12,.3,.3,.7,.46,1.12,.47,.01,0,.02,0,.03,0,11.47,0,20.81-9.32,20.83-20.79l.03-19.92c0-5.56-2.15-10.8-6.08-14.74-3.93-3.94-9.15-6.12-14.72-6.12h0Z"/>
    </g>
    <g class="cls-6">
      <path class="cls-7" d="M284.34,140.9l-.02,16.2c0,1.12,.91,2.03,2.03,2.03,6.17,0,11.73-2.61,15.62-6.8,3.52-3.78,5.67-8.86,5.68-14.44v-8.39c-3.33,7.36-10.77,12.48-19.39,12.46h-2.13c-.78,0-1.44-.44-1.79-1.07Z"/>
    </g>
    <path class="cls-7" d="M286.38,161.61s-.03,0-.04,0c-1.2,0-2.34-.47-3.18-1.33-.85-.85-1.32-1.99-1.32-3.19l.09-58.41c0-2.48,2.03-4.5,4.51-4.5h0c6.34,.01,12.31,2.49,16.78,6.98,4.48,4.49,6.94,10.46,6.93,16.81l-.03,19.92c-.01,6.34-2.49,12.31-6.98,16.78-4.48,4.47-10.44,6.93-16.77,6.93Zm.51-62.46l-.09,57.49c10.16-.22,18.36-8.55,18.37-18.76l.03-19.92c0-5.02-1.94-9.74-5.48-13.3-3.44-3.45-7.98-5.4-12.83-5.52Z"/>
    <g>
      <circle class="cls-2" cx="189.98" cy="127.75" r="99.53"/>
      <path class="cls-7" d="M189.84,227.73c-11.02,0-21.85-1.8-32.29-5.39-12.23-4.2-23.39-10.65-33.19-19.17-9.8-8.52-17.73-18.69-23.58-30.22-6.06-11.93-9.6-24.81-10.54-38.28-.94-13.46,.79-26.71,5.14-39.37,4.2-12.23,10.65-23.39,19.17-33.19,8.52-9.8,18.69-17.73,30.22-23.58,11.93-6.06,24.81-9.6,38.28-10.54,13.46-.94,26.71,.79,39.37,5.14,12.23,4.2,23.39,10.65,33.19,19.17,9.8,8.52,17.73,18.69,23.58,30.22,6.06,11.93,9.6,24.81,10.54,38.28,.94,13.46-.79,26.71-5.14,39.37-4.2,12.23-10.65,23.39-19.17,33.19-8.52,9.8-18.69,17.73-30.22,23.58-11.93,6.06-24.81,9.6-38.28,10.54-2.37,.16-4.73,.25-7.08,.25Zm.22-199.07c-2.3,0-4.61,.08-6.94,.24-26.4,1.83-50.51,13.84-67.88,33.81-17.37,19.97-25.93,45.51-24.09,71.91,3.63,52.18,47.25,92.22,98.78,92.22,2.3,0,4.61-.08,6.94-.24,54.51-3.79,95.77-51.21,91.98-105.72-3.63-52.18-47.25-92.22-98.78-92.22Z"/>
    </g>
    <g class="cls-6">
      <path class="cls-7" d="M90.69,120.84c-.32,4.53-.32,9.14,0,13.81,3.82,54.84,51.36,96.2,106.2,92.39,54.84-3.82,96.2-51.36,92.39-106.2-.11-1.58-.25-3.15-.44-4.7-3.33,48.8-42.22,88.9-92.4,92.39-53.26,3.7-99.63-35.21-105.76-87.69Z"/>
    </g>
    <path class="cls-7" d="M189.83,229.77c-11.25,0-22.3-1.84-32.95-5.5-12.47-4.28-23.87-10.86-33.86-19.56-9.99-8.7-18.09-19.07-24.06-30.83-6.18-12.18-9.8-25.32-10.75-39.06-.95-13.74,.81-27.25,5.25-40.17,4.28-12.47,10.86-23.87,19.56-33.86,8.7-9.99,19.07-18.09,30.83-24.06,12.18-6.18,25.32-9.8,39.06-10.75,13.74-.95,27.25,.81,40.17,5.25,12.47,4.28,23.87,10.86,33.86,19.56,9.99,8.7,18.09,19.07,24.06,30.83,6.18,12.18,9.8,25.32,10.75,39.06,.95,13.74-.81,27.25-5.25,40.17-4.28,12.47-10.86,23.87-19.56,33.86-8.7,9.99-19.07,18.09-30.83,24.06-12.18,6.18-25.32,9.8-39.06,10.75-2.41,.17-4.82,.25-7.22,.25Zm.22-199.07c-2.25,0-4.51,.08-6.8,.24-25.86,1.8-49.48,13.56-66.49,33.12-17.02,19.56-25.4,44.57-23.6,70.43,3.55,51.11,46.28,90.32,96.75,90.33,2.25,0,4.51-.08,6.8-.24,53.39-3.71,93.8-50.16,90.09-103.55-3.55-51.11-46.28-90.33-96.75-90.33Z"/>
    <path class="cls-8" d="M91.19,137.18c1.06,19.45,8.35,37.16,19.96,51.51,8.7,10.76,43.04,28.55,84.15,26.69,38.12-1.73,71.68-23.92,79.16-35.56,9.99-15.53,15.32-33.92,14.26-53.37-2.8-51.47-48.17-70.4-102.72-67.44-54.55,2.96-97.61,26.7-94.81,78.17Z"/>
    <path class="cls-7" d="M189.25,218c-20.74,0-37.92-4.73-49.05-8.91-13.94-5.23-25.81-12.45-30.98-18.84-12.37-15.29-19.46-33.59-20.51-52.94-.7-12.85,1.39-24.53,6.2-34.7,4.53-9.58,11.5-17.89,20.71-24.7,16.78-12.4,41.07-19.79,70.25-21.38,29.18-1.59,54.13,3.13,72.15,13.64,9.89,5.77,17.72,13.27,23.26,22.31,5.89,9.59,9.22,20.98,9.92,33.83,1.05,19.35-4.02,38.31-14.65,54.85-4.36,6.78-15.76,15.56-29.05,22.36-11.7,5.99-30.23,13.34-52.09,14.34-2.08,.09-4.14,.14-6.16,.14Zm-95.59-80.96c.99,18.3,7.71,35.62,19.41,50.09,7.77,9.61,40.86,27.64,82.11,25.77,20.97-.95,38.79-8.03,50.05-13.79,14.29-7.32,23.93-15.64,27.14-20.63,10.07-15.65,14.86-33.6,13.87-51.9-1.27-23.44-11.61-40.97-30.73-52.12-17.18-10.02-41.17-14.51-69.39-12.97-28.21,1.53-51.58,8.59-67.57,20.41-17.8,13.15-26.17,31.71-24.9,55.14Z"/>
    <g class="cls-6">
      <path class="cls-9" d="M107.79,88.12c-11.45,12.18-17.72,28.38-16.6,49.05,1.06,19.45,8.35,37.16,19.96,51.52,8.71,10.76,43.05,28.55,84.16,26.69,14.52-.65,28.37-4.28,40.37-9.17-50.58,1.21-92.42-20.65-103.22-33.99-14.73-18.22-23.99-40.7-25.33-65.38-.36-6.6-.12-12.83,.66-18.73Z"/>
    </g>
    <path class="cls-7" d="M97.23,94.06c-.66,0-1.32-.26-1.81-.78-.83-.88-.89-2.21-.2-3.15,4.16-6.53,9.47-12.53,15.79-17.81,6.14-5.14,13.27-9.65,21.19-13.39,7.74-3.66,16.26-6.6,25.32-8.75,8.98-2.13,18.52-3.48,28.33-4.01,9.98-.54,19.71-.21,28.92,.97,9.29,1.2,18.09,3.28,26.16,6.18,8.24,2.97,15.77,6.81,22.39,11.43,6.79,4.74,12.68,10.34,17.49,16.64,.83,1,.74,2.5-.22,3.4-1,.93-2.57,.87-3.5-.13l1.82-1.69-1.82,1.68-.08-.09-.08-.11c-17.79-23.36-50.89-35.51-90.79-33.34-39.68,2.16-71.31,17.39-86.79,41.79l-.17,.27-.23,.22c-.48,.45-1.09,.67-1.7,.67Z"/>
    <path class="cls-2" d="M345.51,177.78c-1.68,35.13-38.03,70.17-83.17,80.01-1.41,.31-2.82,.59-4.25,.85l-20.04-27.14-7.6-10.3s9.26-2.65,19.71-9.42c3.54-2.29,7.21-5.06,10.71-8.35,9.13-8.6,16.66-17.32,22.96-25.87,0,0,0,0,0,0,10.51-14.27,17.62-28.11,23.14-40.33,6.27-13.9,26.03-9.44,15.43,17.09,0,0,23.82,8.31,23.09,23.47Z"/>
    <g class="cls-11">
      <path class="cls-7" d="M345.51,177.78c-1.68,35.13-38.03,70.17-83.17,80.01-1.41,.31-2.82,.59-4.25,.85,0,0-10.41-5.72-10.41-7.68,0-3.27,5.39-2.29,11.28-2.86,34.78-3.36,80.14-40.54,86.44-72.84,.11,.81,.15,1.65,.11,2.52Z"/>
    </g>
    <path class="cls-7" d="M230.23,220.4l4.33-2.38c1.44-.79,2.87-1.59,4.28-2.4,1.42-.81,2.82-1.62,4.21-2.45l1.04-.62,1.04-.63c.69-.43,1.37-.86,2.05-1.3,2.71-1.76,5.33-3.64,7.84-5.64,.32-.24,.62-.51,.93-.76,.31-.25,.62-.51,.92-.77l.91-.78,.9-.8c.15-.13,.3-.26,.45-.4l.45-.42,.89-.85,1.79-1.69c1.21-1.11,2.35-2.3,3.51-3.47l1.73-1.76c.57-.59,1.11-1.21,1.67-1.81,2.24-2.41,4.37-4.91,6.48-7.43,4.19-5.06,8.09-10.37,11.71-15.86,3.62-5.49,6.97-11.16,10.05-16.98l1.14-2.19c.38-.73,.77-1.46,1.13-2.2l1.1-2.22c.18-.37,.37-.74,.55-1.11l.53-1.12,1.06-2.23c.35-.75,.69-1.5,1.04-2.25l.52-1.13,.26-.57,.31-.64c.43-.85,.92-1.68,1.48-2.48,1.13-1.58,2.55-3.01,4.27-4.1,.86-.54,1.8-.99,2.79-1.33,.99-.34,2.05-.53,3.14-.58,1.08-.05,2.19,.1,3.26,.4,1.06,.32,2.09,.82,2.98,1.47,.89,.65,1.67,1.44,2.3,2.3,.63,.86,1.12,1.78,1.5,2.72,.38,.94,.65,1.89,.83,2.85,.19,.95,.29,1.9,.34,2.83,.04,.94,.04,1.86-.03,2.77l-.02,.34-.03,.34-.06,.68-.09,.67-.04,.34-.05,.33c-.55,3.55-1.61,6.91-2.89,10.13l-1.49-3.26,.35,.13,.32,.12,.62,.24c.41,.17,.82,.33,1.23,.51,.81,.35,1.61,.71,2.41,1.09,1.59,.76,3.15,1.58,4.67,2.48,3.04,1.8,5.98,3.89,8.58,6.48,1.3,1.3,2.51,2.72,3.54,4.32,1.03,1.6,1.89,3.37,2.42,5.27,.27,.95,.45,1.93,.55,2.93,.02,.25,.04,.5,.05,.75l.02,.75c0,.25,0,.5-.02,.75,0,.13-.01,.23-.02,.34l-.02,.33c-.09,1.77-.29,3.53-.55,5.27-1.06,6.99-3.34,13.73-6.47,19.98-.79,1.56-1.6,3.11-2.49,4.61-.43,.76-.9,1.5-1.35,2.24l-.7,1.1-.35,.55-.36,.54-.73,1.08-.75,1.07-.38,.53-.39,.53-.77,1.05-.8,1.03-.4,.52-.41,.51-.82,1.02-.84,1c-4.47,5.32-9.48,10.14-14.86,14.49-2.69,2.18-5.48,4.22-8.35,6.15-2.86,1.93-5.81,3.74-8.83,5.42-3.02,1.68-6.1,3.25-9.24,4.67-3.15,1.42-6.3,2.83-9.54,4.05-3.23,1.23-6.57,2.19-9.96,2.88-.42,.08-.85,.17-1.28,.24-.43,.07-.86,.13-1.28,.19-.86,.13-1.72,.21-2.59,.28-1.73,.13-3.48,.17-5.24,0-.47-.05-.82-.47-.77-.94,.03-.3,.21-.54,.45-.68h.03c.78-.42,1.57-.76,2.35-1.09,.78-.34,1.57-.64,2.36-.95,.78-.31,1.57-.59,2.36-.88,.39-.14,.79-.28,1.18-.42,.39-.14,.78-.28,1.18-.42l9.42-3.19c3.14-1.07,6.25-2.21,9.27-3.59,3.02-1.37,5.98-2.87,8.88-4.49,2.9-1.62,5.73-3.34,8.48-5.2,2.75-1.85,5.43-3.81,8-5.9,5.15-4.16,9.94-8.77,14.18-13.82l.79-.95,.77-.96,.39-.48,.38-.49,.75-.98,.73-.99,.37-.5,.36-.5,.71-1.01,.69-1.02,.34-.51,.33-.52,.66-1.04c.42-.7,.87-1.4,1.27-2.11,.83-1.41,1.6-2.86,2.34-4.32,2.93-5.85,5.03-12.1,6-18.51,.23-1.6,.42-3.21,.5-4.82l.02-.3c0-.1,.02-.21,.01-.29v-.52s0-.52,0-.52l-.04-.52c-.07-.69-.2-1.38-.39-2.06-.76-2.72-2.5-5.25-4.7-7.43-2.2-2.19-4.82-4.08-7.6-5.72-1.39-.82-2.83-1.58-4.29-2.28-.73-.35-1.47-.69-2.22-1-.37-.16-.75-.31-1.12-.46l-.56-.22-.27-.1-.25-.09-2.43-.89,.94-2.37c1.18-2.97,2.12-6.01,2.59-9.04l.05-.28,.04-.28,.07-.57,.05-.56,.03-.28,.02-.28c.05-.75,.05-1.49,.02-2.22-.01-.18-.01-.36-.03-.54l-.05-.54-.07-.53c-.02-.18-.06-.34-.09-.52-.13-.68-.32-1.34-.56-1.94-.24-.61-.54-1.16-.9-1.65-.35-.49-.77-.89-1.21-1.22-.45-.33-.95-.57-1.47-.73-.53-.15-1.09-.23-1.67-.2-1.16,.04-2.37,.45-3.46,1.14-1.1,.69-2.07,1.66-2.88,2.79-.4,.56-.76,1.17-1.08,1.81l-.23,.48-.26,.57-.52,1.14c-.35,.76-.7,1.53-1.05,2.29l-1.08,2.28-.54,1.14c-.18,.38-.37,.75-.56,1.13l-1.12,2.26c-.37,.76-.76,1.5-1.15,2.25l-1.16,2.24c-3.15,5.95-6.58,11.76-10.3,17.39-3.72,5.63-7.72,11.07-12.02,16.27-2.16,2.59-4.35,5.16-6.64,7.63l-.85,.94c-.29,.31-.56,.63-.85,.94l-1.74,1.83c-1.16,1.22-2.31,2.46-3.52,3.64l-1.79,1.79-.9,.89-.45,.45c-.15,.15-.31,.3-.47,.44l-.94,.89-.97,.86c-.32,.29-.65,.57-.98,.84-.33,.28-.66,.56-1,.83-1.34,1.09-2.72,2.11-4.14,3.09l-1.07,.72c-.36,.24-.72,.47-1.08,.7-.36,.23-.73,.46-1.09,.68-.37,.22-.73,.45-1.11,.66-1.48,.87-2.99,1.69-4.53,2.43-1.54,.75-3.11,1.43-4.71,2.03-1.6,.6-3.23,1.13-4.88,1.57-.83,.22-1.66,.41-2.5,.58-.42,.08-.84,.16-1.27,.22-.21,.03-.43,.06-.64,.09-.22,.03-.43,.05-.66,.07-.46,.04-.87-.3-.91-.76-.03-.34,.15-.66,.43-.81h.03Z"/>
    <g class="cls-6">
      <path class="cls-7" d="M315.97,163.31c-10.06,3.76-12.84,13.74-11.94,16.92,3.43,12.16,30.5,30.41,38.57,7.29,0,0-6.12,.39-7.38-4.04"/>
    </g>
    <path class="cls-2" d="M315.97,163.31c-2.13,5.23-6.3,5.8-7.28,12.26-1.9,12.49,30.33,27.85,36.38,6.77,0,0-1.64-1.38-2.9-5.81"/>
    <g class="cls-6">
      <path class="cls-7" d="M315.98,163.31s-.01,.01-.01,.02c0,0,0-.01,0-.02h0Z"/>
    </g>
    <g class="cls-6">
      <path class="cls-7" d="M344.65,183.66c-7,19.1-37.81,4.13-35.96-8.09,.76-5,3.43-6.48,5.59-9.32-.29,.76-.53,1.64-.68,2.65-1.56,10.29,20,22.51,31.05,14.75Z"/>
    </g>
    <g class="cls-6">
      <path class="cls-7" d="M315.96,163.33c-.48,1.17-1.06,2.11-1.68,2.93,.44-1.17,1.03-2.1,1.68-2.93Z"/>
    </g>
    <path class="cls-7" d="M316.74,163.62c-.26,1.64-1.02,3.25-1.93,4.63l-.34,.5-.17,.25-.17,.24-.66,.93c-.41,.6-.8,1.16-1.08,1.71-.17,.27-.26,.56-.4,.83-.06,.14-.1,.28-.16,.42-.05,.14-.11,.27-.15,.42-.04,.15-.08,.29-.12,.43-.02,.07-.05,.14-.06,.22l-.04,.23c-.06,.3-.13,.59-.16,.91-.04,.31-.1,.65-.09,.87-.01,.12,0,.25,0,.37,0,.12,.01,.25,.03,.37,.05,.5,.18,1.02,.36,1.55,.19,.53,.43,1.06,.73,1.6,.3,.53,.66,1.06,1.05,1.58,.79,1.03,1.73,2.01,2.78,2.9,1.05,.89,2.21,1.67,3.42,2.37,.61,.34,1.23,.67,1.86,.97,.63,.3,1.28,.57,1.93,.82,.65,.25,1.31,.47,1.98,.67,.67,.19,1.34,.37,2.01,.49,.17,.04,.34,.07,.51,.1l.51,.09c.34,.04,.68,.1,1.01,.13,.67,.08,1.35,.1,2.01,.1,.67,0,1.32-.06,1.96-.14,.64-.09,1.27-.23,1.88-.4,.61-.18,1.18-.41,1.74-.67,.55-.27,1.07-.59,1.56-.95,1.96-1.44,3.31-3.66,4.08-6.22l.08-.24s.03-.11,.05-.18c.04-.14,.07-.3,.1-.46,.06-.32,.12-.64,.16-.97,.09-.66,.14-1.32,.15-1.98,.03-1.32-.13-2.61-.46-3.8v-.04c-.37-1.32,.4-2.68,1.72-3.05,1.32-.36,2.68,.41,3.05,1.73,.48,1.74,.68,3.51,.65,5.24-.02,.87-.08,1.73-.2,2.58-.06,.43-.13,.85-.22,1.28-.04,.22-.09,.43-.15,.66-.03,.11-.06,.23-.1,.37l-.1,.31-.19,.61c-.06,.2-.15,.41-.22,.61-.08,.2-.15,.41-.23,.61l-.26,.6-.13,.3c-.05,.1-.1,.2-.15,.3l-.3,.59c-.1,.2-.22,.39-.33,.58-.11,.19-.22,.39-.35,.57l-.38,.56c-.13,.19-.27,.36-.41,.54-.27,.37-.58,.7-.88,1.05-.63,.66-1.31,1.29-2.04,1.83-.74,.54-1.52,1.02-2.34,1.42-.82,.39-1.66,.72-2.52,.97-.86,.24-1.73,.43-2.6,.55-.87,.11-1.74,.18-2.6,.18-.86,0-1.71-.03-2.56-.12-.42-.04-.84-.1-1.26-.16l-.62-.11c-.21-.03-.41-.07-.62-.12-.82-.16-1.63-.37-2.43-.6-.8-.24-1.58-.5-2.35-.79-.77-.3-1.53-.62-2.28-.97-.75-.35-1.48-.73-2.2-1.14-.72-.41-1.42-.85-2.11-1.3-.34-.24-.69-.47-1.02-.72-.17-.12-.34-.24-.51-.37l-.5-.38c-1.31-1.04-2.57-2.2-3.69-3.55-.56-.68-1.08-1.4-1.54-2.19l-.34-.6-.31-.63c-.19-.43-.37-.87-.52-1.33-.3-.92-.5-1.9-.54-2.92,0-.26-.02-.51,0-.77,.01-.26,.02-.51,.06-.77,.06-.55,.17-.95,.27-1.39,.06-.22,.09-.43,.17-.65l.22-.65,.11-.32c.04-.11,.09-.21,.13-.32,.09-.21,.18-.43,.28-.64,.09-.21,.22-.41,.33-.62,.12-.2,.22-.41,.35-.6,.13-.19,.26-.38,.39-.57,.07-.09,.13-.19,.2-.28l.21-.26c.14-.17,.28-.35,.43-.52l.45-.47c.15-.16,.3-.3,.45-.44,.15-.14,.31-.29,.45-.42l.45-.39,.44-.37,.85-.71c.13-.12,.26-.23,.4-.35,.07-.06,.14-.12,.2-.18l.19-.18,.39-.36c.12-.13,.24-.25,.36-.37l.19-.19c.06-.06,.11-.13,.17-.2l.35-.4c.23-.27,.44-.56,.68-.85l.04-.05c.3-.36,.83-.41,1.19-.11,.24,.2,.34,.5,.3,.79Z"/>
    <g class="cls-11">
      <path class="cls-7" d="M283.83,177.55c-6.14,17.3-16.95,32.51-31.02,43.97-4.59,3.75-9.52,7.09-14.75,9.97l-7.6-10.3s9.26-2.65,19.71-9.42c3.54-2.29,7.21-5.06,10.71-8.35,9.13-8.6,16.66-17.32,22.96-25.87Z"/>
    </g>
    <g>
      <g class="cls-3">
        <ellipse class="cls-2" cx="256.93" cy="136.66" rx="15.93" ry="11.55" transform="translate(73.59 362.66) rotate(-78.96)"/>
      </g>
      <g class="cls-3">
        <ellipse class="cls-2" cx="242.37" cy="168.03" rx="7.31" ry="6.28" transform="translate(4.63 342.55) rotate(-71.02)"/>
      </g>
    </g>
    <g class="cls-3">
      <path class="cls-2" d="M113.28,166.72s-16.19-48.51,9.75-68.43c25.94-19.91,63.77-20.51,62.93-18.07,0,0-41.7,10.89-57.49,44.29-12.18,25.76-15.2,42.21-15.2,42.21Z"/>
    </g>
    <path class="cls-7" d="M324.96,224.31s-.04,0-.07,0c-9.66-.34-18.19-2.64-25.37-6.82-5.76-3.36-10.65-7.92-14.53-13.57-6.58-9.58-7.94-18.88-7.99-19.27-.14-1,.56-1.93,1.56-2.07,1-.14,1.93,.56,2.07,1.56,.02,.16,1.36,8.99,7.47,17.83,8.16,11.81,20.58,18.09,36.92,18.67,1.01,.04,1.8,.88,1.76,1.9-.04,.99-.85,1.77-1.83,1.77Z"/>
  </g>
  <g>
    <path class="cls-7" d="M214.11,249.12h0s-12.85,0-12.85,0l5.29,5.29h7.14c1.03,0,1.86,.87,1.86,1.94s-.83,1.94-1.86,1.94h-4.35l5.25,5.27c3.59-.27,6.42-3.39,6.42-7.22s-3.08-7.23-6.89-7.24Z"/>
    <polygon class="cls-7" points="207.84 258.3 203.14 258.3 202.65 258.3 201.75 258.3 200.74 258.3 206.53 264.12 207.42 264.12 213.17 270.02 219.5 270.02 213.09 263.57 207.84 258.3"/>
  </g>
</svg>