<?xml version="1.0" encoding="UTF-8"?>
<svg id="Layer_1" data-name="Layer 1" xmlns="http://www.w3.org/2000/svg" viewBox="0 0 500 500">
  <defs>
    <style>
      .cls-1 {
        opacity: .7;
      }

      .cls-2 {
        fill: #fff;
      }

      .cls-3 {
        opacity: .5;
      }

      .cls-4 {
        fill: #e0e0e0;
      }

      .cls-5 {
        opacity: .35;
      }

      .cls-6 {
        opacity: .3;
      }

      .cls-7 {
        fill: #747474;
      }

      .cls-8 {
        fill: #353535;
      }

      .cls-9 {
        fill: #030b2f;
      }

      .cls-10 {
        fill: #b1b1b1;
      }

      .cls-11 {
        fill: #292929;
      }

      .cls-12 {
        fill: #919191;
      }

      .cls-13 {
        opacity: .25;
      }
    </style>
  </defs>
  <g>
    <path class="cls-2" d="M172.16,228.08v101.35c0,13.5,10.93,24.43,24.43,24.43h106.85c13.48,0,24.43-10.93,24.43-24.43v-101.35c0-5.68-1.95-10.94-5.23-15.08-.03-.04-.06-.08-.09-.12-2.52-3.16-5.8-5.69-9.57-7.29-2.93-1.25-6.15-1.93-9.54-1.93h-106.85c-3.41,0-6.65,.69-9.59,1.96-2.41,1.02-4.61,2.42-6.54,4.12-.21,.18-.42,.37-.62,.56-4.73,4.45-7.67,10.77-7.67,17.77Z"/>
    <path class="cls-8" d="M169.56,331.4v-105.29c0-13.82,11.24-25.06,25.06-25.06h110.79c13.82,0,25.06,11.24,25.06,25.06v105.29c0,13.82-11.24,25.06-25.06,25.06h-110.79c-13.82,0-25.06-11.24-25.06-25.06Zm25.06-125.15c-10.95,0-19.87,8.91-19.87,19.87v105.29c0,10.95,8.91,19.87,19.87,19.87h110.79c10.95,0,19.87-8.91,19.87-19.87v-105.29c0-10.95-8.91-19.87-19.87-19.87h-110.79Z"/>
    <path class="cls-2" d="M151.57,284.4c29.44,3.98,50.95-19.06,50.95-19.06l4.29-33.74,3.86-30.39s-40.63,36.11-53.43,11.82c-2.02-3.83-3.35-9.17-3.71-16.39-.03-.62-.05-1.25-.07-1.9l-.29,.1-44.9,15.05s-5.5,67.92,43.31,74.51Z"/>
    <g class="cls-13">
      <path class="cls-8" d="M151.57,284.4c29.44,3.98,50.95-19.06,50.95-19.06l4.29-33.74-8.65-2.13s-5.06,27.19-31.69,34.83c-26.35,7.56-31.16-8.02-26.23-15.01,5.87-8.34,18.91-16.25,17.01-36.27-.32-3.36-1.05-7.06-2.32-11.15-.58-1.91-1.05-3.65-1.4-5.24-.14-.62-.25-1.22-.36-1.8l-44.9,15.05s-5.5,67.92,43.31,74.51Z"/>
    </g>
    <path class="cls-8" d="M158.52,287.47c26.57,0,45.06-19.45,45.9-20.35,.98-1.05,.92-2.69-.13-3.67-1.05-.98-2.69-.92-3.67,.13-.21,.22-20.99,22-48.7,18.26-19.06-2.58-31.77-15.26-37.76-37.7-3.74-13.99-3.59-27.66-3.4-32.33l40.27-13.49c.93,12.91,5.13,21.06,12.5,24.26,17.96,7.79,47.61-18.29,48.87-19.4,1.07-.95,1.17-2.59,.22-3.66-.95-1.07-2.59-1.17-3.67-.22-7.86,6.97-30.96,23.9-43.36,18.52-6-2.6-9.2-10.38-9.54-23.11l-.09-3.51-50.14,16.8-.14,1.71c-.06,.71-1.36,17.63,3.43,35.66,6.47,24.39,21.04,38.79,42.11,41.63,2.49,.34,4.93,.49,7.3,.49Z"/>
    <g>
      <path class="cls-2" d="M352.62,318.19s8.03,25.03-18.35,30.4c-4.75,.97-9.3,.58-13.35-.91-17.51-6.45-25.97-33.44-2.99-60.45,1.21-1.43,2.52-2.86,3.91-4.29,.06-.06,.12-.12,.18-.18,0,0-1.22-2.02-5.13-4.87-2.45-1.79-5.97-3.91-10.9-6.05l-9.46-28.93-.02-.05-11.9-36.37s9.37,3.18,21.35,8.6c5.05,2.28,10.58,4.98,16.05,8,0,0,2.6,1.4,6.66,3.92,20.81,12.95,79.96,55.5,23.94,91.15Z"/>
      <g class="cls-13">
        <path class="cls-8" d="M303.17,248.31l2.82,23.54c12.79,5.55,16.03,10.91,16.03,10.91-.06,.06-.12,.12-.18,.18,3.43-2.83,8.03-6.06,12.85-7.87,0,0-8.9-4.89-11.87-8.38-12.81-15.08-9.51-24.02-21.55-22.49-1.89,.24,.64,1.52,1.89,4.11Z"/>
      </g>
      <path class="cls-8" d="M329.18,351.71c1.84,0,3.71-.19,5.59-.57,8.65-1.76,14.82-5.71,18.34-11.73,4.44-7.59,3.31-16.26,2.48-20.06,15.8-10.5,23.56-22.56,23.07-35.89-1.22-33.11-53.2-61.45-55.42-62.64-18.4-10.15-37.6-16.71-37.79-16.77-1.36-.46-2.83,.27-3.29,1.63-.46,1.36,.27,2.83,1.63,3.29,.19,.06,18.97,6.48,36.98,16.41,.54,.29,51.61,28.12,52.71,58.27,.43,11.79-7.05,22.67-22.25,32.34l-1.69,1.08,.61,1.91c.03,.09,3.08,10.01-1.53,17.84-2.75,4.67-7.75,7.78-14.88,9.23-9.8,2-18.92-2.36-23.81-11.36-6.08-11.2-5.61-30.25,13.93-50.1l1.42-1.44-1.05-1.73c-.33-.55-3.55-5.49-14.72-10.8-1.29-.62-2.84-.07-3.46,1.23-.62,1.29-.07,2.84,1.23,3.46,6.22,2.96,9.6,5.73,11.23,7.36-19.89,21.28-19.93,42.01-13.15,54.51,4.99,9.2,13.97,14.54,23.82,14.55Z"/>
      <path class="cls-8" d="M350.79,316.11c-1.01,.57-2.06,1.2-3.08,1.83-1.04,.61-2.07,1.25-3.1,1.88l-6.31,3.82c1.26-.02,2.51-.17,3.75-.36,1.24-.2,2.46-.45,3.68-.75,1.21-.3,2.42-.62,3.6-1.01,1.19-.38,2.35-.77,3.53-1.27l-2.05-4.14Z"/>
      <g class="cls-13">
        <path class="cls-8" d="M334.26,348.59c26.07-5.32,18.54-29.82,18.36-30.4h0s-4.53,24.25-28.09,17.6c-15.07-4.26-13.8-25.5-10.92-40.25-.26-.58-.46-1.19-.63-1.8h0c-20.8,30.95-2.31,59.68,21.29,54.86Z"/>
      </g>
      <path class="cls-8" d="M370.23,304.88c1.43,0,2.59-1.16,2.6-2.59,.02-7.69-6.32-15.64-16.15-20.25-11.1-5.21-27.97-6.59-42.03,5.15-1.1,.92-1.25,2.56-.33,3.66,.92,1.1,2.56,1.25,3.66,.33,12.19-10.18,26.84-8.96,36.5-4.44,8.01,3.76,13.18,9.86,13.16,15.54,0,1.43,1.16,2.6,2.59,2.6h0Z"/>
      <path class="cls-8" d="M322.67,284.58c.85-.89,1.8-1.81,2.74-2.69,.95-.88,1.92-1.74,2.91-2.58,2-1.67,4.08-3.24,6.37-4.55-2.58,.59-5.11,1.53-7.58,2.58-1.23,.53-2.45,1.1-3.66,1.69-1.22,.6-2.39,1.2-3.62,1.9l2.84,3.65Z"/>
    </g>
    <path class="cls-8" d="M272.15,436.14c.47,0,.95-.13,1.38-.4,12.73-7.99,31.42-4.46,31.61-4.42,1.41,.28,2.77-.64,3.05-2.05,.28-1.41-.64-2.77-2.04-3.05-.85-.17-20.88-3.98-35.37,5.12-1.21,.76-1.58,2.37-.82,3.58,.49,.79,1.34,1.22,2.2,1.22Z"/>
    <path class="cls-2" d="M198.16,229.48c-7.34,34.98-18.7,82.45-13.7,129.49,3.21,30.16,9.93,69.81,9.93,69.81,0,0-19.99,6.59-18.56,20.78,.04,.38-.85,15.22,38.74,13.73,16.78-.63,28.2-3.84,32.28-12.67,3.66-7.91,3.13-43.1,3.13-43.1v-49.78h.05v49.78s-.52,35.19,3.13,43.1c4.08,8.83,13.63,12.04,30.41,12.67,39.59,1.48,40.57-13.35,40.61-13.73,1.43-14.19-18.56-20.78-18.56-20.78,0,0,6.72-39.65,9.93-69.81,5.12-48.16-6.72-96.95-14.23-131.98"/>
    <path class="cls-8" d="M196.89,229.21c-5.25,16.01-8.24,32.59-11.2,49.19-2.82,16.62-4.84,33.45-5.3,50.41-.11,4.24-.07,8.48,.02,12.72,.13,4.24,.35,8.49,.7,12.72,.37,4.25,.84,8.43,1.34,12.61,.5,4.18,1.03,8.35,1.58,12.52,1.1,8.34,2.38,16.65,3.66,24.95,1.29,8.3,2.66,16.58,4.13,24.87l1.75-2.9h0c-1.18,.41-2.16,.82-3.21,1.28-1.03,.46-2.03,.96-3.03,1.49-1.98,1.07-3.9,2.29-5.72,3.72-1.81,1.43-3.51,3.08-4.94,5.03-1.43,1.94-2.57,4.22-3.13,6.7-.28,1.23-.41,2.5-.4,3.76,.01,.31,.01,.63,.04,.94l.04,.46v.1s0-.09,0-.09c0-.05,0-.04,0,0v.28c.05,.77,.19,1.48,.39,2.15,.8,2.71,2.52,4.83,4.4,6.42,1.91,1.6,4.02,2.75,6.15,3.63,2.14,.89,4.32,1.54,6.5,2.03,4.36,1,8.74,1.43,13.09,1.64,4.36,.2,8.68,.13,13-.08,4.33-.23,8.68-.63,13.03-1.52,2.18-.44,4.36-1.01,6.51-1.78,2.15-.78,4.28-1.77,6.27-3.13,1.99-1.33,3.81-3.08,5.21-5.14,.35-.51,.66-1.05,.96-1.59l.41-.83c.13-.29,.26-.62,.38-.93,.44-1.21,.72-2.35,.95-3.46,.88-4.44,1.2-8.71,1.5-13.02,.53-8.59,.65-17.12,.6-25.67v-50.98s-2.61,2.6-2.61,2.6h.05s-2.6-2.6-2.6-2.6v50.9c-.06,8.54,.05,17.06,.58,25.64,.29,4.3,.61,8.57,1.48,12.99,.23,1.11,.5,2.24,.91,3.44l.38,.94c.13,.29,.26,.55,.4,.82,.28,.54,.57,1.07,.9,1.58,1.29,2.07,3.01,3.91,4.96,5.34,1.95,1.43,4.09,2.51,6.25,3.3,2.16,.8,4.36,1.37,6.54,1.79,4.37,.85,8.72,1.19,13.04,1.38,4.31,.16,8.64,.18,12.99-.07,4.34-.25,8.71-.78,13.05-1.83,2.17-.54,4.33-1.2,6.44-2.1,2.11-.91,4.2-2.02,6.1-3.55,1.89-1.53,3.64-3.46,4.68-6.01,.26-.64,.46-1.31,.59-2.1l.04-.32,.02-.24,.04-.46c.02-.31,.03-.63,.04-.94,0-1.26-.12-2.53-.41-3.76-.56-2.47-1.71-4.74-3.13-6.68-1.44-1.94-3.14-3.59-4.94-5.02-1.81-1.43-3.73-2.65-5.71-3.71-.99-.53-2-1.03-3.02-1.49-1.04-.46-2.02-.87-3.2-1.28h0s1.75,2.9,1.75,2.9c1.49-8.39,2.87-16.78,4.18-25.19,1.3-8.41,2.59-16.82,3.7-25.27,.56-4.22,1.09-8.45,1.6-12.68l.72-6.36c.21-2.13,.44-4.28,.59-6.43,.69-8.58,.85-17.19,.64-25.77-.52-17.17-2.61-34.2-5.52-51.03-1.45-8.42-3.12-16.78-4.88-25.11-.87-4.17-1.86-8.31-2.94-12.42-1.09-4.11-2.27-8.2-3.69-12.24-.24-.68-.99-1.04-1.67-.8-.57,.2-.92,.77-.87,1.35,.36,4.27,1,8.48,1.7,12.67,.72,4.19,1.51,8.35,2.37,12.5,1.69,8.3,3.27,16.62,4.64,24.96,2.74,16.67,4.65,33.47,5.04,50.28,.21,8.4,.06,16.81-.59,25.16-.14,2.09-.37,4.17-.57,6.26l-.71,6.3c-.49,4.2-1.02,8.4-1.57,12.6-1.11,8.4-2.24,16.8-3.47,25.19l-1.88,12.58-1.93,12.57-.34,2.21,2.09,.69h0c.83,.29,1.81,.69,2.7,1.09,.91,.41,1.81,.85,2.69,1.32,1.75,.95,3.43,2.01,4.95,3.22,3.04,2.39,5.48,5.41,6.23,8.78,.19,.84,.28,1.69,.28,2.56,0,.22,0,.43-.03,.65l-.03,.33v.16s-.02,.08-.02,.08c-.04,.25-.14,.61-.28,.95-.56,1.4-1.7,2.77-3.11,3.89-2.85,2.27-6.64,3.69-10.52,4.65-1.95,.49-3.97,.82-5.98,1.11-2.03,.25-4.08,.46-6.14,.57-4.13,.24-8.29,.22-12.46,.07-4.16-.18-8.3-.51-12.26-1.29-3.94-.77-7.76-2.01-10.7-4.18-1.47-1.08-2.69-2.4-3.65-3.93-.24-.38-.46-.78-.67-1.18l-.3-.61-.22-.54c-.28-.81-.52-1.74-.71-2.71-.77-3.91-1.11-8.12-1.38-12.29-.51-8.37-.63-16.83-.58-25.26v-50.94s.01-2.6,.01-2.6h-2.65s-2.6,0-2.6,0v2.6s.01,51.02,.01,51.02c.05,8.44-.07,16.92-.59,25.3-.28,4.17-.62,8.39-1.4,12.3-.19,.97-.44,1.9-.72,2.69-.08,.18-.14,.36-.22,.55l-.3,.59c-.22,.39-.44,.77-.69,1.13-.99,1.46-2.28,2.72-3.82,3.75-3.07,2.09-6.94,3.31-10.89,4.12-3.98,.81-8.11,1.2-12.27,1.42-4.17,.19-8.35,.27-12.49,.07-4.13-.2-8.25-.62-12.17-1.52-1.97-.44-3.87-1.02-5.66-1.76-1.79-.73-3.44-1.67-4.8-2.8-1.34-1.13-2.36-2.5-2.76-3.9-.1-.34-.16-.69-.18-.98v-.11s-.02-.29-.02-.29v-.1s-.03-.33-.03-.33c-.02-.22-.02-.44-.03-.65,0-.87,.08-1.72,.27-2.56,.74-3.37,3.18-6.4,6.22-8.79,1.52-1.2,3.2-2.28,4.96-3.22,.88-.47,1.78-.92,2.69-1.33,.89-.4,1.88-.8,2.71-1.09h0l2.11-.57-.36-2.33-1.91-12.41-1.86-12.42c-1.22-8.29-2.33-16.58-3.44-24.88-.55-4.15-1.07-8.3-1.56-12.44-.49-4.15-.95-8.3-1.3-12.41-.34-4.12-.54-8.26-.67-12.4-.09-4.14-.11-8.29-.01-12.44,.31-16.6,2.16-33.19,4.81-49.66,1.32-8.24,2.87-16.45,4.5-24.66,.79-4.11,1.58-8.22,2.24-12.37,.68-4.14,1.29-8.3,1.67-12.51h0c.06-.73-.47-1.36-1.18-1.43-.62-.06-1.17,.33-1.36,.89Z"/>
    <path class="cls-8" d="M194.89,431.32l1.98-.22c.68-.07,1.37-.12,2.05-.17,1.37-.11,2.75-.2,4.13-.25,2.76-.12,5.51-.09,8.25,.07,2.74,.18,5.45,.6,8.12,1.19,2.67,.62,5.23,1.55,7.76,2.69l.07,.03c.65,.3,1.42,0,1.72-.65,.26-.57,.07-1.23-.41-1.58-2.42-1.79-5.1-3.3-7.94-4.37-.7-.29-1.43-.49-2.15-.74l-1.08-.35c-.36-.1-.73-.18-1.1-.28-.73-.17-1.47-.38-2.21-.53l-2.23-.39c-2.98-.46-5.98-.65-8.98-.61-1.5,.04-2.99,.12-4.48,.29-.75,.07-1.49,.19-2.23,.3-.76,.12-1.47,.25-2.28,.44-1.4,.33-2.26,1.74-1.92,3.13,.31,1.29,1.52,2.12,2.81,1.98h.12Z"/>
    <path class="cls-8" d="M305.84,426.22c-.82-.19-1.53-.33-2.28-.45-.74-.12-1.49-.22-2.23-.31-1.49-.17-2.99-.26-4.49-.3-3-.07-6.01,.12-8.99,.55-2.98,.45-5.94,1.22-8.78,2.28-2.84,1.07-5.52,2.62-7.92,4.44-.57,.43-.68,1.25-.25,1.82,.35,.46,.96,.62,1.48,.43l.15-.06c1.32-.48,2.51-1.14,3.85-1.49,.66-.2,1.28-.47,1.95-.62,.67-.16,1.32-.34,1.98-.51,2.67-.57,5.37-1.01,8.11-1.19,2.74-.19,5.49-.22,8.24-.13,1.38,.05,2.76,.12,4.13,.23,1.36,.09,2.78,.25,4.03,.38h.14c1.43,.16,2.7-.87,2.85-2.3,.14-1.31-.73-2.5-1.99-2.8Z"/>
    <g>
      <g class="cls-13">
        <path class="cls-8" d="M180.26,322.74c1.16,.71,2.46,1.19,3.88,1.37,8.21,1.03,19.78,1.76,28.48-.61v4.36c0,6.03,4.75,10.96,10.55,10.96h57.63c5.8,0,10.55-4.94,10.55-10.96v-3.48c7.99,1.26,17.35,.61,24.32-.27,1.5-.19,2.89-.71,4.1-1.5-.07-6.07-.29-12.11-.64-18.07-1.41-.77-2.99-1.2-4.66-1.2-.16,0-.31,0-.47,.01-6.4,.32-15.16,.51-22.64-.16v-7.82c0-6.03-4.74-10.96-10.55-10.96h-57.63c-4.63,0-8.6,3.15-10,7.49-.35,1.09-.54,2.25-.54,3.47v7.32c-8.19,1.24-19.17,1.04-26.81,.66-.16,0-.31-.01-.47-.01-1.59,0-3.09,.39-4.44,1.08-.35,6.05-.59,12.17-.65,18.33Z"/>
      </g>
      <path class="cls-2" d="M283.77,312.9c8.85,3.72,22.56,2.94,31.9,1.77,5.6-.7,9.54-6.07,8.71-11.87h0c-.75-5.29-5.24-9.14-10.38-8.89-8.74,.43-21.84,.62-30.14-1.29"/>
      <g class="cls-13">
        <path class="cls-8" d="M283.76,312.89c8.85,3.72,22.56,2.95,31.9,1.77,5.6-.7,9.53-6.07,8.71-11.87-.17-1.23-.55-2.39-1.1-3.43-1.49,2.87-4.25,4.96-7.61,5.39-9.33,1.17-23.01,1.95-31.86-1.76l-.04,9.91Z"/>
      </g>
      <path class="cls-8" d="M282.76,315.29h0c-6.33-2.66-6.77-13.15-4.65-19.69,1.89-5.85,5.05-5.8,6.33-5.51,6.14,1.41,16.59,1.85,29.44,1.22,6.51-.32,12.13,4.46,13.08,11.12,.5,3.53-.44,7.15-2.57,9.95-2.08,2.72-5.05,4.44-8.38,4.86-4.37,.55-9.48,.99-14.61,.99-6.66,0-13.38-.74-18.62-2.94Zm31.36-18.79c-9.19,.45-21.78,.59-30.23-1.21-.97,1.34-2.16,6.09-1.55,10.45,.36,2.53,1.24,4.27,2.44,4.77h0c6.41,2.7,17.27,3.26,30.57,1.59,1.94-.24,3.68-1.26,4.9-2.86,1.32-1.72,1.87-3.88,1.56-6.07-.55-3.86-3.67-6.67-7.34-6.67-.12,0-.23,0-.35,0Z"/>
      <path class="cls-2" d="M216.04,312.9c-8.85,3.72-22.56,2.94-31.9,1.77-5.6-.7-9.54-6.07-8.71-11.87h0c.75-5.29,5.24-9.14,10.38-8.89,8.74,.43,21.84,.62,30.14-1.29"/>
      <g class="cls-13">
        <path class="cls-8" d="M184.14,314.66c9.35,1.18,23.05,1.95,31.9-1.77l-.04-9.89c-8.85,3.71-22.53,2.93-31.86,1.76-3.36-.42-6.13-2.53-7.62-5.4-.54,1.04-.92,2.19-1.1,3.43-.82,5.8,3.11,11.17,8.71,11.87Z"/>
      </g>
      <path class="cls-8" d="M183.82,317.24c-3.33-.42-6.31-2.15-8.38-4.86-2.14-2.8-3.08-6.43-2.57-9.95,.95-6.65,6.56-11.43,13.08-11.12,12.84,.62,23.3,.19,29.44-1.22,1.27-.29,4.44-.34,6.33,5.51,2.11,6.55,1.67,17.03-4.65,19.69-5.24,2.2-11.95,2.94-18.62,2.94-5.14,0-10.24-.44-14.61-.99Zm1.87-20.74c-3.8-.19-7.12,2.68-7.69,6.66-.31,2.19,.24,4.34,1.56,6.07,1.22,1.6,2.97,2.62,4.9,2.86,13.3,1.67,24.16,1.11,30.57-1.59h0c1.19-.5,2.08-2.24,2.44-4.77,.61-4.35-.58-9.1-1.55-10.45-8.45,1.8-21.05,1.66-30.23,1.21Z"/>
      <path class="cls-2" d="M212.62,285.91v32.5c0,6.03,4.75,10.97,10.55,10.97h57.63c5.81,0,10.55-4.93,10.55-10.97v-32.5c0-6.02-4.74-10.96-10.55-10.96h-57.63c-4.63,0-8.6,3.15-10.01,7.49-.35,1.09-.54,2.26-.54,3.47Z"/>
      <g class="cls-13">
        <path class="cls-8" d="M212.62,285.91v32.5c0,6.03,4.75,10.97,10.55,10.97h57.63c5.81,0,10.55-4.93,10.55-10.97v-10.94c-9.94,5.71-29.64,14.3-49.41,7.22-9.66-3.46-20.73-15.33-20.73-15.33,0,0-.43,12.45-2.2,12.25-4.95-.55-4.91-25.73-5.84-29.17-.35,1.09-.54,2.26-.54,3.47Z"/>
      </g>
      <path class="cls-8" d="M210.03,319.49v-34.65c0-6.88,5.6-12.48,12.48-12.48h58.96c6.88,0,12.48,5.6,12.48,12.48v34.65c0,6.88-5.6,12.48-12.48,12.48h-58.96c-6.88,0-12.48-5.6-12.48-12.48Zm12.48-41.94c-4.02,0-7.29,3.27-7.29,7.29v34.65c0,4.02,3.27,7.29,7.29,7.29h58.96c4.02,0,7.29-3.27,7.29-7.29v-34.65c0-4.02-3.27-7.29-7.29-7.29h-58.96Z"/>
      <ellipse class="cls-12" cx="231.57" cy="302.17" rx="9.1" ry="9.45"/>
      <path class="cls-2" d="M222.47,302.17c0,.64,.06,1.27,.18,1.88,.84-4.33,4.52-7.59,8.93-7.59s8.08,3.26,8.92,7.59c.12-.61,.18-1.23,.18-1.88,0-5.22-4.07-9.45-9.1-9.45s-9.1,4.24-9.1,9.45Z"/>
      <path class="cls-7" d="M222.47,302.16c0,5.22,4.08,9.45,9.1,9.45s9.1-4.23,9.1-9.45c0-.88-.12-1.73-.33-2.53-1.07,3.98-4.6,6.91-8.77,6.91s-7.7-2.93-8.77-6.91c-.21,.8-.33,1.66-.33,2.53Z"/>
      <path class="cls-8" d="M220.53,302.17c0-6.29,4.96-11.4,11.05-11.4,6.09,0,11.05,5.11,11.05,11.4s-4.96,11.4-11.05,11.4c-6.09,0-11.05-5.11-11.05-11.4Zm3.9,0c0,4.14,3.21,7.5,7.15,7.5s7.15-3.37,7.15-7.5-3.21-7.5-7.15-7.5-7.15,3.37-7.15,7.5Z"/>
      <path class="cls-8" d="M257.36,331.97c1.43,0,2.6-1.16,2.6-2.6v-16.63c0-3.3,1.51-6.45,4.03-8.43l1.46-1.14c3.77-2.95,6.03-7.63,6.03-12.52v-15.7c0-1.43-1.16-2.6-2.6-2.6s-2.6,1.16-2.6,2.6v15.7c0,3.3-1.51,6.45-4.03,8.43l-1.46,1.14c-3.77,2.95-6.03,7.63-6.03,12.52v16.63c0,1.43,1.16,2.6,2.6,2.6Z"/>
    </g>
    <path class="cls-8" d="M281.84,386.69c10.36,0,21.94-1.87,32.82-7.71,1.26-.68,1.74-2.25,1.06-3.52-.68-1.26-2.25-1.74-3.52-1.06-27.37,14.68-60.94,1.75-61.27,1.61-1.33-.53-2.84,.13-3.37,1.46-.53,1.33,.13,2.84,1.46,3.37,.92,.36,15.07,5.84,32.81,5.84Z"/>
    <path class="cls-8" d="M218.17,386.69c17.73,0,31.87-5.47,32.8-5.84,1.33-.53,1.99-2.04,1.46-3.37-.53-1.33-2.04-1.98-3.37-1.46h0c-.34,.13-33.87,13.07-61.24-1.61-1.26-.68-2.84-.2-3.52,1.06-.68,1.26-.2,2.84,1.06,3.52,10.88,5.84,22.46,7.71,32.81,7.71Z"/>
    <path class="cls-2" d="M275.38,356.48s-10.29,4.6-25.36,4.6c-15.08,0-25.41-4.6-25.41-4.6,0,0,6.83-5.4,25.41-5.4,18.58,0,25.36,5.4,25.36,5.4Z"/>
    <path class="cls-8" d="M278.65,354.89c-2.3,.66-4.75,1.26-7.15,1.73-2.42,.5-4.85,.9-7.28,1.24-2.44,.29-4.88,.61-7.33,.73-1.22,.09-2.45,.14-3.67,.2-1.22,.05-2.45,.04-3.67,.06-2.45-.03-4.9-.07-7.35-.28-2.45-.12-4.89-.45-7.33-.74l-1.83-.26-1.82-.3c-1.22-.2-2.43-.42-3.64-.68-2.41-.47-4.86-1.06-7.16-1.71l-.07-.02c-.69-.19-1.41,.21-1.6,.9-.17,.59,.11,1.2,.62,1.49,2.36,1.3,4.74,2.22,7.2,3.09,2.46,.82,4.96,1.53,7.5,2.06,1.27,.27,2.54,.52,3.83,.71,1.28,.2,2.57,.38,3.86,.51,2.58,.27,5.18,.37,7.79,.41,5.2-.04,10.4-.55,15.47-1.64,2.54-.53,5.04-1.24,7.5-2.06,2.46-.86,4.84-1.78,7.2-3.08,.63-.35,.86-1.14,.51-1.77-.3-.54-.93-.79-1.5-.63l-.07,.02Z"/>
    <g class="cls-13">
      <path class="cls-8" d="M187,205.61c13.03,16.51,36.37,30.01,62.99,30.01s49.97-13.52,63-30.04c-2.93-1.25-6.15-1.93-9.54-1.93h-106.85c-3.41,0-6.65,.69-9.59,1.96Z"/>
    </g>
    <g class="cls-6">
      <path class="cls-8" d="M175.84,449.55c.04,.38,1.02,15.21,40.61,13.73,16.78-.63,26.33-3.84,30.41-12.68,1.43-3.1,2.23-9.74,2.66-16.68l.37-26.59,.63,26.59c.43,6.93,1.23,13.58,2.66,16.68,4.09,8.83,13.63,12.04,30.41,12.68,39.59,1.48,40.57-13.35,40.61-13.73,.21-2.06-.04-3.96-.6-5.69-1.43,2.36-5.71,5.75-18.26,7.48-20.37,2.79-42.25,.31-45.96-13.24-2.79-10.19-7.39-64.98,8.09-71.59,23.94-10.23,32.73-18.46,26.07-19.78-3.38-.68-12.3,2.13-43.52,2.13-31.23,0-40.14-2.81-43.52-2.13-6.66,1.33,2.13,9.55,26.07,19.78,15.48,6.61,10.88,61.4,8.09,71.59-3.71,13.54-25.59,16.03-45.96,13.24-12.55-1.73-16.83-5.12-18.26-7.48-.56,1.74-.81,3.64-.6,5.69Z"/>
    </g>
    <g>
      <path class="cls-2" d="M157.47,159.35h0c1.08,0,1.95-.88,1.94-1.96l-.22-56.13c0-1.08-.88-1.95-1.96-1.94h0c-11.29,.04-20.41,9.23-20.36,20.53l.08,19.14c.04,11.29,9.23,20.41,20.53,20.36Z"/>
      <path class="cls-8" d="M136.47,138.99l-.08-19.14c-.02-5.59,2.13-10.84,6.07-14.81,3.93-3.97,9.18-6.16,14.76-6.18h0c1.33,0,2.41,1.08,2.42,2.41l.22,56.13c0,1.33-1.07,2.42-2.41,2.43h-.08c-11.49,0-20.86-9.33-20.91-20.83Zm20.99,19.89c.82,0,1.48-.67,1.48-1.49l-.22-56.13c0-.82-.67-1.48-1.48-1.48h0c-5.34,.02-10.34,2.12-14.1,5.91-3.76,3.79-5.82,8.81-5.79,14.15l.08,19.14c.04,10.99,9,19.9,19.98,19.9,.03,0,.05,0,.08,0h0Z"/>
    </g>
    <g class="cls-5">
      <path class="cls-8" d="M136.91,130.01l.03,8.98c.05,11.29,9.24,20.41,20.53,20.37,1.08,0,1.94-.88,1.94-1.96l-.05-14.92c-.3,.68-.98,1.15-1.77,1.16h-1.33c-8.92,.04-16.54-5.65-19.35-13.62Z"/>
    </g>
    <path class="cls-8" d="M134.34,139l-.08-19.14c-.02-6.15,2.35-11.95,6.68-16.32,4.33-4.37,10.11-6.79,16.27-6.81h.02c2.5,0,4.54,2.03,4.55,4.53l.22,56.13c0,1.21-.46,2.36-1.32,3.22-.85,.86-1.99,1.34-3.21,1.34h0s-.06,0-.09,0c-12.66,0-22.99-10.28-23.04-22.95Zm5.12-19.16l.08,19.14c.04,9.62,7.73,17.46,17.27,17.77l-.22-54.81c-9.54,.38-17.17,8.28-17.13,17.9Z"/>
    <g>
      <path class="cls-2" d="M342.51,98.58h0c-1.08,0-1.95,.88-1.94,1.96l.22,56.13c0,1.08,.88,1.95,1.96,1.94h0c11.29-.04,20.41-9.23,20.36-20.53l-.08-19.14c-.04-11.29-9.23-20.41-20.53-20.36Z"/>
      <path class="cls-8" d="M340.32,156.67l-.22-56.13c0-.65,.25-1.25,.7-1.71,.45-.46,1.06-.71,1.7-.71h.08c11.49,0,20.86,9.33,20.91,20.83l.08,19.14c.02,5.59-2.13,10.84-6.07,14.81-3.93,3.97-9.18,6.16-14.76,6.18h0c-1.33,0-2.41-1.08-2.42-2.41Zm2.19-57.62h0c-.4,0-.77,.16-1.05,.44-.28,.28-.43,.65-.43,1.05l.22,56.13c0,.82,.67,1.48,1.48,1.48h0c5.34-.02,10.34-2.12,14.1-5.91,3.76-3.79,5.82-8.81,5.79-14.15l-.08-19.14c-.04-10.99-9-19.9-19.98-19.9-.03,0-.05,0-.08,0Z"/>
    </g>
    <g class="cls-5">
      <path class="cls-8" d="M340.72,141.1l.06,15.57c0,1.08,.88,1.94,1.96,1.94,5.93-.03,11.26-2.57,14.98-6.62,3.36-3.66,5.4-8.55,5.38-13.91l-.03-8.07c-3.18,7.09-10.3,12.05-18.58,12.08h-2.05c-.75,0-1.39-.4-1.73-1.01Z"/>
    </g>
    <path class="cls-8" d="M338.19,156.68l-.22-56.13c0-1.21,.46-2.36,1.32-3.22,.86-.86,1.99-1.34,3.21-1.34,.03,0,.06,0,.09,0,12.66,0,22.99,10.28,23.04,22.95l.08,19.14c.02,6.15-2.35,11.95-6.68,16.32-4.33,4.37-10.11,6.79-16.27,6.81h-.02c-2.5,0-4.53-2.03-4.55-4.53Zm5.19-.68c4.52-.18,8.75-2.03,11.95-5.26,3.36-3.38,5.2-7.87,5.18-12.64l-.08-19.14c-.04-9.62-7.73-17.46-17.27-17.77l.22,54.81Z"/>
    <g>
      <circle class="cls-2" cx="249.98" cy="128.96" r="95.66"/>
      <path class="cls-8" d="M187.29,201.83c-19.46-16.74-31.24-40.07-33.17-65.67l.47-.03-.47,.03c-3.97-52.85,35.8-99.08,88.65-103.05,52.85-3.96,99.08,35.8,103.05,88.65,3.97,52.85-35.8,99.08-88.65,103.05-2.46,.18-4.91,.28-7.35,.28-22.97,0-44.94-8.12-62.54-23.26ZM242.85,34.04c-52.34,3.93-91.72,49.71-87.79,102.05,1.9,25.35,13.57,48.45,32.84,65.03,19.28,16.58,43.86,24.66,69.21,22.76,52.34-3.93,91.72-49.71,87.79-102.05-3.75-49.93-45.57-88.06-94.85-88.06-2.38,0-4.79,.09-7.2,.27Z"/>
    </g>
    <g class="cls-5">
      <path class="cls-8" d="M154.51,122.86c-.28,4.36-.26,8.79,.08,13.27,3.96,52.68,49.88,92.18,102.55,88.22,52.68-3.96,92.18-49.87,88.22-102.55-.11-1.51-.26-3.03-.45-4.52-2.94,46.92-40.1,85.66-88.3,89.28-51.16,3.84-95.94-33.31-102.11-83.71Z"/>
    </g>
    <path class="cls-8" d="M152,136.32l2.59-.19-2.59,.19c-4.06-54.02,36.59-101.28,90.62-105.33,54.02-4.06,101.28,36.59,105.33,90.62,4.06,54.02-36.59,101.28-90.62,105.33-2.49,.19-4.97,.28-7.43,.28-50.86,0-94.04-39.36-97.91-90.9ZM243.01,36.17c-51.17,3.84-89.67,48.6-85.83,99.77,1.86,24.79,13.26,47.37,32.11,63.58,18.84,16.21,42.87,24.11,67.66,22.25,51.17-3.84,89.67-48.6,85.83-99.77-3.67-48.81-44.55-86.09-92.73-86.09-2.33,0-4.68,.09-7.04,.26Z"/>
    <path class="cls-9" d="M155.08,138.56c1.12,18.68,8.22,35.67,19.46,49.4,8.42,10.29,41.52,27.21,81.02,25.2,36.62-1.86,68.76-23.38,75.89-34.6,9.51-14.97,14.54-32.68,13.42-51.37-2.96-49.45-46.67-67.4-99.08-64.26-52.41,3.14-93.66,26.19-90.7,75.63Z"/>
    <path class="cls-8" d="M172.53,189.6c-11.99-14.66-18.92-32.26-20.04-50.89-1.46-24.29,7.16-43.61,25.62-57.41,16.09-12.03,39.43-19.28,67.51-20.96,28.08-1.68,52.12,2.73,69.53,12.75,19.97,11.5,30.84,29.65,32.3,53.94,1.12,18.63-3.66,36.93-13.82,52.92-7.5,11.81-39.96,33.87-77.95,35.8-2.3,.12-4.56,.17-6.8,.17-38.63,0-68.49-16.71-76.35-26.32Zm73.41-124.08c-27.75,1.66-91.9,12.1-88.26,72.88l-2.59,.16,2.59-.16c1.05,17.53,7.58,34.1,18.88,47.91,7.5,9.17,39.31,26.26,78.87,24.25,35.69-1.82,67.04-22.71,73.83-33.4,9.57-15.06,14.07-32.29,13.02-49.82-1.34-22.44-11.34-39.18-29.7-49.75-14.2-8.18-33.21-12.41-55.45-12.41-3.64,0-7.37,.11-11.18,.34Z"/>
    <g class="cls-3">
      <ellipse class="cls-2" cx="185.52" cy="129.99" rx="12.27" ry="16.93" transform="translate(-25.51 47.64) rotate(-13.7)"/>
    </g>
    <g class="cls-3">
      <ellipse class="cls-2" cx="202.52" cy="162.56" rx="6.67" ry="7.77" transform="translate(-45.68 86.15) rotate(-21.64)"/>
    </g>
    <g class="cls-1">
      <path class="cls-11" d="M170.77,91.32c-10.94,11.76-16.88,27.37-15.69,47.23,1.12,18.69,8.23,35.67,19.45,49.4,8.42,10.29,41.52,27.21,81.02,25.2,13.95-.71,27.24-4.27,38.75-9.03-48.6,1.43-88.93-19.35-99.38-32.11-14.26-17.43-23.27-38.98-24.69-62.69-.38-6.34-.18-12.33,.53-18Z"/>
    </g>
    <path class="cls-8" d="M160.65,97.3c.64,0,1.27-.23,1.77-.71l.24-.23,.19-.29c14.71-23.47,44.96-38.24,83.02-40.53,38.26-2.29,70.06,9.18,87.25,31.47l.22,.25c.98,1.04,2.61,1.07,3.65,.08,1-.95,1.07-2.53,.19-3.58-18.26-23.63-51.65-35.81-91.62-33.42-39.72,2.38-71.46,18.02-87.07,42.9-.65,.98-.57,2.32,.27,3.22,.51,.54,1.2,.82,1.89,.82Z"/>
    <g class="cls-3">
      <path class="cls-2" d="M325.31,157.87s12.39-49.7-15.06-67.56c-27.45-17.86-65.27-15.52-64.24-13.14,0,0,42.48,7.63,60.84,39.75,14.16,24.77,18.46,40.96,18.46,40.96Z"/>
    </g>
    <rect class="cls-4" x="84.75" y="163.18" width="89.98" height="56.51" rx="7.14" ry="7.14" transform="translate(-90.01 263.48) rotate(-74.02)"/>
    <path class="cls-10" d="M97.06,228.88l40.6,11.63c3.79,1.08,7.74-1.11,8.83-4.9l20.84-72.78c.77-2.69-.11-5.46-2.03-7.22,0,.04-.01,.08-.03,.12l-20.84,72.78c-1.08,3.79-5.04,5.99-8.83,4.9l-40.6-11.63c-1.11-.32-2.08-.88-2.87-1.61-1.01,3.75,1.18,7.64,4.93,8.71Z"/>
    <path class="cls-8" d="M136.95,243l-40.6-11.62c-5.16-1.48-8.16-6.88-6.68-12.04l20.84-72.78c.72-2.5,2.36-4.57,4.64-5.83,2.27-1.26,4.9-1.56,7.4-.85l40.6,11.62c2.5,.72,4.57,2.36,5.83,4.64,1.26,2.27,1.56,4.9,.85,7.4l-20.84,72.78c-.72,2.5-2.36,4.57-4.64,5.83-1.47,.81-3.08,1.23-4.71,1.23-.9,0-1.81-.13-2.69-.38Zm-19.29-97.74c-1.06,.59-1.83,1.56-2.16,2.72l-20.84,72.78c-.69,2.41,.71,4.93,3.12,5.62l-.71,2.5,.71-2.5,40.6,11.62c1.17,.33,2.39,.19,3.46-.4,1.06-.59,1.83-1.56,2.16-2.72l20.84-72.78c.33-1.17,.19-2.39-.4-3.46-.59-1.06-1.56-1.83-2.72-2.16l-40.6-11.62c-.41-.12-.84-.18-1.26-.18-.76,0-1.51,.19-2.2,.57Z"/>
    <path class="cls-8" d="M136.95,243l-40.6-11.62c-5.16-1.48-8.16-6.88-6.68-12.04l20.84-72.78c.72-2.5,2.36-4.57,4.64-5.83,2.27-1.26,4.9-1.56,7.4-.85l40.6,11.62c2.5,.72,4.57,2.36,5.83,4.64,1.26,2.27,1.56,4.9,.85,7.4l-20.84,72.78c-.72,2.5-2.36,4.57-4.64,5.83-1.47,.81-3.08,1.23-4.71,1.23-.9,0-1.81-.13-2.69-.38Zm-19.29-97.74c-1.06,.59-1.83,1.56-2.16,2.72l-20.84,72.78c-.69,2.41,.71,4.93,3.12,5.62l-.71,2.5,.71-2.5,40.6,11.62c1.17,.33,2.39,.19,3.46-.4,1.06-.59,1.83-1.56,2.16-2.72l20.84-72.78c.33-1.17,.19-2.39-.4-3.46-.59-1.06-1.56-1.83-2.72-2.16l-40.6-11.62c-.41-.12-.84-.18-1.26-.18-.76,0-1.51,.19-2.2,.57Z"/>
    <path class="cls-8" d="M137.3,227.63l-33.11-9.48c-2.69-.77-4.25-3.59-3.48-6.28l16.95-59.21c.77-2.69,3.58-4.25,6.28-3.48l33.11,9.48c2.69,.77,4.25,3.59,3.48,6.28l-16.95,59.21c-.37,1.3-1.23,2.38-2.42,3.04-.76,.42-1.6,.64-2.45,.64-.47,0-.94-.07-1.4-.2Zm-16.13-73.96l-16.95,59.21c-.21,.75,.22,1.54,.97,1.75l33.11,9.48c.36,.11,.75,.06,1.08-.12,.33-.18,.57-.49,.67-.85l16.95-59.21c.22-.75-.22-1.54-.97-1.75l-33.11-9.48c-.13-.04-.26-.06-.39-.06-.62,0-1.18,.41-1.36,1.03Z"/>
    <path class="cls-2" d="M158.51,193.64s-15.3,1.97-15.3,12.36c0,7.04,6.61,8.62,13.33,7.32,7.88-1.53,12.83-15.41,1.97-19.68Z"/>
    <g class="cls-13">
      <path class="cls-8" d="M143.21,206.01c0,7.04,6.6,8.62,13.33,7.32,5.58-1.08,9.68-8.34,7.76-14.01-1.13,3.8-4.14,7.11-7.76,7.82-5.62,1.09-11.15,.16-12.81-4.26-.32,.95-.51,1.99-.51,3.14Z"/>
    </g>
    <path class="cls-8" d="M143.99,213.75c-1.54-1.27-3.37-3.64-3.37-7.74,0-12.53,16.84-14.84,17.56-14.94l.66-.09,.62,.24c5.43,2.13,8.37,6.72,7.87,12.27-.55,6.02-4.97,11.34-10.29,12.37-1.62,.31-3.16,.47-4.61,.47-3.45,0-6.36-.88-8.44-2.59Zm1.82-7.74c0,1.69,.48,2.91,1.48,3.73,1.68,1.39,4.95,1.77,8.75,1.03,3.03-.59,5.77-4.07,6.11-7.75,.2-2.15-.36-5.01-3.97-6.69-2.65,.49-12.38,2.76-12.38,9.68Z"/>
    <g>
      <path class="cls-2" d="M98.51,192.12s14.82,7,11.69,17.01c-2.23,7.14-11.76,7.14-16.29,2.48-4.86-5.01-7.03-14.63,4.59-19.5Z"/>
      <g class="cls-13">
        <path class="cls-8" d="M93.92,211.62c4.52,4.65,14.05,4.65,16.28-2.49,.6-1.92,.54-3.73,.05-5.4-3.19,5.19-11.35,4.78-15.42,.58-1.66-1.71-3.01-3.97-3.59-6.39-2.69,4.73-.63,10.28,2.68,13.69Z"/>
      </g>
      <path class="cls-8" d="M92.05,213.43c-2.84-2.92-5.49-7.94-4.41-13.24,.64-3.15,2.88-7.53,9.86-10.46l1.07-.45,1.05,.49c.69,.33,16.83,8.11,13.06,20.14-1.15,3.66-3.98,6.28-7.79,7.19-.98,.23-1.99,.35-3,.35-3.65,0-7.35-1.46-9.84-4.02Zm.68-12.2c-.56,2.74,.64,6.11,3.04,8.59,1.92,1.97,5.17,2.9,7.91,2.24,1.42-.34,3.27-1.25,4.04-3.69,2-6.4-6.32-11.69-9.3-13.35-3.26,1.59-5.17,3.68-5.69,6.21Z"/>
    </g>
    <g>
      <path class="cls-2" d="M103.05,176.54s14.82,7,11.69,17.01c-2.23,7.14-11.76,7.14-16.29,2.48-4.86-5.01-7.03-14.63,4.59-19.5Z"/>
      <g class="cls-13">
        <path class="cls-8" d="M98.46,196.04c4.52,4.65,14.05,4.65,16.28-2.49,.6-1.92,.54-3.73,.05-5.4-3.19,5.19-11.35,4.78-15.42,.58-1.66-1.71-3.01-3.97-3.59-6.39-2.69,4.73-.63,10.28,2.68,13.69Z"/>
      </g>
      <path class="cls-8" d="M96.59,197.85c-2.84-2.92-5.49-7.94-4.41-13.24,.64-3.15,2.88-7.53,9.86-10.46l1.07-.45,1.05,.49c.69,.33,16.83,8.11,13.06,20.14-1.15,3.66-3.98,6.28-7.79,7.19-.98,.23-1.99,.35-3,.35-3.65,0-7.35-1.46-9.84-4.02Zm.68-12.2c-.56,2.74,.64,6.11,3.04,8.59,1.92,1.97,5.17,2.89,7.91,2.24,1.42-.34,3.27-1.25,4.04-3.69,2-6.4-6.32-11.69-9.3-13.35-3.26,1.59-5.17,3.68-5.69,6.21Z"/>
    </g>
    <g>
      <path class="cls-2" d="M108.89,161.61s14.82,7,11.69,17.01c-2.23,7.14-11.76,7.14-16.29,2.48-4.86-5.01-7.03-14.63,4.59-19.5Z"/>
      <g class="cls-13">
        <path class="cls-8" d="M104.3,181.11c4.52,4.65,14.05,4.65,16.28-2.49,.6-1.92,.54-3.73,.05-5.4-3.19,5.19-11.35,4.78-15.42,.58-1.66-1.71-3.01-3.97-3.59-6.39-2.69,4.73-.63,10.28,2.68,13.69Z"/>
      </g>
      <path class="cls-8" d="M102.44,182.92c-2.84-2.92-5.49-7.94-4.41-13.24,.64-3.15,2.88-7.53,9.86-10.46l1.07-.45,1.05,.49c.69,.33,16.82,8.11,13.06,20.14-1.15,3.66-3.99,6.28-7.79,7.19-.98,.23-1.99,.35-3,.35-3.65,0-7.35-1.46-9.84-4.02Zm.68-12.2c-.56,2.74,.64,6.11,3.04,8.59,1.92,1.97,5.17,2.89,7.91,2.24,1.42-.34,3.27-1.25,4.04-3.69,2-6.4-6.32-11.69-9.3-13.35-3.26,1.59-5.17,3.68-5.69,6.21Z"/>
    </g>
    <path class="cls-8" d="M139.21,283.38c10.57,0,18.65-3.54,24.02-10.53,13.73-17.86,4.45-51.84,4.05-53.28-.39-1.38-1.82-2.19-3.2-1.8-1.38,.39-2.19,1.82-1.8,3.2,.09,.33,8.99,32.93-3.17,48.72-4.42,5.75-11.3,8.61-20.44,8.49-1.43,0-2.61,1.13-2.63,2.56-.02,1.43,1.13,2.61,2.56,2.63,.2,0,.4,0,.6,0Z"/>
    <rect class="cls-8" x="113.89" y="225.25" width="8.87" height="4.17" rx="1.35" ry="1.35" transform="translate(170.61 478.23) rotate(-164.28)"/>
  </g>
  <g>
    <path class="cls-8" d="M241.75,242.8h0s-12.85,0-12.85,0l5.29,5.29h7.14c1.03,0,1.86,.87,1.86,1.94s-.83,1.94-1.86,1.94h-4.35l5.25,5.27c3.59-.27,6.42-3.39,6.42-7.22s-3.08-7.23-6.89-7.24Z"/>
    <polygon class="cls-8" points="235.48 251.98 230.78 251.98 230.29 251.98 229.39 251.98 228.39 251.98 234.18 257.8 235.06 257.8 240.81 263.7 247.15 263.7 240.73 257.25 235.48 251.98"/>
  </g>
  <g>
    <path class="cls-8" d="M139.08,178.2h0s-15.14-4.26-15.14-4.26l4.47,7.99,.94,.27,.2,.06,7.27,2.05c1.21,.34,1.9,1.64,1.54,2.91s-1.62,2.02-2.83,1.68l-4.21-1.19-.91-.26,4.43,7.95c4.31,.88,8.68-1.87,9.95-6.38s-1.24-9.54-5.72-10.81Z"/>
    <polygon class="cls-8" points="128.65 186.94 123.11 185.38 122.54 185.22 121.47 184.92 120.29 184.59 125.18 193.37 126.22 193.66 131.04 202.52 138.5 204.62 133.08 194.9 128.65 186.94"/>
  </g>
</svg>