<svg id="Layer_1" data-name="Layer 1" xmlns="http://www.w3.org/2000/svg" viewBox="0 0 356.17 100"><defs><style>.cls-1{fill:#fff;}</style></defs><path class="cls-1" d="M36.94,27.33H67.16A9.06,9.06,0,0,1,76,36.59a9.06,9.06,0,0,1-8.84,9.27H46.44L71.44,71C88.52,69.72,102,54.81,102,36.59c0-19-14.7-34.44-32.84-34.49H7.94L33.13,27.33Z"/><polygon class="cls-1" points="39.29 45.86 16.88 45.86 14.56 45.86 10.25 45.86 5.47 45.86 33.07 73.6 37.27 73.59 61.52 98.47 91.63 98.47 64.29 70.99 39.29 45.86"/><polygon class="cls-1" points="108.19 98.54 160.83 98.54 160.83 80.51 126.41 80.51 126.41 55.14 160.83 55.14 160.83 37.51 126.41 37.51 126.41 20.07 160.83 20.07 160.83 2.1 108.19 2.1 108.19 98.54"/><polygon class="cls-1" points="208.62 70.61 184.35 2.1 165.48 2.1 199.64 98.54 217.34 98.54 252.09 2.1 233.24 2.1 208.62 70.61"/><path class="cls-1" d="M336.76,16.55q-14-14-33.33-14a47.81,47.81,0,0,0-41.31,23.84,47.32,47.32,0,0,0-6.34,24.09,47.2,47.2,0,0,0,13.61,33.77Q283,98.44,303.55,98.44a45.32,45.32,0,0,0,33.39-13.85q13.77-13.84,13.76-33.83Q350.7,30.59,336.76,16.55ZM324.62,72.67a28.31,28.31,0,0,1-21.07,8.94,29.75,29.75,0,0,1-19.38-6.89q-10.89-8.82-10.88-24,0-13.6,8.64-22.41a29.92,29.92,0,0,1,42.63.21,30.52,30.52,0,0,1,8.76,22.07A30.37,30.37,0,0,1,324.62,72.67Z"/></svg>