<?xml version="1.0" encoding="UTF-8"?>
<svg id="Layer_1" data-name="Layer 1" xmlns="http://www.w3.org/2000/svg" viewBox="0 0 500 500">
  <defs>
    <style>
      .cls-1 {
        opacity: .7;
      }

      .cls-2 {
        fill: #f4f4f4;
      }

      .cls-3 {
        fill: #fff;
      }

      .cls-4 {
        opacity: .5;
      }

      .cls-5 {
        opacity: .6;
      }

      .cls-6 {
        fill: #fbfbfb;
      }

      .cls-7 {
        fill: #353535;
      }

      .cls-8 {
        fill: #030b2f;
      }

      .cls-9 {
        fill: #292929;
      }

      .cls-10 {
        fill: #919191;
      }

      .cls-11 {
        opacity: .25;
      }
    </style>
  </defs>
  <g>
    <path class="cls-6" d="M179.19,328.98c.32,10.13,10.76,11.71,11.23,12.02s115.49,9.33,131.31,8.39c1.24-.08,2.39-.17,3.47-.29,2.25-.25,4.16-.59,5.79-.99,5.21-1.25,8.98-5.79,9.22-11.14l.18-3.9,.76-16.97-161.43-7.21s-.85,9.97-.54,20.09Z"/>
    <path class="cls-7" d="M318.65,351.99c1.31,0,2.4-.02,3.24-.07,3.77-.23,7.12-.7,9.98-1.41,6.12-1.52,10.59-7.04,10.88-13.42l.93-20.87c.06-1.4-1.02-2.58-2.42-2.64-1.38-.06-2.58,1.02-2.64,2.42l-.93,20.87c-.19,4.16-3.08,7.75-7.04,8.74-2.56,.64-5.61,1.06-9.06,1.27-15.03,.9-123.46-7.42-130.5-8.32-.16-.05-.33-.1-.53-.16-5.79-1.63-8.68-4.73-8.83-9.49-.31-9.85,.52-19.7,.53-19.8,.12-1.39-.91-2.62-2.31-2.74-1.4-.11-2.62,.91-2.74,2.31-.04,.41-.86,10.23-.54,20.39,.15,4.92,2.45,11.37,12.52,14.2,.14,.04,.25,.07,.32,.09,0,0-.03,0-.06-.02,.89,.32,3.63,.54,19.28,1.77,12.74,1,27.84,2.13,41.43,3.09,25.28,1.79,56.39,3.79,68.5,3.79Z"/>
    <path class="cls-6" d="M317.1,198.67l13.28,.32c7.4,.18,13.45,5.95,13.98,13.33l2.59,36.15,1.66,46.76v15.17c0,2.92-2.26,5.35-5.18,5.55l-14.73,1.01-148.04-7.94c-3.02-.16-5.35-2.7-5.26-5.73l1.24-39.75c.1-3.3,2.59-6.03,5.86-6.44l2.96-.37,2.44-22.19,76.57-5.56,12.31-16.58"/>
    <path class="cls-7" d="M328.7,319.48c.06,0,.12,0,.17,0l14.73-1.01c4.23-.29,7.54-3.84,7.54-8.07v-15.17s0-.06,0-.09l-1.66-46.76s0-.06,0-.09l-2.39-33.34c-.74-10.33-9.1-18.3-19.45-18.55l-10.47-.25c-1.39-.03-2.56,1.07-2.59,2.47-.03,1.4,1.07,2.56,2.47,2.59l10.47,.25c7.73,.18,13.97,6.14,14.52,13.85l2.38,33.3,1.66,46.67v15.13c0,1.59-1.24,2.91-2.82,3.02l-14.58,1-147.88-7.93c-1.63-.09-2.92-1.49-2.87-3.12l1.23-39.75c.06-2.06,1.6-3.75,3.65-4.01l2.96-.37c1.16-.15,2.07-1.07,2.2-2.24l2.21-20.09,74.47-5.4c.73-.05,1.41-.42,1.85-1.02l12.31-16.58c.83-1.12,.6-2.71-.52-3.54-1.12-.83-2.71-.6-3.54,.52l-11.62,15.65-75.41,5.47c-1.22,.09-2.2,1.03-2.33,2.25l-2.22,20.2-.98,.12c-4.54,.57-7.94,4.3-8.08,8.87l-1.23,39.75c-.14,4.36,3.3,8.1,7.65,8.33l148.04,7.94s.09,0,.14,0Z"/>
    <path class="cls-6" d="M117.49,160.48c9.02,19.14,19.93,18.51,19.93,18.51,0,0,31.04,56.96,58.32,73.41,0,0-3.1,52.84-3.73,77.52-.59,23.16-9.83,75.31-10.96,81.64-.08,.42-.11,.63-.11,.63,0,0-6.06-.11-11.08,3.9-4.25,3.39-7.74,9.73-6.18,21.57,.48,3.63,3.21,6.55,6.8,7.23,9.68,1.82,31.01,4.46,58.27-.32,2.94-.51,5.15-2.96,5.33-5.94,.78-12.26,3.08-43.6,6.45-53.03,3.95-11.07,12.36-26.6,13.39-28.5,.07-.13,.11-.19,.11-.19,0,.39,.01,.78,.02,1.17,.46,25.4-1.09,50.43-4.4,75.13-.94,6.99,4.2,13.32,11.23,13.83,16.58,1.21,42.44,.72,54.3,.31,1.59-.05,2.97-1.13,3.39-2.67,1.06-3.87,2.42-11.33-.7-17.18-2.25-4.22-6.83-7.59-15.52-8.16,17.21-35.91,27.21-77.4,29.74-124.67,0,0,32.7,6.44,36.5-15.4,3.8-21.83-34.81-68.98-56.96-73.09-9.89-1.84-25.5,.08-39.76,2.76-17.68,3.32-33.27,7.83-33.27,7.83-12.73-3.26-24.74-9.32-35.22-18.01-12.44-10.32-22.72-24.35-29.47-41.83-5.41-12.45-6.39-31.85-27.35-26.58,0,0-7.81-9.71-17.72-2.85,0,0-3.12,2.12-6.38,5.85h0c-5.06,5.8-10.45,15.47-4.96,27.11Z"/>
    <path class="cls-7" d="M260.68,449.59c-4.1-.3-7.78-2.22-10.38-5.41-2.6-3.2-3.72-7.2-3.18-11.28,2.94-21.93,4.44-44.04,4.46-65.85-2.91,5.77-6.51,13.33-8.68,19.42-3.33,9.32-5.67,42.42-6.3,52.34-.27,4.15-3.32,7.55-7.42,8.27-27.38,4.8-48.82,2.25-59.17,.31-4.66-.88-8.22-4.65-8.84-9.38-1.24-9.43,.4-16.75,4.88-21.77,4.19-4.69,9.72-6.03,12.74-6.41,1.81-10.22,10.13-58.28,10.69-79.95,.57-22.11,3.14-67.3,3.65-76.11-25.3-16.32-52.57-63.94-57.26-72.35-3.77-.56-13.03-3.63-20.66-19.84-9.83-20.86,11.99-35.98,12.19-36.12,8.46-5.85,16.24-1.67,20.04,2.13,17.95-3.74,22.44,9.85,26.06,20.84,.89,2.7,1.73,5.24,2.73,7.54,.01,.03,.03,.06,.04,.1,11.41,29.53,34.09,50.68,62.3,58.13,6.37-1.8,52.18-14.42,73.53-10.45,13.18,2.45,29.16,17.52,39.73,30.82,13.93,17.53,21.13,34.43,19.26,45.2-.99,5.67-3.79,10.13-8.34,13.26-9.01,6.19-22.44,5.37-28.27,4.63-2.69,44.62-12.21,84.84-28.32,119.64,5.8,1,10.13,3.45,12.88,7.31,4.84,6.8,3.33,15.95,2,20.8-.72,2.62-3.03,4.44-5.75,4.53-2.08,.07-13.92,.45-27.32,.45-9.23,0-19.21-.18-27.24-.77Zm71.88-157.38c.17,.03,17.52,3.32,27.3-3.4,3.43-2.36,5.46-5.61,6.21-9.94,1.58-9.09-5.58-25.25-18.24-41.18-12.56-15.8-26.96-27.18-36.69-28.99-21.3-3.96-71.36,10.38-71.87,10.53-.44,.13-.89,.13-1.33,.02-30.1-7.7-54.31-30.05-66.41-61.33-1.08-2.49-1.99-5.25-2.87-7.92-3.69-11.19-6.88-20.85-21.51-17.17-.95,.24-1.96-.1-2.58-.86-.66-.8-6.63-7.68-14.33-2.35-.19,.13-18.47,12.8-10.47,29.79,8.07,17.14,17.5,17.06,17.5,17.06,.99-.06,1.9,.46,2.37,1.32,.31,.56,31.02,56.54,57.4,72.45,.8,.49,1.27,1.38,1.22,2.32-.03,.53-3.1,53.08-3.73,77.44-.63,24.59-10.69,80.3-11.11,82.66-.22,1.21-1.28,2.08-2.5,2.08,0,0-.02,0-.02,0-.02-.02-6.76-.01-11.11,4.91-3.43,3.87-4.64,9.83-3.6,17.7,.34,2.56,2.25,4.6,4.76,5.07,10.01,1.88,30.77,4.34,57.36-.32,1.79-.31,3.13-1.8,3.24-3.61,.83-12.93,3.14-44.04,6.59-53.72,4.24-11.87,13.28-28.36,13.67-29.06,.55-1,1.71-1.51,2.82-1.24,1.11,.27,1.9,1.26,1.93,2.41,.51,25.32-.98,51.12-4.41,76.69-.36,2.68,.38,5.32,2.09,7.42,1.7,2.1,4.12,3.36,6.81,3.55,19.42,1.42,50.54,.42,54.02,.31,.49-.02,.91-.34,1.04-.81,.88-3.21,2.52-11.25-1.24-16.53-2.37-3.33-6.65-5.22-12.71-5.62-.84-.06-1.6-.52-2.02-1.25-.42-.73-.46-1.61-.1-2.37,17.09-35.65,27.01-77.27,29.5-123.71,.04-.73,.39-1.41,.97-1.86,.45-.35,1-.53,1.56-.53,.16,0,.32,.02,.49,.05Z"/>
    <g>
      <path class="cls-3" d="M354.37,117.85l9.54,4.79c5.59,2.8,8.88,8.75,8.3,14.97l-2.71,28.77c-.67,7.08-6.16,12.74-13.22,13.62l-12.85,1.6"/>
      <path class="cls-3" d="M195.74,102.91l-10.27,2.92c-6.01,1.71-10.36,6.94-10.95,13.16l-2.71,28.77c-.67,7.08,3.68,13.67,10.44,15.85l12.33,3.97"/>
      <g class="cls-11">
        <path class="cls-7" d="M343.43,181.6l12.85-1.6c7.05-.88,12.55-6.55,13.21-13.62l1.54-16.33c-.67,7.08-6.17,12.74-13.21,13.62l-11.57,1.44-2.83,16.49Z"/>
      </g>
      <g class="cls-11">
        <path class="cls-7" d="M173.36,131.43l-1.54,16.33c-.67,7.08,3.67,13.67,10.44,15.85l12.33,3.97,.29-16.74-11.09-3.57c-6.77-2.18-11.11-8.77-10.44-15.85Z"/>
      </g>
      <circle class="cls-3" cx="273.06" cy="136.39" r="87.46"/>
      <g class="cls-11">
        <path class="cls-7" d="M264.86,223.47c19.95,1.88,38.96-3.1,54.7-13-9.25,2.27-19.02,3.06-29.03,2.11-48.09-4.53-83.41-47.18-78.88-95.28,2.66-28.14,18.37-51.92,40.59-65.88-35.17,8.61-62.67,38.68-66.26,76.77-4.53,48.09,30.79,90.75,78.88,95.28Z"/>
      </g>
      <path class="cls-8" d="M185.71,131.05c-3.6,38.28,32.46,72.98,80.55,77.51,43.85,4.13,82.56-18.25,91.77-51.25,.9-3.19,1.52-6.48,1.83-9.86,3.6-38.28-32.46-72.97-80.55-77.5-36.14-3.4-68.78,11.2-84.31,34.9h0c-5.14,7.85-8.4,16.69-9.29,26.2Z"/>
      <g class="cls-1">
        <path class="cls-9" d="M185.71,131.05c-3.6,38.28,32.46,72.98,80.55,77.51,43.85,4.13,82.56-18.25,91.77-51.25-.56-.88-.89-1.36-.89-1.36-46.8,62.5-166.68,22.81-162.14-51.08-5.14,7.84-8.4,16.68-9.29,26.19Z"/>
      </g>
      <path class="cls-7" d="M264.62,225.99c-23.93-2.25-45.55-13.69-60.88-32.21-15.33-18.52-22.53-41.89-20.28-65.83,2.25-23.93,13.69-45.55,32.21-60.88,18.52-15.33,41.89-22.53,65.83-20.28,49.4,4.65,85.81,48.63,81.16,98.03-2.25,23.93-13.69,45.55-32.21,60.88-16.29,13.49-36.34,20.68-57.23,20.68-2.85,0-5.72-.13-8.6-.41Zm-45.72-155.02c-17.47,14.47-28.27,34.87-30.4,57.46-2.13,22.59,4.67,44.65,19.14,62.12,14.47,17.47,34.87,28.27,57.46,30.4,2.72,.26,5.42,.38,8.11,.38,19.71,0,38.64-6.79,54.01-19.52,17.47-14.47,28.27-34.87,30.4-57.46,4.39-46.62-29.97-88.13-76.6-92.52-2.72-.26-5.42-.38-8.11-.38-19.71,0-38.64,6.79-54.01,19.52Z"/>
      <path class="cls-7" d="M360.27,145.83c1.35,0,2.51-1.03,2.64-2.4,1.93-20.44-5.66-40.52-21.35-56.53-15.58-15.89-37.31-25.88-61.19-28.13-49.45-4.66-92.94,25.74-96.9,67.77-.14,1.46,.93,2.75,2.39,2.89,1.45,.14,2.75-.93,2.89-2.39,3.68-39.11,44.54-67.37,91.12-62.98,22.64,2.13,43.2,11.57,57.9,26.56,14.58,14.88,21.64,33.46,19.86,52.32-.14,1.46,.93,2.75,2.39,2.89,.08,0,.17,.01,.25,.01Z"/>
      <path class="cls-7" d="M343.42,184.14c.1,0,.21,0,.32-.02l12.85-1.6c8.3-1.03,14.64-7.57,15.42-15.9l2.71-28.77c.69-7.32-3.11-14.18-9.68-17.47l-9.54-4.78c-1.25-.63-2.77-.12-3.4,1.13-.63,1.25-.12,2.77,1.13,3.4l9.54,4.79c4.69,2.35,7.4,7.25,6.91,12.47l-2.71,28.77c-.56,5.94-5.09,10.61-11.01,11.35l-12.85,1.6c-1.39,.17-2.37,1.44-2.2,2.83,.16,1.28,1.25,2.22,2.51,2.22Z"/>
      <path class="cls-7" d="M194.59,170.12c1.07,0,2.06-.68,2.41-1.76,.43-1.33-.3-2.76-1.63-3.19l-12.33-3.97c-5.68-1.83-9.26-7.26-8.7-13.2l2.71-28.77c.49-5.22,4.07-9.53,9.12-10.96l10.27-2.92c1.34-.38,2.12-1.78,1.74-3.13-.38-1.35-1.78-2.13-3.13-1.74l-10.27,2.92c-7.07,2.01-12.08,8.04-12.77,15.36l-2.71,28.77c-.78,8.33,4.23,15.93,12.19,18.5l12.33,3.97c.26,.08,.52,.12,.78,.12Z"/>
      <g class="cls-4">
        <path class="cls-3" d="M220.21,173.39c-7.66-38.84,8.67-67.79,45.66-88.24-62.92,11.07-78.79,59.71-45.66,88.24Z"/>
      </g>
      <g class="cls-4">
        <path class="cls-3" d="M327.74,145.58c-.42,4.86-1.58,11.92-4.67,19.56-1.59,3.93,.18,8.41,4.01,10.21h0c3.43,1.61,7.53,.6,9.8-2.43,5.73-7.65,9.76-17.07,9.27-27.08-.28-5.65-5.66-9.66-11.19-8.44h0c-3.93,.86-6.87,4.17-7.21,8.18Z"/>
      </g>
      <g class="cls-4">
        <path class="cls-3" d="M320.82,106.42h0c-2.1,2.15-2.56,5.41-1.15,8.06l3.73,6.97c1.6,2.99,5.14,4.36,8.34,3.24l.52-.18c3.95-1.38,5.79-5.96,3.83-9.66-1.18-2.23-2.74-4.85-4.78-7.65-2.5-3.45-7.51-3.82-10.49-.77Z"/>
      </g>
    </g>
    <g>
      <path class="cls-10" d="M342.08,189.96l.21,2.13,.39,3.88c.49,4.99,3.63,9.34,8.23,11.32,2.95,1.27,5.91,2.5,8.88,3.68,14.28,5.71,28.83,10.44,43.6,14.24,4.7,1.21,9.42,2.32,14.16,3.34,2.61,.56,5.3,.57,7.87,.01,2.05-.43,4.02-1.22,5.83-2.35,18.25-11.52,22.12-52.11,4.99-69.02-4.4-4.35-10.73-6.13-16.81-4.94-4.09,.8-8.18,1.69-12.23,2.69-16.28,4-32.25,9.61-47.93,16.71h0c-3.2,1.44-6.38,2.95-9.55,4.52-5.16,2.56-8.21,8.06-7.64,13.79Z"/>
      <g class="cls-5">
        <path class="cls-3" d="M342.08,189.96l.17,1.76c.79-4.2,3.51-7.89,7.47-9.85,3.17-1.57,6.35-3.08,9.55-4.51h0c15.68-7.11,31.64-12.71,47.93-16.71,4.06-1,8.14-1.89,12.23-2.69,6.08-1.18,12.4,.59,16.81,4.94,6.92,6.83,10.4,17.5,10.9,28.59,.59-13-2.81-26.29-10.9-34.28-4.4-4.35-10.73-6.13-16.81-4.94-4.09,.8-8.18,1.69-12.23,2.69-16.28,4-32.25,9.61-47.93,16.71h0c-3.2,1.44-6.38,2.95-9.55,4.52-5.16,2.56-8.21,8.06-7.64,13.79Z"/>
      </g>
      <path class="cls-2" d="M342.08,189.96l.59,6.01c.49,4.99,3.63,9.34,8.23,11.32,2.95,1.27,5.91,2.5,8.88,3.68-10.87-11.11-8.1-33.74-.52-39.32-3.2,1.44-6.38,2.94-9.55,4.51-5.16,2.56-8.21,8.06-7.64,13.79Z"/>
      <path class="cls-7" d="M417.01,231.03c-23.07-4.96-45.65-12.17-67.11-21.41-5.43-2.34-9.16-7.47-9.75-13.4l-.6-6.01c-.67-6.75,2.96-13.3,9.04-16.31,23.15-11.45,46.82-19.57,70.35-24.14,7-1.36,14.13,.75,19.07,5.63,8.76,8.65,13.1,24.1,11.34,40.33-1.61,14.82-7.87,27.02-16.76,32.63h0c-3.28,2.07-7.17,3.15-11.1,3.15-1.5,0-3-.16-4.49-.48Zm12.89-6.96c7.48-4.72,13.01-15.79,14.43-28.89,1.6-14.73-2.18-28.59-9.87-36.18-3.76-3.71-9.19-5.3-14.55-4.26-23.09,4.48-46.33,12.45-69.07,23.7-4.2,2.08-6.71,6.61-6.25,11.27l.6,6.01c.41,4.1,2.98,7.64,6.72,9.25,21.16,9.12,43.42,16.22,66.17,21.11,4.09,.88,8.4,.15,11.82-2.01h0Z"/>
      <path class="cls-7" d="M403.39,227.43c.54,0,1.09-.2,1.51-.6,.89-.84,.94-2.24,.1-3.13-8.01-8.54-12.1-24.72-10.2-40.26,1.51-12.33,6.47-22.04,13.59-26.64,1.03-.66,1.32-2.03,.66-3.06-.66-1.03-2.03-1.32-3.06-.66-8.23,5.31-13.91,16.18-15.59,29.82-2.09,17.04,2.37,34.24,11.36,43.83,.44,.46,1.03,.7,1.62,.7Z"/>
      <path class="cls-10" d="M381.54,212.53c-8.86-5.91-18.14-.12-18.14-.12l.25,8.51,4.49,2.8"/>
      <ellipse class="cls-2" cx="424.92" cy="190.44" rx="14.34" ry="28.27"/>
      <g class="cls-5">
        <path class="cls-3" d="M409.42,194.47c0,15.61,6.42,28.27,14.35,28.27,5.77,0,10.74-6.71,13.01-16.39-2.58,7.46-6.93,12.35-11.86,12.35-7.92,0-14.35-12.65-14.35-28.26,0-4.22,.47-8.23,1.32-11.83-1.56,4.52-2.47,9.98-2.47,15.87Z"/>
      </g>
      <path class="cls-7" d="M359.78,213.19c.56,0,1.12-.21,1.55-.63,.88-.86,.89-2.26,.04-3.13-4.76-4.87-7.17-13.01-6.44-21.78,.54-6.51,2.76-12.09,5.67-14.22,.99-.72,1.2-2.11,.48-3.1-.72-.99-2.11-1.2-3.1-.48-3.96,2.9-6.82,9.58-7.47,17.43-.83,10.03,2.05,19.47,7.69,25.24,.43,.44,1.01,.67,1.58,.67Z"/>
      <path class="cls-10" d="M412.55,176.13l8.28,1.82c4.47,.98,7.65,4.94,7.65,9.52v2.97c0,4.29-2.81,8.08-6.92,9.33l-9.58,2.9"/>
      <g class="cls-5">
        <path class="cls-3" d="M412.46,180.24l5.87,1.29c4.47,.98,7.66,4.94,7.66,9.52v2.97c0,1.28-.25,2.51-.71,3.64,1.99-1.81,3.21-4.4,3.21-7.23v-2.97c0-4.58-3.19-8.54-7.66-9.52l-8.28-1.82-.09,4.11Z"/>
      </g>
      <path class="cls-7" d="M408.36,190.44c0-17.09,7.27-30.48,16.56-30.48s16.56,13.39,16.56,30.48-7.27,30.48-16.56,30.48-16.56-13.39-16.56-30.48Zm4.43,0c0,15.58,6.27,26.05,12.13,26.05,5.86,0,12.13-10.47,12.13-26.05,0-15.58-6.27-26.05-12.13-26.05-5.86,0-12.13,10.47-12.13,26.05Z"/>
      <path class="cls-7" d="M411.98,204.87c.21,0,.43-.03,.64-.1l9.58-2.9c5.08-1.54,8.5-6.14,8.5-11.45v-2.97c0-5.57-3.95-10.49-9.39-11.68l-8.28-1.82c-1.2-.26-2.38,.49-2.64,1.69-.26,1.19,.49,2.38,1.69,2.64l8.28,1.82c3.43,.75,5.91,3.85,5.91,7.35v2.97c0,3.34-2.15,6.24-5.35,7.21l-9.58,2.9c-1.17,.35-1.83,1.59-1.48,2.76,.29,.96,1.17,1.57,2.12,1.57Z"/>
      <path class="cls-7" d="M423.16,176.99c-.19,.07-.3,.12-.42,.18-.12,.06-.24,.11-.34,.17-.22,.12-.44,.23-.64,.37-.42,.25-.8,.54-1.17,.83-.73,.61-1.41,1.28-1.96,2.06-1.13,1.53-1.73,3.38-1.83,5.14,0,.44-.02,.88-.01,1.31l.17,1.27c.04,.42,.16,.83,.27,1.23l.34,1.19c.32,.76,.62,1.51,.96,2.23l1.16,2.09-.64-2.28c-.16-.77-.27-1.54-.4-2.29l-.05-1.14c-.02-.38-.04-.75,.02-1.12l.11-1.09,.26-1.03c.41-1.34,1.15-2.47,2.13-3.29,.47-.42,1.04-.74,1.6-1.03,.3-.12,.58-.25,.88-.34,.15-.06,.29-.09,.44-.12,.07-.02,.14-.03,.21-.04,.07-.01,.14-.03,.14-.01l-1.21-4.26Z"/>
      <path class="cls-7" d="M363.65,223.44s.05,0,.08,0c1.4-.04,2.5-1.21,2.46-2.6l-.2-6.93c2.52-1.15,8.45-3.09,14.16,.72,1.16,.78,2.74,.46,3.51-.7,.78-1.16,.46-2.73-.7-3.51-10.11-6.74-20.45-.44-20.88-.17-.76,.48-1.22,1.32-1.19,2.22l.25,8.51c.04,1.37,1.16,2.46,2.53,2.46Z"/>
      <g class="cls-11">
        <path class="cls-7" d="M412.46,174.77s27.62,6.75,21.45,32.7c0,0,12.04-11,0-39.04,0,0-9.85-17.02-21.46,6.34Z"/>
      </g>
      <g class="cls-11">
        <path class="cls-7" d="M342.29,192.09l.39,3.88c.49,4.99,3.63,9.34,8.23,11.32,2.95,1.27,5.91,2.5,8.88,3.68,1.21,.48,2.41,.96,3.63,1.42,.3-.18,9.42-5.69,18.13,.13l-5.41,4.52c8.99,3.09,18.08,5.81,27.26,8.17,4.7,1.21,9.42,2.32,14.16,3.34,2.61,.56,5.3,.57,7.87,.01l.44-1.59s-19.99,2.43-22.97-27.61c-.35-3.55-3.38-6.23-6.94-6.08l-43.1,1.77s-7.23,1.18-10.56-2.96Z"/>
      </g>
      <path class="cls-2" d="M337.44,255.88c2.01,10.25,7.61,17.44,15.9,22.32,4.78,2.82,10.45,4.88,16.85,6.32l12.97-23.42s2.03-1.08,4.58-3.83c.23-.25,.47-.51,.72-.79,2.05-2.37,4.35-5.78,6.2-10.5,1.25-3.19,2.29-6.98,2.92-11.46,1.21-8.68-.92-14.09-3.78-17.45-3.75-4.42-9.97-5.77-15.42-3.77-5.68,2.09-8.54,5.54-9.54,9.57-.38,1.52-.49,3.13-.37,4.78-10.94-20.99-24.9-3.68-18.04,18.1l-12.97,10.13Z"/>
      <path class="cls-10" d="M369.98,234.54s-1.64,7.37-8.29,8.84v8.83c0,4.02,3.39,7.2,7.4,6.95l2.83-.17c3.8-.23,6.71-3.48,6.53-7.29l-.16-3.25"/>
      <path class="cls-7" d="M369.63,286.99c-20.19-4.55-31.54-14.56-34.68-30.62-.18-.94,.18-1.89,.93-2.48l11.62-9.07c-3.89-14.25,.49-25.8,7.09-28.53,2.15-.89,7.05-1.86,12.29,4.34,1.27-3.41,4.17-7.33,10.61-9.7,6.57-2.41,13.89-.6,18.22,4.5,4.03,4.74,5.49,11.28,4.35,19.44-2.62,18.77-12.3,26.28-15.02,28.04l-12.65,22.83c-.45,.82-1.31,1.31-2.21,1.31-.18,0-.37-.02-.56-.06Zm9.61-71.3c-4.55,1.67-7.16,4.29-8,8-.25,1.13-.34,2.32-.29,3.53,.03,.19,.04,.38,.04,.57,.6,7.6,6.43,16.26,10.66,20.58,.98,1,.96,2.6-.04,3.58-1,.98-2.6,.96-3.58-.04-4.91-5.01-11.21-14.54-12.05-23.51-3.13-5.82-6.64-8.59-9.46-7.43-4.16,1.72-7.58,11.7-3.7,24.03,.32,1.01-.02,2.11-.86,2.76l-11.72,9.15c3.02,12.54,12.42,20.64,28.65,24.71l12.04-21.73c.23-.42,.59-.77,1.01-1,.43-.24,10.49-5.99,13.1-24.7,.93-6.66-.15-11.87-3.2-15.46-2.08-2.45-5.19-3.78-8.43-3.78-1.39,0-2.81,.24-4.18,.75Z"/>
      <path class="cls-7" d="M368.67,261.71c.19,0,.39,0,.58-.02l2.83-.17c5.16-.32,9.15-4.78,8.9-9.93l-.16-3.25c-.07-1.4-1.24-2.47-2.65-2.41-1.4,.07-2.47,1.25-2.41,2.65l.16,3.25c.11,2.41-1.75,4.49-4.16,4.64l-2.83,.17c-1.24,.07-2.41-.35-3.31-1.2-.9-.85-1.4-1.99-1.4-3.23v-6.98c6.47-2.62,8.15-9.82,8.23-10.15,.3-1.36-.56-2.72-1.92-3.02-1.36-.3-2.71,.55-3.02,1.91-.06,.26-1.43,5.83-6.37,6.93-1.16,.26-1.98,1.28-1.98,2.47v8.83c0,2.61,1.09,5.13,2.99,6.92,1.76,1.66,4.11,2.58,6.51,2.58Z"/>
      <polygon class="cls-7" points="363.38 242.13 355.89 238.85 360.01 245.91 363.38 242.13"/>
      <g class="cls-11">
        <path class="cls-7" d="M427.97,193.54s-8.4,4.7-10.23-6.46l-7.12,1.07,1.59,15.42,9.34-3.82"/>
      </g>
      <g class="cls-11">
        <path class="cls-7" d="M353.34,278.2c4.78,2.82,10.45,4.88,16.85,6.32l12.97-23.42s2.03-1.08,4.58-3.83c.23-.25,.47-.51,.72-.79,2.05-2.37,4.35-5.78,6.2-10.5-21.5-9.8-20.8-29.19-20.8-29.19l-5.01,6.08c-.28,1.87-.27,3.73,.12,5.76,.77,4.04,3.03,8.72,7.37,15.38,.54,.82,1.08,1.61,1.62,2.37,.76,1.06,1.52,2.06,2.27,2.99l-1.76,2.33-2.37,5.57-8.42,1.84-14.33,19.09Z"/>
      </g>
      <g class="cls-11">
        <path class="cls-7" d="M367.67,228.04c-.84,1.11-12.57,11.47-18.25-.59l-1.26,10.4s3.4,7.44,3.64,7.59,10.51-1.68,10.84-2.06c.33-.37,5.18-4.17,5.41-4.54,.24-.37,.58-5.19,.58-5.19"/>
      </g>
    </g>
    <path class="cls-6" d="M222.17,274.66l-26.65-1.06c-2.98-.12-5.57,2-6.06,4.93l-1.48,8.9c-.56,3.37,1.84,6.51,5.23,6.85l28.96,2.95"/>
    <path class="cls-6" d="M298.96,277.4c1.3,.16,22.19,.95,31.67,1.31,2.58,.1,4.61,2.21,4.61,4.79v11.78c0,2.69-2.21,4.85-4.9,4.79l-31.38-.73"/>
    <path class="cls-7" d="M222.17,299.76c1.28,0,2.38-.97,2.52-2.28,.14-1.39-.87-2.63-2.26-2.77l-28.96-2.95c-.94-.1-1.77-.56-2.34-1.31-.57-.75-.8-1.67-.65-2.61l1.48-8.9c.28-1.68,1.77-2.89,3.47-2.82l26.65,1.06c1.4,.06,2.57-1.03,2.63-2.43,.06-1.4-1.03-2.57-2.43-2.63l-26.65-1.06c-4.27-.16-7.96,2.86-8.66,7.05l-1.48,8.9c-.38,2.29,.21,4.66,1.62,6.51s3.54,3.04,5.85,3.28l28.96,2.95c.09,0,.17,.01,.26,.01Z"/>
    <path class="cls-7" d="M330.45,302.6c1.92,0,3.73-.74,5.11-2.09,1.42-1.39,2.21-3.25,2.21-5.24v-11.78c0-3.96-3.1-7.17-7.05-7.32-18.67-.7-30.43-1.18-31.46-1.29-1.38-.15-2.64,.84-2.8,2.22-.16,1.38,.81,2.63,2.19,2.8,1.03,.13,11.76,.57,31.89,1.32,1.22,.05,2.17,1.04,2.17,2.26v11.78c0,.61-.24,1.19-.68,1.62-.44,.43-1.05,.67-1.63,.64l-31.38-.73c-1.38-.02-2.56,1.07-2.59,2.47-.03,1.4,1.07,2.56,2.47,2.59l31.38,.73c.06,0,.12,0,.17,0Z"/>
    <path class="cls-6" d="M215.84,301.39c-.3,7.35,5.42,13.54,12.76,13.83l58.98,2.36c7.34,.3,13.54-5.42,13.83-12.76l.53-13.07,.82-20.62c.29-7.35-5.42-13.54-12.76-13.83l-58.98-2.36c-1.85-.08-3.63,.23-5.25,.85-4.83,1.84-8.35,6.42-8.58,11.92l-1.35,33.69Z"/>
    <path class="cls-7" d="M287.48,320.11l-58.98-2.36h0c-8.73-.35-15.54-7.73-15.19-16.46l1.35-33.69c.35-8.73,7.72-15.55,16.46-15.19l58.98,2.36c8.73,.35,15.54,7.73,15.19,16.46l-1.35,33.69c-.34,8.51-7.37,15.21-15.82,15.21-.21,0-.43,0-.64-.01Zm-58.89-4.89h0Zm-8.88-47.42l-1.35,33.69c-.24,5.94,4.4,10.96,10.34,11.2l58.98,2.36c5.92,.22,10.96-4.4,11.2-10.34l1.35-33.69c.24-5.94-4.4-10.96-10.34-11.2l-58.98-2.36c-.15,0-.29,0-.44,0-5.75,0-10.53,4.55-10.76,10.35Z"/>
    <path class="cls-7" d="M260.56,317.8c1.22,0,2.21-.99,2.21-2.21v-19.43c0-3.35-1.52-6.46-4.16-8.51l-8.57-6.67c-1.56-1.21-2.45-3.04-2.45-5.02v-19.22c0-1.22-.99-2.21-2.21-2.21s-2.21,.99-2.21,2.21v19.22c0,3.35,1.52,6.46,4.16,8.51l8.57,6.67c1.56,1.21,2.45,3.04,2.45,5.02v19.43c0,1.22,.99,2.21,2.21,2.21Z"/>
    <ellipse class="cls-10" cx="283.37" cy="280.56" rx="8.71" ry="9.45"/>
    <path class="cls-7" d="M272.78,280.56c0-6.24,4.75-11.32,10.58-11.32,5.84,0,10.58,5.08,10.58,11.32s-4.75,11.32-10.58,11.32c-5.84,0-10.58-5.08-10.58-11.32Zm3.74,0c0,4.18,3.07,7.57,6.84,7.57s6.84-3.4,6.84-7.57-3.07-7.57-6.84-7.57-6.84,3.4-6.84,7.57Z"/>
    <path class="cls-7" d="M293.68,345.96c-6.84,2.63-13.66,4.86-20.62,6.09-6.94,1.26-13.97,1.55-20.91,.85-6.95-.69-13.8-2.35-20.5-4.7-6.71-2.34-13.22-5.37-19.82-8.57,5.41,4.94,11.6,9.07,18.31,12.25,6.71,3.17,14.01,5.32,21.51,6.05,7.49,.75,15.14,.05,22.32-2.03,7.18-2.08,13.89-5.49,19.7-9.95Z"/>
    <path class="cls-7" d="M319.56,228.98c1.28,4.09,2.3,8.22,3.21,12.37,.23,1.04,.46,2.07,.66,3.11,.21,1.04,.43,2.07,.6,3.12,.18,1.04,.4,2.08,.57,3.12l.5,3.13c.63,4.17,1.16,8.35,1.56,12.53,.12,1.04,.26,2.08,.34,3.13l.34,3.13c.24,2.08,.42,4.17,.76,6.26l.02,.1c.22,1.38,1.53,2.32,2.91,2.1,1.25-.2,2.14-1.29,2.13-2.51-.02-4.34-.41-8.66-1.15-12.94l-.58-3.2c-.22-1.06-.47-2.12-.7-3.17-.23-1.06-.49-2.11-.77-3.15-.28-1.05-.52-2.1-.82-3.14-1.17-4.16-2.53-8.27-4.09-12.29-1.58-4.01-3.32-7.96-5.47-11.68Z"/>
    <path class="cls-7" d="M209.51,219.81c-1.97,2.39-3.71,4.97-5.34,7.62-1.62,2.66-3.13,5.4-4.48,8.22-1.34,2.83-2.61,5.71-3.67,8.68-.57,1.47-1.04,2.98-1.53,4.48-.49,1.5-.88,3.04-1.33,4.56-.39,1.35,.38,2.76,1.73,3.15,1.35,.39,2.76-.38,3.15-1.73,.03-.11,.06-.21,.07-.32l.02-.15c.22-1.49,.4-2.99,.66-4.47,.28-1.48,.52-2.98,.87-4.45,.62-2.97,1.46-5.89,2.37-8.8,.93-2.91,2.03-5.77,3.25-8.58,1.24-2.81,2.59-5.58,4.22-8.2Z"/>
    <path class="cls-7" d="M149.18,201.2c.05,0,.11,0,.16,0,25.87-1.6,36.26-22.72,36.69-23.62,.6-1.26,.07-2.77-1.19-3.38-1.26-.6-2.77-.07-3.37,1.19-.4,.82-9.63,19.35-32.43,20.76-1.4,.09-2.46,1.29-2.37,2.68,.08,1.34,1.2,2.38,2.52,2.38Z"/>
    <path class="cls-7" d="M145.55,128.04c-.48,.2-.71,.32-1.04,.49-.29,.16-.58,.32-.85,.51-.28,.18-.54,.36-.79,.56-.26,.19-.51,.39-.74,.6-.49,.41-.92,.87-1.36,1.33-.4,.48-.82,.96-1.16,1.48-1.45,2.05-2.4,4.39-2.89,6.75-.23,1.18-.42,2.36-.45,3.54l-.05,.88v.85c.02,.57,0,1.13,.06,1.71,.15,2.28,.51,4.62,1.39,6.91l.34,.85,.43,.84c.14,.28,.3,.55,.49,.82,.18,.27,.34,.54,.55,.79,.78,1.04,1.82,1.97,3.06,2.61,1.24,.64,2.7,.91,4.09,.73,1.47-.19,2.68-.88,3.64-1.7,.97-.83,1.68-1.84,2.23-2.89,.54-1.06,.94-2.17,1.11-3.31,.19-1.13,.24-2.27,.1-3.38-.09-1.11-.41-2.18-.75-3.21-.06-.17-.24-.26-.4-.2-.15,.05-.23,.19-.21,.34v.02c.27,2.06,.13,4.14-.54,5.97-.66,1.82-1.82,3.46-3.28,4.37-.72,.46-1.5,.72-2.15,.69-.73-.02-1.41-.27-2.01-.68-1.22-.81-2.03-2.37-2.49-4.09-.48-1.73-.61-3.66-.54-5.6,.04-1.98,.26-3.87,.69-5.64,.45-1.77,1.15-3.41,2.11-4.84,.47-.72,1.02-1.38,1.62-1.98,.15-.15,.3-.3,.46-.43,.15-.15,.31-.28,.47-.4,.16-.13,.32-.25,.48-.37,.13-.1,.36-.24,.36-.26l-.4-3.72c-.07-.63-.63-1.09-1.27-1.02-.11,.01-.22,.04-.32,.08Z"/>
    <path class="cls-7" d="M136.43,145.54c0,.06-.05,.26-.08,.4l-.13,.47c-.1,.32-.21,.64-.33,.95-.24,.63-.53,1.25-.86,1.84-.66,1.18-1.5,2.27-2.56,3.11-1.05,.85-2.35,1.43-3.78,1.66-1.43,.21-2.98,.08-4.48-.3,1.35,.76,2.85,1.35,4.49,1.56,.82,.09,1.67,.09,2.52-.03,.85-.12,1.69-.36,2.5-.7,1.62-.67,3.07-1.73,4.3-2.96,.62-.62,1.19-1.28,1.72-1.97,.26-.35,.51-.71,.76-1.08l.35-.57c.12-.21,.22-.37,.36-.66l-4.76-1.73Z"/>
    <path class="cls-7" d="M285.78,404.92c1.86,0,3.75-.08,5.67-.24,11.89-.97,20.75-4.57,21.12-4.72,1.29-.53,1.91-2.01,1.38-3.3-.53-1.29-2.01-1.91-3.3-1.38h0c-.33,.14-33.77,13.47-55.42-6.27-1.03-.94-2.63-.87-3.58,.16-.94,1.03-.87,2.63,.17,3.58,8.78,8.01,20.44,12.17,33.96,12.17Z"/>
    <path class="cls-7" d="M222.71,400.91c8.96,0,15.48-1.67,16.07-1.83,1.35-.36,2.16-1.75,1.8-3.1-.36-1.35-1.75-2.15-3.09-1.8h0c-.3,.08-30.6,7.78-50.1-11.62-.99-.99-2.59-.98-3.58,0-.99,.99-.98,2.59,0,3.58,12.1,12.03,27.47,14.75,38.89,14.75Z"/>
    <path class="cls-7" d="M180.93,414.73c.09-.02,.34-.04,.53-.05,.2-.02,.42-.01,.63-.02,.43,0,.86,0,1.3,.02,.88,.03,1.78,.11,2.67,.23,1.79,.22,3.59,.59,5.38,1.05,1.78,.49,3.56,1.05,5.31,1.74,.89,.32,1.73,.73,2.61,1.09,.86,.39,1.7,.82,2.56,1.23-.74-.59-1.48-1.19-2.24-1.77-.78-.55-1.53-1.15-2.34-1.66-1.59-1.09-3.26-2.06-4.98-2.98-1.73-.89-3.53-1.7-5.4-2.38-.94-.34-1.89-.65-2.87-.91-.49-.14-.99-.25-1.5-.36-.26-.05-.51-.11-.78-.15-.28-.05-.5-.09-.88-.12l-.44-.04c-1.43-.12-2.69,.94-2.81,2.37-.12,1.43,.94,2.69,2.37,2.81,.3,.03,.6,0,.88-.07Z"/>
    <path class="cls-7" d="M301.73,416.91l-9.73,4.99,10.94-.07c1.44,0,2.59-1.18,2.58-2.62,0-1.44-1.18-2.59-2.62-2.58-.42,0-.82,.11-1.17,.29Z"/>
    <path class="cls-7" d="M195.34,261.83c1.12,0,2.15-.75,2.45-1.89,.35-1.35-.46-2.74-1.81-3.09l-9.88-2.58c-1.36-.35-2.74,.46-3.09,1.81-.35,1.35,.46,2.74,1.81,3.09l9.88,2.58c.21,.06,.43,.08,.64,.08Z"/>
    <g class="cls-11">
      <path class="cls-7" d="M344.61,271.05s-9.05,.02-16.81-14.32l2.82,17.98,1.87,5.06,1.9,4.75,1.81,10.75s20.81,6.02,29.51-10.75c0,0-10.57,.74-21.11-13.47Z"/>
    </g>
    <g class="cls-11">
      <path class="cls-7" d="M117.49,160.48c9.02,19.14,19.93,18.51,19.93,18.51,0,0,31.04,56.96,58.32,73.41,0,0-.57,9.7-1.27,22.73-1.69,.42-4.06,1.06-4.06,1.06,0,0-1.51,5.74-1.87,7.92-.36,2.17-.47,7.16,.92,8.28,1.19,.97,2.61,2.84,3.99,2.6-.63,12.77-1.2,25.79-1.44,34.94-.59,23.16-9.83,75.31-10.96,81.64,3.6,.39,7.16,.63,7.16,.63,0,0,5.38-47.15,12.34-68.03,3.78-11.34,3.75-24.82,2.94-34.77l5.33,1.23c3.73,25.63,50.69,17.61,66.3,15.08,15.61-2.53,16.05-8.47,16.05-8.47l-3.6,1.3-55.9-2.96-11.61-3.58-4.23-7.81v-6.96s-13.87,0-13.87,0c-.23-1.35-.39-2.09-.39-2.09-4.37-2.94-.27-21.3-.27-21.3l3.74-.23,2.16-50.27-2.87,5.16c-41.72-28.8-57.47-60.9-57.47-60.9-28.82-6.59-24.5-33.66-24.42-34.21-5.06,5.79-10.45,15.46-4.96,27.1Z"/>
    </g>
    <g class="cls-11">
      <path class="cls-7" d="M163.67,437.67c.48,3.63,3.21,6.55,6.8,7.23,9.68,1.82,31.01,4.46,58.27-.32,2.94-.51,5.15-2.96,5.33-5.94,.78-12.26,3.08-43.6,6.45-53.03,3.95-11.07,12.36-26.6,13.39-28.5l.43-1.47-12.34-3.1-10.29-1.11-14.27-8.2c.47,.46,18.14,18.04,11.58,41.12-6.64,23.4-2.37,55.68-33.86,54.49-31.5-1.2-25.32-22.76-25.32-22.76-4.25,3.39-7.74,9.73-6.18,21.57Z"/>
    </g>
    <g class="cls-11">
      <path class="cls-7" d="M260.86,447.06c16.58,1.21,42.44,.72,54.3,.31,1.59-.05,2.97-1.13,3.39-2.67,1.06-3.87,2.42-11.33-.7-17.18-.08,.05-.15,.11-.23,.17-31.33,24.36-50.83,10.82-51.58-22.47-.75-33.29,20.71-55.78,20.71-55.78l-32.41,6.2s-.11,.88-.3,2.45c.46,25.4-1.09,50.43-4.4,75.13-.94,6.99,4.2,13.32,11.23,13.83Z"/>
    </g>
    <g class="cls-11">
      <path class="cls-7" d="M215.84,301.39c-.3,7.35,5.42,13.54,12.76,13.83l58.98,2.36c7.34,.3,13.54-5.42,13.83-12.76l.53-13.07c-45.69,22.33-73.67,14.72-76.18-35.96-4.83,1.84-8.35,6.42-8.58,11.92l-1.35,33.69Z"/>
    </g>
    <g class="cls-11">
      <path class="cls-7" d="M335.24,293.38l-24.42-1.63s-7.39-1.53-8.6-7.22l-1.69,18.51v5.85s30.09,1.74,30.09,1.74l1.13-10.55,3.49-1.79"/>
    </g>
    <g class="cls-11">
      <path class="cls-7" d="M325.21,349.09c2.25-.25,4.16-.59,5.79-.99,5.21-1.25,8.98-5.79,9.22-11.14l.18-3.9c-4.62-.78-9.69-3.04-11.85-8.83l-3.34,24.86Z"/>
    </g>
    <g class="cls-11">
      <polyline class="cls-7" points="188.34 288.73 175.86 288.73 176.19 306.32 179.12 308.71 191.53 308.71 193.44 294.99 190.4 294.17"/>
    </g>
    <g class="cls-11">
      <path class="cls-7" d="M180.3,315.58c2.67,7.37,6.6,11.03,12.02,10.23l-1.11,15.5s-10.4-6.45-10.74-7.17c-.34-.72-1.44-7.38-1.28-8.65"/>
    </g>
    <g class="cls-11">
      <path class="cls-7" d="M202.59,198.67c6.23,50.51,85.29,57.12,112.51,16.72l-2.4-.35c-9.97,5.23-36.27,15.32-72.6,1.34-.97,.27-1.51,.42-1.51,.42-12.73-3.26-24.74-9.32-35.22-18.01l-.78-.11Z"/>
    </g>
  </g>
  <g>
    <path class="cls-7" d="M299.94,235.45h0s-12.85,0-12.85,0l5.29,5.29h7.14c1.03,0,1.86,.87,1.86,1.94s-.83,1.94-1.86,1.94h-4.35l5.25,5.27c3.59-.27,6.42-3.39,6.42-7.22s-3.08-7.23-6.89-7.24Z"/>
    <polygon class="cls-7" points="293.67 244.64 288.96 244.64 288.48 244.64 287.57 244.64 286.57 244.64 292.36 250.46 293.24 250.46 299 256.36 305.33 256.36 298.91 249.91 293.67 244.64"/>
  </g>
</svg>