<?xml version="1.0" encoding="UTF-8"?>
<svg id="Layer_1" data-name="Layer 1" xmlns="http://www.w3.org/2000/svg" xmlns:xlink="http://www.w3.org/1999/xlink" viewBox="0 0 500 500">
  <defs>
    <style>
      .cls-1 {
        fill: url(#linear-gradient-2);
      }

      .cls-2 {
        fill: #262626;
      }

      .cls-3 {
        fill: #fff;
      }

      .cls-4 {
        opacity: .5;
      }

      .cls-5 {
        fill: #323232;
      }

      .cls-6 {
        opacity: .35;
      }

      .cls-7 {
        fill: #353535;
      }

      .cls-8 {
        fill: #030b2f;
      }

      .cls-9 {
        fill: #bbb;
      }

      .cls-10 {
        fill: url(#linear-gradient);
      }

      .cls-11 {
        fill: #919191;
      }

      .cls-12 {
        opacity: .25;
      }
    </style>
    <linearGradient id="linear-gradient" x1="14379.24" y1="3952.78" x2="14378.36" y2="3872.3" gradientTransform="translate(-12886.01 -6581.82) rotate(12.9)" gradientUnits="userSpaceOnUse">
      <stop offset="0" stop-color="#454545"/>
      <stop offset="1" stop-color="#818181"/>
    </linearGradient>
    <linearGradient id="linear-gradient-2" x1="14332.28" y1="3970" x2="14331.35" y2="3883.47" gradientTransform="translate(-12877.18 -6600.61) rotate(12.97)" xlink:href="#linear-gradient"/>
  </defs>
  <g>
    <path class="cls-7" d="M172.24,203.45l-45.31,178.42c-.12,.49-.62,.79-1.12,.66-.49-.12-.78-.62-.67-1.1l42.76-179.05c.74-2.8,4.97-1.89,4.33,1.07h0Z"/>
    <path class="cls-7" d="M192.13,312.65l-11.58,50.64c-.13,.56-.68,.9-1.24,.78-.54-.12-.88-.65-.79-1.19l9.23-51.12c.63-2.93,4.94-2.08,4.37,.89h0Z"/>
    <path class="cls-7" d="M158.84,81.29c-14.45,51.02-30.29,109.45-45.41,160.13-.13,.42-.58,.65-1.01,.52-.4-.13-.63-.54-.54-.94,12.84-51.25,29.06-109.68,42.65-160.88,.82-2.78,5.01-1.75,4.3,1.18h0Z"/>
    <path class="cls-7" d="M336.3,329.25l-8.81,45.85c-.09,.45-.52,.75-.97,.66-.43-.08-.72-.49-.67-.93l6.05-46.29c.49-2.98,4.87-2.3,4.4,.71h0Z"/>
    <path class="cls-7" d="M323.67,324.04l-6.41,32.5c-.26,1.24-2.12,.96-1.99-.32,0,0,3.99-32.89,3.99-32.89,.47-3.01,4.89-2.32,4.4,.7h0Z"/>
    <g>
      <g>
        <path class="cls-10" d="M279.74,388.88c28.48,41.14-22.91,51.72-32.55,92.48,9.64-40.76-31.89-71.88,12.25-96.97"/>
        <path class="cls-7" d="M247.19,483.59c-.17,0-.34-.02-.51-.06-1.2-.28-1.94-1.48-1.66-2.68h0c3.63-15.37-.22-29.14-3.95-42.46-5.73-20.46-11.14-39.78,17.27-55.93,1.07-.61,2.43-.23,3.04,.84,.61,1.07,.23,2.43-.84,3.04-25.38,14.43-20.88,30.5-15.18,50.85,2.46,8.77,5.13,18.32,5.51,28.57,4.95-9.09,11.66-16.58,17.83-23.46,14.28-15.94,25.56-28.52,9.21-52.15-.7-1.01-.45-2.4,.56-3.1,1.01-.7,2.4-.45,3.1,.56,18.35,26.51,4.8,41.64-9.56,57.66-9.35,10.44-19.02,21.23-22.66,36.6,0,0,0,0,0,0-.24,1.03-1.16,1.72-2.17,1.72Z"/>
        <path class="cls-9" d="M273.38,386.78c6.63,5.17,7.5,11.12,6.68,17.56-2.01,15.74-15.91,20.41-22.41,32.77-.3-13.87-10.72-23.91-5.45-38.93,2.16-6.15,5.61-11.14,13.91-13.01"/>
        <path class="cls-1" d="M232.34,385.54c30.56,44.27-24.71,55.57-35.13,99.37,10.42-43.8-34.19-77.31,13.31-104.23"/>
        <path class="cls-7" d="M197.22,487.15c-.17,0-.34-.02-.52-.06-1.02-.24-1.71-1.16-1.71-2.17,0-.17,.02-.34,.06-.52,3.94-16.56-.2-31.39-4.19-45.74-6.11-21.94-11.88-42.65,18.57-59.91,1.07-.61,2.43-.23,3.04,.84,.61,1.07,.23,2.43-.84,3.04-27.42,15.54-22.59,32.88-16.47,54.84,2.67,9.6,5.59,20.07,5.9,31.3,5.35-10,12.72-18.19,19.47-25.71,15.42-17.17,27.61-30.73,9.99-56.25-.7-1.01-.44-2.4,.57-3.1,1.01-.7,2.4-.44,3.1,.57,19.62,28.42,5.07,44.62-10.34,61.77-10.08,11.22-20.51,22.83-24.45,39.39-.24,1.02-1.16,1.71-2.17,1.71Z"/>
        <path class="cls-9" d="M225.51,383.28c7.12,5.57,8.05,11.96,7.15,18.89-2.18,16.92-17.13,21.92-24.14,35.2-.3-14.91-11.49-25.72-5.81-41.86,2.33-6.61,6.05-11.96,14.97-13.97"/>
      </g>
      <g>
        <g>
          <path class="cls-3" d="M171.29,287.44c2.76,2.51,6.68,4.35,11.1,5.69,15.51,4.71,37.27,3.33,37.27,3.33l15.65-102.18,2.2-14.36c-1.58,.49-39.32,1.68-59.59,12.37-16.9,8.92-20.05,82.94-6.64,95.14Z"/>
          <g class="cls-12">
            <path class="cls-7" d="M171.29,287.44c2.76,2.51,6.68,4.35,11.1,5.69,.2,.06,.4,.12,.6,.18,.28,.08,.56,.16,.85,.24,.32,.09,.65,.18,.98,.26,.2,.05,.41,.1,.61,.16,.85,.2,1.71,.4,2.58,.58,.38,.08,.76,.15,1.13,.22,.11,.02,.22,.04,.33,.06,.26,.05,.52,.1,.78,.14,.09,.01,.18,.03,.27,.04,.43,.07,.86,.14,1.29,.21,.86,.13,1.72,.26,2.59,.37,.22,.03,.43,.06,.64,.08,.43,.05,.87,.1,1.29,.15,.21,.02,.43,.05,.64,.07,.21,.02,.43,.04,.64,.07,.51,.05,1.02,.1,1.53,.14,.25,.02,.49,.05,.74,.06,.93,.08,1.85,.14,2.75,.2,.21,.01,.41,.03,.61,.04,.1,0,.2,.01,.3,.02,.16,.01,.32,.02,.49,.03,.36,.02,.71,.04,1.05,.05,.36,.01,.71,.03,1.05,.04,.98,.04,1.93,.06,2.84,.08,.35,0,.71,.01,1.05,.02,.35,0,.7,.01,1.04,.01,.26,0,.52,0,.76,0,.38,0,.75,0,1.1,0,.15,0,.3,0,.44,0,3.85-.03,6.3-.18,6.3-.18l15.65-102.18c-1.38,.1-2.68,.2-3.86,.29-4.54,.37-7.45,.71-7.45,.71,0,0-22.99-3.43-26.47,5.12-5.59,13.73-7.6,23.18-12.53,44-.5,2.12-.97,4.23-1.4,6.32-1.03,5.05-7.16,7.17-10.99,3.73-.02-.02-.05-.04-.07-.07-4.55-4.14-7.19-15.4-8.04-28.82-3.38,24.52-1.33,54.51,6.78,61.88Z"/>
          </g>
          <g class="cls-12">
            <path class="cls-7" d="M233.65,180.3l-2.19,14.29c1.18-.1,2.48-.2,3.86-.29l2.2-14.36c-.28,.09-1.66,.19-3.87,.37Z"/>
          </g>
          <path class="cls-7" d="M212.04,298.9c-11.55,0-32.83-1.24-42.25-9.81-8.76-7.97-10.8-37.89-7.71-62.21,1.46-11.5,5.33-31.55,14.81-36.55,17.31-9.13,46.08-11.42,56.92-12.28,1.44-.11,2.81-.22,3.17-.28,1.14-.29,2.32,.37,2.67,1.51,.36,1.18-.3,2.42-1.47,2.79-.46,.14-1.03,.2-4.01,.43-9.57,.76-38.69,3.08-55.19,11.78-5.45,2.88-10.23,15.59-12.46,33.16-3.25,25.58-.37,52.3,6.29,58.35,11.59,10.55,46.38,8.47,46.73,8.45,1.24-.08,2.29,.86,2.37,2.08,.08,1.23-.85,2.29-2.08,2.37-.41,.03-3.39,.2-7.77,.2Zm24.91-121.12s-.06,.02-.09,.02c.03,0,.06-.02,.09-.02Z"/>
          <path class="cls-7" d="M175.52,192.2c7.74,.74,15.15,3.41,21.97,7.04-3.57-1.23-7.23-2.16-10.94-2.75-3.6-.54-7.36-.86-10.97-.58-2.66,.15-2.73-3.78-.06-3.72h0Z"/>
          <path class="cls-3" d="M163.43,245.59l18.51,2.46c1.65,.22,2.95,1.52,3.15,3.18,.74,6.06,1.73,20.15-4.37,24.43-5.06,3.56-12.9,2.65-17.28-1.51-4.9-4.66-4.62-18.4-4.15-25.19,.15-2.11,2.04-3.65,4.14-3.38Z"/>
          <g class="cls-12">
            <path class="cls-7" d="M185.09,251.23c.74,6.06,1.73,20.15-4.37,24.43-5.06,3.56-12.9,2.66-17.28-1.51-3.01-2.87-4.07-9.17-4.32-15.17,.67,3.03,1.84,5.53,3.39,7.21,8.85,9.64,16.46-.69,16.46-.69,0,0,1.06,2.68,2.02,2.88,4.01,.85,3.9-11.86,3.69-18.44,.22,.39,.36,.83,.42,1.3Z"/>
          </g>
          <path class="cls-7" d="M173.25,280.1c-4.14,0-8.34-1.48-11.34-4.33-5.21-4.94-5.5-17.39-4.84-26.96,.11-1.62,.9-3.13,2.15-4.15,1.26-1.02,2.89-1.49,4.5-1.28l18.51,2.46c2.66,.35,4.75,2.46,5.07,5.12,.96,7.84,1.55,21.71-5.3,26.53-2.5,1.76-5.61,2.61-8.75,2.61Zm-10.31-32.31c-.33,0-.64,.11-.9,.32-.31,.25-.49,.61-.52,1.01-.82,11.82,.47,20.58,3.46,23.41,3.76,3.57,10.39,4.17,14.47,1.3,4.19-2.94,4.52-13.47,3.44-22.34-.08-.64-.59-1.15-1.23-1.24l-18.51-2.46h0c-.06,0-.13-.01-.19-.01Z"/>
          <path class="cls-7" d="M170.73,276.31c5.58-2.67,7.64-9.25,8.27-15.05,.23-2.1,.43-4.24,.09-6.34,.59,2.06,.66,4.25,.69,6.39,.16,6.61-1.7,14.4-7.91,17.92-2.07,.95-3.31-2.21-1.15-2.92h0Z"/>
        </g>
        <g>
          <g>
            <path class="cls-3" d="M363.65,319.16c-.29,2.01-1.84,3.7-4.03,4.04-5.83,.89-12.39,.15-18.09-1,0,3.72-2.97,8.17-7.43,6.69-6.87-1.96-14.34-6.02-21-11.01-6-4.5-9.65-11.46-10.06-18.93-4.07-31.1-10.98-68.65-12.49-93.93-.96-15.99,.23-27.06,5.65-28.46,2.01,1.41,4.01,2.96,5.97,4.64,8.62,7.38,14.59,17.37,17.38,28.37l21.24,83.66c9.58,8.04,19.97,16.16,22.63,23.54,.29,.8,.36,1.62,.24,2.39Z"/>
            <path class="cls-7" d="M335.82,331.41c-.78,0-1.58-.13-2.38-.39-6.82-1.96-14.52-5.99-21.68-11.36-6.47-4.85-10.46-12.32-10.94-20.51-1.4-10.67-3.16-22.31-4.87-33.57-8.25-54.45-12.67-87.99-.31-91.18,.63-.16,1.3-.04,1.84,.33,2.1,1.48,4.17,3.08,6.14,4.77,8.86,7.59,15.11,17.79,18.09,29.52l21.06,82.96c.72,.61,1.45,1.21,2.18,1.82,9.23,7.69,17.94,14.96,20.56,22.21,.73,2.02,.53,4.22-.56,6.04-1.08,1.81-2.9,3.03-5,3.35-4.65,.71-10.21,.52-16.55-.58-.57,2.13-1.82,4.05-3.48,5.24-1.24,.89-2.64,1.34-4.11,1.34Zm-39.88-152.3c-2.01,1.46-4.37,7.12-3.12,26.63,1.05,16.36,4.35,38.13,7.54,59.18,1.71,11.3,3.48,22.99,4.89,33.74,0,.05,.01,.11,.02,.16,.39,6.9,3.73,13.2,9.17,17.28,6.76,5.06,13.96,8.85,20.28,10.65,.03,0,.06,.02,.09,.03,.95,.32,1.78,.21,2.52-.33,1.15-.83,1.98-2.61,1.98-4.25,0-.67,.3-1.3,.82-1.72,.52-.42,1.2-.59,1.85-.46,6.79,1.37,12.62,1.69,17.31,.98,.79-.12,1.44-.56,1.84-1.23,.4-.68,.47-1.48,.2-2.25-2.21-6.11-10.86-13.33-19.23-20.3-.92-.76-1.83-1.53-2.74-2.29-.36-.3-.61-.71-.73-1.16l-21.24-83.66c-2.75-10.83-8.51-20.24-16.67-27.23-1.54-1.32-3.14-2.59-4.78-3.77Z"/>
            <path class="cls-7" d="M343.18,298.13c-3.61-3.52-9.81-4.26-14.81-3.37-.99,.19-1.38-1.25-.43-1.59,5.79-2.01,12.83-2.14,18.1,1.53,2.6,1.95-.47,5.63-2.86,3.42h0Z"/>
            <path class="cls-7" d="M342.98,324.74c-2.64-.94-4.82-2.64-6.73-4.53-1.82-1.8-3.38-3.72-4.95-5.6-.29-.35-.25-.87,.1-1.17,.31-.26,.76-.25,1.06,0,3.48,2.77,7.34,6.3,11.67,6.99,3.26,.63,2.02,5.37-1.14,4.31h0Z"/>
            <g class="cls-12">
              <path class="cls-7" d="M363.65,319.16c-.29,2.01-1.84,3.7-4.03,4.04-5.83,.89-12.39,.15-18.09-1,0,3.72-2.97,8.17-7.43,6.69-6.87-1.96-14.34-6.02-21-11.01-6-4.5-9.65-11.46-10.06-18.93-4.07-31.1-10.98-68.65-12.49-93.93,4.21-.33,8.53-.23,12.62-1.24l3.92-2.54c11.1,24.45,13.9,51.95,12.83,78.77-.13,3.09-.19,6.53,1.88,8.84,4.38,4.91,14.01,.44,18.37,5.37-3.87-2.15-9.04,1.25-9.99,5.57-.94,4.32,1.19,8.76,3.99,12.19,4.43,5.42,10.9,9.36,17.89,9.87,4.01,.29,8.14-.67,11.61-2.69Z"/>
            </g>
          </g>
          <g>
            <path class="cls-3" d="M294.72,367.53c6.58,7.06,10.3,14.59,5.88,23.5-.08,.16-.17,.33-.26,.51-1.69,3.19-5.05,5.16-8.66,5.19-17.97,.12-34.14-6.06-46-16.56l-12.63-18.58,16.35-66.88,41.95-13.3,18.99-6.02c-.04,30.33-3.93,60.94-15.6,92.14Z"/>
            <path class="cls-7" d="M291.18,398.96c-17.83,0-34.49-6.07-46.98-17.12-.14-.12-.26-.26-.37-.42l-12.63-18.58c-.35-.52-.47-1.17-.32-1.78l16.35-66.88c.18-.76,.75-1.36,1.49-1.6l60.93-19.32c.68-.21,1.42-.09,1.99,.33,.57,.42,.91,1.09,.91,1.8-.04,33.8-5.04,63.8-15.27,91.64,5.25,5.89,10.79,14.65,5.02,25.55-2.06,3.9-6.13,6.34-10.61,6.37-.17,0-.35,0-.52,0Zm-43.82-20.28c11.76,10.31,27.48,15.95,44.31,15.82,2.84-.02,5.4-1.55,6.7-4,3.74-7.06,2.16-13.48-5.27-21.45-.58-.62-.75-1.51-.46-2.3,10.05-26.86,15.11-55.78,15.45-88.31l-56.82,18.02-15.81,64.7,11.92,17.52Z"/>
            <path class="cls-7" d="M295.71,369.53c-7.04,2.83-14.74,1.74-21.32-1.33-.78-.37-.3-1.59,.53-1.32,6.08,1.87,13.37,1.9,18.8-1.33,2.8-1.55,4.92,2.67,1.99,3.99h0Z"/>
            <path class="cls-7" d="M284.78,348.18c-16.12,0-33.66-6.33-45.35-17.37-.89-.85-.93-2.26-.09-3.15,.85-.89,2.26-.93,3.15-.09,17.07,16.12,43.46,19.38,59.12,13.22,1.15-.45,2.44,.11,2.89,1.26,.45,1.15-.11,2.44-1.26,2.89-5.59,2.2-11.91,3.25-18.46,3.25Z"/>
            <g class="cls-12">
              <path class="cls-7" d="M300.59,391.04c-.08,.16-.17,.33-.26,.51-1.69,3.19-5.05,5.16-8.66,5.19-17.97,.12-34.14-6.06-46-16.56l-12.63-18.58,16.35-66.88,41.95-13.3c.94,.98,1.66,2.15,2.04,3.52,.56,2.01,.32,4.15-.09,6.2-1.07,5.33-3.28,10.43-6.43,14.86l1.22-.77c-4.67,3.6-9.01,7.82-11.68,13.08-2.41,4.74-3.34,10.08-4.24,15.32-.81,4.69-1.61,9.38-2.42,14.07-.78,4.56-1.55,9.33-.13,13.72,1.39,4.29,5.6,8.01,10.01,7.36-3.29,.62-7.02,1.72-8.14,4.84-.74,2.07-.01,4.38,1,6.35,3.6,6.98,10.98,11.84,18.79,12.4,3.16,.22,6.35-.25,9.32-1.33Z"/>
            </g>
          </g>
          <g>
            <path class="cls-3" d="M313.22,268.3c-1.93,9.79-5.47,18.29-10.76,25.03-9.31,11.91-24.05,18.38-44.9,16.99-2.16,21.91-4.83,42.89-11.89,55.73,6.56,2.99,10.41,10.51,9.23,18.96-.11,.81-.27,1.62-.48,2.44-.63,2.51-2.63,4.45-5.13,5.11-23.04,6.05-61.39-8.12-57.87-24.28,7.04-23.82,8.59-51.76,7.43-81.74l4.67-20.16,18.37-79.41,71.34-12.63,14.12,26.01c7.33,25.35,9.59,49.07,5.87,67.95Z"/>
            <path class="cls-7" d="M308.34,200.05c12.17,35.65,17.65,96.49-27.49,110.31-7.6,2.17-15.65,2.69-23.44,2.17,0,0,2.37-2.01,2.37-2-.95,9.52-1.98,19.07-3.62,28.59-1.73,9.62-3.88,19.22-8.53,28,0,0-1.03-3.1-1.03-3.1,6.74,3.01,10.7,10.37,10.73,17.56,.04,2.43-.26,4.7-.93,7.07-.89,2.7-3.07,4.86-5.7,5.8-6.46,1.91-13.4,2.04-20.03,1.43-8.78-.86-17.36-3.13-25.34-6.95-7.85-3.85-18.02-10.94-16.08-21.13,7.74-26.42,8.2-54.39,7.44-81.77,0,0,23.04-99.57,23.04-99.57,.21-.9,.93-1.54,1.78-1.69l71.34-12.63c1.21-.21,2.37,.59,2.58,1.81,.21,1.21-.59,2.37-1.81,2.58l-71.34,12.63,1.78-1.69-23.04,99.57c.74,10.63,.47,27.95-.44,40.85-.99,13.54-3.24,28.33-6.98,40.86-1.32,7.64,7.67,13.13,13.67,16.18,11.11,5.22,23.88,7.78,36.12,6.46,1.76-.18,3.5-.54,5.22-.96,2.96-.73,3.82-3.16,4.09-5.91,.99-6.38-1.89-13.76-7.95-16.45-1.12-.51-1.62-1.83-1.11-2.95,4.38-8.2,6.49-17.59,8.12-26.77,7.36-41.87-4.26-26.24,23.57-31.27,33.29-6.44,39.93-41.71,37.18-70.72-1.02-12.02-3.39-23.91-6.16-35.75-.13-.56,.21-1.12,.77-1.25,.52-.12,1.04,.18,1.21,.67h0Z"/>
            <path class="cls-7" d="M246.67,368.04c-6.61,2.9-14.16,2.32-20.64-.27-.53-.21-.79-.81-.58-1.34,.2-.49,.73-.76,1.23-.62,5.97,1.59,12.69,1.39,18-1.75,2.78-1.49,4.86,2.65,1.99,3.99h0Z"/>
            <path class="cls-7" d="M267.57,312.6c-10.19,.52-21.08-1.66-29.14-8.21-.4-.32-.47-.92-.15-1.32,.31-.39,.85-.45,1.26-.2,4.21,2.23,8.74,3.89,13.45,4.6,4.76,.85,9.66,.77,14.49,.69,2.86,.07,2.95,4.25,.09,4.44h0Z"/>
            <path class="cls-7" d="M235.15,346.53c-14.75,0-30.47-4.54-38.73-14.2-.8-.94-.69-2.34,.25-3.14,.94-.8,2.34-.69,3.14,.25,10.6,12.41,36.69,15.52,52.93,10.01,1.17-.39,2.43,.23,2.83,1.39,.4,1.17-.23,2.43-1.39,2.83-5.58,1.89-12.2,2.86-19.02,2.86Z"/>
            <g class="cls-12">
              <path class="cls-7" d="M230.86,218.5c-.37,3.15-.74,6.3-1.11,9.45-.3,2.58-.61,5.21-.17,7.78,.44,2.57,1.73,5.11,3.96,6.45,3.34,2.01,7.61,.84,11.31-.38,.46,3.9,.92,7.79,1.38,11.69,.17,1.43,.31,2.99-.45,4.22-.75,1.2-2.18,1.77-3.53,2.22-7.19,2.42-14.73,3.78-22.31,4.04-2.48,.08-5.4-.17-6.74-2.27-1-1.56-.73-3.59-.42-5.41,1.16-6.86,2.33-13.78,4.82-20.27,2.49-6.5,6.42-12.63,12.14-16.6"/>
            </g>
            <g class="cls-12">
              <path class="cls-7" d="M230.16,367.5c.86,.17,1.72,.39,2.54,.61-.85-.17-1.7-.38-2.54-.61Z"/>
            </g>
            <g class="cls-12">
              <path class="cls-7" d="M258.8,309.23c1.63,.16,3.27,.25,4.91,.25-1.63,.05-3.3,.01-4.91-.25Z"/>
            </g>
            <g class="cls-12">
              <path class="cls-7" d="M313.22,268.3c-1.93,9.79-5.47,18.29-10.76,25.03l-2.26-2.24c-12.34-.62-24.73-.22-37.01,1.21-2.81,.32-5.68,.72-8.17,2.05-2.5,1.33-4.58,3.78-4.68,6.61-.11,2.98,2.01,5.7,4.67,7.05,1.2,.61,2.47,.99,3.8,1.21-3.33-.34-6.62-1.03-9.81-2.04-4.21-1.33-8.55-3.26-12.88-2.34-5.27,1.11-8.8,6.18-10.56,11.27-4.61,13.37-.69,28.44-4.73,41.99-.48,1.59-1.04,3.4-.18,4.82,.5,.82,1.36,1.31,2.21,1.74,2.33,1.18,4.77,2.13,7.29,2.82-2.69-.55-5.46-.68-7.71,.76-3.27,2.1-3.91,6.93-2.18,10.42,1.73,3.48,5.22,5.75,8.83,7.2,8.23,3.3,17.8,2.85,25.83-.86-.11,.81-.27,1.62-.48,2.44-.63,2.51-2.63,4.45-5.13,5.11-23.04,6.05-61.39-8.12-57.87-24.28,7.04-23.82,8.59-51.76,7.43-81.74l4.67-20.16c15.9-3.42,31.92-6.32,48.14-7.35,19.19-1.22,38.74,.25,56.93,6.46,1.35,.45,2.72,.96,3.78,1.9,.32,.28,.59,.59,.84,.91Z"/>
            </g>
          </g>
          <g>
            <g>
              <path class="cls-3" d="M304.96,285.01l-53.22,.14c-6.3,.02-11.47-5.12-11.49-11.43l-.07-28.32c-.01-5.52,3.93-10.17,9.14-11.25,.74-.16,1.5-.23,2.29-.24l53.21-.14c6.31-.02,11.48,5.12,11.49,11.43l.06,22.43,.02,5.89c.02,6.31-5.13,11.47-11.43,11.49Z"/>
              <g class="cls-12">
                <path class="cls-7" d="M304.96,285.01l-53.22,.14c-6.3,.02-11.47-5.12-11.49-11.43l-.07-28.32c-.01-5.52,3.93-10.17,9.14-11.25,3.03,2,4.95,3.28,4.95,3.28,2.65,22.73,1.7,39.58,36.96,37.15,12.16-.84,20.29-4.43,25.14-6.95l.02,5.89c.02,6.31-5.13,11.47-11.43,11.49Z"/>
              </g>
              <path class="cls-7" d="M251.71,287.01c-7.33,0-13.3-5.95-13.32-13.28l-.08-28.32c-.02-7.34,5.94-13.33,13.28-13.35l53.22-.14s.02,0,.04,0c7.33,0,13.3,5.95,13.32,13.28l.08,28.32c0,3.54-1.37,6.89-3.89,9.42-2.51,2.53-5.85,3.93-9.4,3.94l-53.22,.14s-.02,0-.04,0Zm53.14-51.39h-.03l-53.22,.14c-5.29,.01-9.59,4.33-9.58,9.63l.08,28.32c0,2.55,1.02,4.96,2.84,6.77,1.82,1.81,4.22,2.8,6.76,2.8h.03l53.22-.14c2.55,0,4.96-1.02,6.77-2.84,1.81-1.82,2.81-4.24,2.8-6.79l-.08-28.32c-.01-5.29-4.32-9.58-9.6-9.58Z"/>
              <path class="cls-3" d="M307.09,284.8c-.69,.15-1.4,.22-2.14,.22l-53.22,.14c-4.62,.01-8.63-2.74-10.44-6.71-.66-1.44-1.04-3.04-1.04-4.72l-.04-12.58v-4.15s-.04-11.59-.04-11.59c-.02-6.31,5.13-11.47,11.43-11.49l11.5-.03c-5.3,1.01-9.32,5.7-9.31,11.27l.04,15.3,.04,13.03c.02,6.3,5.19,11.45,11.49,11.43l41.74-.12Z"/>
              <g class="cls-12">
                <path class="cls-7" d="M307.09,284.8c-.69,.15-1.4,.22-2.14,.22l-53.22,.14c-6.3,.02-11.47-5.12-11.48-11.43l-.05-16.73c1.35,2.95,3.76,6.58,7.61,6.95,2.11,.21,4.19-1.32,6.01-3.48l.04,13.03c.02,6.3,5.19,11.45,11.49,11.43l41.74-.12Z"/>
              </g>
              <path class="cls-7" d="M251.7,287.01c-3.53,0-6.85-1.38-9.37-3.88-2.53-2.52-3.93-5.85-3.93-9.4l-.08-28.32c-.01-3.54,1.37-6.89,3.88-9.42,2.51-2.53,5.85-3.93,9.4-3.94l11.5-.03s0,0,0,0c.96,0,1.76,.73,1.85,1.68,.09,.95-.56,1.82-1.5,2-4.53,.87-7.81,4.84-7.8,9.45l.08,28.32c0,2.55,1.01,4.96,2.84,6.77,1.82,1.82,4.24,2.79,6.78,2.8l41.74-.12h0c.95,0,1.75,.72,1.85,1.67,.1,.95-.54,1.82-1.48,2.01-.82,.17-1.67,.26-2.51,.25l-53.21,.14s-.03,0-.04,0Zm4.11-51.26h-4.19c-2.55,.02-4.96,1.03-6.77,2.85-1.82,1.82-2.81,4.23-2.8,6.79l.08,28.32h0c0,2.55,1.01,4.96,2.84,6.77,1.82,1.81,4.21,2.8,6.75,2.8h4.66c-.14-.14-.28-.27-.41-.41-2.53-2.52-3.93-5.85-3.93-9.4l-.08-28.32c0-3.63,1.45-6.97,3.87-9.41Z"/>
              <path class="cls-11" d="M274.82,259.5c0,1.05-1.5,9.5-1.5,9.5,0,0-2.68,0-5.97-.02-4.11-.01-7.43-4.28-7.41-9.52,.02-5.25,3.36-9.49,7.47-9.48,2.77,0,5.97,.02,5.97,.02,0,0,1.45,7.8,1.44,9.51Z"/>
              <g class="cls-12">
                <path class="cls-7" d="M274.82,259.5c0,1.05-1.5,9.5-1.5,9.5,0,0-2.68,0-5.97-.02-4.11-.01-7.43-4.28-7.41-9.52,.02-5.25,3.36-9.49,7.47-9.48,2.77,0,5.97,.02,5.97,.02,0,0,1.45,7.8,1.44,9.51Z"/>
              </g>
              <path class="cls-7" d="M273.31,270.48h0l-5.97-.02c-2.45,0-4.73-1.21-6.42-3.37-1.6-2.06-2.48-4.77-2.47-7.64,.02-6.05,4.03-10.96,8.94-10.96h.02l5.97,.02c.71,0,1.33,.51,1.46,1.22,.15,.81,1.47,7.99,1.47,9.78,0,1.09-1.17,7.74-1.52,9.75-.13,.71-.74,1.23-1.46,1.23Zm-5.93-19.02c-3.28,0-5.95,3.58-5.96,8,0,2.21,.65,4.27,1.85,5.81,1.11,1.43,2.56,2.22,4.08,2.23h4.72c.64-3.67,1.25-7.42,1.26-8,0-1-.66-5.04-1.2-8.02h-4.73s0-.01-.01-.01Zm7.43,8.04h0Z"/>
              <ellipse class="cls-11" cx="273.34" cy="259.49" rx="9.5" ry="7.44" transform="translate(13.01 532.04) rotate(-89.82)"/>
              <g class="cls-12">
                <path class="cls-7" d="M265.9,259.47c-.02,5.24,3.3,9.51,7.41,9.52,4.11,.01,7.46-4.23,7.47-9.48,0-.71-.06-1.4-.17-2.07-1.07,3.6-3.8,6.16-6.99,6.15-3.55-.01-6.51-3.19-7.23-7.45-.31,1.04-.47,2.16-.48,3.33Z"/>
              </g>
              <path class="cls-3" d="M265.9,259.47c0,.36,.01,.71,.05,1.06,.83-4.11,3.76-7.14,7.23-7.13,3.83,.02,6.98,3.72,7.36,8.47,.16-.76,.24-1.55,.24-2.36,.02-5.24-3.3-9.51-7.41-9.52-4.11,0-7.45,4.23-7.47,9.48Z"/>
              <path class="cls-7" d="M273.33,270.48h-.02c-2.45,0-4.73-1.21-6.42-3.37-1.6-2.06-2.48-4.77-2.47-7.64,.02-6.05,4.03-10.96,8.94-10.96h.02c4.92,.02,8.91,4.96,8.89,11.02h0c-.02,6.05-4.03,10.96-8.94,10.96Zm.02-19c-3.28,0-5.95,3.58-5.96,8,0,2.21,.65,4.27,1.85,5.81,1.11,1.43,2.56,2.22,4.08,2.23h.01c3.28,0,5.95-3.58,5.96-8,.01-4.42-2.65-8.02-5.93-8.03h-.01Zm7.43,8.04h0Z"/>
              <path class="cls-7" d="M288.41,286.64s-.03,0-.04,0c-.98-.02-1.77-.84-1.75-1.82l.41-19.64c.01-.6,.32-1.15,.83-1.47l8.27-5.23,.02-24.67c0-.98,.8-1.78,1.78-1.78h0c.98,0,1.78,.8,1.78,1.78l-.02,25.65c0,.61-.31,1.18-.83,1.51l-8.29,5.24-.39,18.69c-.02,.97-.81,1.75-1.78,1.75Z"/>
            </g>
            <g>
              <rect class="cls-3" x="206.39" y="251.89" width="40.13" height="16.21" rx="8.11" ry="8.11" transform="translate(452.92 519.99) rotate(180)"/>
              <g class="cls-12">
                <path class="cls-7" d="M208.7,254.34c.51,3.99,3.91,7.07,8.03,7.07h23.91c2.28,0,4.33-.94,5.8-2.45,.04,.34,.07,.68,.07,1.03,0,4.48-3.63,8.11-8.11,8.11h-23.91c-4.48,0-8.11-3.63-8.11-8.11,0-2.2,.88-4.19,2.3-5.65Z"/>
              </g>
              <path class="cls-7" d="M238.41,269.96h-23.91c-5.49,0-9.96-4.47-9.96-9.96s4.47-9.96,9.96-9.96h23.91c5.49,0,9.96,4.47,9.96,9.96s-4.47,9.96-9.96,9.96Zm-23.91-16.21c-3.45,0-6.25,2.8-6.25,6.25s2.8,6.25,6.25,6.25h23.91c3.45,0,6.25-2.8,6.25-6.25s-2.8-6.25-6.25-6.25h-23.91Z"/>
            </g>
          </g>
          <g>
            <path class="cls-3" d="M234.53,194.4l-3.72,23.78c-.53,.85-1.08,1.95-1.67,3.29-5.1,11.58-12.59,40.49-22.27,66.25-4.37,11.63-12.13,21.73-22.4,28.71-.76,.52-1.49,.99-2.18,1.4-2.05,1.23-4.47,1.79-6.82,1.35-1.29-.25-2.41-.72-3.29-1.46-1.64-1.34-2.51-3.53-2.29-6.66-1.25,.22-2.48,.41-3.71,.56h0c-6.86,.92-13.31,.88-18.88-1.2-3.06-1.14-5.15-4.08-5.11-7.34v-.11c.04-1.63,.64-3.16,1.62-4.41h0c.53-.69,1.19-1.29,1.92-1.78,4.18-2.76,8-5.86,11.42-9.28,3.86-3.85,6.74-8.55,8.6-13.67,14.77-40.53,23.92-89.4,47.97-83.89l20.81,4.46Z"/>
            <path class="cls-7" d="M231.47,218.59c-3.91,8.39-7.17,21.99-10.06,30.95-3.17,10.47-6.37,20.96-9.95,31.34-1.82,5.25-3.56,10.59-6.25,15.5-4.99,9.37-12.4,17.53-21.45,23.13-7.37,4.75-17.05,.95-16.11-8.61,0,0,2.61,2.36,2.61,2.36-7.21,1.24-14.99,1.94-22.18-.21-3.73-.91-6.96-3.71-7.85-7.54-1.15-4.65,1.24-8.94,5.26-11.25,6.72-4.69,13.25-10.24,16.75-17.82,6.82-16.85,11.34-34.61,17.66-51.71,5.48-14.23,14.76-41.19,34.24-36.97,5.43,1.15,15.35,3.3,20.86,4.47,2.85,.72,1.97,4.88-.93,4.36-4.02-.88-14.03-2.99-17.9-3.84-1.6-.35-4.01-.94-5.6-.99-11.34-.3-17.99,14.34-22.05,23.27-7.92,18.66-13,38.37-19.91,57.46-2,6.08-5.16,11.88-9.72,16.43-2.96,2.98-6.17,5.68-9.59,8.12l-1.29,.9-1.23,.83c-1.19,.84-2.07,2.14-2.31,3.56-.37,2.14,.72,4.42,2.6,5.54,1.54,.85,3.3,1.22,5.02,1.58,5.75,1.04,11.59,.42,17.4-.57,1.21-.21,2.37,.6,2.58,1.82,.05,1.25-.07,2.64,.37,3.66,1.36,3.55,6.31,3.26,9.01,1.37,8.38-5.22,15.34-12.66,20.06-21.33,2.61-4.69,4.33-9.79,6.2-14.82,3.73-10.23,7.11-20.62,10.47-31.02,3.01-9.1,5.84-18.36,9.9-27.08,0,0,.94-1.87,.94-1.87l1.12-1.82c.23-.37,.71-.48,1.07-.26,.37,.23,.48,.71,.25,1.08h0Z"/>
            <path class="cls-7" d="M163.81,309.68c5.06-.62,10.14-1.88,13.83-5.64,.43-.45,1.17,.13,.83,.65-2.97,4.78-8.46,7.56-13.63,9.32-3.14,.96-4.27-3.78-1.03-4.34h0Z"/>
            <path class="cls-7" d="M215.64,264.06c-.09,0-.18,0-.27-.02-18.79-2.7-33.85-10.97-40.29-22.11-.51-.89-.21-2.02,.68-2.54,.89-.51,2.02-.21,2.54,.68,5.88,10.16,19.93,17.75,37.6,20.29,1.02,.15,1.72,1.09,1.57,2.1-.13,.93-.93,1.59-1.84,1.59Z"/>
            <g class="cls-12">
              <path class="cls-7" d="M229.14,221.47c-5.1,11.58-12.59,40.49-22.27,66.25-4.37,11.63-12.13,21.73-22.4,28.71-.76,.52-1.49,.99-2.18,1.4-2.05,1.23-4.47,1.79-6.82,1.35-1.29-.25-2.41-.72-3.29-1.46,1.98,.26,3.95,.16,5.81-.57,2.77-1.09,4.83-3.45,6.72-5.75,5.83-7.1,11.24-14.66,14.83-23.12,1.55-3.66,2.76-7.45,3.95-11.24,2.33-7.38,4.67-14.75,7-22.12,3.99-12.6,8.4-25.87,18.41-34.52l.25,1.07Z"/>
            </g>
            <g class="cls-12">
              <path class="cls-7" d="M176.8,304.72l-1.63,1.28c-2.76,2.22-5.8,4.11-9,5.63h0c-6.86,.92-13.31,.88-18.88-1.2-3.06-1.14-5.15-4.08-5.11-7.34v-.11c.04-1.63,.64-3.16,1.62-4.41h0c1.2-.95,2.47-1.82,3.71-2.66-2.12,1.58-1.92,5.16-.13,7.16,1.86,2.07,4.76,2.82,7.51,3.23,7.3,1.1,14.85,.56,21.91-1.58Z"/>
            </g>
          </g>
          <path class="cls-5" d="M255.24,140.65c-.16,.08-.33,.15-.49,.23,.12,0,.25,0,.37,0,.08-.16,.12-.22,.12-.22Z"/>
          <g class="cls-6">
            <path class="cls-7" d="M245.43,173.35l5.11,16.53c1.22-.72,2.56-1.51,4-2.33l-5.14-16.61c-.25,.24-1.69,1.07-3.97,2.42Z"/>
          </g>
          <g>
            <g>
              <path class="cls-3" d="M333.55,116.57c-1.7,14.89-7.17,29.44-16.41,42.18-1.89,2.6-3.92,5.11-6.11,7.54-1.06,1.18-2.18,2.35-3.32,3.5-3.46,3.45-7.13,6.57-10.98,9.35-3.31,2.41-6.76,4.56-10.29,6.46-4.27,2.3-8.69,4.24-13.21,5.82-1.65,.57-3.31,1.1-4.98,1.58-30.57,8.73-64.8,1.39-88.92-22.16-35.55-34.69-35.69-91.39-.34-126.66,6.81-6.79,14.45-12.3,22.59-16.5,.95-.5,1.91-.97,2.89-1.43,2.6-1.23,5.24-2.33,7.91-3.31,6.19-2.25,12.58-3.8,19.03-4.68,6.45-.88,12.98-1.07,19.46-.58,2.06,.16,4.11,.38,6.16,.68,3.07,.45,6.12,1.04,9.15,1.8,15.08,3.76,29.36,11.41,41.2,22.96,20.45,19.95,29.18,47.19,26.19,73.44Z"/>
              <path class="cls-7" d="M242.91,196.77c-23.59,0-46.61-9.03-63.76-25.77-17.17-16.75-26.69-39.13-26.82-63.02-.13-24.08,9.27-46.79,26.48-63.96,6.72-6.69,14.34-12.26,22.65-16.54,.9-.48,1.85-.95,2.89-1.43,2.59-1.23,5.26-2.34,7.93-3.31,6.15-2.23,12.57-3.81,19.08-4.69,6.45-.88,13.01-1.07,19.5-.58,2.09,.16,4.17,.39,6.18,.68,3.14,.46,6.22,1.06,9.17,1.81,15.56,3.88,29.84,11.84,41.3,23.02,19.81,19.33,29.38,46.17,26.25,73.63h0c-1.74,15.22-7.43,29.84-16.45,42.28-1.91,2.63-3.97,5.17-6.13,7.56-.99,1.1-2.07,2.25-3.33,3.51-3.42,3.41-7.12,6.56-11.01,9.37-3.25,2.36-6.72,4.54-10.32,6.48-4.21,2.27-8.67,4.23-13.24,5.83-1.65,.57-3.33,1.1-4.99,1.58-8.37,2.39-16.92,3.56-25.39,3.56Zm.94-179.12c-4.16,0-8.31,.28-12.43,.84-6.48,.88-12.87,2.45-18.99,4.67-2.66,.97-5.32,2.08-7.89,3.3-1.04,.48-1.98,.95-2.88,1.42-8.27,4.26-15.85,9.8-22.54,16.46-17.12,17.08-26.48,39.68-26.35,63.64,.13,23.77,9.61,46.03,26.69,62.7,23.19,22.64,57.18,31.11,88.71,22.11,1.66-.48,3.33-1.01,4.97-1.57,4.55-1.59,8.99-3.54,13.18-5.8,3.58-1.93,7.04-4.1,10.27-6.45,3.87-2.8,7.55-5.93,10.95-9.33,1.25-1.26,2.33-2.4,3.31-3.49,2.14-2.37,4.2-4.91,6.1-7.52,8.98-12.38,14.65-26.93,16.37-42.07l.22,.03-.22-.03c3.11-27.32-6.41-54.02-26.12-73.25-11.4-11.13-25.61-19.05-41.1-22.91-2.93-.74-6-1.34-9.13-1.8-2-.29-4.07-.52-6.15-.67-2.32-.18-4.65-.27-6.98-.27Z"/>
            </g>
            <g class="cls-12">
              <path class="cls-7" d="M179.31,170.83c24.12,23.56,58.36,30.9,88.93,22.16,1.67-.48,3.33-1,4.97-1.57,4.52-1.58,8.94-3.51,13.21-5.82,3.54-1.91,6.99-4.06,10.29-6.46,3.85-2.78,7.52-5.9,10.98-9.35,1.14-1.15,2.25-2.32,3.32-3.5,2.19-2.43,4.22-4.95,6.11-7.55,9.25-12.74,14.72-27.29,16.41-42.18,.93-8.18,.73-16.46-.62-24.58-1.95,14.17-7.34,27.97-16.15,40.12-1.88,2.6-3.92,5.12-6.11,7.55-1.06,1.18-2.18,2.34-3.32,3.5-3.46,3.45-7.13,6.57-10.98,9.35-3.31,2.4-6.76,4.55-10.29,6.46-4.27,2.3-8.7,4.24-13.21,5.82-1.65,.57-3.31,1.1-4.98,1.57-30.57,8.74-64.79,1.39-88.93-22.16-14.08-13.74-22.6-30.93-25.56-48.87-3.71,26.89,4.94,55.03,25.92,75.51Z"/>
            </g>
            <path class="cls-7" d="M242.92,198.27c-23.97,0-47.37-9.18-64.81-26.2-17.46-17.03-27.14-39.79-27.28-64.08-.14-24.48,9.43-47.58,26.92-65.03,6.83-6.8,14.57-12.46,23.02-16.81,.91-.48,1.88-.96,2.95-1.46,2.62-1.24,5.33-2.38,8.05-3.36,6.25-2.27,12.77-3.87,19.39-4.76,6.56-.89,13.22-1.09,19.82-.59,2.12,.16,4.23,.39,6.28,.69,3.19,.46,6.33,1.08,9.32,1.84,15.82,3.94,30.33,12.03,41.98,23.4,20.15,19.66,29.88,46.95,26.7,74.87h0c-1.76,15.48-7.55,30.35-16.73,42.99-1.94,2.67-4.04,5.26-6.23,7.69-1,1.11-2.1,2.28-3.37,3.56-3.48,3.47-7.25,6.68-11.19,9.53-3.3,2.4-6.83,4.61-10.49,6.58-4.28,2.31-8.81,4.3-13.46,5.93-1.68,.58-3.38,1.12-5.07,1.61-8.51,2.43-17.19,3.61-25.8,3.61Zm.94-179.12c-4.09,0-8.18,.28-12.22,.83-6.38,.86-12.66,2.41-18.68,4.59-2.62,.95-5.23,2.04-7.76,3.24-1.02,.48-1.94,.93-2.82,1.39-8.15,4.2-15.6,9.65-22.18,16.2-16.84,16.79-26.04,39.02-25.91,62.57,.13,23.36,9.45,45.25,26.24,61.63,22.81,22.27,56.24,30.6,87.25,21.74,1.63-.47,3.27-.99,4.89-1.55,4.47-1.56,8.83-3.48,12.95-5.71,3.52-1.9,6.92-4.03,10.1-6.34,3.81-2.75,7.43-5.84,10.78-9.17,1.22-1.23,2.29-2.36,3.25-3.43,2.11-2.34,4.13-4.83,6-7.4,8.83-12.17,14.4-26.47,16.1-41.36,3.06-26.85-6.3-53.1-25.68-72.01-11.21-10.94-25.18-18.73-40.41-22.53-2.89-.73-5.91-1.32-8.98-1.77-1.97-.28-4-.51-6.04-.66-2.28-.17-4.58-.26-6.87-.26Zm89.69,97.42h0Z"/>
            <path class="cls-7" d="M242.92,198.77c-24.1,0-47.63-9.23-65.16-26.34-17.55-17.13-27.29-40.01-27.43-64.44-.14-24.62,9.48-47.84,27.07-65.39,6.86-6.84,14.65-12.52,23.14-16.9,.92-.48,1.89-.97,2.97-1.47,2.63-1.25,5.36-2.39,8.09-3.38,6.28-2.28,12.84-3.89,19.5-4.79,6.59-.9,13.3-1.1,19.92-.59,2.13,.16,4.26,.39,6.31,.69,3.21,.47,6.36,1.09,9.37,1.85,15.9,3.96,30.5,12.1,42.21,23.53,20.26,19.77,30.05,47.21,26.84,75.29h0c-1.77,15.56-7.59,30.52-16.82,43.23-1.95,2.69-4.06,5.29-6.26,7.73-1,1.12-2.11,2.29-3.39,3.58-3.5,3.49-7.29,6.71-11.26,9.59-3.32,2.41-6.87,4.64-10.54,6.62-4.3,2.32-8.86,4.33-13.53,5.96-1.69,.58-3.4,1.12-5.1,1.61-8.55,2.44-17.28,3.63-25.94,3.63Zm.94-179.12c-4.07,0-8.13,.28-12.16,.82-6.34,.86-12.59,2.39-18.57,4.56-2.6,.95-5.2,2.03-7.72,3.22-1.02,.47-1.93,.93-2.8,1.39-8.1,4.18-15.52,9.59-22.06,16.11-16.74,16.7-25.89,38.79-25.76,62.21,.13,23.23,9.39,44.99,26.08,61.28,22.68,22.14,55.92,30.42,86.75,21.61,1.62-.47,3.26-.98,4.86-1.54,4.45-1.55,8.78-3.46,12.88-5.67,3.5-1.89,6.88-4.01,10.04-6.31,3.78-2.74,7.39-5.81,10.72-9.12,1.21-1.22,2.28-2.34,3.23-3.41,2.1-2.33,4.11-4.8,5.97-7.36,8.78-12.1,14.31-26.32,16-41.12,3.04-26.7-6.26-52.79-25.53-71.59-11.15-10.88-25.04-18.63-40.18-22.4-2.87-.72-5.87-1.32-8.93-1.76-1.95-.28-3.98-.5-6.01-.66-2.27-.17-4.55-.26-6.83-.26Zm89.69,96.92h0Z"/>
            <path class="cls-8" d="M328,138.89c-35.37,53.86-112.38,56.82-139.97-.29-18.77-38.85,5.4-87.2,44.48-102.8,28.44-11.36,61.18-10.2,90.87,28.43,0,0,10.45,19.12,10.42,34.68-.04,15.56-2.73,30.7-2.73,30.7l-3.06,9.28Z"/>
            <path class="cls-2" d="M188.04,138.6c27.59,57.1,104.6,54.15,139.97,.29l.62-1.88c-50.34,31.48-117.53,21.38-146.52-35.84-1.56,12.55,.15,25.44,5.94,37.43Z"/>
            <path class="cls-7" d="M253.64,191.85c-9.52,0-18.9-1.48-27.76-4.47-21.38-7.21-38.14-22.33-48.48-43.71-9.49-19.64-10.01-42.58-1.47-64.58,9.49-24.44,29.17-44.63,52.63-54.01,13.04-5.21,25.72-7.61,37.68-7.14,.15,0,.3,.03,.45,.06,15.91,3.96,30.5,12.1,42.21,23.53,20.26,19.77,30.04,47.21,26.84,75.28h0c-1.77,15.56-7.59,30.51-16.82,43.23-1.95,2.69-4.06,5.29-6.26,7.73-1,1.12-2.11,2.29-3.39,3.58-3.5,3.49-7.29,6.71-11.26,9.58-.09,.07-.19,.13-.3,.18-13.99,7.1-29.19,10.72-44.08,10.72Zm9.64-169.51c-10.51,0-21.62,2.31-33.06,6.88-22.34,8.92-41.08,28.17-50.14,51.48-8.09,20.84-7.62,42.52,1.32,61.04,9.8,20.28,25.67,34.6,45.89,41.43,21.55,7.27,46.42,5.11,68.25-5.93,3.73-2.71,7.29-5.74,10.57-9.02,1.21-1.22,2.28-2.34,3.23-3.41,2.1-2.33,4.11-4.8,5.97-7.36,8.78-12.1,14.32-26.32,16-41.12,3.04-26.7-6.26-52.8-25.53-71.6-11.09-10.83-24.9-18.55-39.96-22.34-.85-.03-1.7-.05-2.56-.05Zm70.26,94.24h0Z"/>
            <path class="cls-7" d="M254.22,181.79c-1.78,0-3.55-.06-5.33-.17-27.34-1.79-49.99-17.25-62.14-42.4-8.37-17.33-8.83-37.58-1.28-57.01,8.39-21.6,25.78-39.45,46.51-47.73,35.7-14.26,66.83-4.54,92.52,28.88,.04,.06,.08,.12,.12,.18,.43,.79,10.63,19.62,10.59,35.36-.04,15.5-2.73,30.79-2.76,30.95-.01,.07-.03,.13-.05,.2l-3.06,9.28c-.04,.12-.09,.23-.16,.34-17.29,26.33-45.64,42.12-74.97,42.12Zm8.28-150.79c-9.42,0-19.25,2.04-29.47,6.12-20.02,8-36.81,25.24-44.92,46.12-7.26,18.69-6.83,38.13,1.19,54.75,11.69,24.2,33.48,39.07,59.76,40.79,30.11,1.97,59.84-13.55,77.63-40.51l2.97-9.01c.23-1.32,2.66-15.75,2.69-30.36,.03-14.46-9.41-32.44-10.19-33.9-17.43-22.64-37.41-34-59.67-34Zm65.5,107.89h0Z"/>
            <path class="cls-3" d="M149.22,150.06c5.69,16.72,20.48,27.37,33.04,23.78,12.56-3.59,18.14-20.05,12.45-36.77-.03-.11-.07-.22-.11-.32-5.76-16.54-20.45-27.03-32.93-23.46-9.71,2.77-15.24,13.23-14.63,25.55,.18,3.63,.89,7.42,2.18,11.22Z"/>
            <g class="cls-12">
              <path class="cls-7" d="M149.22,150.06c5.69,16.72,20.48,27.37,33.04,23.78,12.56-3.59,18.14-20.05,12.45-36.77-.03-.11-.07-.22-.11-.32-.8,2.11-2.37,4.41-5.48,4.68-5.44,.46-18.25-7.68-18.25-7.68,0,0-10.35,2.14-23.83,5.09,.18,3.63,.89,7.42,2.18,11.22Z"/>
            </g>
            <path class="cls-7" d="M177.3,176.76c-12.2,0-24.95-10.55-30.2-25.98h0c-3.49-10.28-3.1-20.75,1.09-28.75,2.91-5.55,7.35-9.32,12.86-10.89,13.67-3.9,29.71,7.4,35.77,25.21,3.49,10.28,3.1,20.75-1.09,28.75-2.91,5.55-7.35,9.32-12.86,10.89-1.82,.52-3.69,.77-5.57,.77Zm-10.58-61.94c-1.5,0-2.99,.2-4.45,.62-4.31,1.23-7.81,4.23-10.14,8.67-3.57,6.81-3.87,16.25-.81,25.24h0c4.63,13.6,15.57,22.97,25.87,22.97,1.5,0,2.99-.2,4.45-.62,4.31-1.23,7.81-4.23,10.14-8.67,3.57-6.81,3.87-16.25,.81-25.24-4.63-13.6-15.57-22.97-25.87-22.97Z"/>
            <g>
              <ellipse class="cls-3" cx="165.61" cy="148.51" rx="19.22" ry="25.42" transform="translate(-46.42 81.24) rotate(-24.28)"/>
              <path class="cls-7" d="M169.89,173.23c-.34,0-.69-.01-1.04-.03-6.26-.38-12.53-4.13-17.19-10.3h0c-8.37-11.07-8.94-26.53-1.28-34.46,3.19-3.3,7.33-4.9,11.98-4.61,6.26,.38,12.53,4.13,17.19,10.3,8.37,11.07,8.94,26.53,1.28,34.46-2.95,3.05-6.71,4.64-10.94,4.64Zm-17.86-10.62c4.58,6.06,10.72,9.75,16.85,10.12,4.52,.28,8.53-1.27,11.62-4.47,7.51-7.77,6.92-22.96-1.31-33.86-4.58-6.06-10.72-9.75-16.85-10.12-4.51-.27-8.53,1.27-11.62,4.47-7.51,7.77-6.92,22.96,1.31,33.86Z"/>
            </g>
            <g class="cls-12">
              <path class="cls-7" d="M186.29,152.92c-.37-4.8-2.09-9.51-4.69-13.6-.08,11.02-7.82,18.11-18.08,16.07-6.63-1.31-12.78-6.13-16.8-12.46,0,.7,.02,1.41,.08,2.14,.96,12.22,10.58,23.89,21.49,26.05,10.91,2.16,18.97-5.99,18.01-18.21Z"/>
            </g>
            <path class="cls-7" d="M170.43,175.25c-9.64,0-20.01-8.94-24.45-21.83h0c-3-8.71-2.77-17.75,.62-24.19,2.19-4.17,5.52-6.97,9.62-8.11,10.61-2.94,23.35,6.62,28.41,21.3,3,8.71,2.77,17.75-.62,24.19-2.19,4.17-5.52,6.97-9.62,8.11-1.29,.36-2.62,.53-3.96,.53Zm-20.24-23.29c4.31,12.5,14.63,20.78,23.01,18.46,2.88-.8,5.26-2.83,6.86-5.88,2.83-5.37,2.96-13.1,.35-20.66-4.31-12.5-14.63-20.78-23.01-18.46-2.88,.8-5.26,2.83-6.86,5.88-2.83,5.37-2.96,13.1-.35,20.66h0Z"/>
            <g class="cls-4">
              <path class="cls-3" d="M217.65,60.62s38.17-12.53,67.19,.39c.03,.01,.06,.03,.09,.04,6.11,2.72,11.35,7.03,15.2,12.44,5.1,7.15,7.55,12.81,9.51,17.88,5.96,15.43,5.81,23.77,5.81,23.77,5.77-11.54,7.22-22.71,2.39-35.61-.48-1.27-1.02-2.56-1.62-3.87-.14-.3-.28-.6-.43-.89,0,0,0-.01-.01-.02-1.4-2.57-3.38-5.87-5.92-9.41-7.66-10.68-20.47-23.54-38.34-24.97-33.42-2.67-55.8,19.13-53.88,20.25Z"/>
            </g>
            <g class="cls-4">
              <ellipse class="cls-3" cx="204.79" cy="108.33" rx="12.14" ry="13.94" transform="translate(-9.32 19.85) rotate(-5.42)"/>
            </g>
            <g class="cls-4">
              <ellipse class="cls-3" cx="207.4" cy="133.53" rx="5.01" ry="5.76" transform="translate(-.22 .34) rotate(-.09)"/>
            </g>
          </g>
        </g>
      </g>
    </g>
  </g>
  <g>
    <path class="cls-7" d="M291.48,208.3h0s-12.85,0-12.85,0l5.29,5.29h7.14c1.03,0,1.86,.87,1.86,1.94s-.83,1.94-1.86,1.94h-4.35l5.25,5.27c3.59-.27,6.42-3.39,6.42-7.22s-3.08-7.23-6.89-7.24Z"/>
    <polygon class="cls-7" points="285.21 217.48 280.51 217.48 280.02 217.48 279.12 217.48 278.11 217.48 283.91 223.31 284.79 223.3 290.54 229.21 296.87 229.21 290.46 222.76 285.21 217.48"/>
  </g>
</svg>