<?xml version="1.0" encoding="UTF-8"?>
<svg id="Layer_1" data-name="Layer 1" xmlns="http://www.w3.org/2000/svg" viewBox="0 0 500 500">
  <defs>
    <style>
      .cls-1 {
        fill: #fff;
      }

      .cls-2 {
        opacity: .5;
      }

      .cls-3 {
        opacity: .35;
      }

      .cls-4 {
        fill: #353535;
      }

      .cls-5 {
        fill: #030b2f;
      }

      .cls-6 {
        fill: #292929;
      }

      .cls-7 {
        fill: #919191;
      }

      .cls-8 {
        opacity: .25;
      }
    </style>
  </defs>
  <g>
    <path class="cls-1" d="M194.16,337.11c5.04-1.63,10.07-4.38,14.79-8.43,15-12.86,18.23-74.18,18.23-74.18l-.07-.09-27.48-36.82s-2.09,2.92-5.4,7.75c-3.39,4.95-8.06,11.9-13.09,19.76-11.64,18.2-25.17,41.27-29,55.56-6.95,25.89,17.73,44.26,42.02,36.43Z"/>
    <g class="cls-8">
      <path class="cls-4" d="M151,311.39c1.3,19.95,22.37,32.43,43.15,25.73,5.04-1.63,10.07-4.38,14.79-8.43,15-12.86,18.23-74.18,18.23-74.18l-.07-.09-5.76-7.71c-1.35,16.44-5.85,57.02-17.73,67.21-4.72,4.05-25.18,9.59-30.44,10.11-13.05,1.29-14.39-1.96-22.17-12.64Z"/>
    </g>
    <path class="cls-4" d="M182.77,341.41c9,0,18.84-3.1,27.82-10.79,15.64-13.41,18.97-73.42,19.11-75.97,.07-1.4-1-2.59-2.4-2.66-1.41-.08-2.59,1-2.66,2.4-.88,16.76-5.72,62.43-17.35,72.39-15.37,13.17-31.88,10.88-41.36,4.91-10.29-6.48-14.64-18.11-11.36-30.34,6.9-25.74,46.71-81.7,47.11-82.27,.81-1.14,.55-2.72-.59-3.53-1.14-.81-2.72-.55-3.53,.59-1.66,2.33-40.74,57.28-47.88,83.9-3.88,14.46,1.32,28.23,13.56,35.94,5.32,3.35,12.14,5.44,19.53,5.44Z"/>
    <path class="cls-4" d="M200.92,290.7c.96,0,1.87-.54,2.3-1.47,.59-1.27,.04-2.78-1.23-3.36-1.08-.5-26.69-12.21-43.44-5.68-1.3,.51-1.95,1.98-1.44,3.28,.51,1.3,1.98,1.95,3.28,1.44,14.73-5.74,39.23,5.45,39.47,5.56,.34,.16,.71,.23,1.06,.23Z"/>
    <g>
      <circle class="cls-1" cx="184.86" cy="299.24" r="11.07"/>
      <g class="cls-3">
        <path class="cls-4" d="M173.8,299.5c.15,6.11,5.22,10.95,11.33,10.8,6.11-.15,10.95-5.23,10.8-11.34-.04-1.69-.46-3.29-1.18-4.71-1.69,3.78-5.44,6.47-9.85,6.58-4.41,.11-8.29-2.39-10.15-6.09-.65,1.45-.99,3.07-.95,4.76Z"/>
      </g>
      <path class="cls-4" d="M175.48,309.09c-2.63-2.51-4.13-5.89-4.22-9.52-.09-3.63,1.24-7.08,3.75-9.71,2.51-2.63,5.89-4.13,9.52-4.22,7.51-.17,13.75,5.77,13.93,13.27,.09,3.63-1.24,7.08-3.75,9.71-2.51,2.63-5.89,4.13-9.52,4.22-.11,0-.23,0-.34,0-3.51,0-6.83-1.33-9.37-3.75Zm9.18-18.39c-4.71,.11-8.44,4.04-8.33,8.74,.11,4.64,3.92,8.33,8.53,8.33,.07,0,.14,0,.21,0,4.71-.11,8.44-4.04,8.33-8.74-.11-4.64-3.92-8.33-8.53-8.33-.07,0-.14,0-.21,0Z"/>
    </g>
    <path class="cls-1" d="M168.2,318.53l4.97,5.5,9.92,10.97c5.47,0,8.51-6.37,10.11-14.31,2.28-11.27,1.67-25.69,1.03-29.52-.82-4.79-8.19-11.04-16.23-6.3-11.62,6.85-9.81,33.66-9.81,33.66Z"/>
    <g class="cls-8">
      <path class="cls-4" d="M173.17,324.02l9.92,10.97c5.47,0,8.51-6.37,10.11-14.31-3.63,2.52-10.18,5.32-20.03,3.33Z"/>
    </g>
    <path class="cls-4" d="M168.62,318.5c.68-4.37,1.3-8.68,2.13-12.86,.86-4.16,1.83-8.28,3.49-11.88,.83-1.78,1.8-3.45,3-4.76,.31-.31,.6-.65,.94-.91,.17-.13,.32-.3,.49-.41l.52-.36c.34-.25,.76-.42,1.14-.64,.19-.12,.39-.19,.59-.26l.6-.23c1.6-.57,3.28-.51,4.87,0,1.61,.47,3.06,1.59,4.1,2.91,.49,.67,.88,1.39,1.09,2.05,.03,.16,.07,.31,.12,.48l.09,.71c.06,.5,.1,1.01,.14,1.53,.14,2.1,.19,4.25,.19,6.39-.02,4.29-.2,8.58-.57,12.83-.18,2.12-.43,4.22-.74,6.3-.33,2.07-.75,4.11-1.26,6.09-.52,1.97-1.17,3.87-2.11,5.52-.45,.86-1.05,1.55-1.73,2.2-.7,.64-1.57,1.05-2.6,1.4l-.06,.02c-.22,.08-.34,.32-.27,.54,.05,.15,.18,.26,.33,.28,.29,.05,.59,.09,.9,.13,.15,.02,.31,.04,.46,.04l.46-.04c.31-.03,.64-.04,.95-.11l.92-.28c1.21-.44,2.31-1.2,3.2-2.08,1.82-1.77,3.02-3.93,3.94-6.09,.92-2.17,1.52-4.41,2-6.65,.5-2.23,.84-4.48,1.1-6.72,.5-4.49,.62-8.97,.49-13.45-.07-2.24-.19-4.48-.4-6.75-.05-.57-.11-1.15-.19-1.74-.04-.29-.09-.62-.14-.92-.08-.36-.18-.75-.28-1.12-.46-1.43-1.18-2.63-2.01-3.71-.87-1.04-1.82-1.98-2.92-2.74-.54-.39-1.12-.73-1.7-1.06-.61-.28-1.2-.61-1.86-.8-.32-.11-.64-.22-.97-.31l-1-.21c-.67-.17-1.36-.15-2.04-.21-.68,0-1.37,.05-2.05,.12-.66,.14-1.35,.22-1.99,.43l-.95,.32c-.32,.11-.64,.22-.93,.37-.59,.3-1.19,.54-1.76,.91l-.85,.55c-.28,.19-.53,.41-.79,.61-.54,.4-.99,.88-1.45,1.34-1.81,1.89-3.05,4.09-4.01,6.3-.47,1.11-.86,2.24-1.2,3.37-.31,1.13-.59,2.27-.81,3.4-.43,2.27-.69,4.55-.76,6.82-.1,2.26-.02,4.52,.18,6.76,.2,2.24,.55,4.46,1.13,6.65,.06,.23,.3,.37,.53,.31,.17-.05,.29-.19,.31-.35h0Z"/>
    <g>
      <path class="cls-1" d="M268.89,222.13l8.41,94.51,3.47,39.03s43.19,1.42,55.51-15.61c4.56-6.31,6.65-24.24,6.57-43.82-.11-23.86-3.44-50.19-9.48-60.98-9.69-17.32-49.63-15.52-64.49-13.13Z"/>
      <g class="cls-8">
        <path class="cls-4" d="M277.3,316.64l3.47,39.03s43.19,1.42,55.51-15.61c4.56-6.31,6.65-24.24,6.57-43.82l-26.83-4.13s-9.32,.37-9.17,30.01c.03,8.29-12.53,11.75-22.11,5.34-3.47-2.33-5.82-6.2-7.45-10.83Z"/>
      </g>
      <path class="cls-4" d="M283.49,358.24c10.03,0,43.63-1.19,54.85-16.69,5.96-8.24,7.5-32.18,6.95-51.84-.55-19.52-3.38-44.4-9.69-55.68-10.6-18.94-52.03-16.82-67.1-14.4-1.38,.22-2.32,1.52-2.1,2.9,.22,1.38,1.52,2.32,2.9,2.1,16.54-2.65,53.42-3.24,61.87,11.87,4.83,8.63,8.38,29.57,9.05,53.35,.66,23.29-1.75,42.87-5.99,48.72-11.39,15.74-52.96,14.57-53.38,14.56-1.4-.07-2.57,1.05-2.62,2.45s1.05,2.57,2.45,2.62c.24,0,1.23,.04,2.8,.04Z"/>
      <path class="cls-1" d="M340.3,292.21l-22.65,2.34c-2.02,.21-3.65,1.75-3.96,3.76-1.12,7.36-2.83,24.49,4.45,29.93,6.04,4.51,15.63,3.7,21.12-1.22,6.14-5.5,6.29-22.26,5.96-30.55-.1-2.58-2.36-4.53-4.92-4.26Z"/>
      <g class="cls-8">
        <path class="cls-4" d="M313.7,298.31c-1.12,7.36-2.83,24.49,4.45,29.93,6.04,4.52,15.62,3.7,21.12-1.22,3.78-3.39,5.29-11.03,5.81-18.34-.92,3.67-2.44,6.67-4.39,8.67-11.13,11.43-20.04-1.43-20.04-1.43,0,0-1.39,3.22-2.57,3.44-4.92,.89-4.33-14.6-3.84-22.61-.28,.47-.47,1-.55,1.57Z"/>
      </g>
      <path class="cls-4" d="M316.63,330.27c-8.1-6.05-6.89-22.86-5.44-32.34,.48-3.15,3.03-5.57,6.2-5.9l22.65-2.34h0c1.92-.2,3.85,.41,5.3,1.67,1.45,1.26,2.33,3.09,2.41,5.01,.47,11.65-.33,26.75-6.8,32.54-3.57,3.2-8.44,4.84-13.24,4.84-4.01,0-7.97-1.14-11.09-3.48Zm23.93-35.54h0l-22.65,2.34c-.88,.09-1.58,.76-1.71,1.62-2.13,14.02-.84,24.3,3.47,27.52,4.94,3.69,13.14,3.19,17.91-1.08,3.79-3.39,5.7-14.07,5.12-28.56-.02-.54-.26-1.03-.66-1.38-.36-.31-.8-.47-1.26-.47-.07,0-.14,0-.2,.01Z"/>
      <path class="cls-4" d="M321.14,302.56c.07,2.75-.13,5.48-.12,8.25,0,2.76,.12,5.56,.66,8.36,.54,2.78,1.53,5.63,3.42,8.08,.94,1.21,2.1,2.3,3.41,3.16,1.31,.86,2.75,1.51,4.23,1.96h0c1.09,.34,2.24-.27,2.58-1.36,.34-1.09-.27-2.24-1.36-2.58-.08-.03-.18-.05-.26-.06-2.37-.41-4.57-1.41-6.28-3.14-1.72-1.72-2.93-4.06-3.75-6.57-.83-2.52-1.29-5.2-1.62-7.91-.35-2.71-.5-5.47-.9-8.19Z"/>
      <path class="cls-4" d="M320.31,232.52c-3.13,.06-6.23,.18-9.35,.34-3.11,.16-6.23,.38-9.34,.67-3.12,.28-6.23,.63-9.36,1.13-3.13,.51-6.26,1.07-9.45,2.12-1.33,.44-2.06,1.87-1.62,3.2,.44,1.33,1.87,2.06,3.2,1.62,.06-.02,.12-.04,.18-.07h.01c2.62-1.11,5.57-1.9,8.51-2.6,2.95-.71,5.97-1.29,9-1.8,3.03-.52,6.08-.97,9.14-1.37,3.06-.4,6.13-.76,9.19-1.06h.01c.6-.06,1.04-.59,.98-1.19-.05-.57-.54-1-1.11-.99Z"/>
    </g>
    <path class="cls-1" d="M162.3,219.78v-.13c-.07,0-.07,.05,0,.13Z"/>
    <path class="cls-1" d="M162.3,219.78v-.13c-.07,0-.07,.05,0,.13Z"/>
    <path class="cls-1" d="M162.3,219.65c-.07,0-.07,.05,0,.13v-.13Z"/>
    <path class="cls-1" d="M157.7,440.62c-.19,16.16,17.42,17.2,38.99,17.21,15.43,0,27.01-2.59,32.77-7.55,9.45-8.12,7.03-54.01,17.27-137.63l-53.83-4.89s-3.14,16.76-6.48,40.6c-2.97,21.2-6.1,48.01-7.33,73.65,0,0-19.36,5.27-21.24,16.91-.09,.55-.14,1.11-.14,1.69Z"/>
    <g class="cls-8">
      <path class="cls-4" d="M157.7,440.62c-.19,16.16,17.42,17.2,38.99,17.21,15.43,0,27.01-2.59,32.77-7.55,9.45-8.12,7.03-54.01,17.27-137.63l-53.83-4.89s-3.14,16.76-6.48,40.6c11.81,8.55,22.34,12.54,33.39,25.3,13.24,15.28,10.27,67.64-15.3,71.03-20.25,2.68-38.38,2.12-46.66-5.77-.09,.55-.14,1.11-.14,1.69Z"/>
    </g>
    <path class="cls-4" d="M196.77,460.37c16.26,0,28.13-2.82,34.35-8.17,6.46-5.56,7.76-22.8,10.36-57.14,1.64-21.7,3.68-48.72,7.77-82.1,.17-1.39-.82-2.65-2.21-2.82-1.39-.17-2.65,.82-2.82,2.21-4.1,33.5-6.15,60.58-7.79,82.33-2.25,29.8-3.74,49.49-8.61,53.68-5.2,4.48-16.23,6.94-31.04,6.94h-.08c-14.45,0-27.89-.48-33.47-6.13-2.06-2.08-3.04-4.87-2.99-8.52,.1-8.93,14.13-14.72,19.52-16.19l1.77-.49,.09-1.84c2.57-53.66,13.66-113.31,13.77-113.91,.26-1.38-.65-2.7-2.02-2.96-1.37-.26-2.7,.65-2.96,2.02-.11,.59-11.02,59.28-13.77,112.82-5.45,1.81-21.34,8.14-21.48,20.48-.06,5,1.44,9.09,4.46,12.14,6.96,7.04,20.91,7.63,37.07,7.63h.08Z"/>
    <g class="cls-3">
      <path class="cls-4" d="M248.01,317.89c.13-1.22,.27-2.47,.41-3.74-.15,1.26-.28,2.51-.41,3.74Z"/>
    </g>
    <g class="cls-3">
      <path class="cls-4" d="M257.74,317.25c.14-1.49,.29-3,.44-4.54-.16,1.54-.3,3.05-.44,4.54Z"/>
    </g>
    <path class="cls-1" d="M184.16,313.68c.39,3.4,1.08,6.61,2.12,9.6,2.06,5.87,5.22,10.98,9.21,15.36,30.74,33.78,110.6,24.11,113.09-18.33,.09-1.45,.08-2.96-.02-4.5-.36-5.45-.87-11.22-1.45-17.21-3.51-36.11-9.79-80.1-4.69-110.11-10.79,10.79-83.31,15.52-83.74,8.71-.45-6.72,57.58-35.32,32.32-31.31-18.59,3.93-45.81,7.44-51.12,22.61-.32,3.34-1.89,7.65-3.01,10.7l-4.8,47.31c-3.12,22.78-10.14,47.96-7.92,67.17Z"/>
    <path class="cls-4" d="M190.83,246.33c-2.26,7.31-3.7,14.71-5.04,22.21-1.37,7.48-2.74,15.02-3.67,22.67-.46,3.83-.81,7.69-.93,11.59-.12,3.9-.05,7.84,.46,11.79,.23,1.98,.61,3.95,1.08,5.91l.39,1.47c.14,.49,.3,.97,.46,1.46,.3,.98,.66,1.91,1.04,2.84,1.5,3.74,3.51,7.28,5.92,10.5,4.82,6.47,11.2,11.59,18.16,15.36,6.97,3.78,14.52,6.3,22.2,7.83,7.69,1.52,15.55,2.05,23.37,1.67,7.81-.39,15.61-1.71,23.11-4.15,7.48-2.45,14.75-6.04,20.9-11.34,3.06-2.65,5.81-5.74,7.98-9.25,2.18-3.5,3.75-7.42,4.57-11.48,.4-2.03,.64-4.09,.69-6.15,.02-1.03,.02-2.06-.04-3.08-.05-1.03-.13-1.93-.2-2.9-.28-3.82-.6-7.63-.96-11.42-.71-7.6-1.52-15.17-2.32-22.73-1.6-15.12-3.19-30.21-4.06-45.3-.41-7.54-.66-15.08-.53-22.59,.12-7.51,.63-14.99,1.83-22.29l1.44-8.71-6.24,6.24c-.46,.46-1.16,.95-1.94,1.39-.78,.44-1.63,.85-2.52,1.23-1.78,.75-3.69,1.38-5.63,1.95-3.89,1.12-7.92,1.99-11.98,2.73-8.13,1.46-16.39,2.43-24.67,3.07-4.14,.31-8.28,.54-12.42,.64-4.13,.1-8.27,.09-12.31-.17-2.01-.14-4.03-.34-5.84-.72-.45-.1-.88-.2-1.25-.32-.38-.12-.71-.26-.84-.34-.06-.03-.04-.05,.09,.1,.06,.07,.16,.21,.24,.41,.05,.11,.08,.22,.1,.34,.03,.12,.03,.26,.03,.33,0,.34-.07,.42-.06,.4,0-.02,.06-.12,.14-.23,.34-.5,1.01-1.19,1.7-1.82,.7-.64,1.46-1.27,2.25-1.89,1.58-1.24,3.25-2.44,4.94-3.63,6.8-4.74,13.93-9.13,20.91-14.03,1.75-1.25,3.48-2.51,5.2-3.99,.43-.38,.86-.77,1.3-1.21,.44-.45,.88-.91,1.34-1.6,.23-.36,.48-.76,.69-1.42,.05-.16,.1-.37,.13-.57,.03-.24,.05-.45,.03-.75-.02-.53-.22-1.22-.57-1.72-.18-.27-.36-.46-.55-.65-.18-.16-.38-.31-.55-.42-.34-.21-.66-.34-.92-.43-.53-.18-.96-.24-1.33-.29-1.49-.14-2.6-.01-3.75,.11-.58,.07-1.08,.14-1.72,.24-.58,.1-1.12,.23-1.62,.33l-6.14,1.25c-8.23,1.67-16.58,3.33-24.75,6.22-4.07,1.46-8.13,3.23-11.88,5.81-1.87,1.29-3.65,2.8-5.19,4.61-1.54,1.8-2.82,3.92-3.62,6.22l-.1,.3-.03,.31c-.15,1.54-.58,3.25-1.09,4.94-.51,1.7-1.12,3.4-1.76,5.14-.48,1.31,.2,2.77,1.51,3.25,1.31,.48,2.77-.19,3.24-1.51,.64-1.75,1.3-3.54,1.87-5.4,.56-1.87,1.08-3.77,1.31-5.93l-.13,.6c1.16-3.32,3.74-6.1,6.92-8.26,3.18-2.17,6.88-3.8,10.69-5.14,7.67-2.67,15.84-4.28,24.04-5.9l6.19-1.23c.53-.1,1.01-.21,1.46-.29,.4-.06,.94-.13,1.4-.19,.93-.11,1.92-.16,2.52-.09,.14,.01,.24,.04,.2,.03-.01,0-.08-.03-.2-.1-.13-.08-.33-.23-.54-.53-.2-.28-.32-.71-.33-.98,0-.16,0-.24,.02-.35,0-.07,.03-.15,.04-.19,.05-.17,.05-.11-.01-.03-.12,.18-.39,.5-.69,.79-.3,.3-.65,.62-1.01,.93-1.45,1.25-3.12,2.46-4.79,3.64-6.77,4.72-13.95,9.1-20.93,13.92-1.75,1.21-3.49,2.45-5.22,3.8-.86,.67-1.72,1.37-2.57,2.14-.85,.79-1.7,1.57-2.56,2.79-.22,.32-.44,.67-.64,1.13-.2,.46-.42,1.05-.43,1.92,0,.2,.02,.46,.07,.72,.04,.25,.13,.48,.21,.72,.18,.43,.42,.8,.65,1.07,.47,.55,.91,.85,1.3,1.1,.77,.46,1.43,.69,2.05,.9,.62,.2,1.21,.34,1.79,.47,2.3,.48,4.47,.68,6.64,.84,4.33,.29,8.58,.29,12.84,.19,4.25-.1,8.48-.33,12.71-.65,8.45-.65,16.87-1.63,25.25-3.14,4.19-.77,8.37-1.66,12.55-2.86,2.09-.61,4.17-1.29,6.25-2.17,1.04-.44,2.08-.93,3.13-1.53,1.04-.6,2.1-1.29,3.13-2.3l-4.8-2.48c-1.28,7.71-1.79,15.44-1.93,23.14-.14,7.7,.11,15.37,.53,23.01,.87,15.28,2.46,30.46,4.06,45.58,.8,7.56,1.6,15.12,2.3,22.66,.35,3.77,.67,7.54,.94,11.31,.06,.92,.15,1.92,.19,2.79,.05,.88,.05,1.75,.04,2.62-.04,1.75-.24,3.48-.58,5.17-.68,3.4-1.96,6.65-3.79,9.61-1.82,2.97-4.17,5.63-6.85,7.97-5.38,4.68-11.99,8.01-18.93,10.3-6.96,2.28-14.29,3.55-21.65,3.95-7.37,.39-14.8-.1-22.03-1.5-7.22-1.41-14.27-3.75-20.69-7.21-6.41-3.45-12.17-8.07-16.47-13.81-2.15-2.86-3.94-5.99-5.28-9.3-.33-.83-.67-1.67-.92-2.51-.13-.42-.28-.84-.4-1.26l-.34-1.29c-.43-1.73-.77-3.49-.99-5.3-.47-3.59-.56-7.28-.46-10.98,.1-3.7,.43-7.42,.86-11.14,.88-7.45,2.2-14.9,3.54-22.37,1.38-7.46,2.73-15.02,2.55-22.78-.02-.71-.6-1.27-1.31-1.25-.57,.01-1.04,.39-1.2,.9h0Z"/>
    <path class="cls-4" d="M231.23,392.76c4.81,0,7.92-.26,8.32-.3,1.39-.12,2.42-1.36,2.3-2.75-.12-1.39-1.36-2.42-2.75-2.3-.32,.03-32.19,2.69-55.33-10.2-1.22-.68-2.77-.24-3.45,.98-.68,1.22-.24,2.77,.98,3.45,17.28,9.63,38.45,11.12,49.93,11.12Z"/>
    <path class="cls-4" d="M179.59,424.5c.88-.21,1.94-.41,2.94-.56,1.02-.16,2.04-.28,3.08-.38,2.06-.19,4.14-.25,6.22-.19,2.08,.04,4.14,.27,6.18,.63,2.05,.33,4.03,.94,5.99,1.61l.07,.02c.66,.23,1.38-.12,1.61-.78,.21-.62-.08-1.29-.66-1.56-2.03-.94-4.12-1.8-6.29-2.38-2.16-.6-4.37-1.06-6.59-1.33-2.22-.28-4.46-.44-6.71-.45-1.12,0-2.25,.02-3.37,.08-.56,.03-1.13,.07-1.7,.12-.58,.05-1.11,.11-1.76,.2-1.39,.2-2.35,1.49-2.14,2.88,.2,1.39,1.49,2.35,2.88,2.14,.08-.01,.15-.03,.23-.04h.04Z"/>
    <path class="cls-1" d="M243.54,342.26s12.02,62.06,17.66,91.09c4.81,24.77,21.66,26.38,58.67,25,13.02-.49,22.94-4.97,21.94-15.62-1.35-14.31-21.54-19.73-21.54-19.73,0,0-7.26-72.19-12.21-111.6l-64.52,30.86Z"/>
    <g class="cls-8">
      <path class="cls-4" d="M266.69,418.34c-4.11-25.93-19.38-64.52-22.53-72.87,2.53,13.06,12.18,62.81,17.04,87.89,4.81,24.76,21.67,26.38,58.68,25,13.02-.49,22.94-4.97,21.94-15.62-.1-1.1-.32-2.15-.63-3.14-2.96,3.98-9.54,5.88-15.82,6.24-40,2.26-54.78-2.91-58.67-27.49Z"/>
    </g>
    <path class="cls-4" d="M242.3,342.5c.73,9.44,2.35,18.71,4.12,27.95l5.28,27.72,5.28,27.72,1.32,6.93c.21,1.13,.46,2.38,.74,3.58,.29,1.21,.62,2.41,1.01,3.61,.77,2.39,1.79,4.77,3.14,7.01,1.35,2.24,3.05,4.32,5.06,6.07,2,1.75,4.28,3.14,6.64,4.2,2.36,1.06,4.79,1.81,7.22,2.36,4.87,1.11,9.72,1.52,14.51,1.73,4.8,.2,9.55,.17,14.29,.06,2.37-.05,4.73-.13,7.09-.21l1.77-.06c.6-.03,1.22-.05,1.84-.09,1.23-.07,2.47-.2,3.7-.36,2.47-.33,4.96-.85,7.42-1.69,2.45-.87,4.9-2.08,7.05-3.95,1.07-.94,2.04-2.05,2.81-3.31,.77-1.26,1.33-2.66,1.65-4.08,.32-1.42,.42-2.86,.36-4.24-.06-1.38-.28-2.75-.65-4.08-.74-2.67-2.1-5.11-3.77-7.17-1.67-2.07-3.63-3.79-5.7-5.27-2.07-1.48-4.27-2.69-6.52-3.74-1.13-.52-2.27-1-3.43-1.44-.58-.22-1.16-.43-1.76-.62-.61-.2-1.16-.38-1.85-.56h0s1.86,2.19,1.86,2.19c-1.89-18.62-3.83-37.24-5.84-55.85-2.02-18.61-4.07-37.21-6.38-55.81-.17-1.39-1.44-2.37-2.83-2.2-1.39,.17-2.37,1.44-2.2,2.83h0c2.3,18.54,4.36,37.14,6.37,55.73,2.01,18.6,3.95,37.2,5.83,55.81l.17,1.72,1.69,.48h0c.44,.13,1.01,.31,1.51,.49,.52,.18,1.04,.38,1.56,.58,1.03,.41,2.05,.86,3.05,1.34,2,.97,3.9,2.09,5.65,3.36,3.5,2.52,6.33,5.8,7.32,9.57,.49,1.86,.59,3.92,.17,5.64-.41,1.74-1.35,3.23-2.77,4.45-1.41,1.22-3.25,2.14-5.23,2.82-1.99,.68-4.13,1.14-6.32,1.43-1.1,.14-2.2,.26-3.32,.32-.56,.04-1.11,.06-1.69,.08l-1.76,.06c-2.34,.08-4.68,.15-7.01,.2-4.67,.1-9.32,.12-13.93-.08-4.6-.2-9.16-.61-13.47-1.61-4.31-.98-8.32-2.64-11.43-5.3-3.12-2.66-5.26-6.38-6.63-10.53-.34-1.04-.65-2.1-.91-3.17-.27-1.09-.48-2.15-.71-3.33l-1.37-6.92-5.46-27.69-5.46-27.69c-1.82-9.23-3.78-18.43-6.63-27.46-.21-.67-.93-1.04-1.6-.83-.58,.18-.93,.74-.89,1.32Z"/>
    <path class="cls-4" d="M274.18,391.48c30.35,0,42.53-6.83,43.13-7.18,1.21-.7,1.62-2.25,.92-3.46-.7-1.21-2.24-1.62-3.45-.92-.2,.11-17.48,9.55-62.16,5.45-1.39-.13-2.63,.9-2.75,2.29-.13,1.39,.9,2.63,2.29,2.75,8.22,.75,15.54,1.07,22.03,1.07Z"/>
    <path class="cls-4" d="M321.54,420.47c-1.83-.29-3.5-.45-5.24-.58-1.73-.12-3.45-.19-5.18-.19-3.45-.02-6.9,.19-10.33,.67-3.42,.49-6.82,1.26-10.11,2.42-1.64,.58-3.24,1.28-4.8,2.05-1.55,.8-3.04,1.72-4.47,2.73-.57,.4-.71,1.19-.3,1.77,.39,.55,1.13,.69,1.69,.35l.03-.02c1.37-.84,2.79-1.6,4.26-2.24,1.48-.62,3-1.18,4.55-1.61,3.11-.88,6.32-1.4,9.56-1.65,3.24-.24,6.5-.24,9.75-.01,1.62,.11,3.25,.28,4.85,.49,1.59,.22,3.25,.49,4.72,.82h.05c1.37,.32,2.72-.54,3.03-1.91,.31-1.37-.55-2.72-1.92-3.03-.05-.01-.11-.02-.16-.03Z"/>
    <g class="cls-8">
      <path class="cls-4" d="M184.16,313.68c.2,1.75,.48,3.44,.85,5.08,.08,.39,.17,.78,.27,1.16,.29,1.15,.62,2.26,1,3.36,.34,.98,.72,1.94,1.13,2.88,.1,.23,.19,.45,.3,.67,.11,.24,.22,.47,.33,.71,.14,.3,.29,.61,.44,.91,.88,1.74,1.86,3.42,2.93,5.01,.2,.29,.4,.58,.6,.86,.19,.27,.38,.53,.57,.79,.26,.35,.53,.69,.8,1.04,.22,.27,.44,.55,.67,.82,.1,.12,.21,.24,.31,.36,.23,.28,.47,.56,.71,.82,.14,.16,.3,.33,.44,.49,12.03,13.22,31.59,19.79,51.09,20.33l-3.68-17.77c-4.43-.22-8.83-.67-13.15-1.34l24.64,.86c6.92,.25,12.79-5.22,13.04-12.15l.16-4.66c24.26,2.81,37.35-1.96,41-3.6,.09-1.45,.08-2.96-.02-4.5-.36-5.45-.87-11.22-1.45-17.21-13.37,6.12-30.76,5.5-38.81,4.78l.21-5.94c.21-6.07-3.95-11.31-9.65-12.69-.8-.2-1.65-.31-2.5-.34l-58.48-2.05c-6.93-.25-12.8,5.22-13.04,12.15l-.68,19.18Z"/>
    </g>
    <path class="cls-1" d="M194.42,327.81l58.49,2.05c6.92,.25,12.79-5.22,13.04-12.15l1.09-31.13c.21-6.07-3.95-11.32-9.65-12.69-.81-.2-1.64-.31-2.51-.34l-58.48-2.05c-6.93-.25-12.8,5.22-13.04,12.15l-.87,24.65-.23,6.47c-.24,6.93,5.23,12.79,12.15,13.04Z"/>
    <g class="cls-8">
      <path class="cls-4" d="M194.42,327.81l58.49,2.05c6.92,.25,12.79-5.22,13.04-12.15l1.09-31.13c.21-6.07-3.95-11.32-9.65-12.69-3.4,2.09-5.56,3.43-5.56,3.43-3.72,24.88-3.28,43.45-41.95,39.51-13.33-1.36-22.15-5.6-27.39-8.53l-.23,6.47c-.24,6.93,5.23,12.79,12.15,13.04Z"/>
    </g>
    <path class="cls-4" d="M251.67,332.36l-56.19-1.97c-8.97-.32-16.02-7.87-15.7-16.85l1.01-28.83c.15-4.33,1.99-8.35,5.18-11.33,3.19-2.97,7.33-4.53,11.66-4.37l56.19,1.97c8.97,.32,16.02,7.87,15.7,16.85l-1.01,28.83c-.15,4.33-1.99,8.35-5.18,11.33-3.05,2.84-6.96,4.38-11.08,4.38-.19,0-.39,0-.58-.01Zm-62.24-55.28c-2.2,2.05-3.47,4.82-3.57,7.8l-1.01,28.83c-.1,2.98,.97,5.83,3.02,8.03,2.05,2.2,4.82,3.47,7.8,3.57l56.19,1.97c2.97,.1,5.83-.97,8.03-3.02,2.2-2.05,3.47-4.82,3.57-7.8l1.01-28.83c.22-6.18-4.64-11.39-10.82-11.6l-56.19-1.97c-.13,0-.27,0-.4,0-2.83,0-5.53,1.07-7.63,3.02Z"/>
    <path class="cls-1" d="M192.08,327.5c.75,.18,1.53,.29,2.34,.31l58.49,2.05c5.07,.18,9.58-2.71,11.72-7,.78-1.56,1.25-3.3,1.31-5.15l.49-13.83,.16-4.56,.45-12.74c.24-6.93-5.23-12.79-12.15-13.04l-12.64-.44c5.79,1.3,10.04,6.59,9.83,12.72l-.59,16.81-.51,14.32c-.25,6.92-6.11,12.4-13.04,12.15l-45.87-1.62Z"/>
    <g class="cls-8">
      <path class="cls-4" d="M192.08,327.5c.75,.18,1.53,.29,2.34,.31l58.49,2.05c6.92,.25,12.79-5.22,13.03-12.15l.65-18.39c-1.59,3.2-4.37,7.09-8.61,7.36-2.33,.15-4.55-1.6-6.49-4.04l-.51,14.32c-.25,6.92-6.11,12.4-13.04,12.15l-45.87-1.62Z"/>
    </g>
    <path class="cls-4" d="M252.82,332.4l-58.48-2.06c-.96-.03-1.92-.16-2.85-.38l.68-5,45.88,1.62c2.67,.1,5.23-.87,7.2-2.71,1.97-1.84,3.11-4.33,3.21-7l1.09-31.13c.17-4.83-3.13-9.1-7.85-10.17l.65-5,12.64,.44c8.34,.3,14.89,7.32,14.59,15.66l-1.09,31.13c-.14,4.03-1.85,7.77-4.81,10.53-2.83,2.64-6.47,4.07-10.29,4.07-.18,0-.36,0-.55,0Zm1.79-46.47l-1.09,31.13c-.13,3.84-1.69,7.42-4.41,10.15l3.9,.14c2.67,.11,5.23-.87,7.2-2.71,1.97-1.84,3.11-4.33,3.21-7l1.09-31.13c.2-5.55-4.16-10.22-9.71-10.42l-3.49-.12c2.19,2.75,3.43,6.25,3.3,9.97Z"/>
    <path class="cls-7" d="M228.46,300.85c-.03,1.15,1.31,10.49,1.31,10.49,0,0,2.94,.09,6.56,.19,4.52,.13,8.32-4.44,8.48-10.2,.17-5.77-3.35-10.55-7.87-10.69-3.05-.09-6.56-.19-6.56-.19,0,0-1.87,8.52-1.93,10.4Z"/>
    <g class="cls-3">
      <path class="cls-4" d="M228.46,300.85c-.03,1.15,1.31,10.49,1.31,10.49,0,0,2.94,.09,6.56,.19,4.52,.13,8.32-4.44,8.48-10.2,.17-5.77-3.35-10.55-7.87-10.69-3.05-.09-6.56-.19-6.56-.19,0,0-1.87,8.52-1.93,10.4Z"/>
    </g>
    <path class="cls-4" d="M236.28,313.43l-8.16-.24-.23-1.58c-.32-2.23-1.37-9.6-1.33-10.82h0c.06-1.95,1.65-9.3,1.97-10.75l.34-1.54,8.13,.24c5.56,.16,9.91,5.83,9.71,12.64-.2,6.71-4.75,12.05-10.19,12.05-.08,0-.16,0-.24,0Zm-5.92-12.54c0,.66,.51,4.63,1.07,8.59l4.96,.15c3.44,.1,6.39-3.65,6.53-8.36,.14-4.71-2.57-8.63-6.03-8.73l-4.98-.15c-.68,3.22-1.52,7.43-1.55,8.5Z"/>
    <ellipse class="cls-7" cx="230.08" cy="300.89" rx="10.45" ry="8.18" transform="translate(-77.44 522.04) rotate(-88.32)"/>
    <g class="cls-3">
      <path class="cls-4" d="M238.26,301.14c-.17,5.77-3.97,10.34-8.48,10.2-4.52-.13-8.05-4.92-7.87-10.69,.02-.78,.11-1.54,.27-2.27,1.05,4,3.95,6.91,7.46,7.01,3.9,.11,7.27-3.28,8.22-7.93,.3,1.15,.44,2.39,.41,3.68Z"/>
    </g>
    <path class="cls-1" d="M238.26,301.14c-.01,.39-.04,.78-.09,1.16-.76-4.55-3.88-7.98-7.69-8.09-4.21-.12-7.8,3.84-8.39,9.05-.14-.84-.21-1.71-.18-2.6,.17-5.77,3.97-10.34,8.48-10.21,4.52,.14,8.04,4.92,7.87,10.69Z"/>
    <path class="cls-4" d="M229.72,313.24c-2.78-.08-5.33-1.5-7.17-4-1.74-2.36-2.64-5.43-2.55-8.64h0c.09-3.21,1.18-6.22,3.05-8.47,1.98-2.39,4.6-3.64,7.39-3.57,2.78,.08,5.33,1.5,7.17,4,1.74,2.36,2.64,5.43,2.55,8.64-.2,6.71-4.75,12.05-10.19,12.05-.08,0-.16,0-.24,0Zm-3.74-18.69c-1.33,1.6-2.1,3.79-2.17,6.16h0c-.07,2.37,.57,4.6,1.81,6.27,1.13,1.54,2.63,2.41,4.22,2.46,3.46,.09,6.39-3.65,6.53-8.36,.07-2.37-.57-4.6-1.81-6.27-1.13-1.54-2.63-2.41-4.22-2.46-.05,0-.09,0-.13,0-1.54,0-3.03,.78-4.22,2.21Z"/>
    <path class="cls-4" d="M212.61,330.13c1.04,0,1.89-.84,1.9-1.88l.18-15.76c.05-4.3-2.05-8.31-5.6-10.73-2.56-1.74-4.03-4.63-3.94-7.72l.7-22.2c.03-1.05-.79-1.93-1.84-1.96-1.05-.01-1.93,.79-1.96,1.84l-.7,22.2c-.14,4.4,1.95,8.51,5.6,10.98,2.5,1.7,3.97,4.52,3.94,7.54l-.18,15.76c-.01,1.05,.83,1.91,1.88,1.92h.02Z"/>
    <path class="cls-1" d="M306.31,287.44s7.66,1.01,7.9,9.97c.26,9.64-6.03,11.52-6.03,11.52,0,0-15.03,8.64-48.73,3.21,0,0-8.52-13.01,2.94-20.12,0,0,25.91,4.06,43.92-4.58Z"/>
    <g class="cls-8">
      <path class="cls-4" d="M259.45,312.14c33.7,5.43,48.73-3.21,48.73-3.21,0,0,6.3-1.89,6.04-11.52-.02-.75-.1-1.45-.21-2.09-1.79,3.27-4.49,4.08-4.49,4.08,0,0-13.4,7.7-43.27,3.99-3.93-.49-7.21-3.33-8.09-7.19,0-.04-.02-.07-.03-.11-4.52,7.11,1.33,16.05,1.33,16.05Z"/>
    </g>
    <path class="cls-4" d="M261.5,314.88c-2.43-.35-4.48-1.89-5.48-4.12-3.51-7.74-2.38-14.78,3.09-19.33,1.47-1.22,3.42-1.79,5.36-1.56,5.57,.66,24.88,2.31,39.39-3.95t0,0c1.82-.78,3.88-.78,5.65,.01,2.57,1.15,6.91,4.17,7.11,11.41,.28,10.22-5.96,13.22-7.44,13.78-1.51,.8-10.61,5.21-28.64,5.21-5.5,0-11.83-.41-19.03-1.46Zm44.26-24.55h0c-15.61,6.74-35.98,5-41.86,4.31-.64-.07-1.27,.1-1.73,.49-4.79,3.98-3.61,9.62-1.78,13.66,.33,.73,1,1.23,1.8,1.35,30.62,4.45,44.67-3.21,44.8-3.28,.16-.09,.33-.17,.51-.22,.05-.01,4.53-1.45,4.32-9.16-.1-3.52-1.53-5.93-4.28-7.16-.27-.12-.56-.18-.86-.18s-.63,.06-.92,.19Z"/>
    <path class="cls-1" d="M272.74,217.76l7.9,13.4,20.19,34.24,.62,1.06c.87-.67,1.74-1.35,2.61-2.04,38.57-30.32,73.11-69.26,77.42-71.45,12.69-6.45,23.06-18.15,23.9-25.32,1.58-13.52-16.76-34.42-19.75-37.74-.27-.3-.41-.45-.41-.45,0,0,15.9-22.3,5.47-29.59-10.7-7.47-36.14,28.44-37.89,30.59-3.25,4.01-11.18-14.79-22.28-13.62-13.23,1.39,4.1,29.9,3.11,32.99-1.15,3.6-10.4,16.15-26.5,33.63-1.5,1.63-3.07,3.3-4.69,5.02-8.38,8.85-18.32,18.77-29.69,29.28Z"/>
    <g class="cls-8">
      <path class="cls-4" d="M300.82,265.41l.62,1.06c.87-.67,1.74-1.35,2.61-2.04,38.57-30.32,73.11-69.26,77.42-71.45,12.69-6.45,23.06-18.15,23.9-25.32,1.58-13.52-16.76-34.42-19.75-37.74-9.5,7.65-31.79,25.37-31.79,25.37,0,0,.21,62.08-53,110.12Z"/>
    </g>
    <path class="cls-4" d="M301.44,269.01c.54,0,1.09-.17,1.55-.53,26.75-20.66,51.78-45.8,66.73-60.82,6.01-6.03,11.68-11.73,12.91-12.42,12.93-6.57,24.27-18.81,25.26-27.28,1.59-13.63-14.58-33.14-19.48-38.7,2.8-4.32,9.59-15.87,8.14-24.32-.52-3.04-2.01-5.44-4.42-7.12-7.95-5.56-21.19,4.24-40.47,29.96-.1,.14-.2,.27-.29,.38-.9-.72-2.3-2.26-3.38-3.46-4.28-4.71-10.16-11.17-17.75-10.37-3.42,.36-5.15,2.14-6.01,3.57-3.21,5.38,.14,14.58,4.5,25.17,.97,2.35,2.16,5.24,2.36,6.29-2.12,5.17-22.68,31.97-60.07,66.55-1.03,.95-1.09,2.55-.14,3.58,.95,1.03,2.55,1.09,3.58,.14,37.34-34.52,59.6-62.85,61.57-69.01,.54-1.68-.25-3.75-2.61-9.47-2.45-5.94-7-17.01-4.84-20.64,.27-.44,.75-.97,2.19-1.13,5.05-.53,9.72,4.61,13.47,8.73,2.92,3.21,5.04,5.54,7.58,5.46,1.13-.03,2.18-.56,2.93-1.5,.15-.19,.48-.62,.96-1.26,2.51-3.34,9.17-12.23,16.44-19.48,7.98-7.96,14.2-11.37,17.07-9.37,1.28,.89,2.04,2.14,2.33,3.83,1.19,6.87-5.67,18.37-8.41,22.22-.7,.98-.61,2.32,.21,3.2,5.87,6.29,20.8,25.06,19.51,36.16-.7,5.98-10.12,17.05-22.53,23.35-1.74,.88-5.38,4.51-14.19,13.36-14.87,14.93-39.75,39.93-66.24,60.38-1.11,.86-1.31,2.45-.46,3.55,.5,.65,1.25,.98,2.01,.98Z"/>
    <path class="cls-1" d="M387.41,189.48s4.18-2.55,8.51-6.68c5.06-4.84,10.32-11.85,9.34-19.53-1.82-14.24-20.06-33.79-20.06-33.79-5.32-.51-12.43,3.35-18.59,8.69-7.16,6.2-13.04,14.4-13.37,20.06-.45,7.84,15.25,34.79,34.17,31.26Z"/>
    <g class="cls-8">
      <path class="cls-4" d="M387.41,189.48s4.18-2.55,8.51-6.68c-4-.82-9.37-3.28-15.2-9.69-12.05-13.23-17.78-23.12-14.11-34.95-7.16,6.2-13.04,14.4-13.37,20.06-.45,7.84,15.25,34.79,34.17,31.26Z"/>
    </g>
    <path class="cls-4" d="M386.14,187.29l.05-.03,.11-.07,.22-.14,.45-.3,.89-.61c.59-.42,1.18-.85,1.76-1.29,1.16-.89,2.28-1.81,3.36-2.78,2.16-1.94,4.16-4.04,5.81-6.32,1.66-2.27,2.98-4.73,3.61-7.27,.32-1.27,.47-2.54,.43-3.8l-.08-.94c-.03-.32-.12-.66-.18-.99l-.19-1c-.06-.33-.12-.67-.24-1l-.61-2.01c-.23-.67-.52-1.33-.78-1.99-.14-.33-.25-.67-.41-.99l-.47-.98c-.32-.65-.6-1.32-.96-1.96-1.36-2.59-2.9-5.11-4.55-7.58-1.67-2.46-3.43-4.87-5.27-7.22-1.85-2.33-3.79-4.66-5.76-6.81l1.61,.79c-1.48-.11-3.18,.18-4.85,.75-1.68,.58-3.35,1.4-4.97,2.35-3.24,1.9-6.27,4.31-9.04,6.97-2.76,2.66-5.29,5.6-7.3,8.76-1,1.58-1.86,3.22-2.43,4.84-.27,.81-.5,1.62-.56,2.36-.02,.19-.05,.38-.04,.52,0,.16-.01,.3,.02,.5,.03,.19,.03,.37,.07,.57l.12,.61c.37,1.66,1.04,3.43,1.82,5.13,.79,1.71,1.71,3.38,2.72,5.01,2.02,3.24,4.41,6.27,7.1,8.92,2.69,2.65,5.75,4.89,9.04,6.36,1.65,.72,3.37,1.22,5.1,1.45l.65,.09,.65,.03c.43,.02,.87,.06,1.3,.02l.65-.03c.21,0,.45-.01,.58-.04,.3-.04,.6-.06,.92-.06-.13,.04-.31,.14-.37,.18Zm.12,4.91c-.37,.06-.63,.06-.92,.07l-.85,.04c-.57,.04-1.14,0-1.71-.03l-.85-.05-.84-.12c-2.24-.3-4.42-.94-6.44-1.83-4.04-1.8-7.54-4.41-10.56-7.39-3.03-2.98-5.64-6.3-7.86-9.86-1.11-1.79-2.13-3.63-3.02-5.57-.88-1.94-1.68-3.94-2.18-6.19l-.16-.87c-.05-.29-.08-.62-.11-.93-.06-.61-.06-1.4,.02-1.98,.12-1.27,.44-2.4,.81-3.49,.76-2.16,1.8-4.08,2.94-5.9,2.31-3.61,5.06-6.79,8.07-9.7,3.02-2.9,6.3-5.52,9.99-7.69,1.84-1.08,3.79-2.04,5.9-2.77,2.12-.71,4.44-1.2,6.97-1,.59,.05,1.17,.31,1.61,.79h0c4.23,4.66,8.02,9.49,11.53,14.67,3.43,5.2,6.65,10.66,8.46,17.03,.13,.39,.21,.8,.29,1.22l.24,1.24c.07,.42,.17,.82,.22,1.26l.11,1.33c.06,1.78-.16,3.55-.59,5.24-.85,3.38-2.51,6.37-4.43,9.01-1.93,2.65-4.16,4.98-6.52,7.11-1.19,1.06-2.41,2.07-3.67,3.04-.63,.48-1.27,.95-1.92,1.41l-.99,.68-.51,.33-.26,.17-.13,.09-.07,.04c-.1,.07-.33,.19-.49,.25-.68,.14-1.37,.26-2.06,.35Z"/>
    <path class="cls-4" d="M346.74,229.33c.93,0,1.83-.52,2.27-1.41,.62-1.25,.11-2.77-1.14-3.4-.29-.15-29.43-14.89-39.39-40.38-.51-1.3-1.98-1.95-3.28-1.44-1.3,.51-1.95,1.98-1.44,3.28,10.68,27.34,40.59,42.44,41.85,43.07,.36,.18,.75,.26,1.12,.26Z"/>
    <g>
      <g>
        <path class="cls-1" d="M315.81,136.1l-4.44,1.69c-.8,.3-1.69-.1-1.99-.9l-20.32-53.54c-.3-.8,.1-1.69,.9-1.99l4.44-1.69c8.37-3.18,17.74,1.03,20.92,9.41l9.91,26.1c3.18,8.37-1.03,17.74-9.41,20.92Z"/>
        <path class="cls-4" d="M309.99,138.18c-.49-.22-.87-.62-1.06-1.12l-20.32-53.54c-.19-.5-.17-1.05,.05-1.54,.22-.49,.62-.87,1.12-1.06l4.44-1.69c4.17-1.58,8.7-1.45,12.77,.38,4.06,1.83,7.17,5.13,8.76,9.3l9.91,26.1c3.27,8.6-1.08,18.26-9.68,21.52l-4.44,1.69c-.23,.09-.47,.13-.72,.13-.28,0-.56-.06-.82-.18Zm5.65-2.51c8.12-3.08,12.22-12.2,9.14-20.32l-9.91-26.1c-3.08-8.12-12.2-12.22-20.32-9.14l-4.44,1.69c-.56,.21-.84,.84-.63,1.39l20.33,53.54c.21,.56,.84,.84,1.39,.63l4.44-1.69h0Z"/>
      </g>
      <g class="cls-8">
        <path class="cls-4" d="M320.47,102.69l3.21,8.44c4.03,10.61-1.31,22.48-11.92,26.52-1.01,.39-2.14-.13-2.53-1.14l-5.33-14.03c.53,.53,1.33,.73,2.08,.45l1.25-.48c8.39-3.18,13.48-11.27,13.25-19.77Z"/>
      </g>
      <path class="cls-4" d="M306.94,137.81l-20.32-53.54c-.81-2.14,.27-4.53,2.4-5.35l4.44-1.69c9.7-3.68,20.59,1.21,24.27,10.91l9.91,26.1c3.68,9.7-1.21,20.59-10.91,24.27l-4.44,1.69c-.48,.18-.98,.27-1.47,.27-1.67,0-3.25-1.02-3.88-2.67Zm7.94-4.14c7.02-2.67,10.57-10.55,7.9-17.57l-9.91-26.1c-1.29-3.4-3.83-6.1-7.15-7.59-3.32-1.49-7.02-1.6-10.42-.31l-3.46,1.31,19.58,51.57,3.46-1.31h0Z"/>
      <g>
        <path class="cls-1" d="M112.11,148.87l4.44-1.69c.8-.3,1.69,.1,1.99,.9l20.32,53.54c.3,.8-.1,1.69-.9,1.99l-4.44,1.69c-8.37,3.18-17.74-1.03-20.92-9.41l-9.91-26.1c-3.18-8.37,1.03-17.74,9.41-20.92Z"/>
        <path class="cls-4" d="M120.93,205.36c-4.06-1.83-7.17-5.13-8.76-9.3l-9.91-26.1c-3.27-8.6,1.08-18.26,9.68-21.52l4.44-1.69c.5-.19,1.05-.18,1.54,.05,.49,.22,.87,.62,1.06,1.12l20.32,53.54c.19,.5,.17,1.05-.05,1.54-.22,.49-.62,.87-1.12,1.06l-4.44,1.69c-1.93,.73-3.93,1.1-5.93,1.1-2.33,0-4.65-.49-6.84-1.48Zm-4.22-57.73l-4.44,1.69c-3.93,1.49-7.05,4.43-8.78,8.27-1.73,3.84-1.85,8.12-.36,12.05l9.91,26.1c1.49,3.93,4.43,7.05,8.27,8.78,3.84,1.73,8.12,1.85,12.05,.36l4.44-1.69c.27-.1,.48-.3,.6-.57,.12-.26,.13-.56,.02-.83l-20.33-53.54c-.1-.27-.3-.48-.57-.6-.14-.06-.29-.1-.44-.1-.13,0-.26,.02-.38,.07Z"/>
      </g>
      <g class="cls-8">
        <path class="cls-4" d="M133.17,186.59l5.56,14.64c.39,1.01-.13,2.14-1.14,2.53-5.57,2.11-11.49,1.65-16.44-.81-4.47-2.22-8.15-6.07-10.06-11.11l-2.88-7.58c5.54,5.51,14.01,7.59,21.79,4.64l1.93-.73c.7-.27,1.15-.88,1.25-1.58Z"/>
      </g>
      <path class="cls-4" d="M120.05,207.3c-4.58-2.06-8.09-5.78-9.87-10.48l-9.91-26.1c-1.78-4.7-1.63-9.81,.43-14.39,2.06-4.58,5.78-8.09,10.48-9.87l4.44-1.69c1.03-.39,2.16-.36,3.17,.09,1.01,.45,1.78,1.27,2.17,2.31l20.32,53.54c.39,1.03,.36,2.16-.09,3.17-.45,1.01-1.27,1.78-2.31,2.17l-4.44,1.69c-2.17,.82-4.43,1.24-6.69,1.24-2.62,0-5.24-.56-7.71-1.67Zm-3.57-57.31l-3.46,1.31h0c-7.02,2.67-10.57,10.55-7.9,17.57l9.91,26.1c1.29,3.4,3.83,6.1,7.15,7.59,3.32,1.49,7.02,1.6,10.42,.31l3.46-1.31-19.58-51.57Z"/>
      <g class="cls-8">
        <path class="cls-4" d="M181.13,245.12c3.39,1.73,6.9,3.23,10.5,4.51,11.18,3.95,23.24,5.67,35.47,4.8,6.33-.46,12.7-1.61,19.03-3.51,13.31-4,24.97-10.88,34.5-19.75,8.92-8.29,15.98-18.33,20.79-29.39,2.55-5.85,4.46-11.99,5.69-18.31-1.5,1.63-3.07,3.3-4.69,5.02,.24-2.04,.52-4.02,.84-5.92,1.15-6.72-.91-6.85-1.34-13.67-.45-6.72-25.66-7.03-50.92-3.02-18.59,3.93-45.81,7.44-51.12,22.61-.32,3.34-1.89,7.65-3.01,10.7l-2.66,26.17c-3.39,4.95-8.06,11.9-13.09,19.76Z"/>
      </g>
      <g>
        <circle class="cls-1" cx="213.97" cy="142.48" r="96.18"/>
        <path class="cls-4" d="M121.41,170.29c-15.33-51.04,13.72-105.03,64.75-120.37,24.72-7.43,50.86-4.78,73.59,7.45,22.73,12.23,39.34,32.58,46.77,57.31,7.43,24.72,4.78,50.86-7.45,73.59-12.23,22.73-32.58,39.34-57.31,46.77-9.24,2.78-18.57,4.1-27.76,4.1-41.56,0-80.05-27.05-92.61-68.85ZM186.43,50.82c-50.54,15.18-79.31,68.66-64.13,119.2,12.44,41.4,50.55,68.19,91.71,68.19,9.09,0,18.34-1.31,27.49-4.06,24.48-7.36,44.64-23.81,56.75-46.32,12.11-22.51,14.73-48.4,7.38-72.88-7.36-24.48-23.81-44.64-46.32-56.75-14.14-7.61-29.6-11.47-45.22-11.47-9.25,0-18.55,1.36-27.66,4.09Z"/>
      </g>
      <g class="cls-8">
        <path class="cls-4" d="M301.37,102.33c1.84,3.99,3.41,8.16,4.72,12.49,15.28,50.87-13.57,104.5-64.44,119.79-50.87,15.28-104.5-13.57-119.79-64.44-.44-1.46-.85-2.94-1.21-4.4,19.68,42.97,68.53,65.94,115.07,51.96,49.41-14.85,78.04-65.85,65.65-115.39Z"/>
      </g>
      <path class="cls-4" d="M119.37,170.9c-15.67-52.16,14.02-107.35,66.18-123.02,52.16-15.67,107.35,14.02,123.02,66.18,7.59,25.27,4.89,51.98-7.61,75.22-12.5,23.24-33.3,40.21-58.57,47.8-9.44,2.84-18.98,4.19-28.37,4.19-42.47,0-81.82-27.65-94.65-70.37ZM187.04,52.86c-49.42,14.85-77.55,67.13-62.7,116.55,12.16,40.48,49.43,66.67,89.67,66.67,8.89,0,17.93-1.28,26.88-3.97,23.94-7.19,43.65-23.28,55.49-45.29,11.84-22.01,14.4-47.32,7.21-71.26-12.16-40.48-49.43-66.67-89.67-66.67-8.89,0-17.93,1.28-26.88,3.97Z"/>
      <path class="cls-5" d="M306.5,117.27c5.69,17.94,5.14,36.44-.45,53.38-4.19,12.7-29.16,40.51-66.96,52.87-35.05,11.46-72.96,2.85-83.71-5.11-14.33-10.62-25.43-25.44-31.12-43.38-15.05-47.48,19.5-80.09,69.83-96.04,50.32-15.95,97.35-9.2,112.4,38.28Z"/>
      <path class="cls-4" d="M153.84,220.49c-15.3-11.34-26.38-26.79-32.05-44.68-7.39-23.32-3.74-44.27,10.86-62.26,12.73-15.68,33.7-28.49,60.66-37.04,26.96-8.54,51.48-10.16,70.92-4.67,22.3,6.3,37.35,21.32,44.74,44.64h0c5.67,17.89,5.51,36.9-.46,54.98-4.14,12.54-28.52,41.41-68.61,54.52-12.58,4.11-25.41,5.72-37.28,5.72-22.41,0-41.39-5.74-48.78-11.22Zm41.04-139.03c-26.65,8.45-86.64,34.4-68.14,92.78,5.34,16.84,15.78,31.39,30.19,42.08,10.23,7.59,47.19,15.9,81.35,4.73,37.86-12.38,61.56-39.9,65.3-51.21,5.63-17.04,5.78-34.94,.44-51.78h0c-6.83-21.55-20.69-35.42-41.2-41.21-7.1-2.01-14.94-3-23.38-3-13.51,0-28.56,2.55-44.55,7.62Zm111.61,35.8h0Z"/>
      <g class="cls-2">
        <ellipse class="cls-1" cx="274.84" cy="120.2" rx="12.33" ry="17.02" transform="translate(-13.07 35.98) rotate(-7.32)"/>
      </g>
      <g class="cls-2">
        <ellipse class="cls-1" cx="270.62" cy="156.91" rx="7.81" ry="6.7" transform="translate(110.77 425.8) rotate(-89.37)"/>
      </g>
      <g class="cls-3">
        <path class="cls-6" d="M274.74,78.59c14.51,7.1,25.71,19.61,31.76,38.67,5.69,17.94,5.14,36.45-.45,53.38-4.19,12.7-29.16,40.51-66.96,52.87-13.34,4.37-27.1,5.82-39.63,5.5,46.14-16.18,76.49-50.23,81.69-65.98,7.1-21.5,7.79-44.98,.57-67.75-1.92-6.09-4.28-11.64-6.99-16.7Z"/>
      </g>
      <path class="cls-4" d="M118.31,134.95c1.02,0,1.98-.6,2.39-1.59,0-.02,.02-.05,.03-.07l.07-.2c8.09-27.12,33.8-49.36,70.55-61.01,36.54-11.58,70.27-8.63,92.54,8.1l.28,.21,.33,.13c1.32,.52,2.83-.12,3.36-1.44,.47-1.17,.04-2.47-.97-3.14-23.63-17.68-59.02-20.89-97.12-8.82-38.4,12.17-65.35,35.66-73.95,64.45-.4,1.28,.25,2.67,1.51,3.18,.32,.13,.65,.19,.98,.19Z"/>
      <g class="cls-2">
        <path class="cls-1" d="M153.68,196.78s-29.55-42.18-10.22-68.84c19.33-26.67,55.67-38.1,55.56-35.5,0,0-37.12,22.48-42.78,59.25-4.36,28.35-2.56,45.1-2.56,45.1Z"/>
      </g>
    </g>
  </g>
  <g>
    <path class="cls-4" d="M276.89,243.21h0s-16.5,0-16.5,0l6.79,6.8h9.17c1.32,0,2.38,1.12,2.38,2.5s-1.07,2.5-2.38,2.5h-5.58l6.74,6.77c4.6-.34,8.24-4.36,8.24-9.27s-3.96-9.28-8.85-9.29Z"/>
    <polygon class="cls-4" points="268.84 255 262.8 255 262.18 255 261.02 255 259.73 255 267.17 262.48 268.3 262.48 275.69 270.05 283.82 270.05 275.58 261.77 268.84 255"/>
  </g>
</svg>