<?xml version="1.0" encoding="UTF-8"?>
<svg id="Layer_1" data-name="Layer 1" xmlns="http://www.w3.org/2000/svg" viewBox="0 0 500 500">
  <defs>
    <style>
      .cls-1, .cls-2 {
        fill-rule: evenodd;
      }

      .cls-1, .cls-3 {
        fill: #232323;
      }

      .cls-4, .cls-2 {
        fill: #fff;
      }

      .cls-5 {
        opacity: .6;
      }

      .cls-6 {
        fill: #020202;
      }

      .cls-7 {
        opacity: .4;
      }

      .cls-8 {
        opacity: .3;
      }

      .cls-9 {
        fill: #353535;
      }

      .cls-10 {
        fill: #030b2f;
      }
    </style>
  </defs>
  <g>
    <g>
      <path class="cls-4" d="M115.52,243.19c.46,0,.92,.05,1.38,.15h-2.74c.45-.1,.91-.15,1.37-.15Z"/>
      <path class="cls-4" d="M405.46,243.34h-2.74c.46-.1,.92-.15,1.38-.15s.92,.05,1.37,.15Z"/>
      <path class="cls-4" d="M116.89,243.34h-2.74c.45-.1,.91-.15,1.37-.15s.92,.05,1.38,.15Z"/>
      <path class="cls-4" d="M405.46,243.34h-2.74c.46-.1,.92-.15,1.38-.15s.92,.05,1.37,.15Z"/>
      <path class="cls-4" d="M410.05,251.7c.52-1.42,.53-3.03-.08-4.55-.41-1.01-1.05-1.86-1.83-2.5h0c-.78-.65-1.7-1.09-2.67-1.31,15.46-7.8,8.77-19.92-4.75-13.82l-14.94,6.27c-4.98-12.05-16.55-8.68-21.21,1.45l-18.93,6.11-23.88,7.71h-123.9l-23.88-7.71-18.93-6.11c-4.66-10.12-16.23-13.5-21.21-1.45l-14.94-6.27c-13.52-6.11-20.21,6.02-4.75,13.82-1.97,.44-3.69,1.8-4.51,3.81-.15,.37-.26,.75-.34,1.12-.24,1.17-.13,2.36,.26,3.43-9.68,.16-13.22,8.53-3.65,11.56l87.38,29.08-.08,1.64-1.99,42.23c-.23,4.79-1.98,9.4-5.01,13.12l-27.15,33.47c-18-16.87-54.81-5.8-28.76,24.58l10.77,10.16,1.24,1.17,14.88,14.04c5.8,5.48,14.81,5.64,20.81,.39l67.47-59.02c6.93-6.07,16.75-7.01,24.58-2.83,1.44,.77,2.82,1.71,4.09,2.83l67.47,59.02c6,5.25,15.01,5.08,20.81-.39l6.3-5.94,9.82-9.27,10.77-10.16c26.05-30.39-10.77-41.45-28.76-24.58l-27.15-33.47c-3.03-3.73-4.78-8.33-5.01-13.12l-2.06-43.87,87.38-29.08c9.57-3.03,6.03-11.4-3.65-11.56Zm-294.53-8.52c.46,0,.92,.05,1.38,.15h-2.74c.45-.1,.91-.15,1.37-.15Zm287.19,.15c.46-.1,.92-.15,1.38-.15s.92,.05,1.37,.15h-2.74Z"/>
    </g>
    <circle class="cls-4" cx="259.8" cy="170.59" r="101.55"/>
    <path class="cls-4" d="M159.14,157.16c-24.86,4.51-13.71,65.92,11.15,61.41"/>
    <path class="cls-4" d="M361.87,157.16c24.86,4.51,13.71,65.92-11.15,61.41"/>
    <path class="cls-3" d="M259.8,274.7c-57.41,0-104.12-46.71-104.12-104.12s46.71-104.12,104.12-104.12,104.12,46.71,104.12,104.12-46.71,104.12-104.12,104.12Zm0-203.09c-54.57,0-98.97,44.4-98.97,98.97s44.4,98.97,98.97,98.97,98.97-44.4,98.97-98.97-44.4-98.97-98.97-98.97Z"/>
    <path class="cls-3" d="M167.62,221.39c-12.82,0-21.39-14.85-24.08-29.68-2.91-16.01,.59-34.44,15.14-37.08,1.4-.26,2.73,.67,2.99,2.07,.25,1.4-.67,2.73-2.07,2.99-10.58,1.92-13.54,17.1-11,31.1,2.37,13.08,9.61,25.43,19.18,25.44,.67,0,1.36-.06,2.05-.19,1.4-.26,2.73,.67,2.99,2.07,.25,1.4-.67,2.73-2.07,2.99-1.07,.19-2.11,.29-3.13,.29Z"/>
    <path class="cls-10" d="M347.89,214.47s0,0,0,.01c-26.77,34.56-77.31,45.61-120.2,34.45-5.68-1.47-11.21-3.34-16.55-5.59-.01,0-.02,0-.02,0-14.54-6.14-27.55-15.14-37.55-26.94-28.41-66.57,29.62-105.62,84.62-108.02,27.3-1.2,56.16,6.99,74.82,25.13,18.02,17.52,26.52,44.34,14.88,80.97Z"/>
    <path class="cls-6" d="M347.89,214.47s0,0,0,.01c-26.77,34.56-77.31,45.61-120.2,34.45-9.63-3.23-16.18-5.46-16.55-5.59-.01,0-.02,0-.02,0,97.73-.91,126.42-44.98,121.89-109.84,18.02,17.52,26.52,44.34,14.88,80.97Z"/>
    <g class="cls-8">
      <path class="cls-3" d="M361.35,170.59c0,56.08-45.46,101.55-101.55,101.55-26.49,0-50.62-10.14-68.7-26.77,12.01,5.01,25.17,7.76,38.99,7.76,56.08,0,101.55-45.46,101.55-101.55,0-29.58-12.65-56.21-32.84-74.77,36.72,15.29,62.54,51.52,62.54,93.78Z"/>
    </g>
    <path class="cls-3" d="M353.34,221.38c-1.02,0-2.04-.09-3.08-.28-1.4-.25-2.32-1.59-2.07-2.99,.25-1.4,1.59-2.33,2.99-2.07,4.64,.84,8.95-1.03,12.8-5.57,8.3-9.79,11.78-28.98,7.45-41.06-2.01-5.6-5.38-8.87-10.02-9.72-1.4-.25-2.32-1.59-2.07-2.99,.25-1.4,1.59-2.32,2.99-2.07,6.49,1.18,11.31,5.69,13.94,13.04,4.95,13.81,1.11,34.93-8.37,46.12-4.24,5-9.23,7.59-14.56,7.59Z"/>
    <path class="cls-3" d="M158.37,168.44c-.23,0-.46-.03-.69-.09-1.37-.38-2.17-1.8-1.79-3.16,6.38-23.01,20.84-41.99,41.82-54.91,18.92-11.64,42.49-17.79,66.39-17.31,22.94,.46,45.07,7.08,62.33,18.65,19.19,12.86,32.09,31.42,37.31,53.67,.32,1.38-.53,2.77-1.92,3.09-1.38,.32-2.77-.53-3.09-1.92-11.55-49.27-58.25-67.61-94.74-68.35-41.66-.83-89.72,20-103.15,68.45-.32,1.14-1.35,1.88-2.48,1.88Z"/>
    <path class="cls-3" d="M260.64,255.69c-35.87,0-68.97-13.94-89.03-37.63-.17-.2-.3-.42-.4-.65-10.9-25.54-10.12-49.44,2.26-69.11,7.86-12.49,20.34-23.07,36.08-30.6,14.68-7.03,31.47-11.14,48.54-11.88,34.56-1.51,66.59,11.36,83.61,33.59,15.14,19.77,18.13,46,8.65,75.85h0c-.04,.14-.1,.28-.17,.41-.07,.14-.16,.28-.26,.4-18.89,24.39-50.34,38.82-86.26,39.6-1.01,.02-2.01,.03-3.01,.03Zm-84.86-40.66c19.65,22.99,52.44,36.25,87.76,35.49,34.19-.74,64.06-14.32,82.03-37.25,8.79-28,6.04-52.45-7.97-70.74-16.02-20.92-46.41-33.02-79.3-31.58-34.51,1.51-66.11,17.25-80.49,40.09-11.39,18.09-12.09,40.21-2.04,64Zm172.1-.55h0Z"/>
    <path class="cls-3" d="M347.26,218.97c-.27,0-.54-.04-.8-.13-1.35-.44-2.08-1.9-1.64-3.25l.1-.31c.17-.52,.35-1.05,.51-1.57,.42-1.36,1.87-2.11,3.22-1.69,1.35,.42,2.11,1.87,1.69,3.22-.17,.55-.35,1.09-.53,1.64l-.1,.31c-.36,1.08-1.36,1.77-2.44,1.77Z"/>
    <g class="cls-7">
      <path class="cls-4" d="M267.71,151.25c-24.24,6.59-45.88,20.78-65.91,39.69-3.65,3.44-9.6,.77-9.49-4.24,.65-30,36.31-75.11,77.24-45.43,3.82,2.77,2.72,8.74-1.83,9.98Z"/>
    </g>
    <g class="cls-7">
      <ellipse class="cls-4" cx="306.24" cy="155.77" rx="10.44" ry="12.37"/>
    </g>
    <path class="cls-3" d="M197.85,253.62c-.26,0-.53-.04-.79-.12l-42.81-13.81c-.68-.22-1.25-.72-1.55-1.37-2.14-4.64-5.97-7.71-9.58-7.64-3.67,.07-5.79,3.36-6.92,6.1-.26,.63-.76,1.13-1.4,1.39-.63,.26-1.34,.26-1.97,0l-14.94-6.27s-.04-.02-.06-.03c-5.15-2.33-8.89-1.57-9.8,.33-.97,2.02,1.25,5.81,7.27,8.85,1.27,.64,1.78,2.19,1.14,3.45-.64,1.27-2.19,1.78-3.45,1.14-9.51-4.79-11.67-11.32-9.59-15.66,1.94-4.07,7.94-6.68,16.52-2.81l12.67,5.31c2.48-4.37,6.19-6.86,10.44-6.95,5.38-.12,10.72,3.62,13.84,9.59l41.77,13.48c1.35,.44,2.09,1.88,1.66,3.24-.35,1.09-1.36,1.78-2.45,1.78Z"/>
    <path class="cls-3" d="M122.96,261.48c-1.13,0-2.27-.22-3.35-.66l-7.44-3.02c-4.56-1.85-6.76-7.06-4.91-11.62,.89-2.21,2.6-3.93,4.79-4.86,2.19-.93,4.62-.95,6.82-.05l7.44,3.02c4.56,1.85,6.76,7.06,4.91,11.61-.9,2.21-2.6,3.93-4.79,4.86-1.12,.47-2.29,.71-3.47,.71Zm-7.44-15.72c-1.49,0-2.91,.89-3.5,2.36-.78,1.93,.15,4.14,2.08,4.92l7.44,3.02s0,0,0,0c.93,.38,1.96,.37,2.89-.02,.93-.39,1.65-1.12,2.03-2.06,.78-1.93-.15-4.14-2.08-4.92l-7.44-3.02c-.46-.19-.94-.28-1.41-.28Z"/>
    <path class="cls-3" d="M160.99,381.11c4.13,5.54,7.69,11.55,10.03,18.01,.18,.5-.08,1.06-.58,1.24-.45,.16-.95-.03-1.17-.44h0c-3.21-5.79-7.46-10.86-12.14-15.42-1.02-.99-1.04-2.63-.05-3.65,.99-1.02,2.63-1.04,3.65-.05,.1,.09,.18,.19,.26,.3v.02Z"/>
    <path class="cls-3" d="M203.82,412.82c-.1,0-.2,0-.3-.02-1.23-.17-2.1-1.3-1.93-2.53,1.24-9.23-1.43-18.39-7.53-25.81-6.19-7.53-15.41-12.54-24.05-13.07-1.24-.08-2.18-1.14-2.11-2.38,.08-1.24,1.14-2.19,2.38-2.11,10,.62,20.19,6.11,27.25,14.71,6.9,8.39,9.92,18.79,8.51,29.27-.15,1.13-1.12,1.95-2.23,1.95Z"/>
    <path class="cls-3" d="M190.74,291.98l3.2-11.07c.15-.52,.69-.81,1.21-.67,.43,.12,.7,.51,.7,.94l-.02,11.53c0,1.43-1.17,2.59-2.6,2.59-1.43,0-2.59-1.17-2.59-2.6,0-.24,.04-.49,.1-.72Z"/>
    <path class="cls-3" d="M136.33,236.42c-.72,3.62-1.27,7.24-1.22,10.72,.05,1.73,.25,3.41,.72,4.9,.09,.39,.27,.71,.4,1.07,.14,.34,.33,.64,.5,.95,.38,.56,.8,1.04,1.26,1.36,.47,.29,.96,.47,1.51,.5,.55,.06,1.16-.13,1.77-.42,.62-.27,1.21-.78,1.78-1.3,.54-.58,1.06-1.22,1.49-1.96,.9-1.45,1.53-3.14,2.02-4.89,.46-1.77,.7-3.62,.88-5.5v-.03c.06-.53,.53-.92,1.06-.87,.47,.05,.83,.42,.87,.88,.18,1.98,.19,4-.02,6.04-.24,2.03-.74,4.08-1.63,6.05-.44,.99-1.03,1.93-1.72,2.85-.74,.87-1.55,1.75-2.64,2.39-1.06,.65-2.31,1.18-3.71,1.24-1.38,.09-2.82-.23-4.03-.88-1.2-.67-2.15-1.59-2.93-2.58-.35-.5-.7-1.01-.98-1.54-.25-.53-.57-1.06-.73-1.59-.82-2.15-1.19-4.33-1.3-6.46-.16-4.25,.5-8.34,1.67-12.19,.41-1.36,1.85-2.13,3.21-1.71,1.27,.39,2.03,1.67,1.78,2.95v.04Z"/>
    <rect class="cls-4" x="229.92" y="295.72" width="59.45" height="45.95" rx="13.82" ry="13.82"/>
    <g class="cls-8">
      <path class="cls-3" d="M295.15,329.4v5.04c0,7.63-6.19,13.82-13.82,13.82h-31.81c-5.74,0-10.66-3.5-12.74-8.48,2.04,1.2,4.42,1.89,6.96,1.89h31.81c7.37,0,13.4-5.78,13.79-13.05l.03,1h4.42c.48,0,.94-.08,1.36-.22Z"/>
    </g>
    <g class="cls-8">
      <path class="cls-3" d="M289.37,309.54v18.32c0,7.63-6.19,13.82-13.82,13.82h-31.81c-6.28,0-11.58-4.19-13.25-9.92,1.52,.58,3.17,.9,4.9,.9h31.81c7.63,0,13.82-6.19,13.82-13.82v-18.32c0-1.35-.19-2.66-.56-3.89,5.21,1.98,8.91,7.02,8.91,12.92Z"/>
    </g>
    <path class="cls-3" d="M151.55,280.7c-1.02,0-1.94-.7-2.19-1.73-.28-1.21,.46-2.42,1.67-2.7,5.04-1.19,9.31-4.52,12.02-9.38,3.79-6.79,4.12-15.8,.92-25.37-.39-1.18,.24-2.45,1.42-2.85,1.18-.39,2.45,.24,2.85,1.42,3.6,10.78,3.15,21.07-1.26,28.99-3.33,5.98-8.63,10.09-14.92,11.57-.17,.04-.35,.06-.52,.06Z"/>
    <path class="cls-3" d="M275.55,343.92h-31.81c-8.86,0-16.07-7.21-16.07-16.07v-18.32c0-8.86,7.21-16.07,16.07-16.07h31.81c8.86,0,16.07,7.21,16.07,16.07v18.32c0,8.86-7.21,16.07-16.07,16.07Zm-31.81-45.95c-6.38,0-11.57,5.19-11.57,11.57v18.32c0,6.38,5.19,11.57,11.57,11.57h31.81c6.38,0,11.57-5.19,11.57-11.57v-18.32c0-6.38-5.19-11.57-11.57-11.57h-31.81Z"/>
    <path class="cls-3" d="M293.78,331.87h-4.42c-1.24,0-2.25-1.01-2.25-2.25s1.01-2.25,2.25-2.25h4.42c1.2,0,2.17-.97,2.17-2.17v-15.1c0-1.2-.97-2.17-2.17-2.17h-4.97c-1.24,0-2.25-1.01-2.25-2.25s1.01-2.25,2.25-2.25h4.97c3.68,0,6.67,2.99,6.67,6.67v15.1c0,3.68-2.99,6.67-6.67,6.67Z"/>
    <path class="cls-3" d="M229.37,331.87h-4.42c-3.68,0-6.67-2.99-6.67-6.67v-15.1c0-3.68,2.99-6.67,6.67-6.67h4.97c1.24,0,2.25,1.01,2.25,2.25s-1.01,2.25-2.25,2.25h-4.97c-1.2,0-2.17,.97-2.17,2.17v15.1c0,1.2,.97,2.17,2.17,2.17h4.42c1.24,0,2.25,1.01,2.25,2.25s-1.01,2.25-2.25,2.25Z"/>
    <path class="cls-3" d="M160.68,433.39c-1.94,0-4.19-.33-6.73-.98-1.2-.31-1.93-1.54-1.62-2.74,.31-1.2,1.54-1.93,2.74-1.62,5.41,1.39,8.28,.83,9.16-.17,.77-.86,.65-2.72-.31-5.23-.56-1.46-1.38-2.93-2.51-4.5-6.95-9.66-15.07-17.51-24.14-23.31-2.11-1.35-4.62-1.76-6.89-1.12-2.41,.67-3.52,2.15-3.96,5.26-.18,1.23-1.32,2.08-2.55,1.91-1.23-.18-2.08-1.32-1.91-2.55,.7-4.86,3.05-7.79,7.2-8.96,3.51-.98,7.34-.37,10.53,1.67,9.55,6.11,18.08,14.35,25.37,24.47,1.35,1.88,2.35,3.68,3.06,5.5,1.65,4.28,1.48,7.59-.52,9.84-1.49,1.68-3.81,2.52-6.91,2.52Z"/>
    <path class="cls-3" d="M321.75,253.62c-1.09,0-2.09-.69-2.45-1.78-.44-1.35,.31-2.8,1.66-3.24l41.77-13.48c3.12-5.97,8.45-9.69,13.84-9.59,4.25,.08,7.96,2.58,10.44,6.95l12.67-5.31c8.58-3.86,14.58-1.25,16.52,2.81,2.07,4.34-.09,10.86-9.59,15.66-1.27,.64-2.81,.13-3.45-1.14-.64-1.27-.13-2.81,1.14-3.45,6.02-3.04,8.24-6.83,7.27-8.85-.91-1.9-4.65-2.66-9.8-.33-.02,0-.04,.02-.06,.03l-14.94,6.27c-.63,.26-1.34,.27-1.97,0-.63-.26-1.14-.76-1.4-1.39-1.13-2.74-3.25-6.03-6.92-6.1-3.56-.07-7.44,3-9.58,7.64-.3,.65-.86,1.15-1.55,1.37l-42.81,13.81c-.26,.08-.53,.12-.79,.12Z"/>
    <path class="cls-3" d="M396.64,261.48c-1.18,0-2.36-.24-3.47-.71-2.19-.93-3.9-2.65-4.79-4.86-1.85-4.56,.36-9.77,4.91-11.61l7.45-3.02c2.21-.9,4.63-.88,6.82,.05,2.19,.93,3.9,2.65,4.79,4.86,1.85,4.56-.36,9.77-4.91,11.61l-7.44,3.02h0c-1.08,.44-2.22,.66-3.35,.66Zm7.45-15.72c-.48,0-.96,.09-1.42,.28l-7.45,3.02c-1.93,.78-2.86,2.99-2.08,4.92,.38,.93,1.1,1.67,2.03,2.06,.93,.39,1.96,.4,2.89,.02,0,0,0,0,0,0l7.44-3.02c1.93-.78,2.86-2.99,2.08-4.92-.38-.93-1.1-1.67-2.03-2.06-.47-.2-.97-.3-1.47-.3Z"/>
    <path class="cls-3" d="M167.81,439.58c-4.45,0-8.9-1.65-12.38-4.95l-26.89-25.38c-.07-.06-.13-.13-.19-.2-15.37-17.93-8.7-27.84-5.12-31.27,4.12-3.94,10.64-5.9,17.88-5.38,6.49,.47,12.65,2.83,17.62,6.72l25.49-31.42c2.7-3.33,4.23-7.35,4.43-11.63l1.97-41.92-85.53-28.47c-6.07-1.92-7.77-5.83-7.33-8.86,.65-4.44,5.48-7.62,11.76-7.72,1.42-.04,2.59,1.11,2.61,2.53,.02,1.42-1.11,2.59-2.53,2.61-4.29,.07-6.56,2.02-6.75,3.32-.17,1.17,1.33,2.43,3.83,3.22l87.41,29.09c1.09,.36,1.81,1.41,1.76,2.56l-2.06,43.87c-.25,5.38-2.18,10.44-5.58,14.63l-27.15,33.46c-.45,.55-1.11,.9-1.82,.94-.71,.05-1.41-.2-1.93-.69-9.47-8.87-24.44-8.99-30.52-3.17-5.32,5.09-3.35,13.87,5.38,24.1l26.79,25.28c4.86,4.59,12.32,4.73,17.35,.33l67.47-59.02c9.14-7.99,22.91-7.99,32.05,0l67.47,59.02c5.03,4.4,12.49,4.26,17.35-.33l26.79-25.28c8.74-10.23,10.7-19.01,5.38-24.1-6.08-5.82-21.05-5.7-30.52,3.17-.52,.49-1.22,.74-1.93,.69-.71-.05-1.37-.39-1.82-.94l-27.15-33.46c-3.4-4.18-5.32-9.24-5.58-14.63l-2.06-43.87c-.05-1.15,.66-2.2,1.76-2.56l87.38-29.08c2.53-.8,4.04-2.07,3.87-3.23-.19-1.3-2.47-3.25-6.75-3.32-1.42-.02-2.55-1.19-2.53-2.61,.02-1.42,1.18-2.57,2.61-2.53,6.27,.1,11.11,3.27,11.76,7.72,.44,3.02-1.26,6.94-7.37,8.87l-85.49,28.45,1.97,41.92c.2,4.28,1.73,8.3,4.43,11.63l25.49,31.42c4.97-3.88,11.13-6.25,17.62-6.72,7.24-.53,13.76,1.43,17.88,5.38,3.58,3.43,10.25,13.33-5.12,31.27-.06,.07-.12,.13-.19,.2l-26.89,25.38c-6.8,6.42-17.23,6.61-24.27,.46l-67.47-59.02c-7.21-6.3-18.07-6.3-25.28,0l-67.47,59.02c-3.43,3-7.66,4.49-11.88,4.49Z"/>
    <path class="cls-3" d="M362.48,384.5c-4.69,4.56-8.93,9.63-12.14,15.41h0c-.26,.47-.85,.64-1.31,.38-.42-.23-.6-.74-.44-1.17,2.34-6.45,5.9-12.47,10.03-18.01h0c.85-1.15,2.47-1.38,3.61-.53s1.38,2.47,.53,3.61c-.08,.11-.18,.22-.27,.31Z"/>
    <path class="cls-3" d="M315.79,412.82c-1.11,0-2.07-.82-2.23-1.95-1.41-10.48,1.61-20.87,8.51-29.27,7.06-8.59,17.25-14.09,27.25-14.71,1.24-.08,2.31,.87,2.38,2.11,.08,1.24-.87,2.31-2.11,2.38-8.65,.53-17.86,5.54-24.05,13.07-6.09,7.42-8.77,16.58-7.53,25.81,.17,1.23-.7,2.36-1.93,2.53-.1,.01-.2,.02-.3,.02Z"/>
    <path class="cls-3" d="M323.78,292.71l-.02-11.53c0-.54,.43-.97,.97-.98,.44,0,.82,.3,.94,.7l3.2,11.07c.4,1.38-.4,2.82-1.77,3.21-1.38,.4-2.82-.4-3.21-1.77-.07-.23-.1-.48-.1-.72Z"/>
    <path class="cls-3" d="M388.26,235.15c1.17,3.85,1.83,7.95,1.67,12.19-.11,2.13-.48,4.3-1.3,6.46-.17,.54-.48,1.07-.73,1.59-.28,.52-.63,1.04-.98,1.54-.78,.98-1.72,1.91-2.93,2.58-1.22,.65-2.65,.98-4.03,.88-1.4-.07-2.65-.6-3.71-1.24-1.09-.64-1.9-1.52-2.64-2.39-.68-.91-1.27-1.86-1.72-2.85-.89-1.97-1.4-4.02-1.63-6.05-.22-2.04-.2-4.05-.02-6.04,.05-.53,.52-.92,1.05-.88,.47,.04,.83,.41,.88,.87v.04c.19,1.88,.42,3.73,.88,5.5,.49,1.75,1.12,3.44,2.02,4.89,.43,.74,.95,1.38,1.49,1.96,.57,.52,1.16,1.03,1.78,1.3,.61,.29,1.23,.47,1.77,.42,.55-.04,1.04-.21,1.51-.5,.46-.32,.88-.8,1.26-1.36,.17-.31,.35-.61,.5-.95,.13-.36,.3-.67,.4-1.07,.47-1.49,.67-3.18,.72-4.9,.04-3.48-.51-7.09-1.22-10.72v-.02c-.28-1.39,.63-2.75,2.02-3.02,1.31-.26,2.58,.53,2.96,1.78Z"/>
    <path class="cls-3" d="M368.06,280.7c-.17,0-.34-.02-.52-.06-6.29-1.48-11.59-5.59-14.92-11.57-4.41-7.91-4.86-18.21-1.26-28.99,.39-1.18,1.67-1.81,2.85-1.42,1.18,.39,1.81,1.67,1.42,2.85-3.2,9.57-2.87,18.57,.92,25.37,2.71,4.86,6.98,8.19,12.02,9.38,1.21,.28,1.96,1.5,1.67,2.7-.24,1.04-1.17,1.73-2.19,1.73Z"/>
    <path class="cls-3" d="M358.93,433.39c-3.11,0-5.42-.84-6.91-2.52-2-2.25-2.17-5.56-.52-9.84,.7-1.82,1.7-3.62,3.06-5.51,7.28-10.13,15.82-18.36,25.37-24.47,3.19-2.04,7.03-2.65,10.53-1.67,4.15,1.16,6.51,4.09,7.2,8.96,.18,1.23-.68,2.37-1.91,2.55-1.23,.17-2.37-.68-2.55-1.91-.45-3.11-1.56-4.59-3.96-5.26-2.27-.64-4.78-.23-6.89,1.12-9.07,5.8-17.19,13.65-24.14,23.31-1.13,1.57-1.95,3.04-2.51,4.5-.97,2.51-1.08,4.37-.31,5.23,.88,.99,3.76,1.56,9.16,.17,1.2-.31,2.43,.42,2.74,1.62,.31,1.2-.42,2.43-1.62,2.74-2.55,.65-4.79,.98-6.73,.98Z"/>
    <path class="cls-4" d="M323.43,325.28h-25.23v-11.25h25.23c3.11,0,5.62,2.52,5.62,5.62h0c0,3.11-2.52,5.62-5.62,5.62Z"/>
    <path class="cls-4" d="M329.05,319.66c0,1.35-.48,2.6-1.28,3.57l-.35-7.54c1.01,1.02,1.63,2.42,1.63,3.97Z"/>
    <path class="cls-4" d="M195.31,325.28h25.23v-11.25h-25.23c-3.11,0-5.62,2.52-5.62,5.62h0c0,3.11,2.52,5.62,5.62,5.62Z"/>
    <path class="cls-3" d="M323.43,327.53h-25.23c-1.24,0-2.25-1.01-2.25-2.25v-11.25c0-1.24,1.01-2.25,2.25-2.25h25.23c4.34,0,7.87,3.53,7.87,7.87s-3.53,7.87-7.87,7.87Zm-22.98-4.5h22.98c1.86,0,3.37-1.51,3.37-3.37s-1.51-3.37-3.37-3.37h-22.98v6.75Z"/>
    <path class="cls-3" d="M220.53,327.53h-25.23c-4.34,0-7.87-3.53-7.87-7.87s3.53-7.87,7.87-7.87h25.23c1.24,0,2.25,1.01,2.25,2.25v11.25c0,1.24-1.01,2.25-2.25,2.25Zm-25.23-11.25c-1.86,0-3.37,1.51-3.37,3.37s1.51,3.37,3.37,3.37h22.98v-6.75h-22.98Z"/>
    <g class="cls-8">
      <path class="cls-3" d="M389.3,407.39l-10.77,10.16c14.22-18.36,9.99-43.42-27.35-24.46l-34.07-37.71c-4.42-4.89-6.87-11.25-6.87-17.85v-12.24h13.18c1.56,0,2.96-.63,3.98-1.65,.13-.13,.25-.26,.37-.4l.61,12.98c.23,4.79,1.98,9.4,5.01,13.12l27.15,33.47c18-16.87,54.81-5.8,28.76,24.58Z"/>
    </g>
    <g class="cls-8">
      <path class="cls-3" d="M413.7,263.26l-87.38,29.08,1.1,23.35c-1.02-1.02-2.44-1.66-3.99-1.66h-13.18v-25.65c0-1.98,.32-3.9,.91-5.71-24.63,6.74-59.17,3.24-80.68-14.85,29.51,7.37,56.97,7.35,97.75-18.88l9.65-4.3c4.06,8.66,3.17,16.26-1.12,22.49l39.09-10.87s11.58,3.07,11.39-5.23l3.5-.83c1.77,5.51,19.15-.04,17.39-5.57,.78,.64,1.42,1.49,1.83,2.5,.62,1.52,.6,3.13,.08,4.55,9.68,.16,13.22,8.53,3.65,11.56Z"/>
    </g>
    <g class="cls-8">
      <path class="cls-3" d="M270.05,371.31c-7.83-4.18-17.64-3.24-24.58,2.83l-67.47,59.02c-6,5.25-15.01,5.08-20.81-.39l-14.88-14.04c12.53,11.1,32.45,8.43,32.45-14.28l48.98-44.9c8.16-5.75,18.75-6.95,27.92-3,6.11,2.63,12.78,7.12,18.4,14.77Z"/>
    </g>
    <g class="cls-8">
      <path class="cls-3" d="M194.89,276.12v7.92l-1.68,9.94,.08-1.64-87.38-29.08c-9.57-3.03-6.03-11.4,3.65-11.56-.39-1.07-.49-2.26-.26-3.43l1.72-.43,18.43,7.07,1.71-1.79,2.82,1.18,6.41,3.87,54.51,17.94Z"/>
    </g>
    <g>
      <g class="cls-8">
        <path class="cls-1" d="M249.21,321.75c-3.65,.45-7.02-1.67-8.33-4.94-.09,.66-.11,1.35-.02,2.04,.53,4.35,4.49,7.45,8.84,6.92,4.35-.53,7.45-4.49,6.92-8.84-.08-.7-.27-1.35-.51-1.98-.48,3.48-3.24,6.35-6.89,6.8Z"/>
      </g>
      <g class="cls-5">
        <path class="cls-2" d="M248.27,314.03c3.78-.46,7.25,1.81,8.46,5.26,.05-.55,.05-1.12-.02-1.7-.53-4.35-4.49-7.45-8.84-6.92-4.35,.53-7.45,4.49-6.92,8.84,.07,.57,.2,1.13,.39,1.65,.34-3.64,3.16-6.68,6.94-7.14Z"/>
      </g>
      <path class="cls-3" d="M248.81,328.52c-4.96,0-9.26-3.71-9.88-8.75-.32-2.64,.4-5.25,2.04-7.34,1.64-2.1,4-3.43,6.64-3.75,2.64-.32,5.25,.4,7.35,2.04,2.1,1.64,3.43,4,3.75,6.64,.67,5.45-3.23,10.43-8.68,11.1-.41,.05-.81,.07-1.22,.07Zm.02-15.88c-.24,0-.49,.01-.73,.04h0c-1.57,.19-2.97,.98-3.94,2.23-.97,1.24-1.4,2.79-1.21,4.36,.4,3.24,3.35,5.54,6.59,5.15,3.24-.4,5.55-3.35,5.15-6.59-.19-1.57-.98-2.97-2.23-3.94-1.05-.82-2.32-1.26-3.63-1.26Zm-.98-1.96h0Z"/>
    </g>
    <path class="cls-3" d="M277.2,341.34h0c-1.06,0-1.92-.87-1.92-1.94l.07-13.7c0-1.27-.74-2.45-1.89-2.99l-4.61-2.15c-2.5-1.17-4.11-3.7-4.11-6.46v-15.72c0-1.06,.85-1.93,1.92-1.93h0c1.06,0,1.93,.86,1.93,1.93v15.72c0,1.27,.75,2.43,1.9,2.97l4.61,2.15c2.51,1.17,4.13,3.72,4.11,6.5l-.07,13.7c0,1.06-.87,1.92-1.93,1.92Z"/>
  </g>
  <g>
    <path class="cls-9" d="M294.85,277.3h0s-12.85,0-12.85,0l5.29,5.29h7.14c1.03,0,1.86,.87,1.86,1.94s-.83,1.94-1.86,1.94h-4.35l5.25,5.27c3.59-.27,6.42-3.39,6.42-7.22s-3.08-7.23-6.89-7.24Z"/>
    <polygon class="cls-9" points="288.58 286.48 283.88 286.48 283.39 286.48 282.49 286.48 281.48 286.48 287.28 292.3 288.16 292.3 293.91 298.21 300.24 298.21 293.83 291.76 288.58 286.48"/>
  </g>
</svg>