<?xml version="1.0" encoding="UTF-8"?>
<svg id="Layer_1" data-name="Layer 1" xmlns="http://www.w3.org/2000/svg" viewBox="0 0 500 500">
  <defs>
    <style>
      .cls-1 {
        fill: #262626;
      }

      .cls-2 {
        opacity: .7;
      }

      .cls-3 {
        fill: #fff;
      }

      .cls-4 {
        opacity: .5;
      }

      .cls-5 {
        opacity: .35;
      }

      .cls-6 {
        opacity: .3;
      }

      .cls-7 {
        fill: #353535;
      }

      .cls-8 {
        fill: #474747;
      }

      .cls-9 {
        fill: #030b2f;
      }

      .cls-10 {
        fill: #9a9a9a;
      }
    </style>
  </defs>
  <g>
    <path class="cls-10" d="M236.24,347.46c2.4,7.95,21.49,11.18,21.49,11.18,0,0,7.25,7.12,24.29,13.79,.09,.04,.19,.07,.28,.1,13.93,5.45,72.7,27.25,134.55-5.22,15.45-8.11,26.69-26.09,26.69-26.09,0,0,19.53-2.6,19.53-13.67,0-10.86-11.11-12.35-20.98-12.05,0,0-1.69-30.53-35.84-50.3-34.15-19.77-141.28,15.85-141.28,15.85l-4.61,21.72-5.44,25.64s-22.23,7.32-18.7,19.03Z"/>
    <path class="cls-7" d="M281.02,374.98c-14.71-5.76-22.37-11.87-24.55-13.78-4.19-.8-20.26-4.38-22.85-12.95-3.69-12.22,13.6-19.84,18.95-21.88l9.73-45.88c.2-.95,.89-1.72,1.81-2.03,4.42-1.47,108.69-35.77,143.51-15.62,29.57,17.11,35.67,41.82,36.9,49.9,8.36,.03,13.95,1.66,17.46,5.07,2.54,2.46,3.82,5.74,3.82,9.75,0,11.58-15.92,15.32-20.63,16.17-2.73,4.08-13.14,18.7-27.05,26-25.25,13.26-50.1,17.79-72.26,17.79-26.95,0-49.93-6.7-64.85-12.54Zm161.16-56.73c-1.47,.03-2.73-1.1-2.82-2.58-.02-.29-1.98-29.27-34.48-48.08-30.57-17.69-124.57,11.44-137.55,15.59l-9.72,45.82c-.2,.95-.9,1.73-1.82,2.03-.2,.07-19.61,6.76-16.93,15.64,1.31,4.35,12.09,8.05,19.33,9.28,.54,.09,1.06,.35,1.45,.74,.07,.07,7.18,6.85,23.38,13.2h0c26.32,10.31,78.53,23.37,132.57-4.99,14.59-7.66,25.54-24.94,25.65-25.12,.43-.69,1.15-1.15,1.96-1.26,.17-.02,17.16-2.56,17.16-10.95,0-2.51-.71-4.41-2.16-5.82-2.44-2.37-7-3.53-13.89-3.53-.68,0-1.38,.01-2.11,.03Z"/>
    <g class="cls-5">
      <path class="cls-7" d="M391.13,300.23c2.21,6.58,16.76,15.78,38.83,21.44,14.16,3.64,26.32,.81,28.46-18.91,1.92-17.66-21.52-36.4-43.01-32.87-24.48,4.02-26.49,23.76-24.28,30.34Z"/>
    </g>
    <path class="cls-3" d="M401.82,290.15c2.21,6.58,9.79,18.42,31.86,24.08,14.16,3.64,26.32,.81,28.46-18.91,1.92-17.66-21.52-36.4-43.01-32.87-24.48,4.02-19.53,21.12-17.31,27.69Z"/>
    <g class="cls-5">
      <path class="cls-7" d="M401.28,288.5c.18,.6,.36,1.16,.53,1.66,2.21,6.58,9.79,18.41,31.86,24.08,14.16,3.63,26.31,.81,28.46-18.91,.53-4.82-.83-9.7-3.53-14.21-2.52,18.84-16.67,22.26-30.96,20.78-17.11-1.75-23.65-7.47-26.36-13.4Z"/>
    </g>
    <path class="cls-7" d="M433,316.89c-24.77-6.36-31.87-20.21-33.77-25.86-1.85-5.5-3.82-13.62,.43-20.69,3.3-5.49,9.7-9.04,19.03-10.58,12.19-2,25.87,2.54,35.7,11.85,7.54,7.14,11.36,15.9,10.48,24.02-1,9.15-4.17,15.63-9.44,19.28-3.29,2.28-7.36,3.42-12.18,3.42-3.11,0-6.53-.48-10.25-1.43Zm-13.42-51.73c-7.67,1.26-12.79,3.95-15.23,8-3.08,5.12-1.44,11.65,.06,16.12h0c1.62,4.81,7.78,16.61,29.95,22.31,7.86,2.02,13.9,1.62,17.95-1.18,3.9-2.7,6.29-7.87,7.11-15.37,.7-6.41-2.51-13.5-8.8-19.45-7.21-6.82-17.08-10.8-26.25-10.8-1.63,0-3.23,.13-4.8,.38Z"/>
    <path class="cls-3" d="M116.75,224.14l-2.7-22.92c-.39-16.78-2.25-41.48,30.89-51.48,38.23-11.54,87.61-7.65,101.03-.95,22.19,11.09,36,74.48,36,74.48l-165.22,.87Z"/>
    <path class="cls-3" d="M114.06,201.22l.69,5.84,2.01,17.09,160.98-.85,4.24-.02s-.06-.31-.2-.88c-.36-1.56-1.2-5.09-2.48-9.82-5.02-18.56-16.86-55.55-33.33-63.77-13.42-6.71-62.79-10.59-101.03,.94-33.14,10.01-31.27,34.71-30.88,51.49Z"/>
    <g class="cls-5">
      <path class="cls-7" d="M114.74,207.06l2.01,17.09,160.98-.85,4.04-.9c-.36-1.56-1.2-5.09-2.48-9.82l-22.46-17.67-8.94-29.15s-10.37,16.85-25.23,19.44c-36.35,6.34-57.26-6.89-80.5,.12-15.72,4.74-23.57,12.8-27.42,21.75Z"/>
    </g>
    <path class="cls-3" d="M166.44,148.59l3.76,25.24c.34,2.25-.89,4.45-2.98,5.34-7.68,3.26-25.8,9.87-33.73,3.48-6.58-5.31-8.36-15.94-4.54-23.26,4.26-8.2,22.42-13.01,31.51-14.96,2.83-.6,5.57,1.3,5.99,4.16Z"/>
    <g class="cls-5">
      <path class="cls-7" d="M167.21,179.17c-7.67,3.26-25.8,9.87-33.73,3.48-6.58-5.31-8.36-15.93-4.54-23.27,2.63-5.04,10.5-8.8,18.29-11.4-3.73,2.02-6.56,4.51-8.19,7.17-9.32,15.26,7.12,21.35,7.12,21.35,0,0-3.11,2.41-3.02,3.74,.4,5.59,17.05,.64,25.61-2.12-.43,.43-.95,.79-1.55,1.04Z"/>
    </g>
    <path class="cls-7" d="M131.76,184.78c-7.43-5.99-9.78-17.95-5.25-26.66,4.47-8.6,20.61-13.65,33.36-16.37,2.08-.44,4.28,0,6.03,1.21,1.75,1.21,2.93,3.12,3.25,5.22l3.76,25.24c.52,3.49-1.38,6.89-4.62,8.26-6.57,2.79-16.67,6.37-25.29,6.37-4.33,0-8.29-.91-11.23-3.28Zm31.97-35.79c-.09-.63-.43-1.17-.95-1.53-.52-.36-1.15-.49-1.77-.35-15.92,3.4-27.01,8.46-29.65,13.54-3.33,6.41-1.58,15.51,3.83,19.87,4.72,3.8,16.28,2.36,30.94-3.87,.95-.4,1.5-1.4,1.35-2.42l-3.76-25.24h0Z"/>
    <path class="cls-7" d="M111.34,201.54l-.06-2.06c-.43-16.77-1.09-42.11,32.88-52.36,37.21-11.23,88.16-8.21,103.04-.78,23.1,11.54,36.88,73.7,37.45,76.34l.72,3.3-171.05,.9-2.98-25.35Zm133.41-50.3c-12.32-6.16-60.47-10.52-99.02,1.12-29.97,9.04-29.42,30.08-28.99,46.98l.04,1.69,2.39,20.36,159.34-.84c-3.17-13-15.8-60.33-33.77-69.31Z"/>
    <path class="cls-7" d="M160.52,172.27c-3.07,.28-6.12,.85-9.16,1.19-3.03,.35-6.08,.56-9.02,.32-2.93-.23-5.76-.93-8.03-2.32-2.28-1.38-3.88-3.45-4.92-5.85-.6-1.39-2.21-2.04-3.61-1.44-1.39,.6-2.04,2.21-1.44,3.61,.05,.13,.12,.25,.19,.36l.02,.04c.94,1.5,2.08,2.91,3.42,4.11,1.34,1.2,2.88,2.17,4.5,2.85,3.26,1.37,6.67,1.61,9.86,1.39,3.21-.23,6.29-.91,9.28-1.72,3-.8,5.91-1.8,8.9-2.53Z"/>
    <g class="cls-6">
      <path class="cls-8" d="M88.75,275.19c.18-.22,.36-.44,.54-.65-.18,.22-.36,.44-.53,.65h0Z"/>
    </g>
    <path class="cls-3" d="M251.16,208.12s-90.35-34.54-143.19,9.79c-36.95,31-30.26,78.18-14.87,103.54,0,0,145.77,47.84,189.52,5.13,29.07-28.38-31.45-118.46-31.45-118.46Z"/>
    <path class="cls-7" d="M93.09,324.18c.48,0,.97-.13,1.42-.4,1.29-.78,1.7-2.47,.92-3.76-14.23-23.45-22.16-69.45,14.29-100.02,26.53-22.26,63.18-23.65,89.24-20.91,28.53,3.01,50.99,11.49,51.22,11.58,1.41,.54,2.99-.17,3.53-1.58,.54-1.41-.17-2.99-1.58-3.53-.94-.36-23.26-8.8-52.47-11.89-38.95-4.13-71.27,3.53-93.46,22.14-39.09,32.79-30.66,81.99-15.46,107.05,.51,.85,1.42,1.32,2.34,1.32Z"/>
    <path class="cls-7" d="M248.69,183.11c.82-3.36,1.3-6.71,1.6-10.13,.29-3.41,.38-6.86,.14-10.34-.13-1.74-.29-3.5-.64-5.26-.34-1.76-.76-3.54-1.45-5.32-.69-1.77-1.62-3.57-3.08-5.18-.73-.8-1.61-1.54-2.62-2.12-.5-.29-1.06-.5-1.6-.73-.56-.17-1.13-.29-1.69-.41-1.47-.32-2.93,.61-3.25,2.08-.31,1.41,.53,2.81,1.9,3.2l.35,.1c1.01,.29,1.81,.84,2.57,1.74,.76,.89,1.4,2.11,1.94,3.45,1.02,2.72,1.66,5.83,2.06,8.99,.2,1.58,.38,3.19,.49,4.81,.14,1.62,.22,3.25,.3,4.89,.14,3.27,.21,6.6,.26,9.89v.04c.01,.76,.64,1.37,1.4,1.35,.64-.01,1.17-.46,1.32-1.05Z"/>
    <g>
      <g>
        <path class="cls-3" d="M358.92,325.02c-17.21,3.56-35.43,2.8-53.01-2.83-3.58-1.15-7.13-2.49-10.64-4.05-1.71-.75-3.41-1.56-5.12-2.42-5.11-2.59-9.93-5.54-14.44-8.81-3.89-2.81-7.55-5.86-10.97-9.1-4.13-3.92-7.91-8.13-11.32-12.59-1.24-1.63-2.43-3.29-3.58-4.97-20.93-30.86-25.29-71.69-7.89-107.2,25.62-52.32,88.76-73.26,141-46.79,10.06,5.1,19,11.59,26.66,19.12,.9,.87,1.79,1.77,2.65,2.69,2.32,2.44,4.52,4.98,6.58,7.61,4.77,6.08,8.85,12.62,12.19,19.49,3.34,6.87,5.95,14.07,7.77,21.47,.58,2.35,1.08,4.72,1.51,7.11,.63,3.59,1.08,7.2,1.34,10.85,1.34,18.18-1.95,36.89-10.49,54.32-14.74,30.1-41.89,49.8-72.23,56.09Z"/>
        <path class="cls-7" d="M305.83,322.45c-3.63-1.17-7.22-2.53-10.67-4.06-1.59-.7-3.26-1.49-5.13-2.42-5.06-2.56-9.93-5.53-14.48-8.83-3.82-2.75-7.52-5.83-11-9.13-4.07-3.86-7.89-8.11-11.35-12.62-1.23-1.62-2.44-3.3-3.59-4.98-21.69-31.98-24.72-73.17-7.91-107.48,12.38-25.27,33.82-44.09,60.4-52.99,26.78-8.97,55.54-6.82,80.98,6.07,9.92,5.03,18.91,11.49,26.73,19.17,.86,.83,1.75,1.74,2.66,2.7,2.32,2.44,4.54,5,6.6,7.62,4.74,6.03,8.85,12.61,12.22,19.54,3.34,6.87,5.97,14.11,7.79,21.52,.59,2.38,1.09,4.77,1.51,7.13,.64,3.67,1.09,7.33,1.35,10.88,1.38,18.76-2.25,37.59-10.52,54.46-14.28,29.16-40.68,49.66-72.43,56.24-6.96,1.44-14.05,2.16-21.13,2.16-10.82,0-21.64-1.67-32.02-5Zm125.08-53.64c8.22-16.78,11.84-35.51,10.46-54.18-.25-3.54-.7-7.18-1.34-10.82-.41-2.34-.92-4.73-1.5-7.09-1.82-7.38-4.43-14.58-7.75-21.41-3.35-6.9-7.44-13.44-12.15-19.44-2.05-2.61-4.26-5.16-6.57-7.59-.9-.96-1.79-1.86-2.64-2.68-7.78-7.65-16.73-14.07-26.59-19.08-25.31-12.82-53.91-14.96-80.56-6.04-26.43,8.85-47.77,27.57-60.08,52.71-16.73,34.14-13.71,75.11,7.87,106.93,1.14,1.67,2.34,3.34,3.57,4.96,3.44,4.49,7.24,8.71,11.29,12.55,3.46,3.28,7.15,6.34,10.95,9.08,4.53,3.28,9.37,6.24,14.4,8.79,1.86,.93,3.53,1.72,5.1,2.41,3.43,1.52,7,2.88,10.62,4.04,17.08,5.47,35.36,6.45,52.87,2.83,31.58-6.54,57.84-26.93,72.04-55.94Z"/>
      </g>
      <g class="cls-5">
        <path class="cls-7" d="M241.95,173.05c-17.41,35.51-13.04,76.35,7.89,107.2,1.15,1.69,2.34,3.34,3.58,4.97,3.41,4.46,7.19,8.67,11.32,12.59,3.42,3.24,7.08,6.3,10.97,9.1,4.51,3.27,9.33,6.22,14.44,8.81,1.7,.84,3.4,1.66,5.11,2.42,3.51,1.55,7.06,2.89,10.65,4.04,17.58,5.63,35.8,6.4,53.01,2.83,9.45-1.96,18.61-5.22,27.16-9.69-16.51,3.02-33.86,2.08-50.63-3.3-3.59-1.14-7.14-2.49-10.65-4.04-1.71-.75-3.41-1.57-5.11-2.42-5.12-2.59-9.93-5.54-14.44-8.81-3.89-2.81-7.55-5.86-10.97-9.1-4.13-3.92-7.91-8.14-11.32-12.59-1.24-1.63-2.43-3.29-3.58-4.97-20.94-30.86-25.3-71.69-7.89-107.2,10.15-20.72,26.18-36.52,45.09-46.39-31.32,5.72-59.51,25.67-74.63,56.55Z"/>
      </g>
      <path class="cls-7" d="M305.26,324.21c-3.7-1.19-7.35-2.58-10.85-4.13-1.61-.71-3.32-1.51-5.22-2.47-5.14-2.61-10.1-5.63-14.72-8.98-3.89-2.8-7.65-5.93-11.19-9.28-4.15-3.93-8.03-8.25-11.55-12.84-1.25-1.65-2.48-3.35-3.65-5.06-22.06-32.53-25.15-74.42-8.04-109.33,12.59-25.72,34.42-44.87,61.47-53.93,27.25-9.13,56.52-6.94,82.4,6.18,10.09,5.12,19.23,11.68,27.17,19.49,.88,.85,1.8,1.78,2.71,2.76,2.36,2.48,4.62,5.09,6.71,7.76,4.82,6.14,9,12.82,12.42,19.88,3.4,6.99,6.07,14.35,7.92,21.89,.6,2.42,1.11,4.86,1.54,7.25,.65,3.73,1.11,7.45,1.37,11.06,1.41,19.09-2.29,38.25-10.7,55.41-14.53,29.68-41.4,50.54-73.71,57.23h0c-7.09,1.47-14.3,2.2-21.51,2.2-11.01,0-22.02-1.7-32.58-5.09Zm53.23-1.26c31.01-6.42,56.81-26.45,70.76-54.94,8.08-16.48,11.63-34.89,10.28-53.23-.25-3.47-.69-7.05-1.32-10.64-.41-2.3-.9-4.65-1.48-6.97-1.79-7.25-4.35-14.33-7.62-21.05-3.29-6.78-7.31-13.21-11.94-19.11-2.02-2.57-4.19-5.07-6.46-7.47-.88-.94-1.74-1.82-2.59-2.63-7.64-7.52-16.44-13.82-26.13-18.74-24.86-12.59-52.97-14.7-79.14-5.94-25.96,8.7-46.91,27.08-59,51.77-16.44,33.54-13.47,73.81,7.74,105.08,1.12,1.65,2.31,3.29,3.51,4.87,3.38,4.41,7.11,8.56,11.1,12.34,3.4,3.23,7.02,6.23,10.76,8.92,4.45,3.22,9.21,6.13,14.14,8.63,1.83,.91,3.47,1.69,5.03,2.37,3.37,1.49,6.88,2.83,10.43,3.97,16.78,5.38,34.74,6.34,51.93,2.78h0Z"/>
      <path class="cls-7" d="M305.07,324.79c-3.72-1.19-7.39-2.59-10.91-4.15-1.62-.71-3.34-1.52-5.25-2.48-5.17-2.62-10.15-5.66-14.8-9.03-3.91-2.82-7.7-5.96-11.26-9.34-4.17-3.95-8.08-8.29-11.62-12.92-1.26-1.66-2.49-3.37-3.67-5.09-22.19-32.71-25.29-74.84-8.08-109.94,12.67-25.86,34.62-45.13,61.82-54.24,27.41-9.18,56.84-6.98,82.88,6.21,10.14,5.15,19.34,11.75,27.32,19.6,.89,.86,1.81,1.79,2.73,2.78,2.37,2.49,4.64,5.12,6.75,7.8,4.85,6.17,9.05,12.9,12.49,19.99,3.42,7.02,6.1,14.43,7.97,22.01,.6,2.43,1.12,4.88,1.54,7.3,.66,3.75,1.12,7.49,1.38,11.12,1.42,19.2-2.31,38.47-10.76,55.72-14.62,29.85-41.64,50.83-74.14,57.56h0c-7.13,1.48-14.38,2.21-21.63,2.21-11.07,0-22.15-1.71-32.77-5.12Zm53.29-2.45c30.83-6.38,56.46-26.29,70.33-54.61,8.03-16.39,11.56-34.68,10.22-52.92-.24-3.45-.69-7.01-1.31-10.57-.4-2.29-.9-4.62-1.47-6.93-1.78-7.21-4.32-14.25-7.58-20.93-3.27-6.74-7.27-13.14-11.88-19-2-2.55-4.16-5.04-6.43-7.42-.87-.93-1.73-1.8-2.57-2.61-7.6-7.47-16.34-13.74-25.98-18.63-24.71-12.52-52.65-14.62-78.66-5.9-25.8,8.64-46.63,26.92-58.65,51.46-16.34,33.35-13.39,73.37,7.7,104.46,1.12,1.64,2.29,3.27,3.49,4.85,3.36,4.39,7.07,8.51,11.03,12.26,3.38,3.21,6.98,6.19,10.7,8.87,4.42,3.21,9.16,6.09,14.06,8.58,1.82,.91,3.45,1.68,5,2.36,3.35,1.48,6.84,2.81,10.37,3.94,16.68,5.34,34.53,6.3,51.62,2.76h0Z"/>
      <path class="cls-9" d="M332.02,327.02c-72.97-19.68-104.48-104.39-50.97-156.06,36.41-35.15,99.13-25.94,130.84,11.89,23.08,27.53,33.79,64.43,1.62,111.66,0,0-17.47,18.65-34.82,24.32-17.35,5.66-35.21,8.2-35.21,8.2h-11.46Z"/>
      <path class="cls-1" d="M281.05,170.96c-53.52,51.67-22.01,136.38,50.96,156.06h2.32c-53.52-44.55-66.89-123.13-13.75-176.39-14.56,2.86-28.29,9.48-39.53,20.33Z"/>
      <path class="cls-7" d="M305.07,324.79c-3.72-1.19-7.39-2.59-10.91-4.15-1.62-.71-3.34-1.52-5.25-2.48-5.17-2.62-10.15-5.66-14.81-9.03l-.33-.28c-21.4-21.31-33.55-49.69-33.33-77.85,.2-26.5,10.92-50.75,30.98-70.12,18.43-17.8,43.83-26.8,71.52-25.33,30.75,1.62,60.49,16.16,79.55,38.9,10.59,12.64,17.92,25.9,21.78,39.41l.08,.27,.02,.28c1.42,19.2-2.31,38.47-10.76,55.72-14.62,29.85-41.64,50.83-74.14,57.56h0c-7.13,1.48-14.38,2.21-21.63,2.21-11.08,0-22.15-1.71-32.77-5.12Zm53.29-2.45c30.83-6.38,56.46-26.29,70.33-54.61,7.99-16.3,11.53-34.5,10.24-52.63-3.67-12.68-10.61-25.17-20.64-37.13-18.11-21.6-46.39-35.41-75.65-36.95-26.15-1.38-50.1,7.08-67.43,23.81-18.98,18.33-29.11,41.23-29.3,66.22-.2,26.64,11.3,53.52,31.57,73.78,4.37,3.15,9.05,6,13.88,8.45,1.82,.91,3.45,1.68,5,2.36,3.35,1.48,6.84,2.81,10.37,3.94,16.68,5.34,34.53,6.3,51.62,2.76h0Z"/>
      <path class="cls-7" d="M331.66,329.76l-.35-.09c-38.2-10.3-67.67-38.99-76.92-74.87-8.12-31.5,.91-62.78,24.76-85.81,16.46-15.89,39.14-23.93,63.85-22.62,27.44,1.45,53.97,14.42,70.99,34.72,29.32,34.97,29.92,73.65,1.78,114.96l-.26,.33c-.73,.78-18.16,19.23-35.97,25.05-17.38,5.67-34.93,8.21-35.67,8.31l-.19,.03h-12.02Zm.36-2.74h0Zm77.79-142.42c-16.06-19.15-41.13-31.4-67.08-32.77-23.18-1.22-44.41,6.27-59.76,21.09-22.4,21.62-30.88,50.96-23.26,80.5,8.73,33.87,36.56,60.99,72.69,70.85h10.9c1.94-.28,18.59-2.85,34.56-8.06,15.67-5.11,31.86-21.69,33.53-23.44,26.46-38.97,25.93-75.37-1.58-108.18Z"/>
      <path class="cls-3" d="M254.07,131.91c-16.55,12.46-22.99,32.85-14.39,45.53,8.6,12.68,28.99,12.86,45.53,.4,.11-.08,.21-.16,.31-.24,16.32-12.48,22.62-32.69,14.08-45.29-6.64-9.8-20.32-12.13-33.83-6.94-3.98,1.53-7.94,3.71-11.71,6.55Z"/>
      <g class="cls-5">
        <path class="cls-7" d="M254.07,131.91c-16.55,12.46-22.99,32.85-14.39,45.53,8.6,12.68,28.99,12.86,45.53,.4,.11-.08,.21-.16,.31-.24-2.64-.12-5.79-1.03-7.22-4.39-2.5-5.9,1.87-23.15,1.87-23.15,0,0-6.18-10.75-14.4-24.69-3.98,1.53-7.94,3.71-11.71,6.55Z"/>
      </g>
      <path class="cls-7" d="M254.34,189.37c-7.28-1.21-13.14-4.8-16.93-10.39-9.39-13.85-2.66-35.95,15.01-49.25,10.2-7.68,22.05-11.09,32.52-9.35,7.28,1.21,13.13,4.8,16.92,10.39,9.39,13.85,2.66,35.95-15.01,49.25-8.45,6.36-18.03,9.79-27.03,9.79-1.86,0-3.7-.15-5.49-.45Zm1.38-55.28c-15.37,11.58-21.55,30.34-13.77,41.81,2.93,4.32,7.53,7.11,13.29,8.07,8.87,1.47,19.46-1.64,28.33-8.32,15.38-11.58,21.55-30.34,13.77-41.81-2.93-4.32-7.53-7.11-13.29-8.07-1.45-.24-2.95-.36-4.48-.36-7.81,0-16.43,3.09-23.85,8.68Z"/>
      <g>
        <ellipse class="cls-3" cx="261.8" cy="149.61" rx="29.82" ry="22.54" transform="translate(-32.31 216.1) rotate(-42.49)"/>
        <path class="cls-7" d="M245,173.94c-4.85-2.34-8.14-6.38-9.54-11.67-1.87-7.12,.02-15.48,5.18-22.94h0c9.27-13.39,26.29-19.69,37.95-14.05,4.85,2.34,8.14,6.38,9.54,11.67,1.87,7.12-.02,15.48-5.18,22.94-6.97,10.06-18.31,16.12-28.46,16.12-3.36,0-6.59-.66-9.49-2.07Zm-3.88-34.29h0c-5.07,7.32-6.93,15.51-5.1,22.47,1.35,5.12,4.54,9.03,9.23,11.3,2.83,1.37,5.97,2.01,9.25,2.01,9.96,0,21.11-5.97,27.97-15.88,5.07-7.32,6.93-15.51,5.1-22.47-1.35-5.12-4.54-9.03-9.23-11.3-2.83-1.37-5.98-2.01-9.25-2.01-9.96,0-21.11,5.97-27.97,15.88Z"/>
      </g>
      <g class="cls-5">
        <path class="cls-7" d="M264.46,174.27c5.21-2.18,9.83-5.81,13.43-10.2-12.31,3.95-23.04-2.08-24.54-14.26-.97-7.87,2.15-16.49,7.73-23.29-.78,.24-1.57,.54-2.36,.87-13.27,5.55-22.74,20.54-21.15,33.49,1.59,12.95,13.63,18.94,26.89,13.39Z"/>
      </g>
      <path class="cls-7" d="M248.35,176.86c-5.48-.92-9.85-3.62-12.64-7.8-7.2-10.79-1.21-28.57,13.35-39.63h0c8.63-6.55,18.82-9.62,27.28-8.2,5.48,.92,9.85,3.62,12.64,7.8,7.2,10.79,1.21,28.57-13.35,39.63-7.24,5.5-15.58,8.54-23.07,8.54-1.44,0-2.85-.11-4.21-.34Zm4.03-43.07c-12.3,9.34-17.73,23.8-12.11,32.23,1.93,2.89,5.04,4.77,8.99,5.44,6.99,1.18,15.61-1.5,23.06-7.16,12.3-9.34,17.73-23.8,12.11-32.23-1.93-2.89-5.04-4.77-8.99-5.44-1.09-.18-2.21-.27-3.37-.27-6.27,0-13.4,2.65-19.69,7.43Z"/>
      <g class="cls-4">
        <path class="cls-3" d="M380.6,175.67s28.28,38.4,24.48,75.92c0,.04,0,.08-.01,.12-.81,7.9-3.72,15.4-8.39,21.76-6.17,8.4-11.65,13.26-16.64,17.36-15.19,12.44-24.65,15.37-24.65,15.37,15.16,2.22,28.29-.28,41.04-10.51,1.25-1.01,2.51-2.1,3.76-3.26,.29-.27,.57-.54,.85-.81,0,0,.01,0,.01-.02,2.37-2.53,5.37-5.98,8.41-10.16,9.2-12.6,18.96-31.81,13.94-52.5-9.38-38.68-42.26-55.83-42.82-53.26Z"/>
      </g>
      <g class="cls-4">
        <ellipse class="cls-3" cx="320.14" cy="182.48" rx="16.36" ry="14.24" transform="translate(-46.3 143.61) rotate(-23.63)"/>
      </g>
      <g class="cls-4">
        <ellipse class="cls-3" cx="293.01" cy="194.62" rx="6.76" ry="5.88" transform="translate(-46.29 101.83) rotate(-18.3)"/>
      </g>
    </g>
    <path class="cls-10" d="M404.03,315.17s-37.43-18.82-72.65-11.63c-30.51,6.22-46.37,23.04-46.37,23.04,0,0,18.95,29.32,59.51,31.69,40.56,2.37,59.51-43.1,59.51-43.1Z"/>
    <g class="cls-2">
      <path class="cls-3" d="M285.01,326.58s1.14,1.76,3.45,4.45c6.18-5.16,20.65-15.36,42.92-19.9,26.61-5.43,57.72,2.6,71.34,6.85,.88-1.76,1.32-2.81,1.32-2.81,0,0-37.43-18.82-72.65-11.64-30.5,6.22-46.37,23.04-46.37,23.04Z"/>
    </g>
    <path class="cls-7" d="M285.01,329.31c.73,0,1.45-.29,1.99-.86,.15-.16,15.72-16.28,44.93-22.24,33.9-6.91,70.51,11.21,70.88,11.4,1.35,.68,3,.13,3.67-1.22,.68-1.35,.13-2.99-1.22-3.67-1.56-.79-38.69-19.16-74.43-11.87-31,6.32-47.14,23.14-47.81,23.85-1.04,1.1-.99,2.83,.11,3.87,.53,.5,1.2,.75,1.88,.75Z"/>
    <path class="cls-3" d="M215.71,307.21l-67.85,10.64s2.27,30.69,7.53,31.88c4.9,1.1,55.33-7.16,59.28-10.6,5.43-4.73,1.04-31.92,1.04-31.92Z"/>
    <path class="cls-3" d="M227.71,316.69l-79.85,12.29s1.29,27.7,7.29,29.63c21.48,6.93,64.34-5.19,68.7-9.36,12.04-11.51,3.86-32.56,3.86-32.56Z"/>
    <g class="cls-5">
      <path class="cls-7" d="M227.71,316.69l-79.85,12.29s1.29,27.7,7.29,29.63c21.48,6.93,64.34-5.19,68.7-9.36,12.04-11.51,3.86-32.56,3.86-32.56Z"/>
    </g>
    <path class="cls-7" d="M154.3,361.23c-2.5-.81-5.63-3.55-7.76-17.74-1.08-7.22-1.41-14.08-1.42-14.37-.07-1.4,.93-2.62,2.32-2.83l79.85-12.29c1.27-.19,2.5,.52,2.97,1.71,.36,.93,8.69,22.9-4.52,35.53-4.15,3.97-32.15,12.16-54.61,12.16-6.25,0-12.07-.63-16.83-2.17Zm-3.58-29.91c.8,12.31,3.16,23.55,5.26,24.7,11.79,3.8,29.72,1.26,39.36-.59,14.81-2.85,25.2-6.82,26.61-8.15,8.5-8.13,5.43-22.25,3.88-27.53l-75.11,11.56Z"/>
    <path class="cls-3" d="M218.23,307.47l-67.85,10.64s2.27,30.69,7.53,31.88c4.9,1.1,55.33-7.16,59.28-10.6,5.43-4.73,1.04-31.92,1.04-31.92Z"/>
    <path class="cls-7" d="M157.4,352.3c-2.52-.57-5.19-3.18-7.56-18.33-1.23-7.83-1.79-15.37-1.82-15.69-.09-1.23,.78-2.32,1.99-2.51l67.85-10.64c1.29-.2,2.5,.68,2.7,1.96,1.08,6.68,4.13,28.89-1.82,34.08-4.37,3.8-48.8,11.25-59.53,11.25-.81,0-1.42-.04-1.82-.13Zm1.24-4.54h0Zm-5.72-27.65c1.17,13.66,3.66,25.93,5.65,27.59,5.22,.74,52.86-7.05,57.07-10.1,2.57-2.24,2.31-15.51,.61-27.42l-63.33,9.93Z"/>
    <path class="cls-3" d="M157.86,272.68c1.01,27.46,6.37,51.85,17.03,53.9,14.41,2.77,20.17-12.65,20.17-12.65,0,0-7.17-23.52-5.42-62.29,.69-15.51,2.82-33.46,7.39-53.33,0,0-10.15-15.36-24.87-5.23-10.18,7.01-15.56,45.66-14.3,79.61Z"/>
    <g class="cls-5">
      <path class="cls-7" d="M157.86,272.68c1.01,27.46,6.37,51.85,17.03,53.9,14.41,2.77,20.17-12.65,20.17-12.65,0,0-7.17-23.52-5.42-62.29-5.82,7.35-2.91,42.13-9.34,41.16-5.51-.82-6.91-33.53-9.18-30.86-2.23,2.62,1.44,32.01-5.14,33.46-2.81,.62-5.94-10.57-8.11-22.72Z"/>
    </g>
    <path class="cls-7" d="M174.37,329.27c-7.22-1.39-12.56-10.15-15.89-26.04-3.62-17.31-4.55-42.45-2.41-65.61,1.35-14.68,5.04-40.27,14.53-46.8,4.89-3.37,9.89-4.58,14.84-3.62,8.53,1.66,13.64,9.28,13.86,9.6l.65,.98-.26,1.14c-15.64,67.88-2.16,113.73-2.02,114.21l.27,.88-.32,.87c-2.04,5.46-8.52,14.76-19.38,14.76-1.23,0-2.52-.12-3.86-.38Zm19.7-130.33c-1.4-1.72-4.92-5.45-9.67-6.37-3.46-.67-7.06,.25-10.7,2.76-5.42,3.73-10.09,20.13-12.18,42.79-2.09,22.65-1.2,47.17,2.32,63.98,2.71,12.95,6.93,20.9,11.57,21.79,10.35,1.99,15.45-7.3,16.75-10.14-1.97-7.14-12.59-50.73,1.91-114.81Zm.98,114.99h0s0,0,0,0Z"/>
    <path class="cls-3" d="M63.23,374.51c11.11,.48,23.84-5.87,29.97-9.38,1.41-.8,2.47-1.46,3.08-1.85,24.17,17.93,55.09,13.98,67.94-12.9,11.67-24.41,3.99-51.04-2.93-66.85-3.79-8.67-7.35-14.09-7.35-14.09l-38.7,43.14s-12.39-12.6-31.63-9.68c-14.91,2.24-39.02,26.54-42.33,36.5-6.12,18.38,8.67,34.55,21.94,35.1Z"/>
    <path class="cls-7" d="M115.89,311.95c-4.61-6.22-11.77-10.14-19.43-11.69-.96-.17-1.92-.37-2.9-.47l-2.93-.25c-1.96,.01-3.92-.02-5.86,.28l-1.45,.17c-.5,.07-1.03,.19-1.54,.29-1.01,.24-1.99,.53-2.93,.88-1.88,.69-3.66,1.5-5.35,2.42-3.39,1.82-6.52,3.93-9.49,6.2-2.99,2.25-5.83,4.66-8.55,7.2-2.72,2.53-5.32,5.2-7.79,8.01-2.45,2.82-4.8,5.75-6.83,9.09-.5,.84-.99,1.71-1.43,2.66-.23,.46-.43,.96-.62,1.48-.21,.52-.3,.97-.46,1.45-.55,1.91-.96,3.88-1.11,5.88-.34,3.99,.15,8.08,1.47,11.85,2.62,7.57,8.17,13.98,15.45,17.51,1.82,.87,3.77,1.55,5.8,1.95,.5,.11,1.03,.17,1.54,.25,.52,.06,1.04,.09,1.57,.13,1,0,1.99,0,2.98-.01,3.94-.2,7.72-1.02,11.35-2.13,3.63-1.11,7.12-2.53,10.5-4.13,3.39-1.6,6.65-3.38,9.85-5.38l-3.09-.11c5.76,4.26,12.26,7.61,19.24,9.57,6.96,1.96,14.41,2.52,21.63,1.17,7.21-1.32,14.11-4.57,19.68-9.38,5.57-4.8,9.8-11.03,12.53-17.67l.54-1.23c.17-.42,.31-.84,.47-1.26l.92-2.53,.76-2.58,.38-1.29,.3-1.31c.88-3.48,1.34-7.04,1.65-10.6,.29-3.56,.25-7.13,.06-10.68-.22-3.55-.69-7.06-1.31-10.54-.62-3.48-1.49-6.9-2.45-10.29-.97-3.38-1.99-6.76-3.24-10.05-1.24-3.29-2.76-6.48-4.52-9.52-1.81-3.02-3.86-5.9-6.6-8.35-.39-.35-.98-.31-1.33,.07-.22,.25-.29,.58-.21,.88v.05c1.94,6.71,4.72,12.76,7.2,19,1.27,3.1,2.47,6.24,3.42,9.45,.94,3.21,1.74,6.46,2.34,9.74,.58,3.28,1.03,6.58,1.23,9.9,.17,3.31,.22,6.63-.05,9.92-.29,3.28-.71,6.56-1.52,9.74l-.27,1.2-.34,1.18-.7,2.36-.84,2.31c-.14,.38-.27,.77-.43,1.15l-.49,1.13c-2.49,6.05-6.23,11.48-11.07,15.67-4.85,4.18-10.8,6.98-17.1,8.14-6.31,1.19-12.92,.7-19.16-1.05-6.26-1.76-12.18-4.8-17.46-8.7l-1.5-1.11-1.59,1c-2.96,1.86-6.09,3.56-9.26,5.06-3.18,1.51-6.44,2.83-9.76,3.84-3.31,1.01-6.69,1.73-10.01,1.9h-2.47c-.38-.03-.76-.04-1.15-.09-.38-.07-.77-.1-1.15-.19-1.53-.3-3.04-.83-4.49-1.52-5.82-2.8-10.53-8.19-12.63-14.36-1.08-3.08-1.47-6.37-1.2-9.61,.12-1.62,.46-3.23,.91-4.81,.12-.38,.23-.83,.36-1.14,.12-.33,.25-.67,.43-1.03,.32-.7,.72-1.42,1.15-2.14,1.74-2.87,3.94-5.65,6.25-8.3,2.33-2.65,4.8-5.19,7.4-7.61,5.17-4.82,10.82-9.26,16.92-12.42,1.52-.78,3.08-1.43,4.62-1.95,.77-.27,1.54-.46,2.3-.62,.38-.06,.74-.15,1.14-.2l1.25-.12c3.33-.38,6.7-.32,10.01,.22,6.62,1.06,13.05,3.73,19.14,7.34l.1,.06c.44,.26,1,.11,1.26-.32,.19-.33,.16-.73-.05-1.01Z"/>
    <g class="cls-5">
      <path class="cls-7" d="M96.28,363.28c-.14-.11-2.7,0-2.84-.1l-.13,.3s-14.8,11.69-30.09,11.04c-13.26-.57-28.04-16.73-21.93-35.11,.49-1.49,1.45-3.3,2.78-5.31-.9,7.62,1.8,23.78,18.09,25.69,19.59,2.3,16.37-22.3,16.37-22.3,1.55,7.66,8.63,17.56,17.76,25.8Z"/>
    </g>
    <g class="cls-5">
      <path class="cls-7" d="M78.53,338.71l14.67,26.42c1.41-.8,2.47-1.46,3.08-1.85,24.17,17.93,55.09,13.98,67.94-12.9,11.67-24.41,3.99-51.04-2.93-66.85,1.61,14.89,3.49,54.02-18.77,68.1-29.94,18.93-63.99-12.92-63.99-12.92Z"/>
    </g>
    <path class="cls-7" d="M97.72,361.4l-2.66-2.61-1.35-1.34c-.45-.45-.88-.91-1.34-1.35-1.77-1.83-3.52-3.68-5.16-5.64-1.66-1.95-3.16-4.03-4.57-6.19-1.45-2.15-2.6-4.48-3.78-6.87v-.02c-.09-.17-.3-.24-.47-.15-.13,.07-.2,.21-.19,.35,.33,2.68,.92,5.38,1.91,7.95,.97,2.57,2.16,5.08,3.62,7.42,1.44,2.35,3.04,4.62,4.88,6.67,.92,1.02,1.88,2.02,2.91,2.94,1.03,.94,2.07,1.79,3.32,2.62,1.09,.72,2.56,.42,3.29-.67,.64-.96,.48-2.22-.32-3l-.09-.09Z"/>
    <path class="cls-7" d="M145.47,356.34c13.89,0,22.09-8.66,22.52-9.12,.89-.96,.83-2.46-.13-3.35-.96-.88-2.45-.83-3.34,.13h0c-.46,.49-11.48,11.97-29.63,5.75-16.8-5.75-25.03-33.83-24.83-42.49,.03-1.31-1.01-2.39-2.31-2.42-1.32-.03-2.39,1.01-2.42,2.31-.25,10.79,9.27,40.66,28.03,47.08,4.41,1.51,8.46,2.11,12.12,2.11Z"/>
    <g class="cls-5">
      <path class="cls-7" d="M236.24,347.46c2.4,7.95,21.49,11.18,21.49,11.18,0,0,7.25,7.12,24.29,13.79,.09,.04,.19,.07,.28,.1,13.93,5.45,72.7,27.25,134.55-5.22,15.45-8.11,26.69-26.09,26.69-26.09,0,0,19.53-2.6,19.53-13.67,0-1.72-.28-3.2-.8-4.48-4.72,17.55-28.61,6-28.61,6,0,0-11.29,20.96-23.64,29.28-28.2,19.03-72.58,16-101.52,10.63-2.93-.54-2.99-4.75-.07-5.35,.04,0,.08-.02,.12-.02,39.44-8.05,44.82-48.94,20.84-57.27-31.2-10.83-46.21,5.34-55.14,7.36-10.42,2.36-12.71-5.79-11.95-11.25l-1.93,.33-5.44,25.64s-12.68,4.18-17.36,11.27c-.33,.51-.62,1.02-.87,1.55-.05,.11-.1,.22-.14,.32-.13,.33-.25,.65-.35,.98-.01,.04-.03,.07-.03,.1-.04,.12-.07,.25-.1,.36-.02,.07-.04,.14-.04,.21-.02,.11-.04,.22-.07,.33-.02,.12-.04,.23-.05,.35,0,.08-.02,.17-.03,.26-.1,1.06,0,2.15,.34,3.3Z"/>
    </g>
    <g class="cls-5">
      <path class="cls-7" d="M237.58,339.69c-.33,.5-.63,1.02-.87,1.55,.25-.53,.54-1.04,.87-1.55Z"/>
    </g>
    <path class="cls-3" d="M255.63,292.79c-.77,5.47,1.53,13.61,11.94,11.25,8.93-2.02,23.94-18.19,55.14-7.36,23.99,8.33,18.61,49.22-20.83,57.27-33.15,6.77-54.89,33.29-86.03,3.35-19.15-18.41-7.28-56.52-7.28-56.52"/>
    <g class="cls-5">
      <path class="cls-7" d="M215.84,357.3c31.14,29.94,52.89,3.42,86.04-3.35,32.07-6.55,41.62-34.82,31.16-49.62,.94,14.64-7.3,32.17-27.89,35.14-41.6,6.01-58.16,26.9-89.31-3.04-6.01-5.78-8.97-13.51-10.19-21.39-1.62,12.76-1.4,31.12,10.19,42.26Z"/>
    </g>
    <path class="cls-7" d="M254.72,292.67c-.61,1.67-.84,3.49-.66,5.36,.17,1.86,.81,3.83,2.14,5.52,.66,.85,1.51,1.57,2.44,2.15,.94,.55,1.96,.97,2.99,1.19,.52,.16,1.02,.18,1.53,.25l.76,.07c.25,.02,.49,0,.74,0,.49-.02,.98-.02,1.47-.06l1.4-.2,.7-.11,.71-.19,1.42-.42c.82-.34,1.7-.67,2.47-1.03,1.56-.73,3.02-1.49,4.46-2.23,2.85-1.51,5.63-2.9,8.52-4.03,2.86-1.19,5.85-1.93,8.85-2.54,3.03-.46,6.1-.75,9.18-.6,6.15,.18,12.33,1.56,18.22,3.58,2.71,.97,5.14,2.52,7.09,4.55,1.94,2.03,3.42,4.51,4.24,7.26,1.7,5.5,1.09,11.73-1.2,17.22-2.28,5.54-6.21,10.37-10.99,14.12-2.41,1.86-5.05,3.43-7.81,4.77-2.76,1.35-5.7,2.32-8.68,3.19l-2.27,.53-1.14,.27-1.23,.28c-1.65,.34-3.26,.78-4.88,1.21-3.22,.91-6.38,1.97-9.48,3.12-6.21,2.3-12.18,4.98-18.14,7.35-5.96,2.35-11.96,4.41-18.02,5.06-3.02,.33-6.05,.29-9-.18-2.96-.45-5.83-1.39-8.58-2.67-2.74-1.29-5.4-2.84-7.86-4.73-.31-.23-.63-.45-.94-.69l-.9-.74-1.8-1.48-1.74-1.59-.87-.79c-.28-.27-.52-.53-.78-.8-4.13-4.24-6.74-9.87-8.07-15.85-.68-2.99-1.07-6.08-1.22-9.2-.17-3.12,.02-6.26,.3-9.39l.93-9.43c.29-3.16,.53-6.37,.44-9.7v-.04c-.02-.52-.45-.94-.98-.92-.32,0-.6,.18-.77,.43-1.93,2.92-3.07,6.08-3.93,9.31-.8,3.25-1.32,6.57-1.52,9.93-.18,3.36-.12,6.73,.05,10.11,.18,3.38,.6,6.77,1.36,10.12,.76,3.35,1.86,6.66,3.42,9.8,1.55,3.14,3.58,6.09,6.06,8.64,.31,.31,.61,.65,.92,.95l.93,.85,1.87,1.7,1.96,1.62,.98,.8c.33,.26,.69,.5,1.03,.76,2.7,2.07,5.69,3.83,8.83,5.3,3.15,1.46,6.52,2.56,10,3.1,3.47,.56,7.01,.6,10.45,.22,6.91-.76,13.33-3.01,19.45-5.41,6.13-2.44,12.04-5.08,18.03-7.3,3-1.11,6.01-2.11,9.05-2.98,1.53-.4,3.05-.82,4.59-1.14l2.39-.55,2.48-.59c3.27-.94,6.53-2.03,9.62-3.53,3.09-1.5,6.06-3.27,8.81-5.39,5.44-4.27,10-9.84,12.69-16.36,2.68-6.47,3.51-13.95,1.37-20.94-1.04-3.48-2.96-6.76-5.52-9.42-2.55-2.67-5.77-4.68-9.18-5.91-6.4-2.19-13.06-3.69-19.92-3.9-3.42-.16-6.86,.16-10.26,.67-3.38,.62-6.74,1.44-9.93,2.66-3.2,1.16-6.31,2.57-9.22,4.08-1.45,.75-2.88,1.49-4.25,2.17-.69,.35-1.33,.6-2,.91l-.91,.3-.45,.16-.5,.1-1,.22-.97,.09c-.16,.01-.33,.05-.48,.04l-.45-.02c-.3-.01-.62,.02-.89-.05-1.15-.13-2.12-.52-2.98-1.25-.87-.72-1.58-1.83-2.11-3.13-.52-1.31-.84-2.79-1.02-4.34v-.04c-.06-.51-.53-.88-1.04-.82-.36,.04-.65,.29-.77,.61Z"/>
    <path class="cls-7" d="M249.71,373.77c.62,0,1.24-.21,1.75-.63,1.16-.97,1.32-2.69,.35-3.85-22.19-26.66,14.93-62.54,15.31-62.89,1.09-1.04,1.14-2.77,.1-3.87-1.04-1.1-2.77-1.14-3.87-.1-.42,.4-10.32,9.87-17.34,23.15-9.58,18.12-9.03,34.44,1.6,47.21,.54,.65,1.32,.99,2.1,.99Z"/>
  </g>
  <g>
    <path class="cls-3" d="M448.6,130.62c.13,0,.26-.01,.39-.04l10.99-2.14c.8-.16,1.43-.78,1.59-1.57,.16-.8-.17-1.62-.84-2.08l-9.15-6.24,6.24-1.21c1.09-.21,1.81-1.27,1.6-2.37-.21-1.1-1.27-1.8-2.37-1.6l-10.99,2.14c-.8,.16-1.43,.78-1.59,1.57-.16,.8,.17,1.62,.84,2.08l9.15,6.24-6.24,1.21c-1.09,.21-1.81,1.27-1.6,2.37,.19,.97,1.03,1.63,1.98,1.63Z"/>
    <path class="cls-3" d="M467.45,105.8c.13,0,.26-.01,.39-.04l18.35-3.57c.8-.16,1.43-.78,1.59-1.57,.16-.8-.17-1.62-.84-2.08l-17.96-12.25,13.6-2.65c1.09-.21,1.81-1.27,1.6-2.37-.21-1.1-1.27-1.8-2.37-1.6l-18.35,3.57c-.8,.16-1.43,.78-1.59,1.57-.16,.8,.17,1.62,.84,2.08l17.96,12.25-13.6,2.65c-1.09,.21-1.81,1.27-1.6,2.37,.19,.97,1.03,1.63,1.98,1.63Z"/>
    <path class="cls-3" d="M423.87,89.27c.14,0,.27-.01,.41-.04l25.77-5.01c.85-.17,1.52-.83,1.7-1.68,.18-.85-.18-1.73-.9-2.22l-26.57-18.12,20.7-4.03c1.17-.23,1.93-1.36,1.7-2.53-.23-1.17-1.36-1.93-2.53-1.71l-25.77,5.01c-.85,.17-1.52,.83-1.7,1.68-.18,.85,.18,1.73,.9,2.22l26.57,18.12-20.7,4.03c-1.17,.23-1.93,1.36-1.7,2.53,.2,1.03,1.1,1.74,2.11,1.75Z"/>
  </g>
</svg>